<svg width="101" height="101" viewBox="0 0 101 101" fill="none" xmlns="http://www.w3.org/2000/svg">
<g clip-path="url(#clip0_2422_79540)">
<rect x="0.664062" y="0.893555" width="100" height="100" rx="50" fill="#E1F56F"/>
<path d="M85.951 101.228L31.1446 110.715C28.8743 111.108 26.6953 109.572 26.3024 107.302L12.7302 28.8992C12.3372 26.6289 13.873 24.4499 16.1433 24.0569L70.9497 14.5695C73.22 14.1765 75.3993 15.7123 75.7923 17.9826L89.3645 96.3853C89.7574 98.6552 88.2213 100.835 85.951 101.228Z" fill="#A0C41B"/>
<path d="M82.0634 97.5986L33.5233 106.001C31.4822 106.355 29.5232 104.974 29.1698 102.933L16.7909 31.423C16.4375 29.3819 17.8184 27.4228 19.8595 27.0695L68.3995 18.6668C70.4407 18.3134 72.3997 19.6943 72.7531 21.7354L85.132 93.2451C85.4854 95.2863 84.1045 97.2453 82.0634 97.5986Z" fill="#FAF9FC"/>
<path d="M31.2132 45.6612L26.7513 46.4336C25.6995 46.6156 24.69 45.9041 24.508 44.8523L23.4873 38.9562C23.3052 37.9045 24.0168 36.895 25.0685 36.7129L29.5304 35.9405C30.5822 35.7585 31.5917 36.47 31.7737 37.5218L32.7944 43.4179C32.9765 44.4699 32.2649 45.4791 31.2132 45.6612Z" fill="#A0C41B"/>
<path d="M28.1318 43.2054C27.9641 43.2344 27.7855 43.2024 27.6316 43.1021L22.4905 39.7494C22.1676 39.5386 22.0763 39.1063 22.287 38.7831C22.4975 38.4602 22.9299 38.3689 23.2534 38.5796L27.8117 41.5521L33.2415 33.2921C33.4531 32.97 33.8861 32.8805 34.2085 33.0921C34.5306 33.304 34.6204 33.7369 34.4085 34.059L28.5967 42.9005C28.4863 43.0688 28.3156 43.1736 28.1318 43.2054Z" fill="#4B6D74"/>
<path d="M69.6437 31.1445L38.9054 36.4656C38.5261 36.5313 38.1617 36.2744 38.096 35.8951C38.0303 35.5157 38.2872 35.1513 38.6666 35.0856L69.4048 29.7646C69.7844 29.6989 70.1486 29.9558 70.2142 30.3351C70.2802 30.7144 70.0233 31.0788 69.6437 31.1445Z" fill="#A0C41B"/>
<path d="M70.253 34.6582L39.5148 39.9793C39.1355 40.045 38.771 39.7881 38.7054 39.4087C38.6397 39.0294 38.8966 38.665 39.2759 38.5993L70.0142 33.2782C70.3938 33.2125 70.7579 33.4695 70.8236 33.8488C70.8896 34.2281 70.6327 34.5925 70.253 34.6582Z" fill="#A0C41B"/>
<path d="M56.6177 40.2477L40.0539 43.115C39.6746 43.1807 39.3101 42.9238 39.2444 42.5445C39.1787 42.1648 39.4357 41.8007 39.815 41.735L56.3788 38.8677C56.7581 38.802 57.1225 39.0586 57.1882 39.4382C57.254 39.8179 56.997 40.182 56.6177 40.2477Z" fill="#A0C41B"/>
<path d="M34.0725 62.1788L29.6106 62.9512C28.5589 63.1332 27.5494 62.4217 27.3673 61.3699L26.3467 55.4738C26.1646 54.4221 26.8762 53.4126 27.9279 53.2305L32.3898 52.4581C33.4416 52.276 34.451 52.9876 34.6331 54.0393L35.6538 59.9355C35.8359 60.9872 35.1243 61.9967 34.0725 62.1788Z" fill="#A0C41B"/>
<path d="M30.9912 59.7221C30.8235 59.7511 30.6449 59.7191 30.491 59.6192L25.3499 56.2661C25.027 56.0553 24.9357 55.623 25.1464 55.2998C25.3569 54.9766 25.7893 54.8856 26.1128 55.0963L30.6712 58.0691L36.1009 49.8088C36.3125 49.4864 36.7455 49.3972 37.0679 49.6088C37.39 49.8207 37.4797 50.2533 37.2679 50.5757L31.456 59.4169C31.3457 59.5858 31.1749 59.6903 30.9912 59.7221Z" fill="#4B6D74"/>
<path d="M72.5031 47.6624L41.7649 52.9835C41.3855 53.0492 41.0211 52.7923 40.9554 52.4126C40.8897 52.0333 41.1466 51.6689 41.5259 51.6032L72.2642 46.2822C72.6438 46.2164 73.0079 46.4731 73.0736 46.8527C73.1397 47.2326 72.8827 47.5967 72.5031 47.6624Z" fill="#A0C41B"/>
<path d="M73.1124 51.1758L42.3742 56.4969C41.9949 56.5625 41.6305 56.306 41.5648 55.9263C41.4991 55.547 41.756 55.1825 42.1353 55.1169L72.8735 49.7958C73.2532 49.7301 73.6173 49.987 73.683 50.3664C73.749 50.7459 73.4921 51.1101 73.1124 51.1758Z" fill="#A0C41B"/>
<path d="M59.4771 56.7662L42.9132 59.6336C42.5339 59.6992 42.1695 59.4424 42.1038 59.063C42.0381 58.6834 42.295 58.3193 42.6744 58.2536L59.2382 55.3863C59.6175 55.3206 59.9819 55.5772 60.0476 55.9568C60.1132 56.3358 59.8564 56.7006 59.4771 56.7662Z" fill="#A0C41B"/>
<path d="M36.9242 78.6459L32.4623 79.4183C31.4105 79.6003 30.401 78.8888 30.2189 77.837L29.1982 71.9406C29.0162 70.8892 29.7277 69.8794 30.7795 69.6973L35.2414 68.9249C36.2931 68.7428 37.3026 69.4544 37.4847 70.5061L38.5054 76.4026C38.6875 77.4543 37.9759 78.4638 36.9242 78.6459Z" fill="#A0C41B"/>
<path d="M33.8429 76.1892C33.6751 76.2182 33.4965 76.1862 33.3426 76.0862L28.2015 72.7332C27.8786 72.5224 27.7872 72.0897 27.998 71.7668C28.2085 71.4437 28.6409 71.3527 28.9644 71.5634L33.5229 74.5365L38.9526 66.2762C39.164 65.9532 39.597 65.8637 39.9195 66.0762C40.2416 66.2878 40.3314 66.7207 40.1195 67.0428L34.3077 75.8846C34.1973 76.0526 34.0266 76.1574 33.8429 76.1892Z" fill="#4B6D74"/>
<path d="M75.3546 64.1289L44.6164 69.45C44.2371 69.5156 43.8727 69.2591 43.8069 68.8794C43.7412 68.4998 43.9982 68.1357 44.3775 68.07L75.1157 62.7489C75.4954 62.6832 75.8594 62.9399 75.9252 63.3195C75.9912 63.6991 75.7342 64.0632 75.3546 64.1289Z" fill="#A0C41B"/>
<path d="M75.9562 67.6426L45.2179 72.9637C44.8386 73.0293 44.4742 72.7724 44.4085 72.3931C44.3428 72.0135 44.5997 71.6493 44.9791 71.5837L75.7173 66.2626C76.0969 66.1969 76.461 66.4535 76.5267 66.8332C76.5927 67.2124 76.3358 67.5769 75.9562 67.6426Z" fill="#A0C41B"/>
<path d="M62.3286 73.232L45.7648 76.0994C45.3855 76.1651 45.0211 75.9085 44.9554 75.5289C44.8897 75.1492 45.1466 74.7851 45.5259 74.7194L62.0897 71.8521C62.4691 71.7864 62.8335 72.043 62.8992 72.4226C62.9649 72.8023 62.708 73.1664 62.3286 73.232Z" fill="#A0C41B"/>
<path d="M40.0257 96.5609L35.5638 97.3333C34.5121 97.5154 33.5026 96.8041 33.3205 95.7521L32.2998 89.856C32.1178 88.8042 32.8293 87.7944 33.881 87.6123L38.3429 86.8399C39.3947 86.6579 40.4042 87.3694 40.5863 88.4215L41.607 94.3176C41.7891 95.3697 41.0775 96.3788 40.0257 96.5609Z" fill="#A0C41B"/>
<path d="M36.9445 94.1045C36.7768 94.1336 36.5981 94.1015 36.4443 94.0016L31.3031 90.6486C30.9802 90.4377 30.8888 90.0051 31.0996 89.6822C31.31 89.3587 31.7424 89.2677 32.066 89.4784L36.6244 92.4515L42.0541 84.1912C42.2655 83.8679 42.6986 83.779 43.0211 83.9912C43.3432 84.2028 43.433 84.6357 43.221 84.9578L37.4093 93.7997C37.299 93.9682 37.1282 94.0727 36.9445 94.1045Z" fill="#4B6D74"/>
<path d="M78.4562 82.044L47.7179 87.365C47.3386 87.4307 46.9742 87.1741 46.9085 86.7945C46.8428 86.4152 47.0997 86.0507 47.4791 85.985L78.2173 80.664C78.5969 80.5983 78.9611 80.8552 79.0267 81.2345C79.0927 81.6138 78.8358 81.9782 78.4562 82.044Z" fill="#A0C41B"/>
<path d="M79.0577 85.5576L48.3195 90.8787C47.9402 90.9444 47.5758 90.6878 47.5101 90.3082C47.4443 89.9285 47.7013 89.5644 48.0806 89.4987L78.8188 84.1777C79.1985 84.1119 79.5626 84.3686 79.6283 84.7482C79.6943 85.1275 79.4374 85.4919 79.0577 85.5576Z" fill="#A0C41B"/>
<path d="M65.4302 91.1481L48.8664 94.0154C48.4871 94.0811 48.1226 93.8242 48.0569 93.4449C47.9912 93.0652 48.2482 92.7011 48.6275 92.6354L65.1913 89.7681C65.5706 89.7024 65.935 89.959 66.0007 90.3386C66.0664 90.7177 65.8095 91.0824 65.4302 91.1481Z" fill="#A0C41B"/>
<path d="M58.9622 14.3013L53.9182 15.1745L53.568 13.1515C53.4198 12.2954 52.5978 11.7157 51.7413 11.864L30.2852 15.5782C29.4291 15.7264 28.8497 16.5483 28.998 17.4048L29.3482 19.4277L24.3041 20.3009C23.0511 20.5178 22.2034 21.7204 22.4204 22.9734L23.1809 27.3666C23.3978 28.6197 24.6003 29.4673 25.8533 29.2504L60.5115 23.2508C61.7645 23.0339 62.6121 21.8313 62.3952 20.5783L61.6347 16.185C61.4178 14.932 60.2152 14.0844 58.9622 14.3013ZM47.265 16.7866L36.1558 18.7097C35.6759 18.7928 35.2155 18.4682 35.1324 17.9883C35.0493 17.5083 35.3741 17.0475 35.8537 16.9645L46.9628 15.0414C47.4428 14.9583 47.9036 15.2831 47.9867 15.7631C48.07 16.2427 47.7452 16.7035 47.265 16.7866Z" fill="#A0C41B"/>
</g>
<defs>
<clipPath id="clip0_2422_79540">
<rect x="0.664062" y="0.893555" width="100" height="100" rx="50" fill="white"/>
</clipPath>
</defs>
</svg>
