<svg width="100" height="101" viewBox="0 0 100 101" fill="none" xmlns="http://www.w3.org/2000/svg">
<rect y="0.893555" width="100" height="100" rx="50" fill="#E1F56F"/>
<path d="M81.993 41.1084C81.6381 36.3206 41.0324 15.5747 33.4074 18.2345C29.5894 19.5661 15.6757 53.8755 18.3355 60.4362C19.3406 62.9145 25.4072 66.7598 32.835 70.5755C32.6071 73.8895 32.3884 79.2131 33.2305 80.296C34.1359 81.46 39.4735 78.0961 42.7092 75.2954C52.4007 79.6302 61.7882 83.0375 64.0838 82.9558C69.0484 82.7783 82.3474 45.8961 81.993 41.1084Z" fill="#A0C41B"/>
<path d="M41.5808 60.21C41.5808 60.21 30.5119 40.7105 37.9212 35.3729C45.3298 30.0353 51.2317 42.716 51.2317 42.716C51.2317 42.716 60.4505 35.8966 66.378 43.1348C72.3054 50.3735 53.3568 62.4493 41.5808 60.21Z" fill="white"/>
</svg>
