<svg width="20" height="21" viewBox="0 0 20 21" fill="none" xmlns="http://www.w3.org/2000/svg">
<g clip-path="url(#clip0_2329_72226)">
<path d="M7.5 10.3936C4.7425 10.3936 2.5 8.15105 2.5 5.39355C2.5 2.63605 4.7425 0.393555 7.5 0.393555C10.2575 0.393555 12.5 2.63605 12.5 5.39355C12.5 8.15105 10.2575 10.3936 7.5 10.3936ZM7.5 1.22689C5.2025 1.22689 3.33333 3.09605 3.33333 5.39355C3.33333 7.69105 5.2025 9.56022 7.5 9.56022C9.7975 9.56022 11.6667 7.69105 11.6667 5.39355C11.6667 3.09605 9.7975 1.22689 7.5 1.22689ZM0.833333 19.9769V19.5602C0.833333 16.0327 3.58917 13.1094 7.1075 12.9052C7.3375 12.8919 7.5125 12.6952 7.49917 12.4652C7.48583 12.2361 7.29 12.0469 7.05917 12.0736C3.10083 12.3027 0 15.5911 0 19.5602V19.9769C0 20.2069 0.186667 20.3936 0.416667 20.3936C0.646667 20.3936 0.833333 20.2069 0.833333 19.9769ZM14.5833 20.3936C11.5967 20.3936 9.16667 17.9636 9.16667 14.9769C9.16667 11.9902 11.5967 9.56022 14.5833 9.56022C17.57 9.56022 20 11.9902 20 14.9769C20 17.9636 17.57 20.3936 14.5833 20.3936ZM14.5833 10.3936C12.0558 10.3936 10 12.4502 10 14.9769C10 17.5036 12.0558 19.5602 14.5833 19.5602C17.1108 19.5602 19.1667 17.5036 19.1667 14.9769C19.1667 12.4502 17.1108 10.3936 14.5833 10.3936ZM15.1125 16.6136L17.365 14.4352C17.53 14.2752 17.535 14.0111 17.375 13.8461C17.2158 13.6811 16.9525 13.6769 16.7858 13.8361L14.5308 16.0177C14.2508 16.2936 13.7933 16.2952 13.5117 16.0211L12.3758 14.9002C12.2125 14.7386 11.9483 14.7402 11.7867 14.9036C11.625 15.0677 11.6267 15.3319 11.7908 15.4927L12.9275 16.6152C13.2292 16.9102 13.625 17.0577 14.0208 17.0577C14.4167 17.0577 14.8125 16.9094 15.1125 16.6136Z" fill="#1B1B1D"/>
</g>
<defs>
<clipPath id="clip0_2329_72226">
<rect width="20" height="20" fill="white" transform="translate(0 0.393555)"/>
</clipPath>
</defs>
</svg>
