<svg width="20" height="21" viewBox="0 0 20 21" fill="none" xmlns="http://www.w3.org/2000/svg">
<g clip-path="url(#clip0_2602_14322)">
<path d="M14.1649 12.8528V10.477C14.1649 9.79779 13.8341 9.19945 13.3299 8.81945C13.3299 8.81612 13.3316 8.81362 13.3316 8.81029V2.56195C13.3316 1.98029 13.0366 1.44945 12.5407 1.14362C12.0449 0.837788 11.4391 0.811121 10.9191 1.07112L8.27656 2.39279C7.2824 2.89029 6.66406 3.88945 6.66406 5.00112V8.81029C6.66406 8.81029 6.66573 8.81612 6.66573 8.81945C6.16156 9.20029 5.83073 9.79779 5.83073 10.477V12.8528C4.84906 13.3228 4.16406 14.3178 4.16406 15.477V17.977C4.16406 19.5853 5.4724 20.8936 7.08073 20.8936H12.9141C14.5224 20.8936 15.8307 19.5853 15.8307 17.977V15.477C15.8307 14.3178 15.1466 13.3228 14.1649 12.8528ZM7.49823 5.00112C7.49823 4.20695 7.93906 3.49279 8.6499 3.13862L11.2924 1.81695C11.5574 1.68612 11.8516 1.69779 12.1032 1.85362C12.3507 2.00612 12.4991 2.27112 12.4991 2.56279V8.43695C12.3641 8.40945 12.2249 8.39445 12.0824 8.39445H7.91573C7.77323 8.39445 7.63406 8.40945 7.49906 8.43695V5.00195L7.49823 5.00112ZM6.6649 10.477C6.6649 9.78779 7.22573 9.22695 7.9149 9.22695H12.0816C12.7707 9.22695 13.3316 9.78779 13.3316 10.477V12.6028C13.1941 12.5828 13.0574 12.5603 12.9149 12.5603H7.08156C6.93906 12.5603 6.8024 12.5828 6.6649 12.6028V10.477ZM14.9982 17.977C14.9982 19.1261 14.0632 20.0603 12.9149 20.0603H7.08156C5.93323 20.0603 4.99823 19.1261 4.99823 17.977V15.477C4.99823 14.3278 5.93323 13.3936 7.08156 13.3936H12.9149C14.0632 13.3936 14.9982 14.3278 14.9982 15.477V17.977Z" fill="#1B1B1D"/>
</g>
<defs>
<clipPath id="clip0_2602_14322">
<rect width="20" height="20" fill="white" transform="translate(0 0.893555)"/>
</clipPath>
</defs>
</svg>
