<svg width="20" height="21" viewBox="0 0 20 21" fill="none" xmlns="http://www.w3.org/2000/svg">
<path d="M18.9708 5.1562C18.3475 4.8962 17.635 5.03786 17.1475 5.5237L14.6108 8.17786L11.1783 3.88036C10.5292 3.23036 9.47167 3.2312 8.79083 3.91536L5.3875 8.17953L2.845 5.5487C2.37333 5.07953 1.64917 4.93203 1.02917 5.18786C0.403333 5.4462 0 6.05036 0 6.72786V15.0604C0 17.3579 1.87 19.227 4.16667 19.227H15.8333C18.1308 19.227 20 17.3579 20 15.0604V6.6962C20 6.01953 19.5958 5.41453 18.9708 5.1562ZM19.1667 15.0604C19.1667 16.8987 17.6717 18.3937 15.8333 18.3937H4.16667C2.32833 18.3937 0.833333 16.8987 0.833333 15.0604V6.72786C0.805833 6.01036 1.76167 5.6137 2.25083 6.1337L5.1175 9.10036C5.28 9.28786 5.59417 9.26203 5.7425 9.07036L9.41083 4.46953C9.73583 4.14453 10.2642 4.1462 10.5583 4.43453L14.2575 9.06953C14.4058 9.2637 14.7233 9.28536 14.8842 9.09786L17.7433 6.1062C18.2367 5.57786 19.1908 5.97453 19.1667 6.69536V15.0604Z" fill="#1B1B1D"/>
</svg>
