<svg width="101" height="101" viewBox="0 0 101 101" fill="none" xmlns="http://www.w3.org/2000/svg">
<rect x="0.328125" y="0.893555" width="100" height="100" rx="50" fill="#E1F56F"/>
<rect x="38" y="36" width="30" height="30" fill="white"/>
<path d="M81.9968 53.002H76.0312V58.8399H81.9968V53.002Z" fill="#A0C41B"/>
<path d="M23.9656 53.002H18V58.8399H23.9656V53.002Z" fill="#A0C41B"/>
<path d="M81.9968 62.6572H76.0312V68.4951H81.9968V62.6572Z" fill="#A0C41B"/>
<path d="M23.9656 62.6572H18V68.4951H23.9656V62.6572Z" fill="#A0C41B"/>
<path d="M76.0312 29.8783H81.9968V29.4208C81.9968 26.427 79.5698 24 76.5761 24H76.0312V29.8783Z" fill="#A0C41B"/>
<path d="M23.9656 43.3467H18V49.1846H23.9656V43.3467Z" fill="#A0C41B"/>
<path d="M23.9656 33.6953H18V39.5332H23.9656V33.6953Z" fill="#A0C41B"/>
<path d="M76.0312 72.3076V78.1859H76.5761C79.5698 78.1859 81.9968 75.7589 81.9968 72.7651V72.3076H76.0312Z" fill="#A0C41B"/>
<path d="M23.9656 29.8783V24H23.4208C20.427 24 18 26.427 18 29.4208V29.8783H23.9656Z" fill="#A0C41B"/>
<path d="M23.9656 72.3076H18V72.7651C18 75.7589 20.427 78.1859 23.4208 78.1859H23.9656V72.3076Z" fill="#A0C41B"/>
<path d="M27.7734 78.1886H72.2178V24H27.7734V78.1886ZM46.8869 43.5066L57.3461 49.5452C58.5383 50.2337 58.5383 51.9548 57.3461 52.643L46.8869 58.6817C45.6946 59.3702 44.2041 58.5094 44.2041 57.1328V45.0555C44.2041 43.6788 45.6946 42.8181 46.8869 43.5066Z" fill="#A0C41B"/>
<path d="M81.9968 33.6953H76.0312V39.5332H81.9968V33.6953Z" fill="#A0C41B"/>
<path d="M81.9968 43.3467H76.0312V49.1846H81.9968V43.3467Z" fill="#A0C41B"/>
</svg>
