<svg width="20" height="20" viewBox="0 0 20 20" fill="none" xmlns="http://www.w3.org/2000/svg">
<g clip-path="url(#clip0_2602_44756)">
<path d="M20 6.66634C20 7.88634 19.5808 9.21884 18.755 10.6272C18.6767 10.7597 18.5375 10.833 18.395 10.833C18.3225 10.833 18.25 10.8147 18.1842 10.7755C17.9858 10.6588 17.9192 10.4038 18.035 10.2055C18.785 8.92634 19.1658 7.73634 19.1658 6.66634C19.1658 4.04967 16.9817 1.66634 14.5825 1.66634C12.6208 1.66634 11.6167 2.43884 10.68 3.29884L7.10417 6.83884C6.61333 7.32967 6.52167 8.08967 6.89333 8.60551C7.12917 8.93301 7.47583 9.13051 7.87 9.16218C8.25833 9.19134 8.64 9.05384 8.915 8.77884L12.6233 5.12051C12.7867 4.95884 13.0517 4.96051 13.2125 5.12467C13.3742 5.28801 13.3725 5.55217 13.2092 5.71384L12.0125 6.89467L16.4433 10.7838C17.2467 11.488 17.4483 12.6647 16.9125 13.5213C16.5825 14.0497 16.0425 14.4047 15.4333 14.4938C15.2375 14.523 15.04 14.5247 14.8467 14.4972C14.955 15.0105 14.8775 15.5522 14.595 16.0047C14.2642 16.5338 13.7242 16.888 13.115 16.9772C12.8258 17.0197 12.5367 17.0013 12.2633 16.9263C12.2967 17.3547 12.2042 17.788 11.97 18.1605C11.64 18.6888 11.1 19.0438 10.4908 19.133C10.3883 19.148 10.2867 19.1555 10.185 19.1555C9.67917 19.1555 9.1875 18.973 8.8025 18.6347L6.10167 16.2113C1.99583 12.5005 0 9.37884 0 6.66634C0 3.55884 2.53167 0.833008 5.41667 0.833008C6.38333 0.833008 7.34917 1.14634 8.21167 1.73967C8.40167 1.87051 8.44917 2.12967 8.31917 2.31884C8.18917 2.50967 7.93 2.55717 7.74 2.42634C7.0175 1.92884 6.21417 1.66634 5.4175 1.66634C3.01917 1.66634 0.834167 4.04967 0.834167 6.66634C0.834167 9.09551 2.79417 12.0988 6.66 15.5922L9.35583 18.0113C9.63167 18.2538 10.0017 18.3613 10.3708 18.3088C10.7433 18.2547 11.0617 18.0447 11.265 17.7188C11.5867 17.2055 11.4525 16.4872 10.9525 16.0488L8.1725 13.4063C8.00583 13.248 7.99917 12.9847 8.1575 12.818C8.315 12.6505 8.57917 12.6438 8.74583 12.8013L11.9883 15.8622C12.2558 16.0972 12.6267 16.2088 12.995 16.153C13.3675 16.0988 13.6858 15.8888 13.89 15.563C14.2108 15.0505 14.0767 14.3322 13.5767 13.8938L10.4808 11.0913C10.3108 10.9372 10.2967 10.6747 10.45 10.5038C10.6025 10.3322 10.865 10.318 11.0375 10.4705L14.2967 13.3713C14.5742 13.6138 14.9425 13.723 15.3133 13.6697C15.6858 13.6147 16.0033 13.4055 16.2075 13.0797C16.5283 12.5663 16.3942 11.848 15.8942 11.4105L11.4183 7.48134L9.50333 9.37051C9.05667 9.81717 8.43667 10.0413 7.80417 9.99384C7.17167 9.94217 6.59333 9.61467 6.21833 9.09301C5.61083 8.24967 5.73917 7.02717 6.5175 6.24884L10.1058 2.69717C11.1375 1.74884 12.3233 0.833841 14.5833 0.833841C17.4692 0.833841 20 3.55967 20 6.66718V6.66634Z" fill="#1B1B1D"/>
</g>
<defs>
<clipPath id="clip0_2602_44756">
<rect width="20" height="20" fill="white"/>
</clipPath>
</defs>
</svg>
