<svg width="207" height="247" viewBox="0 0 207 247" fill="none" xmlns="http://www.w3.org/2000/svg">
<path d="M202.485 38.0039L248.927 114.361C259.402 131.584 253.911 154.123 236.689 164.598L132.565 227.927C115.343 238.402 92.8036 232.911 82.3288 215.689L31.6649 132.39C21.1902 115.168 26.6811 92.6287 43.9032 82.1539L92.4943 52.6C94.4102 51.4347 96.9108 52.0439 98.0761 53.9598C99.2414 55.8757 98.6322 58.3763 96.7163 59.5416L48.1251 89.0955C36.9422 95.8972 32.2403 109.227 35.6986 121.245L129.343 144.064C144.108 147.655 160.109 137.923 163.704 123.165L173.237 81.0215C173.727 78.8406 175.921 77.4591 178.095 77.9532C180.28 78.4501 181.66 80.6252 181.163 82.8103L171.613 125.021C169.292 134.573 163.424 142.592 155.073 147.671C146.722 152.75 136.909 154.268 127.42 151.957L40.1391 130.688L89.2704 211.467C97.4189 224.865 114.946 229.134 128.343 220.986L232.467 157.656C245.864 149.508 250.134 131.981 241.986 118.583L195.544 42.2259C194.378 40.31 194.988 37.8093 196.903 36.6441C198.819 35.4788 201.32 36.088 202.485 38.0039ZM109.743 41.8715C102.814 30.4803 105.741 16.0145 116.272 9.60976C122.561 5.78463 130.254 5.34678 136.547 7.76685C137.297 1.07262 141.22 -5.56408 147.509 -9.3892C158.039 -15.794 172.23 -11.7396 179.159 -0.348432C187.476 13.3265 182.76 39.5787 177.837 52.9195C176.301 57.0867 173.453 60.4257 169.892 62.5916C166.331 64.7575 162.057 65.7502 157.65 65.1971C143.54 63.433 118.06 55.5464 109.743 41.8715ZM116.684 37.6495C123.081 48.166 145.51 55.4927 158.651 57.133C163.695 57.7645 168.457 54.8682 170.216 50.0992C174.799 37.6689 178.609 14.3831 172.217 3.87356C167.619 -3.68584 158.43 -6.52183 151.731 -2.44761C144.893 1.71105 142.99 10.5427 145.916 15.3533C147.081 17.2692 146.472 19.7698 144.556 20.9351C142.64 22.1003 140.14 21.4911 138.974 19.5753C136.049 14.7647 127.331 12.3927 120.494 16.5514C113.795 20.6256 112.087 30.0901 116.684 37.6495Z" fill="#EBE6F5"/>
</svg>
