<svg width="900" height="371" viewBox="0 0 900 371" fill="none" xmlns="http://www.w3.org/2000/svg">
<path d="M17.0326 308.098C19.4214 333.961 18.4591 344.798 17.7057 371C16.0662 346.035 24.7376 317.708 47.3844 305.621C70.0312 293.534 96.6781 293.764 122.13 294.175C344.371 297.764 566.718 294.205 788.748 283.507C804.817 282.734 821.489 281.756 835.683 273.882C868.052 255.928 874.59 211.472 877.32 173.422C879.062 149.14 880.768 124.379 875.17 100.737C869.573 77.0953 855.34 54.3335 833.616 45.2701C823.695 41.1323 812.876 40.0582 802.227 39.076C568.886 17.547 333.584 19.081 100.52 43.6463C70.1919 46.8437 35.7034 53.0524 19.6445 80.0022C8.97203 97.9137 9.53861 120.423 10.4487 141.473C12.7934 195.644 14.7221 240.23 17.0667 294.401L17.0326 308.098Z" fill="#F3EEFD"/>
<path d="M6.91112 256.718C7.41379 268.236 7.80772 279.67 7.779 291.192C9.19877 307.116 9.23773 322.888 8.8992 338.753C8.33088 344.067 8.19548 349.44 8.4663 354.797C8.55452 356.532 20.2656 354.543 20.3579 351.515C20.5179 346.222 20.6739 340.95 20.7867 335.689C21.8311 325.908 24.4265 316.348 29.1536 307.672C39.6336 288.429 58.6877 281.077 79.1739 278.751C98.468 276.56 118.164 277.815 137.528 278.089C157.914 278.377 178.3 278.605 198.687 278.776C280.234 279.456 361.787 279.207 443.327 278.024C524.189 276.851 605.038 274.759 685.854 271.754C725.758 270.269 765.72 268.997 805.585 266.59C832.351 264.976 859.479 258.567 876.145 235.14C891.793 213.145 895.562 183.848 897.751 157.414C900.644 122.5 903.826 83.9243 885.905 52.4125C878.863 40.0322 868.726 29.0994 855.966 23.0075C840.076 15.4195 821.457 15.3562 804.321 13.8665C764.928 10.4434 725.483 7.65199 686.004 5.49035C525.643 -3.28722 364.762 -1.52068 204.613 10.6504C166.032 13.5812 127.118 16.1422 88.7676 21.4776C64.3525 24.8733 36.8556 30.9293 18.7555 49.5113C-4.15782 73.0358 0.456474 109.027 1.77982 139.288C3.48888 178.43 5.20001 217.574 6.91112 256.718ZM12.9144 90.536C14.2234 73.4436 19.6214 57.0042 32.4075 45.431C44.2233 34.737 59.6725 30.0608 74.8591 27.3012C111.045 20.7275 148.587 19.1279 185.185 16.2035C341.067 3.75344 497.714 1.33188 653.893 8.85007C693.38 10.7518 732.84 13.2854 772.251 16.4697C807.093 19.2843 847.388 16.6853 869.928 49.2113C889.665 77.6972 889.103 113.862 886.848 147.252C884.924 175.759 882.768 206.757 868.082 231.82C858.521 248.135 844.157 258.208 825.62 260.811C806.334 263.518 786.43 263.304 767.003 264.16C727.623 265.895 688.234 267.414 648.839 268.714C570.729 271.292 492.591 273.014 414.443 273.88C336.976 274.738 259.502 274.755 182.034 273.931C147.147 273.559 110.567 269.718 75.963 275.465C54.4305 279.04 33.3123 287.142 20.7005 305.043C20.4995 299.344 20.1794 293.637 19.6685 287.911C19.7445 258.159 17.7071 228.389 16.4084 198.671C15.6124 180.48 14.8184 162.289 14.0223 144.099C13.2468 126.346 11.5541 108.294 12.9144 90.536Z" fill="#E1F56F"/>
</svg>
