<svg width="17" height="17" viewBox="0 0 17 17" fill="none" xmlns="http://www.w3.org/2000/svg">
<path d="M14.5 4.40109H12.5C12.5 2.19018 10.682 0.391602 8.44867 0.391602C6.27133 0.391602 4.5 2.19018 4.5 4.40109H2.5C1.39733 4.40109 0.5 5.29772 0.5 6.39951V13.394C0.5 15.0467 1.846 16.3916 3.5 16.3916H13.5C15.154 16.3916 16.5 15.0467 16.5 13.394V6.39951C16.5 5.29772 15.6027 4.40109 14.5 4.40109ZM8.44867 1.05774C10.3153 1.05774 11.8333 2.55722 11.8333 4.40109H5.16667C5.16667 2.55722 6.63867 1.05774 8.44867 1.05774ZM15.8333 13.394C15.8333 14.6796 14.7867 15.7255 13.5 15.7255H3.5C2.21333 15.7255 1.16667 14.6796 1.16667 13.394V6.39951C1.16667 5.66476 1.76467 5.06723 2.5 5.06723H4.5V7.39872C4.5 7.58258 4.64933 7.73179 4.83333 7.73179C5.01733 7.73179 5.16667 7.58258 5.16667 7.39872V5.06723H11.8333V7.39872C11.8333 7.58258 11.9827 7.73179 12.1667 7.73179C12.3507 7.73179 12.5 7.58258 12.5 7.39872V5.06723H14.5C15.2353 5.06723 15.8333 5.66476 15.8333 6.39951V13.394Z" fill="#1B1B1D"/>
</svg>
