<svg width="17" height="17" viewBox="0 0 17 17" fill="none" xmlns="http://www.w3.org/2000/svg">
<path d="M2.21321 12.0904C1.98701 12.2488 1.93204 12.5606 2.09042 12.7868C2.24881 13.013 2.56059 13.068 2.78679 12.9096L2.21321 12.0904ZM14.4605 4.55675C14.5085 4.28481 14.3269 4.02548 14.055 3.97753L9.62332 3.19611C9.35137 3.14816 9.09204 3.32974 9.04409 3.60169C8.99614 3.87364 9.17772 4.13297 9.44967 4.18092L13.3889 4.87551L12.6943 8.81474C12.6464 9.08669 12.8279 9.34602 13.0999 9.39397C13.3718 9.44192 13.6312 9.26034 13.6791 8.98839L14.4605 4.55675ZM2.5 12.5L2.78679 12.9096L14.2549 4.87951L13.9681 4.46993L13.6813 4.06035L2.21321 12.0904L2.5 12.5Z" fill="#1B1B1D"/>
</svg>
