<svg width="14" height="14" viewBox="0 0 14 14" fill="none" xmlns="http://www.w3.org/2000/svg">
<g clip-path="url(#clip0_2175_29070)">
<path d="M12.25 3.49707H10.5C10.5 1.56682 8.93025 -0.00292969 7 -0.00292969C5.06975 -0.00292969 3.5 1.56682 3.5 3.49707H1.75C0.785167 3.49707 0 4.28224 0 5.24707V11.3721C0 12.8193 1.17775 13.9971 2.625 13.9971H9.625C9.786 13.9971 9.91667 13.8664 9.91667 13.7054C9.91667 13.5444 9.786 13.4137 9.625 13.4137H2.625C1.49917 13.4137 0.583333 12.4979 0.583333 11.3721V5.24707C0.583333 4.60365 1.10658 4.0804 1.75 4.0804H3.5V6.12207C3.5 6.28307 3.63067 6.41374 3.79167 6.41374C3.95267 6.41374 4.08333 6.28307 4.08333 6.12207V4.0804H9.91667V6.12207C9.91667 6.28307 10.0473 6.41374 10.2083 6.41374C10.3693 6.41374 10.5 6.28307 10.5 6.12207V4.0804H12.25C12.8934 4.0804 13.4167 4.60365 13.4167 5.24707V9.62207C13.4167 9.78307 13.5473 9.91374 13.7083 9.91374C13.8693 9.91374 14 9.78307 14 9.62207V5.24707C14 4.28224 13.2148 3.49707 12.25 3.49707ZM4.08333 3.49707C4.08333 1.88882 5.39175 0.580404 7 0.580404C8.60825 0.580404 9.91667 1.88882 9.91667 3.49707H4.08333ZM14 11.3721C14 11.5331 13.8693 11.6637 13.7083 11.6637H11.6667V13.7054C11.6667 13.8664 11.536 13.9971 11.375 13.9971C11.214 13.9971 11.0833 13.8664 11.0833 13.7054V11.6637H9.04167C8.88067 11.6637 8.75 11.5331 8.75 11.3721C8.75 11.2111 8.88067 11.0804 9.04167 11.0804H11.0833V9.03874C11.0833 8.87774 11.214 8.74707 11.375 8.74707C11.536 8.74707 11.6667 8.87774 11.6667 9.03874V11.0804H13.7083C13.8693 11.0804 14 11.2111 14 11.3721Z" fill="black"/>
</g>
<defs>
<clipPath id="clip0_2175_29070">
<rect width="14" height="14" fill="white" transform="translate(0 -0.00292969)"/>
</clipPath>
</defs>
</svg>
