<svg width="20" height="21" viewBox="0 0 20 21" fill="none" xmlns="http://www.w3.org/2000/svg">
<path d="M19.97 11.1552L19.9675 11.1502L19.9658 11.1461L17.055 3.86939C16.7367 3.07355 15.9775 2.55939 15.1208 2.55939H10.4158V1.31022C10.4158 1.08022 10.2292 0.893555 9.99917 0.893555C9.76917 0.893555 9.5825 1.08022 9.5825 1.31022V2.56022H4.87833C4.02167 2.56022 3.2625 3.07439 2.94417 3.87022L0.0341667 11.1461L0.0325 11.1502L0.03 11.1552C0.01 11.2044 0 12.0727 0 12.0727C0 13.9036 1.21417 15.4402 2.9525 15.8094C3.21417 15.8652 3.48083 15.8936 3.74417 15.8936H3.75083C5.8175 15.8902 7.5 14.2077 7.5 12.1436C7.5 12.1436 7.49 11.2052 7.47 11.1552L7.4675 11.1502L7.46583 11.1461L4.4025 3.48689C4.55 3.42605 4.71083 3.39355 4.87833 3.39355H9.58333V20.0602H3.75C3.52 20.0602 3.33333 20.2469 3.33333 20.4769C3.33333 20.7069 3.52 20.8936 3.75 20.8936H16.25C16.48 20.8936 16.6667 20.7069 16.6667 20.4769C16.6667 20.2469 16.48 20.0602 16.25 20.0602H10.4167V3.39355H15.1217C15.2892 3.39355 15.4508 3.42605 15.5975 3.48689L12.5342 11.1461L12.5325 11.1502L12.53 11.1552C12.51 11.2044 12.5 12.1436 12.5 12.1436C12.5 14.2077 14.1825 15.8902 16.2492 15.8936H16.2558C16.5192 15.8936 16.7858 15.8652 17.0467 15.8094C18.7858 15.4394 20 13.9027 20 12.0727C20 12.0727 19.99 11.2044 19.97 11.1552ZM3.74917 15.0602C3.51333 15.0736 3.3325 15.0386 3.12583 14.9944C1.77667 14.7077 0.833333 13.5061 0.833333 12.0727V11.7269H6.66667V12.1436C6.66667 13.7486 5.35833 15.0577 3.74917 15.0602ZM6.46833 10.8936H1.03167C1.03167 10.8936 3.73917 4.12772 3.75167 4.10272L6.46833 10.8936ZM16.2483 4.10272C16.2608 4.12772 18.9675 10.8936 18.9675 10.8936H13.5317L16.2483 4.10272ZM16.8733 14.9944C16.6675 15.0386 16.485 15.0752 16.2508 15.0602C14.6417 15.0577 13.3333 13.7486 13.3333 12.1436V11.7269H19.1667V12.0727C19.1667 13.5061 18.2233 14.7077 16.8733 14.9944Z" fill="#1B1B1D"/>
</svg>
