<svg width="17" height="16" viewBox="0 0 17 16" fill="none" xmlns="http://www.w3.org/2000/svg">
<path d="M0.5 6.33268C0.5 6.14868 0.649333 5.99935 0.833333 5.99935H4.16667C4.35067 5.99935 4.5 6.14868 4.5 6.33268C4.5 6.51668 4.35067 6.66602 4.16667 6.66602H0.833333C0.649333 6.66602 0.5 6.51668 0.5 6.33268ZM16.5 6.99935V10.3327C16.5 11.33 15.8707 12.1833 14.988 12.5167C15.1053 12.7727 15.1667 13.0487 15.1667 13.3327C15.1667 14.4353 14.2693 15.3327 13.1667 15.3327C12.064 15.3327 11.1667 14.4353 11.1667 13.3327C11.1667 13.1033 11.2067 12.8787 11.284 12.666H5.716C5.79333 12.8787 5.83333 13.1033 5.83333 13.3327C5.83333 14.4353 4.936 15.3327 3.83333 15.3327C2.73067 15.3327 1.83333 14.4353 1.83333 13.3327C1.83333 13.0487 1.89467 12.7727 2.012 12.5167C1.12933 12.1833 0.5 11.33 0.5 10.3327V8.33268C0.5 8.14868 0.649333 7.99935 0.833333 7.99935C1.01733 7.99935 1.16667 8.14868 1.16667 8.33268V10.3327C1.16667 11.2513 1.914 11.9993 2.83333 11.9993H11.1667V3.66602C11.1667 2.37935 10.12 1.33268 8.83333 1.33268C8.64933 1.33268 8.5 1.18335 8.5 0.999349C8.5 0.815349 8.64933 0.666016 8.83333 0.666016C10.4873 0.666016 11.8333 2.01202 11.8333 3.66602V3.99935H13.5C15.154 3.99935 16.5 5.34535 16.5 6.99935ZM11.8333 4.66602V7.99935H15.8333V6.99935C15.8333 5.71268 14.7867 4.66602 13.5 4.66602H11.8333ZM4.982 12.666H2.83333C2.78467 12.666 2.736 12.664 2.68733 12.6613C2.564 12.8673 2.5 13.096 2.5 13.3327C2.5 14.068 3.098 14.666 3.83333 14.666C4.56867 14.666 5.16667 14.068 5.16667 13.3327C5.16667 13.098 5.10333 12.8707 4.982 12.666ZM14.3127 12.6613C14.2647 12.6647 14.216 12.666 14.1667 12.666H12.018C11.8967 12.8707 11.8333 13.098 11.8333 13.3327C11.8333 14.068 12.4313 14.666 13.1667 14.666C13.902 14.666 14.5 14.068 14.5 13.3327C14.5 13.096 14.4353 12.8673 14.3127 12.6613ZM15.8333 10.3327V8.66602H11.8333V11.9993H14.1667C15.086 11.9993 15.8333 11.2513 15.8333 10.3327ZM0.833333 1.33268H6.83333C7.01733 1.33268 7.16667 1.18335 7.16667 0.999349C7.16667 0.815349 7.01733 0.666016 6.83333 0.666016H0.833333C0.649333 0.666016 0.5 0.815349 0.5 0.999349C0.5 1.18335 0.649333 1.33268 0.833333 1.33268ZM0.833333 3.99935H5.5C5.684 3.99935 5.83333 3.85002 5.83333 3.66602C5.83333 3.48202 5.684 3.33268 5.5 3.33268H0.833333C0.649333 3.33268 0.5 3.48202 0.5 3.66602C0.5 3.85002 0.649333 3.99935 0.833333 3.99935Z" fill="#1B1B1D"/>
</svg>
