<svg width="16" height="17" viewBox="0 0 16 17" fill="none" xmlns="http://www.w3.org/2000/svg">
<g clip-path="url(#clip0_2274_124)">
<path d="M0 8.89258C0 8.89258 0 8.89391 0 8.89458C0.00133324 9.34325 0.177333 9.76391 0.497334 10.0786L3.25867 12.7966C3.32333 12.8606 3.408 12.8926 3.49267 12.8926C3.57867 12.8926 3.66467 12.8592 3.73 12.7932C3.85867 12.6626 3.85733 12.4512 3.726 12.3219L0.964666 9.60391C0.855333 9.49591 0.777332 9.36658 0.727333 9.22658H11.6667C11.8507 9.22658 12 9.07725 12 8.89325C12 8.70925 11.8507 8.55991 11.6667 8.55991H0.726666C0.776667 8.41791 0.854666 8.28724 0.965333 8.17858L3.726 5.46391C3.85733 5.33524 3.85933 5.12391 3.73 4.99258C3.60133 4.86058 3.39 4.85924 3.25867 4.98858L0.497999 7.70324C0.177333 8.01924 0 8.44058 0 8.89124C0 8.89124 0 8.89191 0 8.89258ZM8.33333 10.8926C8.51733 10.8926 8.66667 11.0419 8.66667 11.2259V13.8926C8.66667 15.1792 9.71333 16.2259 11 16.2259H13C14.2867 16.2259 15.3333 15.1792 15.3333 13.8926V3.89258C15.3333 2.60591 14.2867 1.55924 13 1.55924H11C9.71333 1.55924 8.66667 2.60591 8.66667 3.89258V6.55925C8.66667 6.74325 8.51733 6.89258 8.33333 6.89258C8.14933 6.89258 8 6.74325 8 6.55925V3.89258C8 2.23858 9.346 0.892578 11 0.892578H13C14.654 0.892578 16 2.23858 16 3.89258V13.8926C16 15.5466 14.654 16.8926 13 16.8926H11C9.346 16.8926 8 15.5466 8 13.8926V11.2259C8 11.0419 8.14933 10.8926 8.33333 10.8926Z" fill="#1B1B1D"/>
</g>
<defs>
<clipPath id="clip0_2274_124">
<rect width="16" height="16" fill="white" transform="translate(0 0.892578)"/>
</clipPath>
</defs>
</svg>
