<svg width="20" height="21" viewBox="0 0 20 21" fill="none" xmlns="http://www.w3.org/2000/svg">
<path d="M3.07504 19.6248C3.48823 19.8014 3.94505 19.8494 4.3859 19.7625C4.82676 19.6755 5.23118 19.4578 5.54641 19.1375L9.99955 14.7086L14.4527 19.1375C14.6603 19.3482 14.9077 19.5156 15.1805 19.63C15.4532 19.7445 15.746 19.8037 16.0418 19.8042C16.3458 19.8033 16.6467 19.7424 16.9271 19.6248C17.3437 19.4563 17.6997 19.166 17.9488 18.7919C18.1978 18.4179 18.3283 17.9774 18.3232 17.528V5.58816C18.322 4.58509 17.923 3.62345 17.2137 2.91417C16.5044 2.20489 15.5428 1.80589 14.5397 1.80469L5.45939 1.80469C4.45632 1.80589 3.49467 2.20489 2.78539 2.91417C2.07612 3.62345 1.67711 4.58509 1.67591 5.58816V17.528C1.67103 17.9778 1.80196 18.4185 2.05158 18.7926C2.30121 19.1667 2.65791 19.4567 3.07504 19.6248Z" fill="#4B6D74"/>
</svg>
