<svg width="20" height="21" viewBox="0 0 20 21" fill="none" xmlns="http://www.w3.org/2000/svg">
<path d="M14.9339 1.49805H5.18792C3.32694 1.49805 1.8125 3.01249 1.8125 4.87347V17.2388C1.8125 18.1411 2.45683 19.1005 3.24893 19.3773C3.48071 19.4583 3.71924 19.498 3.95402 19.498C4.50459 19.498 5.04015 19.282 5.4467 18.8747L10.0605 14.2849L14.6211 18.8215C15.2264 19.4245 16.1078 19.6451 16.8691 19.3788C17.7445 19.0742 18.3093 18.2829 18.3093 17.3625V4.87347C18.3093 3.01249 16.7949 1.49805 14.9339 1.49805ZM17.5592 17.3625C17.5592 17.9679 17.1999 18.4697 16.6224 18.6699C16.131 18.8417 15.5542 18.6902 15.1499 18.2889L10.3246 13.4898C10.1783 13.345 9.94202 13.345 9.79575 13.4898L4.91714 18.3437C4.53609 18.7247 4.00577 18.8462 3.49571 18.6699C3.0074 18.4989 2.56259 17.8171 2.56259 17.2395V4.87347C2.56259 3.42579 3.74024 2.24814 5.18792 2.24814H14.9339C16.3816 2.24814 17.5592 3.42579 17.5592 4.87347V17.3625Z" fill="#1B1B1D"/>
</svg>
