<svg width="24" height="24" viewBox="0 0 24 24" fill="none" xmlns="http://www.w3.org/2000/svg">
<rect width="24" height="24" rx="3" fill="#DEE891"/>
<path d="M10.1998 2.40039C9.03678 2.40039 8.15982 3.22599 8.15982 4.32039C8.15982 4.90875 8.41877 5.41393 8.83389 5.76039H5.51982C4.8579 5.76039 4.31982 6.29895 4.31982 6.96039V9.36039C4.31982 9.93979 4.7325 10.4246 5.27982 10.536V17.0404C5.27982 18.2313 6.24894 19.2004 7.43982 19.2004H16.5598C17.7507 19.2004 18.7198 18.2313 18.7198 17.0404V10.536C19.2671 10.4246 19.6798 9.93979 19.6798 9.36039V6.96039C19.6798 6.29895 19.1417 5.76039 18.4798 5.76039H15.1658C15.5809 5.41393 15.8398 4.90875 15.8398 4.32039C15.8398 3.22599 14.9629 2.40039 13.7998 2.40039C13.0155 2.40039 12.3411 2.85421 11.9998 3.51133C11.6585 2.85421 10.9841 2.40039 10.1998 2.40039ZM10.1998 2.88039C11.06 2.88039 11.7598 3.58982 11.7598 4.46102V5.76039H10.1998C9.29598 5.76039 8.63982 5.15463 8.63982 4.32039C8.63982 3.48615 9.29598 2.88039 10.1998 2.88039ZM13.7998 2.88039C14.7037 2.88039 15.3598 3.48615 15.3598 4.32039C15.3598 5.15463 14.7037 5.76039 13.7998 5.76039H12.2398V4.46102C12.2398 3.58982 12.9397 2.88039 13.7998 2.88039ZM5.51982 6.24039H11.7598V10.0804H5.51982C5.12286 10.0804 4.79982 9.75735 4.79982 9.36039V6.96039C4.79982 6.56343 5.12286 6.24039 5.51982 6.24039ZM12.2398 6.24039H18.4798C18.8768 6.24039 19.1998 6.56343 19.1998 6.96039V9.36039C19.1998 9.75735 18.8768 10.0804 18.4798 10.0804H12.2398V6.24039ZM5.75982 10.5604H11.7598V18.7204H7.43982C6.51342 18.7204 5.75982 17.9668 5.75982 17.0404V10.5604ZM12.2398 10.5604H18.2398V17.0404C18.2398 17.9668 17.4862 18.7204 16.5598 18.7204H12.2398V10.5604Z" fill="#213235"/>
</svg>
