<svg width="12" height="12" viewBox="0 0 12 12" fill="none" xmlns="http://www.w3.org/2000/svg">
<g clip-path="url(#clip0_2175_29565)">
<path d="M10.25 3.5H8.4435C9.3595 3.0605 10 2.3225 10 1.25C10 1.112 9.888 1 9.75 1C9.612 1 9.5 1.112 9.5 1.25C9.5 2.7815 7.8645 3.3445 6.5805 3.471C6.97 2.9895 7.5 2.205 7.5 1.5C7.5 0.673 6.827 0 6 0C5.173 0 4.5 0.673 4.5 1.5C4.5 2.205 5.0295 2.989 5.4195 3.471C4.1355 3.345 2.5 2.7815 2.5 1.25C2.5 1.112 2.388 1 2.25 1C2.112 1 2 1.112 2 1.25C2 2.3225 2.6405 3.0605 3.5565 3.5H1.75C0.785 3.5 0 4.285 0 5.25V5.75C0 6.1635 0.3365 6.5 0.75 6.5H1V9.75C1 10.9905 2.0095 12 3.25 12H8.75C9.9905 12 11 10.9905 11 9.75V6.5H11.25C11.6635 6.5 12 6.1635 12 5.75V5.25C12 4.285 11.215 3.5 10.25 3.5ZM6 0.5C6.5515 0.5 7 0.9485 7 1.5C7 2.124 6.385 2.9495 6 3.384C5.615 2.9495 5 2.124 5 1.5C5 0.9485 5.4485 0.5 6 0.5ZM0.5 5.75V5.25C0.5 4.561 1.061 4 1.75 4H5.75V6H0.75C0.612 6 0.5 5.888 0.5 5.75ZM1.5 9.75V6.5H5.75V11.5H3.25C2.285 11.5 1.5 10.715 1.5 9.75ZM10.5 9.75C10.5 10.715 9.715 11.5 8.75 11.5H6.25V6.5H10.5V9.75ZM11.5 5.75C11.5 5.888 11.388 6 11.25 6H6.25V4H10.25C10.939 4 11.5 4.561 11.5 5.25V5.75Z" fill="#1B1B1D"/>
</g>
<defs>
<clipPath id="clip0_2175_29565">
<rect width="12" height="12" fill="white"/>
</clipPath>
</defs>
</svg>
