<svg width="15" height="15" viewBox="0 0 15 15" fill="none" xmlns="http://www.w3.org/2000/svg">
<g clip-path="url(#clip0_2274_25879)">
<path d="M5.33198 11.0134C5.22115 11.0134 5.10448 10.9784 5.01115 10.9084C4.83031 10.7742 4.75448 10.5351 4.82448 10.3192L5.32615 8.70924L4.05448 7.67674C3.88531 7.53091 3.82115 7.29758 3.89698 7.08758C3.97281 6.87758 4.17698 6.73758 4.39865 6.73758H6.00281L6.56865 5.21508C6.64448 5.00508 6.84865 4.86508 7.07031 4.86508C7.29198 4.86508 7.49615 5.00508 7.57198 5.21508L8.13781 6.73758H9.74198C9.96364 6.73758 10.1678 6.87758 10.2436 7.08758C10.3195 7.29758 10.2553 7.53674 10.0861 7.68258L8.82031 8.71508L9.34531 10.3076C9.41531 10.5234 9.34531 10.7626 9.16448 10.8967C8.98365 11.0367 8.73865 11.0426 8.54615 10.9201L7.07615 9.96341L5.62948 10.9317C5.54198 10.9901 5.43698 11.0192 5.33198 11.0192V11.0134ZM7.07031 14.8926C3.20865 14.8926 0.0703125 11.7542 0.0703125 7.89258C0.0703125 4.03091 3.20865 0.892578 7.07031 0.892578C10.932 0.892578 14.0703 4.03091 14.0703 7.89258C14.0703 11.7542 10.932 14.8926 7.07031 14.8926ZM7.07031 2.05924C3.85615 2.05924 1.23698 4.67841 1.23698 7.89258C1.23698 11.1067 3.85615 13.7259 7.07031 13.7259C10.2845 13.7259 12.9036 11.1067 12.9036 7.89258C12.9036 4.67841 10.2845 2.05924 7.07031 2.05924Z" fill="#4B6D74"/>
</g>
<defs>
<clipPath id="clip0_2274_25879">
<rect width="14" height="14" fill="white" transform="translate(0.0703125 0.892578)"/>
</clipPath>
</defs>
</svg>
