<svg width="16" height="16" viewBox="0 0 16 16" fill="none" xmlns="http://www.w3.org/2000/svg">
<g clip-path="url(#clip0_2274_34925)">
<path d="M8 3.76367V1.26367C8 1.09117 8.14 0.951172 8.3125 0.951172C8.485 0.951172 8.625 1.09117 8.625 1.26367V3.76367C8.625 3.93617 8.485 4.07617 8.3125 4.07617C8.14 4.07617 8 3.93617 8 3.76367ZM10.9644 5.1743C11.0444 5.1743 11.1244 5.14367 11.1856 5.08305L12.9538 3.31492C13.0756 3.19305 13.0756 2.99492 12.9538 2.87305C12.8319 2.75117 12.6337 2.75117 12.5119 2.87305L10.7437 4.64117C10.6219 4.76305 10.6219 4.96117 10.7437 5.08305C10.805 5.1443 10.8844 5.1743 10.9644 5.1743ZM4.11375 2.87305C3.99187 2.75117 3.79375 2.75117 3.67187 2.87305C3.55 2.99492 3.55 3.19305 3.67187 3.31492L5.44 5.08305C5.56187 5.20492 5.76 5.20492 5.88188 5.08305C6.00375 4.96117 6.00375 4.76305 5.88188 4.64117L4.11375 2.87305ZM4.5625 7.20117H2.0625C1.89 7.20117 1.75 7.34117 1.75 7.51367C1.75 7.68617 1.89 7.82617 2.0625 7.82617H4.5625C4.735 7.82617 4.875 7.68617 4.875 7.51367C4.875 7.34117 4.735 7.20117 4.5625 7.20117ZM14.2081 11.7949C14.1025 12.1237 13.8237 12.3524 13.48 12.3905L11.7362 12.5843L12.5994 14.2343C12.9125 14.7893 12.6687 15.5555 12.0912 15.828C11.5356 16.1093 10.8425 15.9018 10.54 15.3362L9.60938 13.5637L8.22375 15.0749C7.95062 15.3318 7.5925 15.393 7.27125 15.253C6.95 15.1137 6.75063 14.8093 6.75063 14.4593V7.17367C6.75063 6.71992 7.00688 6.32055 7.41875 6.13117C7.83062 5.94117 8.30125 6.00742 8.64563 6.30305L13.9587 10.883C13.9587 10.883 13.9619 10.8862 13.9637 10.8874C14.2206 11.1187 14.3138 11.4662 14.2081 11.7949ZM13.5469 11.3537L8.2375 6.7768C8.07938 6.64055 7.87 6.6118 7.67938 6.69867C7.48875 6.78617 7.375 6.96367 7.375 7.17367V14.4599C7.375 14.6024 7.47625 14.6618 7.51937 14.6805C7.56313 14.7005 7.67563 14.7337 7.77938 14.6355L9.44875 12.8137C9.58687 12.6549 9.86375 12.6918 9.95625 12.8793L11.0919 15.0424C11.2306 15.2999 11.5475 15.4012 11.8119 15.2687C12.0806 15.1412 12.1937 14.7855 12.0475 14.5262L10.9712 12.4687C10.8669 12.2824 11.0013 12.0305 11.2137 12.013L13.4113 11.7693C13.5506 11.7537 13.5988 11.6487 13.6131 11.6037C13.6275 11.5593 13.6488 11.4468 13.5469 11.3537Z" fill="#1B1B1D"/>
</g>
<defs>
<clipPath id="clip0_2274_34925">
<rect width="15" height="15" fill="white" transform="translate(0.5 0.951172)"/>
</clipPath>
</defs>
</svg>
