<svg width="15" height="16" viewBox="0 0 15 16" fill="none" xmlns="http://www.w3.org/2000/svg">
<g clip-path="url(#clip0_2274_29337)">
<path d="M1.87544 13.4521C1.87544 13.7971 1.59544 14.0771 1.25044 14.0771C0.905438 14.0771 0.625438 13.7971 0.625438 13.4521C0.625438 13.1071 0.905438 12.8271 1.25044 12.8271C1.59544 12.8271 1.87544 13.1071 1.87544 13.4521ZM8.12544 7.82705C7.78044 7.82705 7.50044 8.10705 7.50044 8.45205C7.50044 8.79705 7.78044 9.07705 8.12544 9.07705C8.47044 9.07705 8.75044 8.79705 8.75044 8.45205C8.75044 8.10705 8.47044 7.82705 8.12544 7.82705ZM13.1254 3.45205C13.4704 3.45205 13.7504 3.17205 13.7504 2.82705C13.7504 2.48205 13.4704 2.20205 13.1254 2.20205C12.7804 2.20205 12.5004 2.48205 12.5004 2.82705C12.5004 3.17205 12.7804 3.45205 13.1254 3.45205ZM14.5967 4.7058C14.4748 4.58393 14.2767 4.58393 14.1548 4.7058C12.0648 6.79518 10.2523 5.85893 9.09856 4.7058C8.97669 4.58393 8.77856 4.58393 8.65669 4.7058C8.53481 4.82768 8.53481 5.0258 8.65669 5.14768C9.61419 6.10518 10.6204 6.58393 11.6267 6.58393C12.6329 6.58393 13.6392 6.10518 14.5967 5.14768C14.7186 5.0258 14.7186 4.82768 14.5967 4.7058ZM4.82106 9.6083C4.69919 9.48643 4.50106 9.48643 4.37919 9.6083C4.25731 9.73018 4.25731 9.9283 4.37919 10.0502C5.00419 10.6752 5.39919 11.3221 5.55294 11.9733C5.80106 13.0252 5.40669 14.0789 4.37919 15.1064C4.25731 15.2283 4.25731 15.4264 4.37919 15.5483C4.44044 15.6096 4.52044 15.6396 4.60044 15.6396C4.68044 15.6396 4.76044 15.6089 4.82169 15.5483C6.01231 14.3577 6.46294 13.1071 6.16231 11.8296C5.98106 11.0639 5.53044 10.3164 4.82169 9.6083H4.82106ZM10.0867 10.7139C9.95481 10.6027 9.75794 10.6202 9.64606 10.7508C9.53481 10.8827 9.55106 11.0796 9.68294 11.1914C9.69169 11.1989 10.5779 11.9608 10.6236 13.0533C10.6523 13.7496 10.3298 14.4408 9.66356 15.1064C9.54169 15.2283 9.54169 15.4264 9.66356 15.5483C9.72481 15.6096 9.80481 15.6396 9.88481 15.6396C9.96481 15.6396 10.0448 15.6089 10.1061 15.5483C10.9004 14.7539 11.2848 13.9052 11.2486 13.0271C11.1917 11.6633 10.1317 10.7521 10.0867 10.7139ZM13.7504 10.3277C13.7504 10.6727 14.0304 10.9527 14.3754 10.9527C14.7204 10.9527 15.0004 10.6727 15.0004 10.3277C15.0004 9.98268 14.7204 9.70268 14.3754 9.70268C14.0304 9.70268 13.7504 9.98268 13.7504 10.3277ZM14.3754 14.7027C14.0304 14.7027 13.7504 14.9827 13.7504 15.3277C13.7504 15.6727 14.0304 15.9527 14.3754 15.9527C14.7204 15.9527 15.0004 15.6727 15.0004 15.3277C15.0004 14.9827 14.7204 14.7027 14.3754 14.7027ZM8.30481 3.95705L3.00481 9.25643C2.71856 9.5433 2.32669 9.70205 1.92419 9.70205C1.84981 9.70205 1.77544 9.69643 1.70169 9.6858C1.24231 9.6183 0.855438 9.34893 0.641063 8.94705C-0.495812 6.8233 -0.113937 4.24893 1.59169 2.5433C3.29731 0.837053 5.87106 0.455178 7.99544 1.59268C8.39669 1.80705 8.66544 2.1933 8.73356 2.65268C8.80419 3.12955 8.64356 3.61705 8.30419 3.95643L8.30481 3.95705ZM8.11544 2.74518C8.07669 2.4833 7.92544 2.26393 7.70044 2.14393C6.99481 1.76643 6.21981 1.5833 5.44794 1.5833C4.19606 1.5833 2.95294 2.06643 2.03356 2.9858C0.547938 4.47143 0.201688 6.80143 1.19169 8.65205C1.31169 8.87705 1.53106 9.02893 1.79294 9.06705C2.07544 9.1108 2.36356 9.01518 2.56294 8.81455L7.86294 3.51518C8.06294 3.31518 8.15731 3.02705 8.11544 2.74518Z" fill="#1B1B1D"/>
</g>
<defs>
<clipPath id="clip0_2274_29337">
<rect width="15" height="15" fill="white" transform="translate(0 0.951172)"/>
</clipPath>
</defs>
</svg>
