<svg width="16" height="14" viewBox="0 0 16 14" fill="none" xmlns="http://www.w3.org/2000/svg">
<g clip-path="url(#clip0_2120_44003)">
<path d="M6.11446 2.58869L7.46443 5.67432L8.97065 2.66187C9.4951 1.613 8.73237 0.378906 7.55969 0.378906C6.4221 0.378906 5.65851 1.54645 6.11446 2.58869Z" fill="#4B6D74" fill-opacity="0.35"/>
<path d="M6.11446 11.4079L7.46443 8.32227L8.97065 11.3347C9.4951 12.3836 8.73237 13.6177 7.55969 13.6177C6.4221 13.6177 5.65851 12.4501 6.11446 11.4079Z" fill="#4B6D74"/>
<path d="M10.9172 10.7025L9.03125 7.91211L12.3823 8.24965C13.5491 8.3672 14.1843 9.67153 13.5574 10.6626C12.9492 11.6239 11.5543 11.6451 10.9172 10.7025Z" fill="#4B6D74" fill-opacity="0.8"/>
<path d="M4.5191 3.70099L6.40508 6.49144L3.05402 6.15386C1.88724 6.03634 1.25206 4.73202 1.87898 3.741C2.48715 2.7796 3.88207 2.75846 4.5191 3.70099Z" fill="#4B6D74" fill-opacity="0.3"/>
<path d="M4.5191 10.7025L6.40508 7.91211L3.05402 8.24965C1.88724 8.3672 1.25206 9.67153 1.87898 10.6626C2.48715 11.6239 3.88207 11.6451 4.5191 10.7025Z" fill="#4B6D74" fill-opacity="0.2"/>
<path d="M10.9172 3.70099L9.03125 6.49144L12.3823 6.15386C13.5491 6.03634 14.1843 4.73202 13.5574 3.741C12.9492 2.7796 11.5543 2.75846 10.9172 3.70099Z" fill="#4B6D74" fill-opacity="0.6"/>
</g>
<defs>
<clipPath id="clip0_2120_44003">
<rect width="14.7711" height="13.33" fill="white" transform="translate(0.332031 0.333008)"/>
</clipPath>
</defs>
</svg>
