<svg width="20" height="21" viewBox="0 0 20 21" fill="none" xmlns="http://www.w3.org/2000/svg">
<g clip-path="url(#clip0_2175_5800)">
<path d="M13.2134 9.545L10.5918 12.1667L13.2134 14.7883C13.3759 14.9508 13.3759 15.215 13.2134 15.3775C13.1318 15.4592 13.0251 15.4992 12.9184 15.4992C12.8118 15.4992 12.7051 15.4583 12.6234 15.3775L10.0018 12.7558L7.3801 15.3775C7.29844 15.4592 7.19177 15.4992 7.0851 15.4992C6.97844 15.4992 6.87177 15.4583 6.7901 15.3775C6.6276 15.215 6.6276 14.9508 6.7901 14.7883L9.41177 12.1667L6.7901 9.545C6.6276 9.3825 6.6276 9.11833 6.7901 8.95583C6.9526 8.79333 7.21677 8.79333 7.37927 8.95583L10.0009 11.5775L12.6226 8.95583C12.7851 8.79333 13.0493 8.79333 13.2118 8.95583C13.3743 9.11833 13.3743 9.3825 13.2118 9.545H13.2134ZM19.1684 4.25C19.1684 4.48 18.9818 4.66667 18.7518 4.66667H17.5018C17.5018 4.67917 17.5018 4.69167 17.5001 4.705L16.3584 17.0942C16.1793 19.0358 14.5734 20.5 12.6243 20.5H7.3976C5.4501 20.5 3.8451 19.0383 3.66427 17.1L2.50427 4.70583C2.50344 4.6925 2.5026 4.68 2.5026 4.66667H1.2526C1.0226 4.66667 0.835938 4.48 0.835938 4.25C0.835938 4.02 1.0226 3.83333 1.2526 3.83333H5.4426C5.65094 1.96083 7.2426 0.5 9.16927 0.5H10.8359C12.7626 0.5 14.3551 1.96083 14.5626 3.83333H18.7526C18.9826 3.83333 19.1684 4.02 19.1684 4.25ZM6.28177 3.83333H13.7218C13.5193 2.42167 12.3018 1.33333 10.8351 1.33333H9.16844C7.70177 1.33333 6.48427 2.42167 6.28177 3.83333ZM16.6668 4.66667H3.33677L4.4926 17.0217C4.6326 18.53 5.88177 19.6667 7.39594 19.6667H12.6226C14.1393 19.6667 15.3876 18.5283 15.5268 17.0175L16.6651 4.66667H16.6668Z" fill="#1B1B1D"/>
</g>
<defs>
<clipPath id="clip0_2175_5800">
<rect width="20" height="20" fill="white" transform="translate(0 0.5)"/>
</clipPath>
</defs>
</svg>
