<svg width="14" height="14" viewBox="0 0 14 14" fill="none" xmlns="http://www.w3.org/2000/svg">
<path d="M13.6654 5.0523V11.1634C13.6654 12.5417 12.5437 13.6634 11.1654 13.6634H2.83203C1.4537 13.6634 0.332031 12.5417 0.332031 11.1634V4.49674C0.332031 3.11841 1.4537 1.99674 2.83203 1.99674H6.72092C6.87425 1.99674 6.9987 2.12119 6.9987 2.27452C6.9987 2.42786 6.87425 2.5523 6.72092 2.5523H2.83203C1.93703 2.5523 1.1887 3.16397 0.963698 3.98897L5.6237 8.64952C6.3587 9.38397 7.63925 9.38397 8.3737 8.64952L10.4281 6.52619C10.5343 6.41619 10.7115 6.41341 10.8209 6.51952C10.9309 6.62619 10.9343 6.8023 10.8276 6.9123L8.76981 9.03897C8.29481 9.51452 7.66703 9.77452 6.9987 9.77452C6.33036 9.77452 5.70314 9.51452 5.23092 9.0423L0.887587 4.69841V11.1634C0.887587 12.2356 1.75981 13.1079 2.83203 13.1079H11.1654C12.2376 13.1079 13.1098 12.2356 13.1098 11.1634V5.0523C13.1098 4.89897 13.2343 4.77452 13.3876 4.77452C13.5409 4.77452 13.6654 4.89897 13.6654 5.0523ZM8.10981 1.98286C8.10981 1.07119 8.79481 0.330078 9.63759 0.330078C10.1409 0.330078 10.6059 0.577856 10.8876 0.942856C11.1693 0.578411 11.6343 0.330078 12.1376 0.330078C12.9804 0.330078 13.6654 1.07119 13.6654 1.98286C13.6654 3.0773 12.457 4.44341 11.6954 5.04786C11.4576 5.23674 11.1726 5.33063 10.8876 5.33063C10.6026 5.33063 10.3176 5.23674 10.0798 5.04786C9.31814 4.44341 8.10981 3.0773 8.10981 1.98286ZM8.66536 1.98286C8.66536 2.82452 9.71536 4.04952 10.4248 4.6123C10.697 4.82841 11.0781 4.82841 11.3504 4.6123C12.0598 4.04897 13.1098 2.82397 13.1098 1.98286C13.1098 1.37786 12.6737 0.885634 12.1376 0.885634C11.5904 0.885634 11.1654 1.33397 11.1654 1.71897C11.1654 1.8723 11.0409 1.99674 10.8876 1.99674C10.7343 1.99674 10.6098 1.8723 10.6098 1.71897C10.6098 1.33397 10.1848 0.885634 9.63759 0.885634C9.10147 0.885634 8.66536 1.37786 8.66536 1.98286Z" fill="#1B1B1D"/>
</svg>
