<svg width="20" height="21" viewBox="0 0 20 21" fill="none" xmlns="http://www.w3.org/2000/svg">
<g clip-path="url(#clip0_2070_39617)">
<path d="M19.5833 20.0601H18.3333V12.9768C18.3333 10.9093 16.6508 9.22676 14.5833 9.22676H10.4167V6.69176C11.5975 6.4926 12.5 5.46343 12.5 4.22676C12.5 3.4401 11.9692 2.45593 10.9233 1.3026C10.4525 0.782598 9.54833 0.782598 9.07667 1.3026C8.4 2.04926 7.5 3.16343 7.5 4.22676C7.5 5.46343 8.4025 6.4926 9.58333 6.69176V9.22676H5.41667C3.34917 9.22676 1.66667 10.9093 1.66667 12.9768V15.2834C1.66667 15.2834 1.66667 15.2868 1.66667 15.2884V20.0601H0.416667C0.186667 20.0601 0 20.2468 0 20.4768C0 20.7068 0.186667 20.8934 0.416667 20.8934H19.5833C19.8133 20.8934 20 20.7068 20 20.4768C20 20.2468 19.8133 20.0601 19.5833 20.0601ZM8.33333 4.22676C8.33333 3.3626 9.3575 2.23343 9.69333 1.8626C9.77333 1.7751 9.88167 1.72676 10 1.72676C10.1183 1.72676 10.2267 1.7751 10.3058 1.8626C11.1833 2.8301 11.6667 3.66926 11.6667 4.22676C11.6667 5.14593 10.9192 5.89343 10 5.89343C9.08083 5.89343 8.33333 5.14593 8.33333 4.22676ZM5.41667 10.0601H14.5833C16.1917 10.0601 17.5 11.3684 17.5 12.9768V14.9784C17.2983 15.0318 17.0867 15.0601 16.875 15.0601C15.8192 15.0601 15 14.3884 15 13.8101C15 13.5801 14.8133 13.3934 14.5833 13.3934C14.3533 13.3934 14.1667 13.5801 14.1667 13.8101C14.1667 14.3884 13.3475 15.0601 12.2917 15.0601C11.2358 15.0601 10.4167 14.3884 10.4167 13.8101C10.4167 13.5801 10.23 13.3934 10 13.3934C9.77 13.3934 9.58333 13.5801 9.58333 13.8101C9.58333 14.3884 8.76417 15.0601 7.70833 15.0601C6.6525 15.0601 5.83333 14.3884 5.83333 13.8101C5.83333 13.5801 5.64667 13.3934 5.41667 13.3934C5.18667 13.3934 5 13.5801 5 13.8101C5 14.3884 4.18083 15.0601 3.125 15.0601C2.91417 15.0601 2.70167 15.0318 2.5 14.9776V12.9768C2.5 11.3684 3.80833 10.0601 5.41667 10.0601ZM2.5 15.8334C2.70417 15.8734 2.9125 15.8934 3.125 15.8934C4.06417 15.8934 4.9275 15.4809 5.41667 14.8868C5.90583 15.4809 6.76917 15.8934 7.70833 15.8934C8.6475 15.8934 9.51167 15.4809 10 14.8868C10.4883 15.4809 11.3533 15.8934 12.2917 15.8934C13.23 15.8934 14.0942 15.4809 14.5833 14.8868C15.0725 15.4809 15.9358 15.8934 16.875 15.8934C17.0875 15.8934 17.2967 15.8734 17.5 15.8343V20.0601H2.5V15.8334Z" fill="#1B1B1D"/>
</g>
<defs>
<clipPath id="clip0_2070_39617">
<rect width="20" height="20" fill="white" transform="translate(0 0.893555)"/>
</clipPath>
</defs>
</svg>
