<svg width="16" height="17" viewBox="0 0 16 17" fill="none" xmlns="http://www.w3.org/2000/svg">
<g clip-path="url(#clip0_2331_30201)">
<path d="M16.0008 8.39355C16.0008 12.8049 12.4121 16.3936 8.0008 16.3936C3.7028 16.3936 0.192133 13.0322 0.00813316 8.74089C0.000133161 8.55689 0.1428 8.40156 0.3268 8.39355C0.507466 8.40089 0.666133 8.52822 0.674133 8.71289C0.842133 12.6462 4.0608 15.7269 8.0008 15.7269C12.0441 15.7269 15.3341 12.4369 15.3341 8.39355C15.3341 4.35022 12.0441 1.06022 8.0008 1.06022C5.50013 1.06022 3.22813 2.30689 1.86613 4.39355H5.0008C5.1848 4.39355 5.33413 4.54289 5.33413 4.72689C5.33413 4.91089 5.1848 5.06022 5.0008 5.06022H1.66747C1.11613 5.06022 0.667466 4.61155 0.667466 4.06022V0.726888C0.667466 0.542888 0.8168 0.393555 1.0008 0.393555C1.1848 0.393555 1.33413 0.542888 1.33413 0.726888V3.99289C2.82213 1.73955 5.28813 0.393555 8.0008 0.393555C12.4121 0.393555 16.0008 3.98222 16.0008 8.39355Z" fill="#4B6D74"/>
</g>
<defs>
<clipPath id="clip0_2331_30201">
<rect width="16" height="16" fill="white" transform="translate(0 0.393555)"/>
</clipPath>
</defs>
</svg>
