<svg width="52" height="52" viewBox="0 0 52 52" fill="none" xmlns="http://www.w3.org/2000/svg">
<path d="M0 15C0 6.71573 6.71573 0 15 0H50C51.1046 0 52 0.895431 52 2V37C52 45.2843 45.2843 52 37 52H2C0.895432 52 0 51.1046 0 50V15Z" fill="#4B6D74"/>
<path d="M25.5 11C16.4016 11 9 16.7635 9 23.8463C9 28.5124 12.2134 32.7653 17.4196 35.042C15.8009 37.8543 14.0693 40.2966 14.0511 40.3216C13.953 40.46 13.9456 40.6431 14.0324 40.7884C14.1115 40.92 14.2536 41 14.4056 41C14.4212 41 14.4383 40.9984 14.4548 40.9966C14.6293 40.9769 18.7552 40.4706 23.8259 36.6205C24.419 36.6686 24.9685 36.6927 25.5 36.6927C34.5984 36.6927 42 30.9292 42 23.8463C42 16.7635 34.5984 11 25.5 11ZM25.5 11.8598C34.1191 11.8598 41.1316 17.2372 41.1316 23.8463C41.1316 30.4555 34.1191 35.8329 25.5 35.8329C24.9433 35.8329 24.3657 35.8057 23.7326 35.7506C23.6258 35.7412 23.5142 35.7734 23.4273 35.8396C19.9545 38.5084 16.8887 39.551 15.369 39.9353C16.0776 38.8881 17.2958 37.0323 18.4152 35.0453C18.476 34.9379 18.4866 34.8088 18.4458 34.6927C18.405 34.5775 18.3162 34.4839 18.2015 34.4374C13.0613 32.3482 9.86842 28.2906 9.86842 23.8463C9.86842 17.2372 16.8809 11.8598 25.5 11.8598ZM25.5017 17.042C25.3558 17.042 25.2097 17.1109 25.1489 17.2502L23.4121 21.2183L19.0547 21.6583C18.9027 21.6737 18.7734 21.7758 18.7273 21.9202C18.6813 22.0638 18.7255 22.2227 18.841 22.3216L22.1264 25.1495L21.2257 29.4584C21.1945 29.6063 21.2559 29.7595 21.3818 29.8463C21.5077 29.9323 21.6722 29.9381 21.8024 29.8581L25.5 27.581L29.1976 29.8581C29.2601 29.8959 29.3291 29.9152 29.3994 29.9152C29.4767 29.9152 29.553 29.8919 29.6199 29.8463C29.7458 29.7595 29.8072 29.6072 29.776 29.4584L28.8753 25.1495L32.1607 22.3216C32.2762 22.2227 32.3204 22.0647 32.2744 21.9202C32.2275 21.7767 32.099 21.6737 31.947 21.6583L27.5896 21.2183L25.8528 17.2502C25.792 17.1118 25.6476 17.042 25.5017 17.042Z" fill="white"/>
</svg>
