<svg width="52" height="52" viewBox="0 0 52 52" fill="none" xmlns="http://www.w3.org/2000/svg">
<path d="M0 15C0 6.71573 6.71573 0 15 0H50C51.1046 0 52 0.895431 52 2V37C52 45.2843 45.2843 52 37 52H2C0.895432 52 0 51.1046 0 50V15Z" fill="#4B6D74"/>
<path d="M22.1016 10C19.9057 10 18.25 11.5726 18.25 13.6571C18.25 14.7778 18.7389 15.7401 19.5226 16.4H13.2656C12.0159 16.4 11 17.4258 11 18.6857V23.2571C11 24.3608 11.7791 25.2842 12.8125 25.4964V37.8857C12.8125 40.1541 14.6422 42 16.8906 42H34.1094C36.3578 42 38.1875 40.1541 38.1875 37.8857V25.4964C39.2209 25.2842 40 24.3608 40 23.2571V18.6857C40 17.4258 38.9841 16.4 37.7344 16.4H31.4774C32.2611 15.7401 32.75 14.7778 32.75 13.6571C32.75 11.5726 31.0943 10 28.8984 10C27.4176 10 26.1443 10.8644 25.5 12.1161C24.8557 10.8644 23.5824 10 22.1016 10ZM22.1016 10.9143C23.7256 10.9143 25.0469 12.2656 25.0469 13.925V16.4H22.1016C20.3951 16.4 19.1562 15.2462 19.1562 13.6571C19.1562 12.0681 20.3951 10.9143 22.1016 10.9143ZM28.8984 10.9143C30.6049 10.9143 31.8438 12.0681 31.8438 13.6571C31.8438 15.2462 30.6049 16.4 28.8984 16.4H25.9531V13.925C25.9531 12.2656 27.2744 10.9143 28.8984 10.9143ZM13.2656 17.3143H22.1016H28.8984H37.7344C38.4838 17.3143 39.0938 17.9296 39.0938 18.6857V23.2571C39.0938 24.0133 38.4838 24.6286 37.7344 24.6286H13.2656C12.5162 24.6286 11.9062 24.0133 11.9062 23.2571V18.6857C11.9062 17.9296 12.5162 17.3143 13.2656 17.3143ZM13.7188 25.5429H37.2812V37.8857C37.2812 39.6503 35.8584 41.0857 34.1094 41.0857H16.8906C15.1416 41.0857 13.7188 39.6503 13.7188 37.8857V25.5429ZM23.6875 29.7482C22.6 29.7482 21.875 30.6625 21.875 31.5768C21.875 33.4054 25.5 35.6 25.5 35.6C25.5 35.6 29.125 33.4054 29.125 31.5768C29.125 30.6625 28.4 29.7482 27.3125 29.7482C26.4062 29.7482 25.5 31.0286 25.5 31.0286C25.5 31.0286 24.5938 29.7482 23.6875 29.7482Z" fill="white"/>
</svg>
