<svg width="41" height="37" viewBox="0 0 41 37" fill="none" xmlns="http://www.w3.org/2000/svg">
<path d="M16.0448 6.26063L19.7919 14.8254L23.9727 6.46377C25.4284 3.55241 23.3113 0.126953 20.0563 0.126953C16.8987 0.126953 14.7792 3.36771 16.0448 6.26063Z" fill="#4B6D74" fill-opacity="0.35"/>
<path d="M16.0448 30.7394L19.7919 22.1746L23.9727 30.5362C25.4284 33.4476 23.3113 36.873 20.0563 36.873C16.8987 36.873 14.7792 33.6323 16.0448 30.7394Z" fill="#4B6D74"/>
<path d="M29.3838 28.7812L24.1489 21.0358L33.4504 21.9727C36.6891 22.299 38.4521 25.9194 36.712 28.6702C35.0239 31.3387 31.152 31.3974 29.3838 28.7812Z" fill="#4B6D74" fill-opacity="0.8"/>
<path d="M11.6162 9.34867L16.8511 17.0941L7.54956 16.1571C4.31095 15.8309 2.54787 12.2105 4.28801 9.45972C5.97611 6.79117 9.84798 6.7325 11.6162 9.34867Z" fill="#4B6D74" fill-opacity="0.3"/>
<path d="M11.6162 28.7812L16.8511 21.0358L7.54956 21.9727C4.31095 22.299 2.54787 25.9194 4.28801 28.6702C5.97611 31.3387 9.84798 31.3974 11.6162 28.7812Z" fill="#4B6D74" fill-opacity="0.2"/>
<path d="M29.3838 9.34867L24.1489 17.0941L33.4504 16.1571C36.6891 15.8309 38.4521 12.2105 36.712 9.45972C35.0239 6.79117 31.152 6.7325 29.3838 9.34867Z" fill="#4B6D74" fill-opacity="0.6"/>
</svg>
