<svg width="52" height="52" viewBox="0 0 52 52" fill="none" xmlns="http://www.w3.org/2000/svg">
<path d="M0 15C0 6.71573 6.71573 0 15 0H50C51.1046 0 52 0.895431 52 2V37C52 45.2843 45.2843 52 37 52H2C0.895432 52 0 51.1046 0 50V15Z" fill="#4B6D74"/>
<path d="M21.5448 14.1337L25.2919 22.6984L29.4727 14.3368C30.9284 11.4255 28.8113 8 25.5563 8C22.3987 8 20.2792 11.2408 21.5448 14.1337Z" fill="white" fill-opacity="0.35"/>
<path d="M21.5448 38.6124L25.2919 30.0477L29.4727 38.4093C30.9284 41.3206 28.8113 44.7461 25.5563 44.7461C22.3987 44.7461 20.2792 41.5053 21.5448 38.6124Z" fill="white"/>
<path d="M34.8838 36.6548L29.6489 28.9093L38.9504 29.8463C42.1891 30.1725 43.9521 33.7929 42.212 36.5437C40.5239 39.2122 36.652 39.2709 34.8838 36.6548Z" fill="white" fill-opacity="0.8"/>
<path d="M17.1162 17.2217L22.3511 24.9671L13.0496 24.0302C9.81095 23.704 8.04787 20.0836 9.78801 17.3328C11.4761 14.6642 15.348 14.6055 17.1162 17.2217Z" fill="white" fill-opacity="0.3"/>
<path d="M17.1162 36.6548L22.3511 28.9093L13.0496 29.8463C9.81095 30.1725 8.04787 33.7929 9.78801 36.5437C11.4761 39.2122 15.348 39.2709 17.1162 36.6548Z" fill="white" fill-opacity="0.2"/>
<path d="M34.8838 17.2217L29.6489 24.9671L38.9504 24.0302C42.1891 23.704 43.9521 20.0836 42.212 17.3328C40.5239 14.6642 36.652 14.6055 34.8838 17.2217Z" fill="white" fill-opacity="0.6"/>
</svg>
