<svg width="52" height="52" viewBox="0 0 52 52" fill="none" xmlns="http://www.w3.org/2000/svg">
<path d="M0 15C0 6.71573 6.71573 0 15 0H50C51.1046 0 52 0.895431 52 2V37C52 45.2843 45.2843 52 37 52H2C0.895432 52 0 51.1046 0 50V15Z" fill="#4B6D74"/>
<path d="M16.5714 10C15.1511 10 14 11.1565 14 12.5833V38.4167C14 39.8435 15.1511 41 16.5714 41H35.4286C36.8489 41 38 39.8435 38 38.4167V12.5833C38 11.1565 36.8489 10 35.4286 10H16.5714ZM16.5714 10.8611H21.7143V11.7222C21.7143 12.6737 22.4814 13.4444 23.4286 13.4444H28.5714C29.5186 13.4444 30.2857 12.6737 30.2857 11.7222V10.8611H35.4286C36.3757 10.8611 37.1429 11.6318 37.1429 12.5833V38.4167C37.1429 39.3682 36.3757 40.1389 35.4286 40.1389H16.5714C15.6243 40.1389 14.8571 39.3682 14.8571 38.4167V12.5833C14.8571 11.6318 15.6243 10.8611 16.5714 10.8611ZM20 22.4861C19.5269 22.4861 19.1429 22.8719 19.1429 23.3472C19.1429 23.8226 19.5269 24.2083 20 24.2083C20.4731 24.2083 20.8571 23.8226 20.8571 23.3472C20.8571 22.8719 20.4731 22.4861 20 22.4861ZM24.7143 22.9167C24.4777 22.9167 24.2857 23.1096 24.2857 23.3472C24.2857 23.5849 24.4777 23.7778 24.7143 23.7778H32.4286C32.6651 23.7778 32.8571 23.5849 32.8571 23.3472C32.8571 23.1096 32.6651 22.9167 32.4286 22.9167H24.7143ZM20 27.6528C19.5269 27.6528 19.1429 28.0386 19.1429 28.5139C19.1429 28.9892 19.5269 29.375 20 29.375C20.4731 29.375 20.8571 28.9892 20.8571 28.5139C20.8571 28.0386 20.4731 27.6528 20 27.6528ZM24.7143 28.0833C24.4777 28.0833 24.2857 28.2762 24.2857 28.5139C24.2857 28.7516 24.4777 28.9444 24.7143 28.9444H32.4286C32.6651 28.9444 32.8571 28.7516 32.8571 28.5139C32.8571 28.2762 32.6651 28.0833 32.4286 28.0833H24.7143ZM21.885 32.3906C21.7753 32.3906 21.6656 32.4328 21.582 32.5167L20.1708 33.9345L19.4459 33.2046C19.2787 33.0367 19.007 33.0367 18.8398 33.2046C18.6727 33.3725 18.6727 33.6455 18.8398 33.8134L19.8677 34.8461C19.9517 34.9296 20.061 34.9722 20.1708 34.9722C20.2805 34.9722 20.3906 34.9304 20.4738 34.8478L22.1881 33.1255C22.3552 32.9576 22.3552 32.6846 22.1881 32.5167C22.1045 32.4328 21.9948 32.3906 21.885 32.3906ZM25.5714 33.25C25.3349 33.25 25.1429 33.4429 25.1429 33.6806C25.1429 33.9182 25.3349 34.1111 25.5714 34.1111H32.4286C32.6651 34.1111 32.8571 33.9182 32.8571 33.6806C32.8571 33.4429 32.6651 33.25 32.4286 33.25H25.5714Z" fill="white"/>
</svg>
