<svg width="52" height="52" viewBox="0 0 52 52" fill="none" xmlns="http://www.w3.org/2000/svg">
<path d="M0 15C0 6.71573 6.71573 0 15 0H50C51.1046 0 52 0.895431 52 2V37C52 45.2843 45.2843 52 37 52H2C0.895432 52 0 51.1046 0 50V15Z" fill="#4B6D74"/>
<path d="M20.7037 10C19.1262 10 17.8519 11.256 17.8519 12.8C17.8519 14.344 19.1262 15.6 20.7037 15.6C22.2812 15.6 23.5556 14.344 23.5556 12.8C23.5556 11.256 22.2812 10 20.7037 10ZM31.2963 10C29.7188 10 28.4444 11.256 28.4444 12.8C28.4444 14.344 29.7188 15.6 31.2963 15.6C32.8738 15.6 34.1481 14.344 34.1481 12.8C34.1481 11.256 32.8738 10 31.2963 10ZM20.7037 17.2C17.3467 17.2 15 19.528 15 21.2V28.6641C15 29.4001 15.611 30 16.3607 30H16.6137V40.7547C16.6137 41.4427 17.1813 42 17.8821 42C18.5519 42 19.1073 41.4881 19.1489 40.8313L19.838 30H21.5694L22.2585 40.8313C22.3001 41.4881 22.8547 42 23.5253 42C24.2261 42 24.7937 41.4427 24.7937 40.7547V29.2H24.7778V19.6H32.5185C33.1932 19.6 33.7407 19.0632 33.7407 18.4C33.7407 17.7368 33.1932 17.2 32.5185 17.2H20.7037ZM35.3624 18.5688C35.2712 20.1416 33.9151 21.2 32.5185 21.2H27.2222V29.2H27.2063V40.7547C27.2063 41.4427 27.7739 42 28.4747 42C29.1445 42 29.6999 41.4881 29.7415 40.8313L30.4306 30H32.162L32.8511 40.8313C32.8927 41.4881 33.4473 42 34.1179 42C34.8187 42 35.3863 41.4427 35.3863 40.7547V30H35.6393C36.389 30 37 29.4001 37 28.6641V21.2C37 20.352 36.3972 19.3528 35.3624 18.5688Z" fill="white"/>
</svg>
