<svg width="52" height="52" viewBox="0 0 52 52" fill="none" xmlns="http://www.w3.org/2000/svg">
<path d="M0 15C0 6.71573 6.71573 0 15 0H50C51.1046 0 52 0.895431 52 2V37C52 45.2843 45.2843 52 37 52H2C0.895432 52 0 51.1046 0 50V15Z" fill="#4B6D74"/>
<path d="M7.40279 13C7.18045 13 7 13.1765 7 13.3939C7 13.6114 7.18045 13.7879 7.40279 13.7879H29.4996C29.9434 13.7879 30.3052 14.1416 30.3052 14.5758V35.8485H22.2085C22.0114 34.5139 20.849 33.4848 19.4298 33.4848C18.0107 33.4848 16.8483 34.5139 16.6512 35.8485H12.6689C12.1775 35.8485 11.7768 35.4566 11.7768 34.976V20.4848C11.7768 20.2674 11.5964 20.0909 11.374 20.0909C11.1517 20.0909 10.9713 20.2674 10.9713 20.4848V34.976C10.9713 35.8915 11.7329 36.6364 12.6689 36.6364H16.6512C16.8483 37.9709 18.0107 39 19.4298 39C20.849 39 22.0114 37.9709 22.2085 36.6364H34.374C34.571 37.9709 35.7334 39 37.1526 39C38.5717 39 39.7341 37.9709 39.9312 36.6364H42.3322C43.2522 36.6364 44 35.905 44 35.0052V27.5758L41.7154 19.6985C41.5116 19.002 40.8517 18.5152 40.1106 18.5152H31.1107V14.5758C31.1107 13.7067 30.3881 13 29.4996 13H7.40279ZM9.76288 15.3636C9.54054 15.3636 9.3601 15.5401 9.3601 15.7576C9.3601 15.975 9.54054 16.1515 9.76288 16.1515H14.5964C14.8187 16.1515 14.9991 15.975 14.9991 15.7576C14.9991 15.5401 14.8187 15.3636 14.5964 15.3636H9.76288ZM8.95731 17.7273C8.73497 17.7273 8.55452 17.9038 8.55452 18.1212C8.55452 18.3387 8.73497 18.5152 8.95731 18.5152H12.1796C12.402 18.5152 12.5824 18.3387 12.5824 18.1212C12.5824 17.9038 12.402 17.7273 12.1796 17.7273H8.95731ZM31.1107 19.303H40.1106C40.494 19.303 40.8342 19.5546 40.9397 19.9155L43.1944 27.6312V35.0052C43.1944 35.4708 42.8083 35.8485 42.3322 35.8485H39.9312C39.7341 34.5139 38.5717 33.4848 37.1526 33.4848C35.7334 33.4848 34.571 34.5139 34.374 35.8485H31.1107V19.303ZM19.4298 34.2727C20.5423 34.2727 21.4438 35.1544 21.4438 36.2424C21.4438 37.3305 20.5423 38.2121 19.4298 38.2121C18.3173 38.2121 17.4159 37.3305 17.4159 36.2424C17.4159 35.1544 18.3173 34.2727 19.4298 34.2727ZM37.1526 34.2727C38.2651 34.2727 39.1665 35.1544 39.1665 36.2424C39.1665 37.3305 38.2651 38.2121 37.1526 38.2121C36.0401 38.2121 35.1386 37.3305 35.1386 36.2424C35.1386 35.1544 36.0401 34.2727 37.1526 34.2727Z" fill="white"/>
</svg>
