<svg width="75" height="75" viewBox="0 0 75 75" fill="none" xmlns="http://www.w3.org/2000/svg">
<rect width="75" height="75" fill="white"/>
<path d="M18.5195 11C17.1287 11 16 12.18 16 13.6312V20.6485C16 33.7443 18.9818 43.6672 20.7602 48.4168C21.2759 49.7953 22.3634 50.7894 23.6805 51.1728V57.867C23.6805 59.5939 25.0257 61 26.6805 61H35.3195C36.9743 61 38.3195 59.5952 38.3195 57.867V51.1728C39.6366 50.7894 40.7241 49.7953 41.2398 48.4168C43.0182 43.6672 46 33.7443 46 20.6485V13.6312C46 12.18 44.8701 11 43.4805 11H18.5195ZM18.5195 12.2532H43.4805C44.2089 12.2532 44.8 12.8718 44.8 13.6312V19.0184H17.2V13.6312C17.2 12.8718 17.7923 12.2532 18.5195 12.2532ZM17.2 20.2716H44.8V20.6485C44.8 33.54 41.8714 43.2947 40.1242 47.9615C39.637 49.2598 38.4542 50.0983 37.1102 50.0983H24.8898C23.5458 50.0983 22.3618 49.2598 21.8758 47.9615C20.1286 43.2947 17.2 33.54 17.2 20.6485V20.2716ZM27.4 27.6659C26.7376 27.6659 26.2 28.2273 26.2 28.919V33.43C26.2 34.1218 26.7376 34.6832 27.4 34.6832H34.6C35.2624 34.6832 35.8 34.1218 35.8 33.43V28.919C35.8 28.2273 35.2624 27.6659 34.6 27.6659H27.4ZM24.8805 51.3515C24.8836 51.3515 24.8867 51.3515 24.8898 51.3515H37.1102C37.1133 51.3515 37.1164 51.3515 37.1195 51.3515V57.867C37.1195 58.9034 36.3119 59.7468 35.3195 59.7468H26.6805C25.6881 59.7468 24.8805 58.9034 24.8805 57.867V51.3515Z" fill="#4B6D74"/>
<path d="M37 37.4733C37 35.0449 38.9686 33.0763 41.3971 33.0763V28.9068H44.7794V26.822L42.75 25.7797V23H60V64H37V37.4733Z" fill="white"/>
<path d="M43.3 23C43.0102 23 42.775 23.2551 42.775 23.5694V24.7083C42.775 25.0227 43.0102 25.2778 43.3 25.2778C43.8796 25.2778 44.35 25.788 44.35 26.4167V28.6944H42.775C41.9066 28.6944 41.2 29.4609 41.2 30.4028V33.25H39.625C38.1781 33.25 37 34.5278 37 36.0972V53.5587C37 58.5516 39.5836 61.9437 40.6935 63.1703C41.1702 63.6976 41.845 64 42.5453 64H52.4547C53.154 64 53.8278 63.6976 54.3045 63.1703C55.4154 61.9437 58 58.5516 58 53.5587V36.0972C58 34.5278 56.8219 33.25 55.375 33.25H53.8V30.4028C53.8 29.4609 53.0933 28.6944 52.225 28.6944H50.65V25.2778C50.65 24.0193 49.7102 23 48.55 23H43.3ZM42.775 29.8333H52.225C52.5148 29.8333 52.75 30.0884 52.75 30.4028V33.25H42.25V30.4028C42.25 30.0884 42.4852 29.8333 42.775 29.8333ZM39.625 34.3889H55.375C56.2433 34.3889 56.95 35.1554 56.95 36.0972V53.5587C56.95 58.1313 54.5766 61.2476 53.556 62.374C53.2756 62.6837 52.8747 62.8611 52.4547 62.8611H42.5453C42.1253 62.8611 41.7254 62.6827 41.444 62.3717C40.4234 61.2454 38.05 58.1313 38.05 53.5587V36.0972C38.05 35.1554 38.7566 34.3889 39.625 34.3889Z" fill="#4B6D74"/>
</svg>
