<svg width="25" height="50" viewBox="0 0 25 50" fill="none" xmlns="http://www.w3.org/2000/svg">
<path d="M7.5 0C7.155 0 6.875 0.311111 6.875 0.694444V2.08333C6.875 2.46667 7.155 2.77778 7.5 2.77778C8.19 2.77778 8.75 3.4 8.75 4.16667V6.94444H6.875C5.84125 6.94444 5 7.87917 5 9.02778V12.5H3.125C1.4025 12.5 0 14.0583 0 15.9722V37.2667C0 43.3556 3.07572 47.4923 4.39697 48.9882C4.96447 49.6312 5.76781 50 6.60156 50H18.3984C19.2309 50 20.0331 49.6312 20.6006 48.9882C21.9231 47.4923 25 43.3556 25 37.2667V15.9722C25 14.0583 23.5975 12.5 21.875 12.5H20V9.02778C20 7.87917 19.1588 6.94444 18.125 6.94444H16.25V2.77778C16.25 1.24306 15.1313 0 13.75 0H7.5ZM6.875 8.33333H18.125C18.47 8.33333 18.75 8.64444 18.75 9.02778V12.5H6.25V9.02778C6.25 8.64444 6.53 8.33333 6.875 8.33333ZM3.125 13.8889H21.875C22.9088 13.8889 23.75 14.8236 23.75 15.9722V37.2667C23.75 42.8431 20.9245 46.6434 19.7095 48.017C19.3757 48.3948 18.8984 48.6111 18.3984 48.6111H6.60156C6.10156 48.6111 5.62553 48.3935 5.29053 48.0143C4.07553 46.6407 1.25 42.8431 1.25 37.2667V15.9722C1.25 14.8236 2.09125 13.8889 3.125 13.8889Z" fill="#4B6D74"/>
</svg>
