<svg width="49" height="53" viewBox="0 0 49 53" fill="none" xmlns="http://www.w3.org/2000/svg">
<path d="M18.875 0.5C15.2405 0.5 12.5 3.08 12.5 6.5C12.5 8.33863 13.3092 9.9173 14.6064 11H4.25C2.1815 11 0.5 12.683 0.5 14.75V22.25C0.5 24.0606 1.78962 25.5756 3.5 25.9238V46.25C3.5 49.9715 6.5285 53 10.25 53H38.75C42.4715 53 45.5 49.9715 45.5 46.25V25.9238C47.2104 25.5756 48.5 24.0606 48.5 22.25V14.75C48.5 12.683 46.8185 11 44.75 11H34.3936C35.6908 9.9173 36.5 8.33863 36.5 6.5C36.5 3.08 33.7595 0.5 30.125 0.5C27.674 0.5 25.5665 1.91818 24.5 3.97168C23.4335 1.91818 21.326 0.5 18.875 0.5ZM18.875 2C21.563 2 23.75 4.21695 23.75 6.93945V11H18.875C16.0505 11 14 9.107 14 6.5C14 3.893 16.0505 2 18.875 2ZM30.125 2C32.9495 2 35 3.893 35 6.5C35 9.107 32.9495 11 30.125 11H25.25V6.93945C25.25 4.21695 27.437 2 30.125 2ZM4.25 12.5H23.75V24.5H4.25C3.0095 24.5 2 23.4905 2 22.25V14.75C2 13.5095 3.0095 12.5 4.25 12.5ZM25.25 12.5H44.75C45.9905 12.5 47 13.5095 47 14.75V22.25C47 23.4905 45.9905 24.5 44.75 24.5H25.25V12.5ZM5 26H23.75V51.5H10.25C7.355 51.5 5 49.145 5 46.25V26ZM25.25 26H44V46.25C44 49.145 41.645 51.5 38.75 51.5H25.25V26Z" fill="#4B6D74"/>
</svg>
