<svg width="47" height="53" viewBox="0 0 47 53" fill="none" xmlns="http://www.w3.org/2000/svg">
<path d="M19.7684 30.0578C19.5724 30.2132 19.4343 30.434 19.3775 30.6827C19.1509 31.6192 19.2805 32.6228 19.8693 33.3116C20.3757 33.9042 21.1051 34.1361 21.8657 34.2016C21.9814 34.243 22.1031 34.2635 22.2256 34.2623H22.2277H24.7723C24.8934 34.263 25.0136 34.2425 25.1281 34.2016C25.8913 34.1371 26.6229 33.9058 27.1307 33.3116C27.7195 32.6228 27.8504 31.621 27.6246 30.6849C27.5558 30.3994 27.3802 30.154 27.1365 30.0025M23.5 1C12.9213 1 6.96191 8.36924 6.96191 8.36924C6.82909 8.53484 6.74571 8.73685 6.72192 8.95064C6.69814 9.16444 6.735 9.38077 6.82799 9.57327L8.02916 12.0636L5.8005 11.4854C5.56992 11.426 5.32679 11.4476 5.10936 11.5467C4.89192 11.6459 4.7125 11.8171 4.59933 12.0333L4.59724 12.0355C4.58939 12.0497 4.57948 12.0686 4.56585 12.0939C4.53737 12.1468 4.49726 12.2229 4.44657 12.3213C4.34519 12.5181 4.20181 12.8028 4.03223 13.168C3.69306 13.8985 3.2459 14.9498 2.79757 16.2495C1.90092 18.8491 1 22.4495 1 26.5011C1 34.6042 4.61398 40.997 4.61398 40.997C4.73084 41.2047 4.90974 41.3675 5.12374 41.4608C5.33773 41.5541 5.57524 41.573 5.8005 41.5146L8.03125 40.9364L6.82799 43.4267C6.73455 43.6195 6.69746 43.8362 6.72125 44.0505C6.74503 44.2647 6.82867 44.4671 6.96191 44.6329C6.96191 44.6329 12.9213 52 23.5 52C34.0787 52 40.0381 44.6329 40.0381 44.6329C40.1713 44.4671 40.255 44.2647 40.2788 44.0505C40.3025 43.8362 40.2654 43.6195 40.172 43.4267L38.9687 40.9364L41.1995 41.5146C41.4248 41.573 41.6623 41.5541 41.8763 41.4608C42.0903 41.3675 42.2692 41.2047 42.386 40.997C42.386 40.997 46 34.6042 46 26.5011C46 18.398 42.386 12.0051 42.386 12.0051C42.2692 11.7975 42.0903 11.6347 41.8763 11.5414C41.6623 11.448 41.4248 11.4291 41.1995 11.4876L38.9687 12.0658L40.172 9.57543C40.2471 9.42163 40.2865 9.25184 40.2871 9.07953C40.2871 9.07953 40.0275 8.35654 40.013 8.33892C39.9984 8.32131 39.9777 8.29725 39.9523 8.26746C39.9015 8.20788 39.8292 8.12473 39.7347 8.02059C39.5455 7.81233 39.2681 7.52206 38.906 7.17604C38.1817 6.484 37.1164 5.56887 35.7189 4.65539C32.9239 2.82842 28.7893 1 23.5 1ZM16 19.8486C14.404 19.8486 13.1139 20.2298 12.1705 20.9162C11.2271 21.6026 10.6429 22.642 10.6429 23.7292C10.6429 24.8164 11.2271 25.8558 12.1705 26.5422C13.1139 27.2286 14.404 27.6098 16 27.6098C17.596 27.6098 18.8861 27.2286 19.8295 26.5422C20.7729 25.8558 21.3571 24.8164 21.3571 23.7292C21.3571 22.642 20.7729 21.6026 19.8295 20.9162C18.8861 20.2298 17.596 19.8486 16 19.8486ZM31 19.8486C29.404 19.8486 28.1139 20.2298 27.1705 20.9162C26.2271 21.6026 25.6429 22.642 25.6429 23.7292C25.6429 24.8164 26.2271 25.8558 27.1705 26.5422C28.1139 27.2286 29.404 27.6098 31 27.6098C32.596 27.6098 33.8861 27.2286 34.8295 26.5422C35.7729 25.8558 36.3571 24.8164 36.3571 23.7292C36.3571 22.642 35.7729 21.6026 34.8295 20.9162C33.8861 20.2298 32.596 19.8486 31 19.8486ZM23.5 36.4798C22.1962 36.4798 20.7827 36.6941 19.5951 37.1034C19.0014 37.3081 18.4631 37.5542 17.9985 37.9198C17.5339 38.2855 17.0714 38.8662 17.0714 39.6393C17.0714 40.4123 17.5026 40.9753 17.9503 41.3717C18.3981 41.7681 18.9335 42.0634 19.5282 42.3158C20.7176 42.8206 22.1477 43.1322 23.5 43.1322C24.8523 43.1322 26.2824 42.8206 27.4718 42.3158C28.0665 42.0634 28.6019 41.7681 29.0497 41.3717C29.4974 40.9753 29.9286 40.4123 29.9286 39.6393C29.9286 38.8662 29.4661 38.2855 29.0015 37.9198C28.5369 37.5542 27.9986 37.3081 27.4049 37.1034C26.2173 36.6941 24.8038 36.4798 23.5 36.4798Z" stroke="#4B6D74"/>
</svg>
