<svg width="29" height="48" viewBox="0 0 29 48" fill="none" xmlns="http://www.w3.org/2000/svg">
<path d="M2.43555 0C1.09111 1.20305e-07 0 1.13281 0 2.52594V9.26258C0 21.8345 2.88236 31.3605 4.60148 35.9201C5.10007 37.2435 6.15129 38.1978 7.42445 38.5659V44.9924C7.42445 46.6502 8.72481 48 10.3245 48H18.6755C20.2752 48 21.5755 46.6514 21.5755 44.9924V38.5659C22.8487 38.1978 23.8999 37.2435 24.3985 35.9201C26.1176 31.3605 29 21.8345 29 9.26258V2.52594C29 1.13281 27.9077 0 26.5645 0H2.43555ZM2.43555 1.20305H26.5645C27.2686 1.20305 27.84 1.79689 27.84 2.52594V7.69767H1.16V2.52594C1.16 1.79689 1.73259 1.20305 2.43555 1.20305ZM1.16 8.90072H27.84V9.26258C27.84 21.6384 25.009 31.0029 23.3201 35.4831C22.8491 36.7294 21.7057 37.5344 20.4065 37.5344H8.59352C7.29432 37.5344 6.14972 36.7294 5.67992 35.4831C3.99096 31.0029 1.16 21.6384 1.16 9.26258V8.90072ZM11.02 15.9992C10.3797 15.9992 9.86 16.5382 9.86 17.2023V21.5328C9.86 22.1969 10.3797 22.7359 11.02 22.7359H17.98C18.6203 22.7359 19.14 22.1969 19.14 21.5328V17.2023C19.14 16.5382 18.6203 15.9992 17.98 15.9992H11.02ZM8.58445 38.7374C8.5875 38.7374 8.59046 38.7374 8.59352 38.7374H20.4065C20.4095 38.7374 20.4125 38.7374 20.4155 38.7374V44.9924C20.4155 45.9873 19.6349 46.7969 18.6755 46.7969H10.3245C9.36513 46.7969 8.58445 45.9873 8.58445 44.9924V38.7374Z" fill="#4B6D74"/>
</svg>
