<svg width="63" height="44" viewBox="0 0 63 44" fill="none" xmlns="http://www.w3.org/2000/svg">
<path d="M0.685831 0C0.307252 0 0 0.298667 0 0.666667C0 1.03467 0.307252 1.33333 0.685831 1.33333H38.3101C39.0659 1.33333 39.6818 1.932 39.6818 2.66667V38.6667H25.8955C25.5599 36.4082 23.5807 34.6667 21.1643 34.6667C18.748 34.6667 16.7687 36.4082 16.4332 38.6667H9.65253C8.81582 38.6667 8.13353 38.0034 8.13353 37.1901V12.6667C8.13353 12.2987 7.82627 12 7.4477 12C7.06912 12 6.76186 12.2987 6.76186 12.6667V37.1901C6.76186 38.7394 8.05866 40 9.65253 40H16.4332C16.7687 42.2585 18.748 44 21.1643 44C23.5807 44 25.5599 42.2585 25.8955 40H46.6097C46.9452 42.2585 48.9245 44 51.3409 44C53.7572 44 55.7365 42.2585 56.072 40H60.1602C61.7267 40 63 38.7622 63 37.2396V24.6667L59.1101 11.3359C58.763 10.1573 57.6394 9.33333 56.3774 9.33333H41.0534V2.66667C41.0534 1.196 39.823 0 38.3101 0H0.685831ZM4.70437 4C4.32579 4 4.01854 4.29867 4.01854 4.66667C4.01854 5.03467 4.32579 5.33333 4.70437 5.33333H12.9343C13.3129 5.33333 13.6202 5.03467 13.6202 4.66667C13.6202 4.29867 13.3129 4 12.9343 4H4.70437ZM3.33271 8C2.95413 8 2.64688 8.29867 2.64688 8.66667C2.64688 9.03467 2.95413 9.33333 3.33271 9.33333H8.81936C9.19794 9.33333 9.50519 9.03467 9.50519 8.66667C9.50519 8.29867 9.19794 8 8.81936 8H3.33271ZM41.0534 10.6667H56.3774C57.0304 10.6667 57.6096 11.0925 57.7893 11.7031L61.6283 24.7604V37.2396C61.6283 38.0276 60.9709 38.6667 60.1602 38.6667H56.072C55.7365 36.4082 53.7572 34.6667 51.3409 34.6667C48.9245 34.6667 46.9452 36.4082 46.6097 38.6667H41.0534V10.6667ZM21.1643 36C23.0586 36 24.5935 37.492 24.5935 39.3333C24.5935 41.1747 23.0586 42.6667 21.1643 42.6667C19.2701 42.6667 17.7352 41.1747 17.7352 39.3333C17.7352 37.492 19.2701 36 21.1643 36ZM51.3409 36C53.2351 36 54.77 37.492 54.77 39.3333C54.77 41.1747 53.2351 42.6667 51.3409 42.6667C49.4466 42.6667 47.9117 41.1747 47.9117 39.3333C47.9117 37.492 49.4466 36 51.3409 36Z" fill="#4B6D74"/>
</svg>
