<svg width="75" height="75" viewBox="0 0 75 75" fill="none" xmlns="http://www.w3.org/2000/svg">
<rect width="75" height="75" fill="white"/>
<path d="M31 9C22.6578 9 15.8704 15.6201 15.8704 23.7568C15.8704 25.811 16.3055 27.7667 17.0865 29.5455H12.4562C12.3417 29.1031 12.2359 28.6581 12.1562 28.202C12.1015 27.8921 11.7952 27.6887 11.4833 27.7386C11.1668 27.792 10.9547 28.0839 11.0083 28.3926C12.5885 37.4299 20.7047 44.0216 30.4181 44.2779V49.8649H21.6895C21.3683 49.8649 21.1076 50.1191 21.1076 50.4324C21.1076 50.7457 21.3683 51 21.6895 51H40.3106C40.6318 51 40.8925 50.7457 40.8925 50.4324C40.8925 50.1191 40.6318 49.8649 40.3106 49.8649H31.5819V44.2779C41.2953 44.0216 49.4127 37.431 50.9918 28.3926C51.0453 28.0839 50.831 27.7908 50.5145 27.7386C50.2072 27.6898 49.8986 27.8932 49.8439 28.202C49.7642 28.6581 49.656 29.1031 49.5416 29.5455H44.9136C45.6946 27.7667 46.1297 25.811 46.1297 23.7568C46.1297 15.6201 39.3423 9 31 9ZM31 10.1351C38.701 10.1351 44.9659 16.2456 44.9659 23.7568C44.9659 31.2679 38.701 37.3784 31 37.3784C23.299 37.3784 17.0342 31.2679 17.0342 23.7568C17.0342 16.2456 23.299 10.1351 31 10.1351ZM12.8017 30.6806H17.6479C20.1958 35.3359 25.2225 38.5135 31 38.5135C36.7775 38.5135 41.8043 35.3359 44.3521 30.6806H49.1983C46.7379 38.0429 39.4775 43.1671 31 43.1671C22.5227 43.1671 15.2631 38.0428 12.8017 30.6806Z" fill="#4B6D74"/>
<path d="M37 43C37 39.6863 39.6863 37 43 37H65V66H37V43Z" fill="white"/>
<path d="M40.25 37C40.0016 37 39.8 37.1911 39.8 37.4265V42.1176H38.45C38.2016 42.1176 38 42.3087 38 42.5441C38 42.7795 38.2016 42.9706 38.45 42.9706H39.8V48.0882H38.45C38.2016 48.0882 38 48.2793 38 48.5147C38 48.7501 38.2016 48.9412 38.45 48.9412H39.8V54.0588H38.45C38.2016 54.0588 38 54.2499 38 54.4853C38 54.7207 38.2016 54.9118 38.45 54.9118H39.8V60.0294H38.45C38.2016 60.0294 38 60.2205 38 60.4559C38 60.6913 38.2016 60.8824 38.45 60.8824H39.8V65.5735C39.8 65.8089 40.0016 66 40.25 66H61.85C63.587 66 65 64.6609 65 63.0147V39.9853C65 38.3391 63.587 37 61.85 37H40.25ZM40.7 37.8529H61.85C63.0911 37.8529 64.1 38.8099 64.1 39.9853V63.0147C64.1 64.1901 63.0911 65.1471 61.85 65.1471H40.7V60.8824H42.05C42.2984 60.8824 42.5 60.6913 42.5 60.4559C42.5 60.2205 42.2984 60.0294 42.05 60.0294H40.7V54.9118H42.05C42.2984 54.9118 42.5 54.7207 42.5 54.4853C42.5 54.2499 42.2984 54.0588 42.05 54.0588H40.7V48.9412H42.05C42.2984 48.9412 42.5 48.7501 42.5 48.5147C42.5 48.2793 42.2984 48.0882 42.05 48.0882H40.7V42.9706H42.05C42.2984 42.9706 42.5 42.7795 42.5 42.5441C42.5 42.3087 42.2984 42.1176 42.05 42.1176H40.7V37.8529ZM46.55 42.9706C46.3016 42.9706 46.1 43.1616 46.1 43.3971V50.2206C46.1 50.456 46.3016 50.6471 46.55 50.6471H59.15C59.3984 50.6471 59.6 50.456 59.6 50.2206V43.3971C59.6 43.1616 59.3984 42.9706 59.15 42.9706H46.55ZM47 43.8235H58.7V49.7941H47V43.8235ZM46.55 54.9118C46.3016 54.9118 46.1 55.1028 46.1 55.3382C46.1 55.5736 46.3016 55.7647 46.55 55.7647H59.15C59.3984 55.7647 59.6 55.5736 59.6 55.3382C59.6 55.1028 59.3984 54.9118 59.15 54.9118H46.55ZM46.55 59.1765C46.3016 59.1765 46.1 59.3675 46.1 59.6029C46.1 59.8384 46.3016 60.0294 46.55 60.0294H54.65C54.8984 60.0294 55.1 59.8384 55.1 59.6029C55.1 59.3675 54.8984 59.1765 54.65 59.1765H46.55Z" fill="#4B6D74"/>
</svg>
