<svg width="35" height="34" viewBox="0 0 35 34" fill="none" xmlns="http://www.w3.org/2000/svg">
<path fill-rule="evenodd" clip-rule="evenodd" d="M17.5 6C17.7761 6 18 6.22386 18 6.5V28.5C18 28.7761 17.7761 29 17.5 29C17.2239 29 17 28.7761 17 28.5V6.5C17 6.22386 17.2239 6 17.5 6Z" fill="#4B6D74"/>
<path fill-rule="evenodd" clip-rule="evenodd" d="M14 28.5C14 28.2239 14.2239 28 14.5 28H20.5C20.7761 28 21 28.2239 21 28.5C21 28.7761 20.7761 29 20.5 29H14.5C14.2239 29 14 28.7761 14 28.5Z" fill="#4B6D74"/>
<path fill-rule="evenodd" clip-rule="evenodd" d="M26.9881 8.39164C27.048 8.66121 26.878 8.9283 26.6085 8.9882L8.60847 12.9882C8.3389 13.0481 8.07181 12.8781 8.01191 12.6086C7.952 12.339 8.12197 12.0719 8.39154 12.012L26.3915 8.01201C26.6611 7.95211 26.9282 8.12208 26.9881 8.39164Z" fill="#4B6D74"/>
<path fill-rule="evenodd" clip-rule="evenodd" d="M8.5 12C8.70445 12 8.88831 12.1245 8.96424 12.3143L12.9642 22.3143C12.9879 22.3734 13 22.4364 13 22.5C13 23.8337 12.2323 24.7268 11.3142 25.2617C10.4111 25.788 9.32037 26 8.5 26C7.67963 26 6.58893 25.788 5.68577 25.2617C4.76773 24.7268 4 23.8337 4 22.5C4 22.4364 4.01214 22.3734 4.03576 22.3143L8.03576 12.3143C8.11169 12.1245 8.29555 12 8.5 12ZM5.00178 22.5918C5.03424 23.4213 5.50716 24.0002 6.18923 24.3977C6.91107 24.8183 7.82037 25 8.5 25C9.17963 25 10.0889 24.8183 10.8108 24.3977C11.4928 24.0002 11.9658 23.4213 11.9982 22.5918L8.5 13.8463L5.00178 22.5918Z" fill="#4B6D74"/>
<path fill-rule="evenodd" clip-rule="evenodd" d="M26.5 8C26.7045 8 26.8883 8.12448 26.9642 8.3143L30.9642 18.3143C30.9879 18.3734 31 18.4364 31 18.5C31 19.8337 30.2323 20.7268 29.3142 21.2617C28.4111 21.788 27.3204 22 26.5 22C25.6796 22 24.5889 21.788 23.6858 21.2617C22.7677 20.7268 22 19.8337 22 18.5C22 18.4364 22.0121 18.3734 22.0358 18.3143L26.0358 8.3143C26.1117 8.12448 26.2955 8 26.5 8ZM23.0018 18.5918C23.0342 19.4213 23.5072 20.0002 24.1892 20.3977C24.9111 20.8183 25.8204 21 26.5 21C27.1796 21 28.0889 20.8183 28.8108 20.3977C29.4928 20.0002 29.9658 19.4213 29.9982 18.5918L26.5 9.84629L23.0018 18.5918Z" fill="#4B6D74"/>
</svg>
