<svg width="120" height="120" viewBox="0 0 120 120" fill="none" xmlns="http://www.w3.org/2000/svg">
<path d="M115.853 77.3939C114.731 85.0715 109.536 91.7471 101.972 93.8807C93.2124 96.3515 80.9976 92.3711 72.7596 96.2231C70.176 97.4315 66.2004 100.71 63.8076 101.418C61.6824 102.047 60.324 100.446 60.066 100.492C59.6112 100.573 59.0172 101.62 57.4248 101.582C55.5228 101.538 49.7856 97.2611 47.5296 96.2243C40.6116 93.0455 29.4528 95.2271 21.7404 94.5935C12.5016 93.8351 4.93562 85.5719 4.42682 76.4255C5.12162 63.4007 3.53882 49.4759 4.42682 36.5567C4.81682 30.8903 9.11402 31.5743 13.14 33.4091L16.3968 20.6627C18.7308 16.0031 24.3492 19.5767 26.3748 22.6715C28.1148 25.3295 28.3824 28.1627 27.7236 31.2311L31.77 25.5935C34.5756 23.0075 37.6956 25.4207 39.2964 28.0319C44.0232 35.7419 36.5952 40.8563 34.032 47.5607C39.9876 45.3683 46.2708 45.6395 51.8052 48.8315C55.2288 50.8067 57.6072 53.8919 60.0396 56.9255C60.3612 57.0119 60.396 56.7107 60.5448 56.5619C62.4564 54.6455 63.6996 52.4339 65.9196 50.6171C70.2216 47.0951 76.0176 45.4979 81.522 46.3151C83.1456 46.5563 84.6852 47.1491 86.2596 47.5595C83.6544 40.8407 76.1892 35.6159 81.0756 27.8939C82.6668 25.3799 85.842 23.0039 88.5216 25.5923L92.568 31.2299C91.7856 27.7511 92.3544 24.2675 94.7532 21.5471C96.8028 19.2227 101.881 16.4807 103.757 20.3639C104.741 22.4027 105.58 26.8247 106.219 29.2235C106.585 30.5963 106.972 31.9955 107.153 33.4079C110.227 31.8311 115.23 30.9071 115.856 35.5859V77.3939H115.853ZM30.0456 57.9467C28.9608 59.1503 26.7888 58.1435 26.9448 56.4815C27.0492 55.3655 27.9576 52.9715 28.3692 51.8051C29.5992 48.3191 31.29 44.7419 33.1224 41.5367C35.2176 37.8731 38.8596 34.6799 36.4692 30.2063C36.1188 29.5511 34.7628 27.6071 34.0284 28.5035C32.0568 31.5743 29.7396 34.4423 27.8472 37.5647C25.2444 41.8583 25.0872 43.6871 24.882 48.7511C24.738 52.2959 25.0116 55.8767 24.8856 59.4251C24.1536 61.1819 22.1556 61.1975 21.414 59.4251C21.174 51.1019 21.396 43.2707 23.0004 35.1095C23.46 32.7707 24.7032 29.6951 24.4572 27.4187C24.1992 25.0331 22.1376 22.3823 19.6788 22.0919L16.1784 35.9255C16.5552 37.6535 17.5548 38.8007 17.718 40.6955C18.3288 47.7899 17.2368 55.7375 17.7216 62.9243C17.478 64.7783 14.556 64.9139 14.2428 62.6807C13.7736 55.8551 14.8188 48.3047 14.2368 41.5655C13.9488 38.2307 11.4 35.9363 8.13722 35.5835L7.90922 36.9923C8.52722 49.6247 7.11362 62.9939 7.92002 75.5399C8.25482 80.7455 10.5876 85.3871 14.9016 88.3691C23.5512 94.3487 38.1288 88.5347 48.1068 92.5955C51.198 93.8531 54.3 96.6299 57.108 97.7435C57.3252 97.8299 57.5052 97.9163 57.7476 97.8587C58.9236 95.1023 58.5096 92.1467 56.2308 90.1283C46.9284 83.4863 31.2024 79.8491 32.0652 65.5163C32.4756 58.6967 39.2556 54.6743 45.5628 57.0347C49.2432 58.4123 50.3328 62.5691 54.7908 62.1263C55.5384 62.0519 58.4376 61.2107 58.0872 60.2015C57.9312 59.7539 54.9336 56.2151 54.3816 55.6139C48.8772 49.6259 40.0404 47.4287 32.9628 52.2611C30.33 54.0587 31.3992 56.4431 30.0456 57.9443V57.9467ZM100.61 22.0907C98.1516 22.3811 96.09 25.0319 95.832 27.4175C95.5668 29.8775 97.008 33.6299 97.5108 36.1931C98.79 42.7235 99.534 52.4123 98.8932 59.0063C98.6892 61.1111 96.1512 61.3631 95.4024 59.4239C95.2764 55.8755 95.55 52.2959 95.406 48.7499C95.2008 43.6859 95.0436 41.8571 92.4408 37.5635C90.5484 34.4411 88.2324 31.5743 86.2596 28.5023C85.7676 27.8399 85.1436 28.5299 84.7368 28.9463C80.25 33.5543 85.7772 38.8487 88.0356 43.0595C89.8008 46.3511 91.6464 50.5031 92.676 54.0947C93.0468 55.3883 94.0692 57.5567 92.2944 58.2815C89.3496 59.4851 89.5908 54.7607 88.5336 53.2307C87.8748 52.2779 84.7932 50.8535 83.6484 50.4983C78.492 48.9011 72.6816 49.7303 68.4312 53.1323C67.5456 53.8403 62.238 59.6603 62.13 60.3407C62.0028 61.1447 64.8132 62.0591 65.4984 62.1275C69.9576 62.5703 71.0448 58.4135 74.7264 57.0359C81.9744 54.3227 88.668 59.6471 88.2132 67.2647C87.4152 80.6171 73.0956 83.5811 64.0584 90.1295C61.7784 92.1467 61.3656 95.1035 62.5416 97.8599C62.784 97.9175 62.964 97.8311 63.1812 97.7447C65.9892 96.6299 69.0912 93.8543 72.1824 92.5967C82.5396 88.3823 97.6284 94.7927 106.38 87.6215C110.147 84.5351 112.092 80.1767 112.38 75.3347C113.132 62.6999 111.82 49.3043 112.345 36.5915L112.152 35.5859C108.882 35.9399 106.34 38.2403 106.052 41.5679C105.47 48.3071 106.514 55.8563 106.046 62.6831C105.733 64.9091 102.751 64.8911 102.565 62.7107C103.106 55.5863 101.886 47.4971 102.581 40.4891C102.756 38.7239 103.805 37.5599 104.11 35.9267L100.609 22.0931L100.61 22.0907ZM40.5024 60.0263C34.362 60.9875 35.118 68.6771 37.3992 72.8255C40.3968 78.2747 51.3072 82.6199 56.7288 86.1467C58.0116 86.9807 59.0076 87.8075 60.0648 88.9199C61.29 87.9347 62.22 87.0179 63.558 86.1467C68.9016 82.6715 79.6356 78.3659 82.7316 73.1063C85.9236 67.6835 85.3872 58.9139 77.244 59.9939C74.6208 60.3419 73.6884 62.3915 71.8752 63.7667C68.4348 66.3767 63.6324 66.3023 60.2124 63.7103C57.3972 65.6159 54.0552 66.2951 50.7888 65.0891C46.5288 63.5159 46.1976 59.1347 40.5024 60.0263Z" fill="#3E6D74"/>
</svg>
