<svg width="120" height="120" viewBox="0 0 120 120" fill="none" xmlns="http://www.w3.org/2000/svg">
<path d="M75.8352 11.4131C78.5088 14.3867 80.568 17.8211 82.4004 21.3707C84.1788 21.4019 85.9632 21.2519 87.7452 21.3131C93.6072 21.5171 99.6516 22.8755 104.441 26.3843C104.868 26.4815 105.265 26.1743 105.647 26.1059C114.139 24.5675 118.26 34.9307 111.505 39.8939C111.607 47.2199 108.515 54.0311 104.568 60.0071C108.54 65.9411 111.599 72.8219 111.503 80.1179C118.188 85.1207 114.118 95.2847 105.662 93.8879C105.276 93.8243 104.861 93.5399 104.441 93.6251C99.8148 97.0271 94.02 98.3855 88.3548 98.6963C86.5404 98.7959 84.9612 98.6555 83.1696 98.5871C82.9548 98.5787 82.5804 98.5487 82.4004 98.6399C78.9144 105.443 73.692 112.86 66.2304 115.617C54.5292 119.942 45.0288 111.545 39.492 102.101C39.2148 101.628 37.7484 98.7287 37.56 98.6435C37.29 98.5571 36.9744 98.5763 36.6924 98.5871C35.5344 98.6315 34.5024 98.7047 33.3456 98.6879C26.988 98.5955 20.6832 97.3715 15.4752 93.5711C9.46562 95.7107 3.61202 90.3827 5.50562 84.1763C6.05282 82.3823 7.20602 81.2279 8.56202 80.0135C8.33042 72.7331 11.5608 65.9687 15.3924 60.0047C14.9568 59.0615 14.2872 58.2551 13.7676 57.3623C10.6992 52.0859 8.33762 46.1087 8.56442 39.8915C1.73882 34.9643 5.80202 24.7055 14.3196 26.1047C14.694 26.1659 15.1164 26.4575 15.5256 26.3843C15.8016 26.3351 17.3436 25.2011 17.7696 24.9587C22.1328 22.4771 27.2568 21.5531 32.2212 21.3119L37.5648 21.3671C38.3988 20.0663 39.0228 18.6407 39.8208 17.3183C45.276 8.2715 54.4632 0.387495 65.7252 4.1879C69.732 5.5403 73.0572 8.3159 75.8388 11.4107L75.8352 11.4131ZM78.2328 21.8267C78.2592 21.6827 78.2052 21.5759 78.1524 21.4487C77.154 19.0619 74.2812 15.1967 72.4884 13.2839C61.668 1.7387 50.0352 7.56229 43.0488 19.3343C42.8088 19.7387 41.8452 21.3335 41.826 21.6719C41.8128 21.9071 41.8524 21.7919 41.9832 21.8255C43.6524 22.2527 45.6204 22.4027 47.3472 22.7675C51.6516 23.6783 55.8456 25.0427 59.9784 26.5163C64.4496 24.9347 68.9796 23.5427 73.6284 22.5623L78.2316 21.8267H78.2328ZM35.8272 25.1867C35.5752 25.1363 35.334 25.0907 35.0736 25.0751C30.5472 24.8171 24.4044 25.7915 20.3568 27.8567C20.142 27.9659 18.8136 28.6787 18.768 28.7567C18.6084 29.0279 19.128 29.5163 19.2756 29.7899C22.1172 35.0843 18.438 41.1215 12.5112 41.0567L12.3888 41.1383C12.156 41.4719 12.8604 45.0767 13.0044 45.7211C13.8588 49.5707 15.5244 53.3735 17.7828 56.5943C17.9796 56.6111 19.7148 54.3071 20.0196 53.9531C23.3532 50.0975 27.0444 46.5995 30.9384 43.3151C31.8372 38.1911 33.0672 33.1535 34.77 28.2347C34.914 27.8183 35.9592 25.3391 35.8284 25.1843L35.8272 25.1867ZM107.605 41.0567C101.248 41.3375 97.4172 34.0307 101.274 28.9499C101.31 28.8107 101.101 28.6667 101.002 28.5959C99.144 27.2627 95.454 26.1527 93.2004 25.7219C90.7404 25.2503 87.1692 24.8975 84.684 25.0775C84.4908 25.0919 84.3132 25.1279 84.1332 25.1891C84.5676 26.6507 85.176 28.0559 85.6572 29.5031C87.1668 34.0367 88.2312 38.6711 89.0664 43.3799C93.9108 47.2895 98.2404 51.7871 102.182 56.6003C102.38 56.6483 102.307 56.5463 102.358 56.4755C105.121 52.5995 107.147 46.8443 107.616 42.1127C107.634 41.9303 107.728 41.1359 107.605 41.0603V41.0567ZM35.6292 39.6203C35.784 39.6551 35.868 39.5867 35.9916 39.5267C37.2528 38.9123 39.2052 37.2719 40.518 36.4271C44.9988 33.5411 49.716 31.0619 54.54 28.7927C54.462 28.6871 54.3768 28.6259 54.2592 28.5671C53.622 28.2467 52.0728 27.8687 51.3096 27.6527C47.616 26.6063 43.7868 25.8743 39.9696 25.4771C38.9172 27.9311 37.9764 30.4535 37.2084 33.0155C36.5604 35.1767 35.9736 37.3931 35.6304 39.6215L35.6292 39.6203ZM65.5224 28.9439C65.652 28.9415 65.7804 28.9703 65.898 29.0243C72.3264 31.9931 78.5184 35.4947 84.228 39.6779L84.4344 39.5663C83.3892 34.7555 82.0536 29.9699 79.9992 25.4915C79.8552 25.3871 78.7836 25.5659 78.5016 25.6031C74.8152 26.0999 70.5576 27.0107 67.026 28.1591C66.8628 28.2119 65.256 28.6595 65.5224 28.9427V28.9439ZM15.3576 36.2291C17.6532 33.9323 16.2012 29.8859 12.9072 29.7539C8.97002 29.5955 7.48442 34.6019 10.6452 36.6923C12.0564 37.6259 14.1588 37.4291 15.3576 36.2303V36.2291ZM106.784 29.7887C102.186 30.2783 102.599 37.5239 107.566 37.2803C112.418 37.0427 112.184 29.2127 106.784 29.7887ZM85.3212 74.7719C85.4376 74.6171 85.5048 74.2307 85.542 74.0255C86.8764 66.6383 86.7384 56.5979 85.9596 49.1291C85.83 47.8847 85.596 46.6307 85.428 45.3899C79.3596 40.4951 72.6252 36.3455 65.5584 33.0263C64.068 32.3255 62.3592 31.5071 60.8244 30.9479C60.5148 30.8351 60.2508 30.6503 59.9064 30.6911C59.3808 30.7535 57.6312 31.6115 57.0156 31.8755C49.0236 35.3183 41.3136 39.9539 34.5624 45.4175C33.1884 55.0607 33.2316 64.8743 34.53 74.5259C42.15 80.7455 50.8824 85.7315 60.0588 89.3195C69.1308 85.7231 77.6484 80.7791 85.3212 74.7719ZM30.2376 70.9367C29.8824 66.4271 29.616 61.8923 29.7252 57.3575C29.7744 55.3079 29.8848 53.2091 30.036 51.1607C30.0864 50.4719 30.294 49.7771 30.2376 49.0751C29.7432 49.3859 29.2884 49.7939 28.8636 50.1887C26.5776 52.3163 24.1824 54.8435 22.2072 57.2627C21.9084 57.6287 20.178 59.7719 20.178 60.0059C20.6052 60.7715 21.2388 61.5419 21.8016 62.2403C23.718 64.6211 25.9464 66.9959 28.152 69.1103C28.3716 69.3215 30.1548 71.0483 30.2376 70.9367ZM90.2904 49.4243C90.15 49.3127 89.994 49.2179 89.8752 49.0787C89.5644 49.0715 89.9076 50.5127 89.9244 50.7551C90.3696 56.9135 90.384 63.2015 89.9244 69.3599C89.9076 69.5807 89.5572 70.9427 89.8752 70.9355C93.5424 67.6175 96.9492 64.0055 99.8916 60.0095C97.6764 57.0071 95.1828 54.1187 92.52 51.5123C91.866 50.8727 90.978 49.9703 90.2892 49.4243H90.2904ZM35.832 94.8311C35.8452 94.6847 35.838 94.5467 35.8032 94.4027C35.5224 93.2543 34.7388 91.6859 34.3368 90.4799C32.8476 86.0027 31.776 81.3959 30.9936 76.7411C27.156 73.4999 23.5332 70.0499 20.2212 66.2615C19.8948 65.8883 17.9676 63.4019 17.7804 63.4175C14.6076 67.9283 12.7116 73.3583 12.342 78.8687C15.2628 78.8579 18.036 80.3279 19.3944 82.9511C20.6436 85.3643 20.532 87.8423 19.2744 90.2231C19.128 90.5003 18.6072 90.9815 18.768 91.2563C23.8404 94.3211 29.9904 95.1143 35.832 94.8323V94.8311ZM102.33 63.4139C102.088 63.2471 100.997 64.8311 100.801 65.0603C97.23 69.2543 93.3444 73.1555 89.0676 76.6355C87.9888 82.7399 86.5068 88.7783 84.1716 94.5215L84.2292 94.7831C84.618 94.7999 85.014 94.9151 85.398 94.9355C88.6032 95.1107 93.2868 94.4459 96.354 93.4787C98.0652 92.9387 99.8388 92.1515 101.309 91.1207C97.5444 86.0735 100.921 79.1855 107.164 78.8579C107.326 78.8495 107.476 78.9035 107.618 78.9695C107.812 78.8159 107.27 75.5231 107.167 74.9987C106.345 70.8515 104.581 66.9587 102.33 63.4139ZM54.4272 91.0799C49.998 89.1479 45.7644 86.7947 41.6352 84.2987L35.628 80.2919C36.4464 85.1867 38.094 89.9135 39.912 94.5119C44.85 94.0811 49.7172 92.8583 54.4344 91.3691L54.426 91.0811L54.4272 91.0799ZM65.5248 91.3703C68.076 92.1359 70.6368 92.9063 73.2468 93.4619C74.766 93.7859 76.3512 94.0895 77.8872 94.3115C78.2388 94.3619 79.8912 94.5971 80.0664 94.4783C80.1468 94.4243 80.7216 92.9375 80.82 92.6915C82.41 88.7459 83.5152 84.5975 84.4332 80.4479C84.2772 80.1971 84.1656 80.3819 83.9736 80.4935C83.1636 80.9639 82.3416 81.6887 81.5376 82.2263C76.4664 85.6151 71.1336 88.6571 65.5272 91.0775L65.5236 91.3715L65.5248 91.3703ZM15.1488 83.5871C11.0868 80.3327 6.40442 86.4671 10.4628 89.5439C14.31 92.4611 18.8556 86.5571 15.1488 83.5871ZM106.784 82.7615C102.202 83.2499 102.586 90.4979 107.566 90.2531C112.426 90.0155 112.175 82.1867 106.784 82.7615ZM78.2328 98.1875C72.0204 97.3175 65.9592 95.6531 60.0852 93.4979C55.5456 95.0375 50.9568 96.4955 46.2288 97.4495C44.9088 97.7159 43.5252 97.8143 42.2172 98.1179C42.0396 98.1599 41.8116 98.1155 41.8248 98.3387C41.8512 98.7827 43.3752 101.198 43.7196 101.736C49.9776 111.489 59.9508 117.439 70.302 108.812C72.8508 106.687 76.8816 101.612 78.1524 98.5643C78.2052 98.4383 78.258 98.3279 78.2316 98.1863L78.2328 98.1875Z" fill="#3E6D74"/>
<path d="M59.9017 62.905L63.5653 69.1558C64.3441 70.4854 64.3525 72.0778 63.5857 73.4146C62.8201 74.7514 61.4425 75.5494 59.9017 75.5494C58.3609 75.5494 56.9833 74.7514 56.2177 73.4146C55.4521 72.0778 55.4593 70.4854 56.2381 69.1558L59.9017 62.905Z" fill="#3E6D74"/>
<g opacity="0.7">
<path d="M59.9021 44.4695C61.4429 44.4695 62.8205 45.2675 63.5861 46.6043C64.3517 47.9411 64.3445 49.5335 63.5657 50.8631L59.9021 57.1139L56.2385 50.8631C55.4597 49.5335 55.4513 47.9411 56.2181 46.6043C56.9837 45.2675 58.3613 44.4695 59.9021 44.4695Z" fill="#3E6D74"/>
</g>
<g opacity="0.5">
<path d="M69.5263 61.4495C70.9051 61.4495 72.5083 62.2463 73.2751 63.5807C74.0419 64.9151 74.0706 66.5051 73.2954 67.8347C72.5262 69.1547 71.1714 69.9431 69.6438 69.9431C68.0898 69.9431 66.7147 69.1343 65.9515 67.7807L62.3167 61.4675L69.5251 61.4543V61.4495H69.5263Z" fill="#3E6D74"/>
</g>
<g opacity="0.8">
<path d="M57.4005 58.5515L50.1549 58.5695C48.6057 58.5695 47.2293 57.7727 46.4625 56.4383C45.6957 55.1039 45.7005 53.5139 46.4757 52.1843C47.2449 50.8643 48.6165 50.0759 50.1441 50.0759C51.6981 50.0759 53.0817 50.8847 53.8449 52.2383L57.4005 58.5515Z" fill="#3E6D74"/>
</g>
<g opacity="0.6">
<path d="M73.3346 56.4179C72.5678 57.7547 71.1914 58.5515 69.6506 58.5515L62.4026 58.5467L65.9474 52.2275C66.7094 50.8691 68.0942 50.0591 69.6518 50.0591C71.1758 50.0591 72.5462 50.8451 73.3154 52.1603C74.093 53.4899 74.1002 55.0811 73.3346 56.4179Z" fill="#3E6D74"/>
</g>
<g opacity="0.9">
<path d="M50.1556 61.8418H50.1592L57.4036 61.6594L53.8588 67.885C53.0968 69.2434 51.712 70.0066 50.1544 70.0066C48.6304 70.0066 47.26 69.1978 46.4908 67.8814C45.7132 66.5518 45.706 65.137 46.4728 63.8002C47.2396 62.4634 48.616 61.8418 50.1568 61.8418H50.1556Z" fill="#3E6D74"/>
</g>
</svg>
