<svg width="121" height="120" viewBox="0 0 121 120" fill="none" xmlns="http://www.w3.org/2000/svg">
<path fill-rule="evenodd" clip-rule="evenodd" d="M86.013 16.9681L85.3398 20.8813C85.1166 22.1749 85.6386 23.4577 86.7006 24.2293C87.7638 25.0033 89.145 25.0993 90.3066 24.4885L93.8982 22.6393L97.4118 24.4885C97.9182 24.7537 98.4654 24.8857 99.0102 24.8857C99.7158 24.8857 100.418 24.6649 101.018 24.2281C102.08 23.4565 102.602 22.1725 102.379 20.8801L101.731 16.8937L104.575 14.1241C105.515 13.2073 105.849 11.8633 105.442 10.6141C105.037 9.36491 103.977 8.47211 102.677 8.28491L98.6862 7.66931L96.9306 4.10771H96.9294C96.3486 2.93051 95.1726 2.19971 93.8598 2.19971C92.547 2.19971 91.371 2.92931 90.789 4.10771L88.971 7.71611L85.0422 8.28491C83.7426 8.47211 82.683 9.36491 82.2774 10.6141C81.8718 11.8621 82.2042 13.2073 83.145 14.1241L86.013 16.9669V16.9681ZM84.651 11.3869C84.705 11.2225 84.8838 10.8313 85.3998 10.7557L89.3298 10.1869C90.171 10.0633 90.897 9.53651 91.2726 8.77571L93.027 5.21411C93.2574 4.74851 93.6858 4.69811 93.8586 4.69811C94.0314 4.69811 94.4598 4.74851 94.689 5.21411L96.4446 8.77451C96.8202 9.53651 97.5462 10.0645 98.3886 10.1869L102.317 10.7557C102.833 10.8313 103.012 11.2225 103.066 11.3869C103.12 11.5513 103.204 11.9737 102.832 12.3349L99.9882 15.1045C99.3786 15.6985 99.1002 16.5529 99.2442 17.3917L99.9174 21.3049C100.005 21.8173 99.6894 22.1077 99.549 22.2097C99.4074 22.3129 99.0306 22.5205 98.5734 22.2805L95.0598 20.4313C94.683 20.2321 94.2714 20.1337 93.8574 20.1337C93.4434 20.1337 93.0318 20.2321 92.655 20.4313L89.1414 22.2805C88.683 22.5205 88.3062 22.3129 88.1658 22.2097C88.0254 22.1089 87.7098 21.8173 87.7974 21.3049L88.4706 17.3905C88.6146 16.5529 88.3362 15.6985 87.7266 15.1045L84.8826 12.3349C84.5106 11.9725 84.5946 11.5513 84.6486 11.3869H84.651ZM67.0921 5.12988C65.8501 5.12988 64.9141 6.05028 64.9141 7.27188V26.3123C64.9141 27.5339 65.8513 28.4543 67.0945 28.4543C68.3377 28.4543 69.2725 27.5339 69.2725 26.3123V7.27188C69.2725 6.05028 68.3353 5.12988 67.0921 5.12988ZM67.0921 32.6279C66.5461 32.6279 66.0277 32.8139 65.6329 33.1547C65.1685 33.5519 64.9141 34.1267 64.9141 34.7699V38.7467C64.9141 39.9683 65.8513 40.8887 67.0945 40.8887C68.3377 40.8887 69.2725 39.9683 69.2725 38.7467V34.7699C69.2725 33.5483 68.3353 32.6279 67.0921 32.6279ZM55.9238 42.4632C55.1642 42.4632 54.5018 42.0732 54.1082 41.3904L43.7882 23.5152C43.3934 22.83 43.385 22.056 43.7678 21.3936C44.1698 20.7 44.945 20.2512 45.7442 20.2512C46.505 20.2524 47.1662 20.6436 47.5598 21.3252L57.8798 39.1992C58.2758 39.8844 58.283 40.6572 57.9014 41.3196C57.4994 42.0144 56.7242 42.4632 55.925 42.4632H55.9238ZM33.9053 43.398L41.0777 47.5392C41.4281 47.7408 41.7989 47.8416 42.1673 47.8416C42.5357 47.8416 42.8729 47.748 43.1981 47.5596C43.8917 47.16 44.3417 46.3836 44.3417 45.5832C44.3417 44.7828 43.9505 44.1624 43.2677 43.7676L36.0941 39.6264C35.4101 39.2328 34.6349 39.2244 33.9737 39.606C33.2789 40.0068 32.8301 40.782 32.8301 41.5824C32.8301 42.3828 33.2213 43.0032 33.9041 43.398H33.9053ZM53.1852 52.17C52.7688 52.8948 52.062 53.2908 51.3204 53.2908C50.9544 53.2908 50.5824 53.1948 50.2308 52.992L47.4852 51.4068C46.4292 50.796 46.1028 49.5276 46.7232 48.4548C47.346 47.3748 48.6168 47.028 49.6752 47.6364L52.4208 49.2216C53.4756 49.83 53.8044 51.0972 53.1852 52.17ZM35.7175 59.52C35.7175 58.278 34.7971 57.342 33.5755 57.342H10.3471C9.12548 57.342 8.20508 58.2792 8.20508 59.5224C8.20508 60.7656 9.12548 61.7004 10.3471 61.7004H33.5755C34.7971 61.7004 35.7175 60.7632 35.7175 59.52ZM39.4395 59.5224C39.4395 58.2792 40.3599 57.342 41.5815 57.342H47.3883C48.6099 57.342 49.5303 58.2768 49.5303 59.52C49.5303 60.7632 48.6099 61.7004 47.3883 61.7004H41.5815C40.3599 61.7004 39.4395 60.7656 39.4395 59.5224ZM53.7131 68.5681C53.7131 67.7677 53.2643 66.9925 52.5695 66.5917C51.9083 66.2089 51.1355 66.2185 50.4503 66.6133L20.2751 84.0337C19.2191 84.6433 18.8915 85.9117 19.5119 86.9845C19.9271 87.7057 20.6351 88.1041 21.3731 88.1041C21.7391 88.1041 22.1135 88.0069 22.4639 87.8041L52.6391 70.3837C53.3219 69.9889 53.7131 69.3265 53.7119 68.5669L53.7131 68.5681ZM56.2164 73.3765C56.6112 72.6937 57.2724 72.3025 58.032 72.3025C58.8324 72.3025 59.6076 72.7513 60.0084 73.4461C60.3912 74.1097 60.3828 74.8825 59.988 75.5677L51.8196 89.7157C51.4248 90.3985 50.8044 90.7897 50.004 90.7897C49.2036 90.7897 48.4284 90.3409 48.0276 89.6461C47.6448 88.9837 47.6532 88.2109 48.048 87.5257L56.2164 73.3765ZM67.0921 99.0444C65.8501 99.0444 64.9141 99.9648 64.9141 101.186V115.657C64.9141 116.879 65.8513 117.799 67.0945 117.799C68.3377 117.799 69.2725 116.879 69.2725 115.657V101.186C69.2725 99.9648 68.3353 99.0444 67.0921 99.0444ZM65.6329 86.778C66.0277 86.4372 66.5461 86.2512 67.0921 86.2512C68.3353 86.2512 69.2725 87.1716 69.2725 88.3932V94.6428C69.2725 95.8644 68.3377 96.7848 67.0945 96.7848C65.8513 96.7848 64.9141 95.8644 64.9141 94.6428V88.3932C64.9141 87.75 65.1685 87.1752 65.6329 86.778ZM67.0921 74.6208C66.5461 74.6208 66.0277 74.8068 65.6329 75.1476C65.1685 75.5448 64.9141 76.1196 64.9141 76.7628V81.7128C64.9141 82.9344 65.8513 83.8548 67.0945 83.8548C68.3377 83.8548 69.2725 82.9344 69.2725 81.7128V76.7628C69.2725 75.5412 68.3353 74.6208 67.0921 74.6208ZM80.7299 86.0053H80.7287C79.9691 86.0053 79.3079 85.6141 78.9143 84.9325L73.6031 75.7345C73.2071 75.0481 73.1999 74.2753 73.5827 73.6129C73.9847 72.9181 74.7611 72.4705 75.5591 72.4705H75.5603C76.3199 72.4705 76.9811 72.8617 77.3747 73.5433L82.6859 82.7425C83.0807 83.4277 83.0891 84.2005 82.7063 84.8629C82.3043 85.5577 81.5291 86.0053 80.7299 86.0053ZM83.0501 68.0699C82.4309 69.1427 82.7586 70.4111 83.8134 71.0208L98.0081 79.2155C98.3573 79.4171 98.7281 79.518 99.0965 79.518C99.465 79.518 99.8033 79.4243 100.127 79.2359C100.822 78.8351 101.271 78.06 101.271 77.2596C101.271 76.4591 100.88 75.8387 100.197 75.4439L86.0033 67.2491C84.945 66.6395 83.6741 66.9887 83.0501 68.0687V68.0699ZM89.2741 57.342H107.077C108.299 57.342 109.219 58.2768 109.219 59.52C109.219 60.7632 108.299 61.7004 107.077 61.7004H89.2741C88.0525 61.7004 87.1309 60.7656 87.1309 59.5224C87.1309 58.2792 88.0525 57.342 89.2741 57.342ZM112.978 33.0373C112.358 31.9585 111.087 31.6069 110.026 32.2177L91.8892 42.6889C91.2076 43.0825 90.8164 43.7437 90.8164 44.5033C90.8152 45.3037 91.264 46.0789 91.9588 46.4809C92.284 46.6681 92.6356 46.7629 92.9896 46.7629C93.3436 46.7629 93.73 46.6621 94.078 46.4605L112.214 35.9893C113.27 35.3797 113.597 34.1113 112.977 33.0385L112.978 33.0373ZM86.7914 46.8347C87.485 47.2367 87.9338 48.0131 87.9338 48.8111H87.9326C87.9314 49.5719 87.5402 50.2331 86.8586 50.6267L82.0382 53.4083C81.689 53.6111 81.3026 53.7119 80.9486 53.7119C80.5946 53.7119 80.243 53.6171 79.9178 53.4311C79.2242 53.0291 78.7754 52.2539 78.7754 51.4547C78.7754 50.6939 79.1666 50.0327 79.8482 49.6391L84.6698 46.8551C85.3538 46.4603 86.1278 46.4519 86.7914 46.8347ZM74.0272 47.5309C74.392 47.7421 74.7796 47.8417 75.1564 47.8417C75.886 47.8417 76.5736 47.4625 76.9768 46.7665L84.9736 32.9161C85.3696 32.2309 85.3768 31.4581 84.994 30.7945C84.5932 30.0997 83.818 29.6509 83.0188 29.6509C82.2196 29.6509 81.598 30.0421 81.2032 30.7249L73.2052 44.5753C72.5932 45.6373 72.9472 46.9069 74.0272 47.5297V47.5309ZM95.1661 91.5348L99.1585 92.1504V92.1528C100.458 92.34 101.518 93.2328 101.923 94.482C102.329 95.7312 101.995 97.0752 101.055 97.9908L98.2117 100.76L98.8597 104.747C99.0817 106.042 98.5597 107.326 97.4965 108.097C96.4357 108.868 95.0557 108.966 93.8917 108.355L90.3781 106.506L86.7865 108.355C86.2801 108.622 85.7341 108.752 85.1893 108.752C84.4837 108.752 83.7817 108.532 83.1817 108.095C82.1185 107.322 81.5965 106.039 81.8197 104.744L82.4929 100.831L79.6249 97.9884C78.6841 97.0728 78.3529 95.7276 78.7573 94.4796C79.1629 93.2304 80.2225 92.3376 81.5221 92.1504L85.4509 91.5816L87.2701 87.9732C87.8509 86.796 89.0257 86.0652 90.3385 86.0652H90.3397C91.6525 86.0652 92.8285 86.796 93.4093 87.9732H93.4105L95.1661 91.5348ZM96.4693 98.97L99.3121 96.2004H99.3109C99.6841 95.838 99.6001 95.4156 99.5473 95.2512C99.4933 95.0868 99.3133 94.6968 98.7985 94.6212L94.8685 94.0524C94.0261 93.93 93.3001 93.402 92.9245 92.64L91.1689 89.0796C90.9397 88.614 90.5113 88.5636 90.3385 88.5636C90.1657 88.5636 89.7385 88.614 89.5093 89.0784L87.7537 92.6412C87.3757 93.4044 86.6497 93.93 85.8097 94.0524L81.8797 94.6212C81.3649 94.6968 81.1849 95.0868 81.1309 95.2512C81.0769 95.4156 80.9929 95.8368 81.3649 96.1992L84.2101 98.97C84.8197 99.5628 85.0981 100.417 84.9529 101.256L84.2797 105.169C84.1921 105.682 84.5077 105.974 84.6481 106.075C84.7885 106.178 85.1641 106.388 85.6237 106.146L89.1385 104.297C89.8909 103.898 90.7897 103.9 91.5421 104.298L95.0545 106.146C95.5177 106.387 95.8909 106.178 96.0301 106.075C96.1705 105.973 96.4873 105.682 96.3997 105.168L95.7265 101.256C95.5813 100.417 95.8597 99.5628 96.4693 98.97ZM10.9423 36.5795L11.6155 32.6664V32.6651L8.74755 29.8224C7.80675 28.9056 7.47555 27.5591 7.88115 26.3111C8.28675 25.0632 9.34635 24.1704 10.6447 23.9832L14.5759 23.4156L16.3927 19.8071C16.9747 18.6287 18.1519 17.8979 19.4635 17.8979C20.7751 17.8979 21.9511 18.6299 22.5331 19.8071L24.2887 23.3688L28.2799 23.9832C29.5795 24.1704 30.6391 25.0632 31.0447 26.3111C31.4515 27.5604 31.1191 28.9056 30.1795 29.8211L27.3331 32.5931L27.9823 36.5784C28.2055 37.8731 27.6835 39.1572 26.6215 39.9287C26.0203 40.3656 25.3183 40.5863 24.6127 40.5863C24.0679 40.5863 23.5207 40.4556 23.0143 40.1892L19.5007 38.34L15.9103 40.1892C14.7487 40.7999 13.3675 40.7039 12.3031 39.93C11.2411 39.1572 10.7191 37.8743 10.9423 36.5795ZM11.0011 26.4539C10.4875 26.5296 10.3075 26.9195 10.2535 27.084H10.2511C10.1971 27.2484 10.1131 27.6707 10.4863 28.0343L13.3303 30.804C13.9399 31.3968 14.2183 32.2512 14.0731 33.09L13.3999 37.0031C13.3123 37.5155 13.6279 37.8083 13.7683 37.9092C13.9087 38.0112 14.2855 38.2211 14.7451 37.9799L18.2587 36.1307C18.6343 35.9315 19.0459 35.8331 19.4599 35.8331C19.8739 35.8331 20.2867 35.9316 20.6635 36.132L24.1759 37.9799C24.6379 38.2211 25.0135 38.0112 25.1527 37.9092C25.2931 37.8072 25.6087 37.5155 25.5211 37.0031L24.8479 33.09C24.7027 32.2512 24.9811 31.3968 25.5907 30.804L28.4359 28.0331C28.8079 27.672 28.7239 27.2484 28.6699 27.084C28.6159 26.9195 28.4359 26.5296 27.9211 26.4539L23.9923 25.8864C23.1499 25.7652 22.4239 25.2372 22.0483 24.4752L20.2915 20.9135C20.0623 20.4468 19.6351 20.3964 19.4623 20.3964C19.2895 20.3964 18.8611 20.4468 18.6319 20.9135L16.8763 24.4752C16.4995 25.2372 15.7735 25.764 14.9335 25.8864L11.0011 26.4539ZM67.0911 61.4399L64.6155 65.6651C64.0887 66.5639 64.0839 67.6391 64.6011 68.5427C65.1195 69.4463 66.0495 69.9863 67.0911 69.9863C68.1327 69.9863 69.0639 69.4463 69.5811 68.5427C70.0995 67.6391 70.0935 66.5627 69.5667 65.6651L67.0911 61.4399ZM64.6011 50.4228C65.1183 49.5192 66.0495 48.9792 67.0911 48.9792C68.1327 48.9792 69.0627 49.5192 69.5811 50.4228C70.0983 51.3264 70.0935 52.4016 69.5667 53.3004L67.0911 57.5256L64.6155 53.3004C64.0887 52.4028 64.0839 51.3264 64.6011 50.4228ZM60.5874 60.4561C59.655 60.4561 58.5714 60.9949 58.0541 61.8961C57.5358 62.7973 57.5166 63.8725 58.0398 64.7713C58.5594 65.6641 59.475 66.1957 60.507 66.1957C61.539 66.1957 62.4869 65.6497 63.0029 64.7341L65.4594 60.4681L60.5874 60.4585V60.4561ZM73.6785 58.5096L68.7824 58.4976L71.1861 54.2316C71.7008 53.316 72.6549 52.77 73.6869 52.77C74.7188 52.77 75.6464 53.3016 76.166 54.1944C76.6892 55.0932 76.6928 56.1684 76.1744 57.0696C75.6561 57.9708 74.7261 58.5096 73.6785 58.5096ZM58.0144 57.0552C58.5328 57.9588 59.4628 58.4976 60.5044 58.4976L65.4028 58.494L63.0076 54.2232C62.4928 53.3052 61.5568 52.7568 60.5032 52.7568C59.4496 52.7568 58.5472 53.2884 58.0264 54.1776C57.5008 55.0764 57.496 56.1516 58.0144 57.0552ZM73.6753 60.7213H73.6777V60.7201C74.7193 60.7201 75.6493 61.1401 76.1677 62.0437C76.6861 62.9473 76.6813 63.9037 76.1557 64.8025C75.6349 65.6917 74.7325 66.2389 73.6789 66.2389C72.6253 66.2389 71.6893 65.7229 71.1745 64.8049L68.7793 60.5977L73.6753 60.7213Z" fill="white"/>
</svg>
