<svg width="386" height="386" viewBox="0 0 386 386" fill="none" xmlns="http://www.w3.org/2000/svg">
<path d="M379.797 238.683C392.873 200.592 336.59 200.592 345.686 173.304C354.782 146.016 345.686 122.707 314.418 114.18C283.15 105.654 285.424 94.8515 284.287 80.639C283.15 66.4265 263.252 48.9928 248.472 48.9928C233.692 48.9928 238.523 15.3568 208.108 22.8413C208.108 22.8413 195.98 9.57642 175.893 22.8413C155.805 36.1062 149.363 70.217 129.275 65.668C109.188 61.1209 76.2158 43.307 67.4979 74.3858C58.7801 105.465 102.746 108.116 85.3118 121.003C67.8782 133.89 44.3785 103.569 24.293 132.753C9.44548 154.323 23.1794 175.265 42.5237 190.388C19.0665 206.417 4.2229 229.872 4.2229 255.981C4.2229 277.308 14.172 297.779 32.2581 313.702L24.2737 358.899C24.1849 359.399 24.4068 359.898 24.8353 360.173C25.0399 360.302 25.2734 360.366 25.505 360.366C25.7578 360.366 26.0087 360.29 26.2249 360.138L64.2459 333.303C80.3324 339.898 98.4918 343.382 116.806 343.382C119.544 343.382 122.252 343.279 124.941 343.129L128.333 368.41L281.396 369.056L288.423 313.441C295.361 318.442 302.425 323.315 309.813 327.633C314.986 330.653 320.621 333.17 326.122 335.689C331.553 338.174 336.936 340.772 342.82 342.017C350.621 343.665 358.758 343.169 366.135 340.041C374.549 336.47 379.604 327.5 380.752 314.098C382.273 296.365 377.06 272.056 367.408 247.7C374.073 245.669 378.411 242.724 379.797 238.687V238.683ZM240.881 73.3243C240.901 73.0947 241.2 70.2633 243.273 67.6173C244.149 69.6129 244.641 71.8131 244.641 74.1291C244.641 75.2562 244.525 76.3563 244.307 77.4178C244.384 77.9428 243.774 79.039 243.388 80.3843C242.792 81.8105 241.997 83.1306 241.04 84.3176C241.119 81.6272 241.111 78.5353 240.928 75.2176C240.893 74.5981 240.851 73.9651 240.8 73.3166L240.881 73.3243ZM240.889 87.67C243.56 85.1996 245.498 81.9591 246.347 78.2979C247.243 77.7266 248.15 77.2364 249.076 76.8736C250.352 78.4736 251.479 79.2784 252.431 81.7102C254.121 79.9732 253.183 77.5935 251.444 76.2772C252.99 76.1286 254.602 76.4625 256.316 77.5356C254.191 73.3899 250.097 73.4729 246.776 75.455C246.807 75.015 246.843 74.575 246.843 74.1253C246.843 71.1859 246.135 68.4144 244.907 65.944C247.146 64.0796 250.607 62.6765 255.997 62.993C262.216 63.3578 265.259 69.0783 265.018 74.5383C264.64 83.2329 256.918 91.779 240.58 91.6284C240.685 90.5766 240.796 89.2333 240.891 87.6681L240.889 87.67ZM238.544 73.0001C238.548 73.0425 238.552 73.085 238.556 73.1275C238.965 78.2632 238.909 83.011 238.728 86.6664C235.912 88.9978 232.301 90.401 228.365 90.401C219.391 90.401 212.09 83.0998 212.09 74.1272C212.09 65.1546 219.391 57.8515 228.365 57.8515C231.276 57.8515 234.005 58.6293 236.371 59.9726C237.535 64.3016 238.201 68.7734 238.544 72.9981V73.0001ZM230.616 110.674C228.923 113.185 227.107 115.329 225.179 117.124C224.886 117.398 224.586 117.654 224.287 117.913C223.988 118.17 223.693 118.436 223.388 118.675C217.638 123.217 210.941 124.782 203.387 123.333C197.123 122.132 192.02 119.868 187.862 117.116C187.525 116.892 187.193 116.666 186.868 116.437C186.536 116.201 186.199 115.968 185.88 115.726C174.404 107.076 171.149 94.8419 170.913 93.9C170.699 91.8948 170.544 89.9571 170.419 88.0521C173.665 90.8777 177.894 92.605 182.526 92.605C192.712 92.605 201 84.3176 201 74.1311C201 73.857 200.971 73.5887 200.959 73.3166C201.587 72.8071 204.939 70.466 209.903 73.9072C209.903 73.9824 209.891 74.0558 209.891 74.1311C209.891 84.3176 218.179 92.605 228.367 92.605C232.129 92.605 235.628 91.4682 238.55 89.5286C238.347 92.1766 238.123 93.7842 238.116 93.8364C238.094 93.9251 235.997 102.691 230.616 110.674ZM232.362 144.568C231.98 146.19 229.593 154.782 221.033 159.028C211.634 163.689 198.267 161.78 181.293 153.359L183.504 141.168L183.786 139.608L184.068 138.051L187.438 119.471C191.663 122.134 196.783 124.305 202.974 125.492C204.958 125.872 206.842 126.048 208.637 126.048C214.848 126.048 219.951 123.919 224.119 120.777L229.784 137.122L230.263 138.502L230.799 140.05L232.364 144.568H232.362ZM180.027 46.092C186.228 39.1903 195.55 35.6893 207.73 35.6893C216.571 35.6893 223.654 38.6963 228.782 44.6271C231.836 48.159 234.001 52.488 235.522 57.0969C233.32 56.1685 230.903 55.6532 228.365 55.6532C219.306 55.6532 211.764 62.2133 210.202 70.8288C206.194 68.5939 202.743 69.1574 200.585 70.2614C198.802 61.9257 191.385 55.6532 182.526 55.6532C179.139 55.6532 175.972 56.5854 173.239 58.1815C174.866 53.3739 177.118 49.3248 180.025 46.0901L180.027 46.092ZM170.4 73.1352C170.411 72.975 170.423 72.8129 170.436 72.6527C170.763 68.617 171.363 64.9057 172.239 61.5301C175.045 59.2353 178.627 57.8534 182.528 57.8534C191.502 57.8534 198.802 65.1546 198.802 74.1291C198.802 83.1036 191.5 90.4029 182.528 90.4029C177.624 90.4029 173.229 88.2123 170.243 84.7711C170.076 80.6332 170.13 76.7559 170.402 73.1352H170.4ZM166.939 69.4682C167.952 71.4445 168.136 73.1487 168.153 73.3243H168.186C168.005 75.8719 167.924 78.5373 167.952 81.328C166.876 79.1549 165.071 76.972 165.071 74.3858C165.071 72.7646 166.117 69.1227 166.939 69.4701V69.4682ZM153.037 62.9969C159.598 62.6109 163.299 64.7706 165.407 67.212C164.54 69.3504 164.05 71.6838 164.05 74.1291C164.05 75.1115 164.15 76.0688 164.297 77.0087C160.825 73.7045 155.309 72.4848 152.717 77.5394C154.429 76.4664 156.042 76.1325 157.588 76.2811C155.849 77.5973 154.911 79.977 156.6 81.714C157.552 79.2822 158.679 78.4755 159.955 76.8774C161.676 77.551 163.336 78.6859 164.984 79.8998C165.673 81.99 166.725 83.9142 168.066 85.601C168.157 87.5542 168.308 89.5749 168.493 91.6362C152.125 91.8021 144.391 83.2484 144.013 74.546C143.772 69.086 146.817 63.3655 153.036 63.0007L153.037 62.9969ZM91.9221 159.665C92.42 159.41 92.9855 159.285 93.6051 159.285C95.0082 159.285 96.6795 159.929 98.4165 161.172C100.9 162.952 103.253 165.721 105.139 169.05C105.361 169.444 105.581 169.842 105.791 170.251C105.791 170.251 105.791 170.253 105.791 170.255C106 170.66 106.191 171.067 106.376 171.473C109.68 178.685 109.692 185.934 106.252 187.692C104.367 188.661 101.752 187.808 99.1287 185.714C98.5092 185.22 97.8916 184.658 97.2817 184.033C96.3534 183.08 95.4463 181.985 94.5951 180.769C93.8038 179.642 93.0569 178.419 92.3853 177.106C92.1228 176.593 91.8796 176.078 91.648 175.56C91.3392 174.869 91.069 174.18 90.8201 173.491C90.6753 173.088 90.5383 172.687 90.4128 172.287C90.3453 172.069 90.2797 171.851 90.216 171.633C90.1639 171.453 90.1137 171.272 90.0654 171.092C89.8956 170.444 89.7624 169.805 89.6524 169.176C89.4498 168.014 89.334 166.883 89.3378 165.814C89.3513 162.739 90.2912 160.497 91.9182 159.667L91.9221 159.665ZM77.9296 166.821C78.4951 166.532 79.1243 166.393 79.7998 166.393C82.0019 166.393 84.6981 167.881 87.3383 170.399C87.4194 170.789 87.5159 171.183 87.6163 171.579C87.7166 171.974 87.8324 172.372 87.9521 172.77C88.0737 173.171 88.2011 173.572 88.3419 173.976C88.836 175.402 89.4382 176.834 90.16 178.247C92.0533 181.947 94.4253 184.984 96.9131 187.121C98.5246 193.334 97.9283 198.632 94.9715 200.143C93.1245 201.09 90.3935 200.378 87.4792 198.195C86.6609 197.582 85.8542 196.873 85.0648 196.086C84.6595 195.681 84.2581 195.25 83.8624 194.802C83.405 194.283 82.9592 193.731 82.5191 193.16C81.1874 191.427 79.9484 189.479 78.8676 187.364C77.1653 184.037 76.0382 180.663 75.492 177.618C75.4746 177.521 75.4553 177.425 75.4399 177.328C75.3666 176.898 75.3067 176.475 75.2585 176.06C75.2372 175.871 75.2237 175.688 75.2064 175.502C75.1851 175.271 75.1658 175.041 75.1523 174.813C75.1292 174.441 75.1214 174.078 75.1195 173.723C75.106 170.365 76.0228 167.802 77.9335 166.825L77.9296 166.821ZM65.703 173.073C66.228 172.802 66.8109 172.675 67.4343 172.675C68.9995 172.675 70.8253 173.491 72.6626 174.92C72.6742 175.136 72.6858 175.352 72.7051 175.572C72.7379 175.983 72.7804 176.398 72.8363 176.821C72.8923 177.239 72.9656 177.666 73.0428 178.096C73.6238 181.36 74.8107 184.921 76.6404 188.497C78.2886 191.72 80.2861 194.606 82.4535 196.958C82.1216 198.992 81.282 200.461 80.0372 201.098C78.4102 201.932 76.0459 201.382 73.5427 199.591C73.0641 199.249 72.5931 198.857 72.1261 198.444C71.6822 198.051 71.2441 197.628 70.8137 197.176C70.2829 196.617 69.7657 196.016 69.2658 195.378C68.131 193.928 67.0791 192.291 66.1682 190.512C65.2495 188.715 64.5431 186.897 64.0375 185.143C63.8136 184.361 63.6322 183.597 63.4893 182.848C63.4218 182.499 63.362 182.153 63.3137 181.813C63.2751 181.543 63.2384 181.275 63.2114 181.013C63.1921 180.831 63.1825 180.655 63.169 180.48C63.1361 180.03 63.1207 179.596 63.1226 179.173C63.1323 176.226 63.9796 173.953 65.705 173.071L65.703 173.073ZM54.9394 185.797C54.9703 185.233 55.0417 184.714 55.1575 184.245C55.3274 183.549 55.5841 182.966 55.9237 182.522C56.1727 182.196 56.4583 181.935 56.7903 181.765C57.1396 181.588 57.5391 181.501 57.9773 181.499C57.9811 181.499 57.985 181.499 57.9888 181.499C58.5601 181.499 59.1989 181.659 59.8725 181.949C60.2006 182.089 60.5384 182.265 60.8819 182.472C60.9012 182.603 60.9205 182.734 60.9417 182.867C61.4127 185.643 62.4008 188.648 63.9371 191.655C65.5004 194.71 67.4536 197.402 69.5862 199.502C69.426 201.37 68.7795 202.723 67.7681 203.24C65.3981 204.45 60.5036 201.391 57.2689 195.065C55.7385 192.073 54.9028 188.976 54.9143 186.343C54.9143 186.156 54.9279 185.978 54.9375 185.799L54.9394 185.797ZM125.971 340.564C125.502 340.595 125.033 340.622 124.564 340.647C121.997 340.786 119.417 340.88 116.804 340.88C98.5729 340.88 80.51 337.37 64.5682 330.728C64.1668 330.561 63.7151 330.611 63.3658 330.86L27.2613 356.341L34.8404 313.439C34.9176 313.007 34.7613 312.567 34.4293 312.278C16.5595 296.774 6.71839 276.779 6.71839 255.98C6.71839 230.459 21.4153 207.55 44.5985 191.973C47.1152 190.28 49.7304 188.677 52.442 187.163C52.5848 189.989 53.4881 193.16 55.0417 196.198C55.9044 197.883 56.8965 199.388 57.958 200.693C60.6696 204.022 63.8502 206 66.5947 206C67.1351 206 67.6504 205.892 68.1522 205.736C68.407 205.655 68.6656 205.583 68.9068 205.462C70.3717 204.711 71.3329 203.273 71.8018 201.407C71.8964 201.476 71.9891 201.557 72.0836 201.625C74.2722 203.19 76.4145 203.989 78.3407 203.989C79.3501 203.989 80.3035 203.769 81.172 203.325C82.7623 202.511 83.9049 201.027 84.5379 199.016C85.0127 199.434 85.4913 199.832 85.9758 200.195C88.506 202.09 90.9629 203.061 93.1438 203.061C94.2053 203.061 95.2012 202.831 96.1063 202.368C99.6768 200.54 100.943 195.466 99.92 189.236C101.516 190.109 103.101 190.576 104.577 190.576C105.573 190.576 106.519 190.363 107.389 189.919C111.99 187.565 112.583 179.652 109.035 171.316C111.604 171.177 114.187 171.081 116.802 171.081C117.877 171.081 118.94 171.119 120.007 171.144C120.478 171.154 120.951 171.158 121.422 171.171C121.891 171.187 122.364 171.195 122.831 171.214C172.393 173.289 213.311 200.768 224.083 237.017C214.556 234.323 204.049 232.935 193.635 234.061C192.436 234.19 191.284 234.338 190.169 234.499C172.918 236.984 165.613 243.02 164.587 248.057C164.064 250.62 165.077 253.013 167.389 254.81C165.465 256.248 162.298 259.075 162.282 262.1C162.273 263.769 163.174 265.191 164.963 266.33C169.19 269.021 179.008 269.327 186.033 269.175C181.453 271.178 176.589 274.303 177.074 278.416C177.224 279.697 177.859 280.768 178.963 281.606C182.449 284.25 190.2 283.808 193.896 283.418C193.413 284.74 193.039 286.547 193.65 288.201C194.226 289.756 195.519 290.855 197.489 291.466C202.951 293.163 215.793 286.825 220.557 284.31C206.529 314.777 170.564 337.288 127.378 340.481C126.909 340.515 126.436 340.533 125.967 340.564H125.971ZM278.922 366.183L130.759 365.65L127.756 342.961C171.853 339.639 208.569 316.487 222.907 285.165C228.58 290.281 245.4 303.079 264.404 295.101C266.682 296.942 275.417 303.944 285.823 311.552L278.922 366.183ZM377.948 313.853C376.879 326.324 372.533 334.262 365.034 337.443C357.359 340.699 348.904 340.845 340.917 338.668C335.438 337.175 330.152 335.179 325.055 332.734C320.919 330.75 316.41 328.854 312.442 326.596C305.118 322.429 296.562 316.591 288.742 310.923C288.307 310.608 287.871 310.294 287.443 309.981C287.005 309.661 286.576 309.344 286.144 309.027C274.705 300.624 265.477 293.14 265.275 292.976C265.076 292.812 264.829 292.729 264.58 292.729C264.429 292.729 264.277 292.76 264.134 292.823C245.353 301.134 228.585 287.477 223.836 283.038C223.432 282.66 223.122 282.357 222.898 282.131C222.655 281.886 222.508 281.732 222.492 281.714C222.319 281.525 222.091 281.409 221.854 281.371C221.618 281.332 221.369 281.371 221.149 281.496C216.326 284.173 202.77 290.795 198.145 289.367C196.845 288.963 196.051 288.334 195.719 287.444C195.229 286.13 195.812 284.395 196.316 283.343C196.356 283.32 196.397 283.306 196.439 283.279L214.747 271.089L195.052 280.88C194.918 280.948 194.812 281.029 194.716 281.114C191.022 281.593 183.219 282.071 180.297 279.856C179.679 279.388 179.341 278.833 179.262 278.161C178.871 274.826 185.043 271.8 189.87 270.049C190.142 270.146 190.464 270.152 190.823 270.018L208.268 263.227L193.384 266.604C190.862 266.803 171.923 268.152 166.15 264.475C165.027 263.761 164.482 262.987 164.486 262.113C164.496 259.982 167.565 257.379 169.284 256.163C169.402 256.163 169.512 256.178 169.641 256.146L170.216 255.995L194.714 249.564L195.746 249.294L194.675 249.46L170.083 253.276L169.224 253.409C167.25 252.083 166.366 250.361 166.748 248.495C167.713 243.757 176.477 238.131 193.876 236.245C195.289 236.093 196.694 235.998 198.093 235.935C207.552 235.502 216.656 237.019 224.785 239.476C225.25 239.617 225.715 239.756 226.173 239.903C226.638 240.051 227.094 240.206 227.551 240.36C228.497 240.678 229.433 241.005 230.347 241.344C242.337 245.806 251.547 251.986 255.542 255.949C259.757 260.129 277.441 266.282 295.203 271.682C296.556 272.093 297.909 272.5 299.258 272.902C316.215 277.951 332.294 282.112 335.733 282.994C335.787 282.722 335.826 282.451 335.874 282.181C334.984 281.6 334.124 280.977 333.232 280.398C332.902 280.184 332.555 279.996 332.211 279.803C325.219 277.964 311.27 274.218 297.178 269.976C292.507 263.591 288.101 256.943 284.152 250.058C283.828 249.485 283.509 248.904 283.189 248.327C279.142 241.026 275.477 233.426 273.678 225.229C275.222 233.238 278.055 240.844 281.587 248.161C285.026 255.289 289.129 262.14 293.372 268.82C276.741 263.711 260.84 258.11 257.09 254.389C253.299 250.628 247.03 246.376 239.272 242.705C235.481 240.912 231.334 239.258 226.941 237.868C216.625 200.025 174.677 171.152 123.663 168.759C124.811 165.692 126.114 163.525 127.594 162.537C137.92 155.654 167.958 145.962 181.138 141.895L178.982 153.778C178.896 154.259 179.135 154.738 179.569 154.956C191.128 160.78 201.156 163.702 209.554 163.702C214.23 163.702 218.399 162.795 222.045 160.981C232.461 155.795 234.505 145.147 234.588 144.696C234.622 144.51 234.607 144.317 234.545 144.14L233.225 140.326C254.704 142.907 280.742 149.474 304.566 164.824C323.7 177.151 343.227 202.237 358.137 233.646C360.487 238.596 362.632 243.548 364.6 248.464C374.484 273.158 379.413 296.841 377.954 313.853H377.948Z" fill="white"/>
<path d="M190.414 80.4961C192.259 80.4961 193.753 77.9504 193.753 74.8103C193.753 71.6702 192.257 69.1245 190.414 69.1245C188.571 69.1245 187.073 71.6702 187.073 74.8103C187.073 77.9504 188.569 80.4961 190.414 80.4961Z" fill="white"/>
<path d="M221.682 69.1265C219.837 69.1265 218.343 71.6721 218.343 74.8122C218.343 77.9524 219.839 80.498 221.682 80.498C223.525 80.498 225.021 77.9524 225.021 74.8122C225.021 71.6721 223.525 69.1265 221.682 69.1265Z" fill="white"/>
<path d="M211.173 87.566C209.724 83.6925 208.432 80.865 206.545 77.3042C206.352 80.2166 206.786 83.0209 207.658 85.7788C209.26 89.6446 210.092 94.5294 204.503 94.9946C209.766 97.438 212.509 91.9876 211.173 87.566Z" fill="white"/>
<path d="M204.503 105.652C211.121 108.221 219.565 102.269 218.341 95.0928C215.514 100.869 210.511 103.896 204.503 105.652Z" fill="white"/>
<path d="M183.852 52.602C183.887 52.5866 187.198 50.9866 190.288 52.0848C192.064 52.7159 193.477 54.146 194.482 56.3443C194.716 56.8499 195.218 57.151 195.743 57.151C195.936 57.151 196.132 57.1105 196.32 57.0236C197.014 56.7052 197.321 55.8811 197.001 55.1863C195.663 52.2778 193.708 50.3497 191.188 49.4619C186.982 47.9874 182.792 50.0293 182.615 50.12C181.931 50.4616 181.655 51.2896 181.995 51.9728C182.335 52.6541 183.161 52.9282 183.85 52.6001L183.852 52.602Z" fill="white"/>
<path d="M214.168 57.0237C214.356 57.1105 214.55 57.1511 214.745 57.1511C215.27 57.1511 215.772 56.85 216.006 56.3443C217.013 54.1461 218.426 52.7159 220.2 52.0848C223.291 50.9809 226.603 52.5828 226.636 52.6021C227.325 52.9321 228.151 52.6561 228.491 51.9748C228.831 51.2897 228.555 50.4617 227.871 50.122C227.696 50.0332 223.508 47.9874 219.298 49.4639C216.778 50.3517 214.823 52.2778 213.485 55.1883C213.167 55.8831 213.472 56.7072 214.166 57.0256L214.168 57.0237Z" fill="white"/>
<path d="M113.609 265.248L103.774 282.031C101.682 285.599 101.661 289.874 103.718 293.464C105.776 297.054 109.473 299.196 113.609 299.196C117.745 299.196 121.445 297.054 123.503 293.464C125.56 289.874 125.539 285.599 123.447 282.031L113.609 265.248Z" fill="#CAD75A"/>
<path opacity="0.7" d="M113.61 215.751C109.472 215.751 105.774 217.893 103.716 221.483C101.659 225.073 101.68 229.348 103.772 232.916L113.608 249.7L123.445 232.916C125.537 229.348 125.558 225.073 123.501 221.483C121.444 217.893 117.746 215.751 113.608 215.751H113.61Z" fill="#CAD75A"/>
<path opacity="0.5" d="M87.7725 261.341C84.0708 261.341 79.7669 263.48 77.7076 267.062C75.6502 270.644 75.573 274.913 77.6516 278.484C79.7167 282.027 83.3528 284.144 87.4541 284.144C91.5553 284.144 95.3188 281.973 97.3665 278.339L107.125 261.39L87.7706 261.353V261.341H87.7725Z" fill="#CAD75A"/>
<path opacity="0.8" d="M120.328 253.56L139.78 253.608C143.941 253.608 147.635 251.47 149.695 247.888C151.752 244.306 151.741 240.036 149.66 236.466C147.595 232.922 143.912 230.805 139.811 230.805C135.71 230.805 131.923 232.976 129.876 236.611L120.328 253.56Z" fill="#CAD75A"/>
<path opacity="0.6" d="M77.5494 247.832C79.6068 251.419 83.3046 253.562 87.4387 253.562L106.899 253.548L97.3821 236.584C95.3363 232.938 91.6191 230.761 87.4348 230.761C83.2506 230.761 79.6647 232.87 77.5976 236.404C75.5094 239.973 75.4901 244.246 77.5475 247.834L77.5494 247.832Z" fill="#CAD75A"/>
<path opacity="0.9" d="M139.78 262.395H139.771L120.32 261.905L129.837 278.619C131.883 282.264 135.6 284.316 139.782 284.316C143.965 284.316 147.552 282.143 149.619 278.611C151.708 275.042 151.727 271.242 149.67 267.654C147.612 264.066 143.914 262.397 139.78 262.397V262.395Z" fill="#CAD75A"/>
</svg>
