<svg width="160" height="160" viewBox="0 0 160 160" fill="none" xmlns="http://www.w3.org/2000/svg">
<path opacity="0.9" fill-rule="evenodd" clip-rule="evenodd" d="M78.4671 12.0288C79.2879 10.5968 80.7647 9.74078 82.4159 9.74078C84.0671 9.74078 85.5439 10.5968 86.3647 12.0288C87.1855 13.4608 87.1775 15.168 86.3423 16.592L82.4159 23.2896L78.4895 16.592C77.6543 15.168 77.6463 13.4608 78.4671 12.0288ZM82.4159 29.4976L78.4895 36.1952C77.6543 37.6192 77.6463 39.3264 78.4671 40.7584C79.2879 42.1904 80.7647 43.0464 82.4159 43.0464C84.0671 43.0464 85.5439 42.1904 86.3647 40.7584C87.1855 39.3264 87.1775 37.6192 86.3423 36.1952L82.4159 29.4976ZM41.2303 39.68L78.8575 53.5392V53.5376C80.2671 54.0592 80.9871 55.3152 80.7375 56.8176L76.3887 82.9216L76.3866 82.9346C75.7904 86.529 75.174 90.2459 73.5679 93.7808C68.8143 104.237 58.1967 110.584 47.0735 110.586C44.6927 110.586 42.2911 110.294 39.9183 109.691L28.9407 139.491L43.2383 144.758C44.2191 145.12 44.8847 145.914 45.0607 146.934C45.2399 147.973 44.8623 149.054 44.0991 149.691C43.6479 150.066 43.1055 150.258 42.5311 150.258C42.2143 150.258 41.8879 150.198 41.5615 150.08L7.48632 137.528C5.79992 136.907 5.30872 135.131 5.80952 133.773C6.33592 132.344 7.74712 131.685 9.16472 132.206L23.7119 137.565L34.6847 107.773C28.4399 104.734 23.4239 99.5424 20.6895 93.1904C17.8671 86.64 17.5471 79.088 19.8127 72.4736C20.9071 69.2816 22.6415 66.4272 24.3199 63.6672L37.9871 40.92C38.5775 39.9408 39.9503 39.2144 41.2303 39.68ZM37.4751 52.6224L73.6751 65.9568C74.1375 63.3856 74.5999 60.7984 75.0607 58.0816L41.5983 45.7568L37.4751 52.6224ZM25.8575 90.8736C28.3903 96.8032 33.1951 101.442 39.0431 103.598H39.0447C46.3407 106.171 54.1007 105.253 60.3407 101.075C65.6079 97.552 69.1599 91.9744 70.3391 85.3744C70.6495 83.632 70.9343 81.8848 71.2175 80.1376L71.6607 77.4336C71.9999 75.4 72.3391 73.448 72.6783 71.5296L34.5535 57.4864L30.2431 64.664C29.9308 65.1855 29.6084 65.7058 29.2843 66.2287L29.2842 66.2289L29.0959 66.5328L29.0879 66.5457C27.9 68.4585 26.6715 70.4366 25.7919 72.4624C23.2911 78.2064 23.3151 84.9184 25.8575 90.8736ZM34.4959 64.1584C35.0207 63.288 35.9151 62.7776 36.8623 62.816L36.8639 62.8176C37.8991 62.8368 38.8879 63.4272 39.3839 64.3248C39.8511 65.1664 39.8207 66.1408 39.3023 67.0032C38.9316 67.621 38.5556 68.2387 38.1795 68.8565C38.054 69.0627 37.9284 69.269 37.8031 69.4752C36.8367 71.0608 35.8703 72.6464 34.9471 74.2544C31.5503 80.184 32.5567 87.4032 37.4527 92.2208C38.5599 93.312 38.5583 94.984 37.4463 96.1136C36.8751 96.696 36.1199 96.9888 35.4335 96.9888C34.7471 96.9888 34.0655 96.7184 33.5183 96.1824C27.7967 90.5504 25.8095 82.2224 28.4575 74.9648C29.5231 72.0411 31.2301 69.3519 32.8822 66.749L32.8895 66.7376C33.4383 65.8736 33.9823 65.0144 34.4959 64.1584ZM129.054 97.9152C129.363 98.0496 129.685 98.1152 130.006 98.1152C130.541 98.1152 131.08 97.9328 131.563 97.5744C137.976 92.8288 141.123 85.192 139.773 77.648C139.196 74.4245 137.777 71.3285 136.405 68.336L136.397 68.3168L136.277 68.0557L136.277 68.055C135.871 67.1682 135.47 66.2911 135.104 65.4272C134.528 64.072 133.13 63.504 131.768 64.0832C130.405 64.6624 129.424 66.2736 130.144 67.9696C130.477 68.7539 130.821 69.5355 131.164 70.3169L131.165 70.3181L131.282 70.584L131.327 70.6866C132.106 72.4562 132.91 74.2815 133.576 76.0976C135.829 82.2448 133.801 89 128.526 92.9024C127.688 93.5216 127.257 94.5088 127.376 95.544C127.496 96.5952 128.155 97.5264 129.054 97.9184V97.9152ZM150.931 136.616C152.718 136.238 154.01 137.478 154.306 138.846H154.307C154.635 140.37 153.786 141.709 152.285 142.035L116.797 149.725C116.582 149.77 116.368 149.794 116.158 149.794C115.386 149.794 114.669 149.478 114.134 148.888C113.43 148.115 113.174 146.994 113.483 146.034C113.766 145.147 114.482 144.518 115.443 144.309L130.546 141.035L123.816 109.987C122.731 110.102 121.645 110.163 120.566 110.163C114.211 110.163 108.046 108.166 103.032 104.382C97.2623 100.027 93.24 93.5376 91.9935 86.5776C91.4928 83.7774 91.4466 80.9167 91.402 78.1493V78.1492L91.4015 78.1216C91.3919 77.4592 91.3807 76.7968 91.3631 76.136L90.7423 51.7616C90.7104 50.488 91.6399 49.2864 92.8591 49.0224L132.045 40.5312C133.176 40.2864 134.666 40.704 135.202 41.9664L145.565 66.3888L145.568 66.3969C147.133 70.0903 148.722 73.8383 149.211 78.0064C150.816 91.6784 142.2 104.717 129.28 108.846L136 139.853L150.931 136.616ZM96.3823 53.9664L96.5679 61.2016H96.5695C96.5758 61.4518 96.5805 61.7035 96.5852 61.9538V61.954V61.9542L96.5855 61.9712L134.194 53.8208L131.067 46.4512L96.3823 53.9664ZM97.1695 83.3248C97.6975 89.7808 101.04 95.7712 106.341 99.7568L106.338 99.7584C111.806 103.87 118.718 105.461 125.32 104.131C132.346 102.606 138.397 97.848 141.512 91.3984C144.322 85.5856 144.552 78.7296 142.147 72.592C141.478 70.8816 140.747 69.1952 140.016 67.5104L139.826 67.0715C139.545 66.4216 139.262 65.77 138.986 65.1184L136.411 59.048L96.6655 67.6624L96.6662 67.7425L96.6676 67.8833L96.6687 67.9888L96.6702 68.1258C96.6709 68.189 96.6715 68.2521 96.6719 68.3152C96.7167 73.2592 96.7647 78.3712 97.1695 83.3248ZM72.1007 27.9376C70.6242 27.9382 68.9068 28.7925 68.0847 30.2208C67.2639 31.6512 67.2319 33.3552 68.0623 34.7792C68.8863 36.1936 70.3375 37.0384 71.9743 37.0384C73.6111 37.0384 75.1135 36.1728 75.9311 34.7216L79.8255 27.9568L72.1007 27.9424V27.9376ZM92.8607 24.8512L85.0959 24.832H85.0943L88.9055 18.0672C89.7231 16.616 91.2351 15.7504 92.8719 15.7504C94.5087 15.7504 95.9791 16.5952 96.8031 18.0096C97.6335 19.4336 97.6383 21.1376 96.8175 22.568C95.9967 23.9968 94.5215 24.8512 92.8607 24.8512ZM68.0223 22.5456C68.8431 23.9776 70.3183 24.832 71.9695 24.832L79.7375 24.8272L75.9391 18.056C75.1231 16.6 73.6383 15.7312 71.9695 15.7312C70.3007 15.7312 68.8687 16.5728 68.0431 17.984C67.2095 19.408 67.2015 21.1136 68.0239 22.5456H68.0223ZM92.8575 28.3584H92.8607V28.36C94.5119 28.36 95.9871 29.0256 96.8079 30.4576C97.6303 31.8896 97.6223 33.4064 96.7887 34.8304C95.9631 36.24 94.5311 37.1072 92.8623 37.1072C91.1935 37.1072 89.7087 36.2896 88.8927 34.8336L85.0943 28.1632L92.8575 28.3584Z" fill="white"/>
</svg>
