<svg width="120" height="120" viewBox="0 0 120 120" fill="none" xmlns="http://www.w3.org/2000/svg">
<path d="M41.3357 55.9258L44.7653 61.777C45.4949 63.0214 45.5021 64.5118 44.7845 65.7634C44.0669 67.015 42.7781 67.7626 41.3357 67.7626C39.8933 67.7626 38.6033 67.015 37.8869 65.7634C37.1693 64.5118 37.1765 63.0214 37.9061 61.777L41.3357 55.9258Z" fill="#3E6D74"/>
<g opacity="0.7">
<path d="M41.3357 38.6675C42.7781 38.6675 44.0681 39.4151 44.7845 40.6667C45.5021 41.9183 45.4949 43.4087 44.7653 44.6531L41.3357 50.5043L37.9061 44.6531C37.1765 43.4087 37.1693 41.9183 37.8869 40.6667C38.6045 39.4151 39.8933 38.6675 41.3357 38.6675Z" fill="#3E6D74"/>
</g>
<g opacity="0.5">
<path d="M50.3433 54.564C51.6345 54.564 53.1345 55.3092 53.8521 56.5584C54.5697 57.8076 54.5961 59.2956 53.8713 60.5412C53.1513 61.7772 51.8829 62.5152 50.4537 62.5152C48.9981 62.5152 47.7117 61.758 46.9977 60.4908L43.5957 54.5808L50.3445 54.5676V54.564H50.3433Z" fill="#3E6D74"/>
</g>
<g opacity="0.8">
<path d="M38.9933 51.8507L32.2109 51.8675C30.7601 51.8675 29.4725 51.1223 28.7537 49.8731C28.0361 48.6239 28.0409 47.1359 28.7657 45.8903C29.4857 44.6543 30.7697 43.9163 32.2001 43.9163C33.6557 43.9163 34.9505 44.6735 35.6645 45.9407L38.9933 51.8507Z" fill="#3E6D74"/>
</g>
<g opacity="0.6">
<path d="M53.9094 49.8538C53.1918 51.1054 51.903 51.8518 50.4618 51.8518L43.6758 51.847L46.9938 45.931C47.7066 44.659 49.0038 43.9006 50.4618 43.9006C51.8886 43.9006 53.1714 44.6362 53.8914 45.8686C54.6198 47.113 54.6258 48.6034 53.9094 49.8538Z" fill="#3E6D74"/>
</g>
<g opacity="0.9">
<path d="M32.2108 54.9311H32.2144L38.9968 54.7595L35.6788 60.5867C34.966 61.8587 33.6688 62.5727 32.2108 62.5727C30.784 62.5727 29.5012 61.8155 28.7812 60.5831C28.0528 59.3387 28.0468 58.0139 28.7644 56.7623C29.482 55.5119 30.7708 54.9287 32.212 54.9287L32.2108 54.9311Z" fill="#3E6D74"/>
</g>
<path d="M7.67551 70.9751V83.1971H8.95951C13.5579 83.1971 18.1563 83.1791 22.7535 83.2127C23.6175 83.2187 24.0507 83.0747 24.3279 82.1003C25.7739 77.0123 30.3327 73.6115 35.5419 73.5899C40.8159 73.5671 45.3375 76.9427 46.8747 82.1279C47.0979 82.8827 47.3295 83.2199 48.1899 83.2175C58.0119 83.1851 67.8339 83.1971 77.6559 83.1935C77.8755 83.1935 78.0951 83.1563 78.4407 83.1251V27.2951H7.69951V33.8603M3.32311 33.8615C3.32311 31.7183 3.32071 29.6891 3.32311 27.6611C3.32791 24.3251 4.70311 22.9199 8.00671 22.9199C31.4007 22.9163 54.7947 22.9151 78.1887 22.9199C81.4023 22.9199 82.8447 24.3671 82.8519 27.5771C82.8615 31.7687 82.8543 35.9603 82.8543 40.1519C82.8543 40.6343 82.8543 41.1179 82.8543 41.7875C83.4291 41.7875 83.9019 41.7875 84.3735 41.7875C88.9275 41.7875 93.4815 41.8127 98.0343 41.7779C100.611 41.7575 102.441 42.8351 103.689 45.0959C107.37 51.7655 111.095 58.4123 114.819 65.0591C116.068 67.2875 116.694 69.6563 116.675 72.2147C116.648 75.9155 116.679 79.6175 116.664 83.3183C116.655 85.9931 115.19 87.5963 112.532 87.4331C110.217 87.2903 108.954 87.7415 108.035 90.2543C106.415 94.6859 101.627 97.3283 97.0419 97.0679C92.0283 96.7835 87.8787 93.6191 86.3511 88.9127C86.2143 88.4927 86.0931 88.0679 85.9419 87.5675H47.2023C47.1411 87.7343 47.0535 87.9287 46.9971 88.1315C45.5055 93.4799 41.0715 96.9863 35.6787 97.0799C30.4755 97.1699 25.8207 93.6815 24.2931 88.4279C24.0351 87.5411 23.5995 87.4715 22.8735 87.4739C17.3379 87.4895 11.8011 87.4847 6.26551 87.4811C3.99391 87.4799 3.32311 86.8067 3.32191 84.5327C3.31831 80.0795 3.32191 75.6251 3.32191 70.9787M7.54471 38.1431L112.384 83.1299C112.384 79.4939 112.358 75.9371 112.395 72.3803C112.415 70.4543 111.947 68.6879 111.012 67.0163C107.334 60.4451 103.656 53.8727 100.011 47.2823C99.5151 46.3871 98.8923 46.0427 97.8723 46.0511C93.2739 46.0919 88.6743 46.0679 84.0747 46.0715C83.7291 46.0715 83.3823 46.1123 83.0091 46.1363V83.1575C84.7947 83.2511 86.0047 82.5099 86.6391 80.9339C88.4199 76.5095 92.7195 73.6019 97.5003 73.5875C102.269 73.5743 106.589 76.4711 108.389 80.8931C109.048 82.5091 110.379 83.2543 112.384 83.1287L7.54471 38.1431ZM28.2183 85.2347C28.2303 89.4971 31.3935 92.7491 35.5743 92.7983C39.6687 92.8463 43.0083 89.4647 42.9999 85.2803C42.9915 81.1775 39.7131 77.8859 35.6163 77.8703C31.4955 77.8535 28.2063 81.1283 28.2183 85.2359V85.2347ZM104.908 85.2887C104.898 81.1511 101.667 77.8907 97.5543 77.8691C93.3939 77.8475 90.1191 81.1511 90.1311 85.3571C90.1431 89.5331 93.4839 92.8499 97.6251 92.7959C101.706 92.7431 104.919 89.4323 104.909 85.2887H104.908Z" fill="#3E6D74"/>
</svg>
