<svg width="115" height="19" viewBox="0 0 115 19" fill="none" xmlns="http://www.w3.org/2000/svg">
<path d="M3.34449 15.2827V3.20166H7.58286C8.95455 3.20166 10.0202 3.53412 10.7776 4.19685C11.535 4.85518 11.9137 5.7645 11.9137 6.92703C11.9137 8.08955 11.5328 9.01869 10.7688 9.69903C10.0114 10.3794 8.95015 10.7184 7.58286 10.7184H5.56606V15.2805H3.34229L3.34449 15.2827ZM5.56606 9.0341H7.52341C8.32045 9.0341 8.87749 8.84035 9.19895 8.45284C9.52481 8.06533 9.68774 7.56333 9.68774 6.94244C9.68774 6.32154 9.52481 5.82835 9.19895 5.45846C8.87749 5.08196 8.32045 4.89481 7.52341 4.89481H5.56606V9.0341ZM10.0224 15.2827L7.15132 9.71665L9.45655 9.55152L12.5104 15.2849H10.0224V15.2827Z" fill="black"/>
<path d="M12.5522 15.2826L17.1319 3.1377H19.3975L24.0344 15.2826H21.6543L18.486 6.54601C18.4199 6.36326 18.3649 6.18712 18.3208 6.01539C18.2768 5.84365 18.2372 5.66971 18.2041 5.49357H18.1293C18.0963 5.66971 18.0566 5.84585 18.0126 6.01539C17.9686 6.18712 17.9135 6.36326 17.8475 6.54601L14.6615 15.2826H12.5544H12.5522ZM14.9411 12.4533L15.496 10.7602H20.9387L21.4936 12.4533H14.9389H14.9411Z" fill="black"/>
<path d="M23.0303 4.92783V3.20166H32.6299V4.92783H28.9464V15.2805H26.7138V4.92783H23.0303Z" fill="black"/>
<path d="M34.1558 15.2827V3.20166H42.0953V4.92783H36.3619V8.20404H41.3401V9.9126H36.3619V13.5631H42.1768V15.2805H34.1536L34.1558 15.2827Z" fill="black"/>
<path d="M44.0615 15.2827V3.20166H47.952C49.5505 3.20166 50.887 3.70586 51.9592 4.71206C53.0315 5.71386 53.5687 7.09656 53.5687 8.86017V9.62417C53.5687 11.3878 53.0315 12.7749 51.9592 13.7811C50.887 14.7829 49.5505 15.2827 47.952 15.2827H44.0615ZM46.2765 13.5807H47.9278C48.9406 13.5807 49.7553 13.2439 50.3762 12.5679C50.9948 11.8942 51.3053 10.9232 51.3053 9.655V8.82494C51.3053 7.55893 50.9948 6.59016 50.3762 5.92083C49.7575 5.24709 48.9406 4.90802 47.9278 4.90802H46.2765V13.5785V13.5807Z" fill="black"/>
<path d="M59.4429 9.62419V8.86018C59.4429 6.95786 59.9361 5.4981 60.9202 4.48089C61.9044 3.46368 63.1925 2.95508 64.7865 2.95508C66.2353 2.95508 67.3758 3.32277 68.2036 4.05816C69.0381 4.78914 69.4741 5.68525 69.5071 6.7465L69.5159 6.86319H67.2767V6.77292C67.2767 6.2423 67.0587 5.76672 66.6206 5.34618C66.189 4.92565 65.5527 4.71648 64.7117 4.71648C63.8111 4.71648 63.0846 5.05555 62.5385 5.73589C61.9903 6.40963 61.7173 7.39601 61.7173 8.68844V9.80033C61.7173 11.1104 62.0013 12.1034 62.5716 12.7793C63.1462 13.4486 63.9366 13.7833 64.945 13.7833C65.4603 13.7833 65.9028 13.7305 66.2727 13.6248C66.6426 13.5147 66.9993 13.3407 67.3428 13.103V10.7229H64.7799V9.02971H69.5181V13.867C69.1152 14.2765 68.5273 14.6574 67.7589 15.0119C66.9905 15.3598 66.0525 15.5337 64.9473 15.5337C63.2497 15.5337 61.9088 15.0251 60.9224 14.0079C59.9383 12.9907 59.4451 11.5309 59.4451 9.62859L59.4429 9.62419Z" fill="black"/>
<path d="M71.72 15.2827V3.20166H75.9584C77.33 3.20166 78.3957 3.53412 79.1531 4.19685C79.9105 4.85518 80.2892 5.7645 80.2892 6.92703C80.2892 8.08955 79.9083 9.01869 79.1443 9.69903C78.3869 10.3794 77.3256 10.7184 75.9584 10.7184H73.9415V15.2805H71.7178L71.72 15.2827ZM73.9437 9.0341H75.9011C76.6981 9.0341 77.2552 8.84035 77.5766 8.45284C77.9025 8.06533 78.0654 7.56333 78.0654 6.94244C78.0654 6.32154 77.9025 5.82835 77.5766 5.45846C77.2552 5.08196 76.6981 4.89481 75.9011 4.89481H73.9437V9.0341ZM78.4001 15.2827L75.529 9.71665L77.8364 9.55152L80.8903 15.2849H78.4023L78.4001 15.2827Z" fill="black"/>
<path d="M82.405 15.2827V3.20166H90.3446V4.92783H84.6112V8.20404H89.5893V9.9126H84.6112V13.5631H90.426V15.2805H82.4028L82.405 15.2827Z" fill="black"/>
<path d="M92.3108 15.2827V3.20166H100.25V4.92783H94.517V8.20404H99.4951V9.9126H94.517V13.5631H100.332V15.2805H92.3086L92.3108 15.2827Z" fill="black"/>
<path d="M102.216 15.2827V3.20166H104.572L109.275 11.0157C109.374 11.1808 109.462 11.3415 109.542 11.4979C109.625 11.652 109.696 11.8105 109.757 11.9712H109.823C109.817 11.7951 109.812 11.6168 109.806 11.4406V3.20166H111.796V15.2805H109.398L104.72 7.50609C104.614 7.34096 104.524 7.17803 104.447 7.0173C104.374 6.85657 104.306 6.69584 104.24 6.53511H104.174C104.185 6.71125 104.191 6.90061 104.191 7.09876C104.198 7.29252 104.2 7.47746 104.2 7.6536V15.2783H102.216V15.2827Z" fill="black"/>
</svg>
