<svg width="115" height="15" viewBox="0 0 115 15" fill="none" xmlns="http://www.w3.org/2000/svg">
<path d="M47.062 8.77741V8.18389C47.062 6.44674 47.062 4.70959 47.0562 2.97244C47.0562 2.81466 47.1116 2.77938 47.2582 2.78093C48.03 2.7883 48.8038 2.79101 49.5757 2.7852C49.7393 2.7852 49.7776 2.83637 49.7776 2.99299C49.7734 6.34013 49.7734 9.68689 49.7776 13.034C49.7776 13.205 49.7365 13.2593 49.5567 13.2562C48.8213 13.2473 48.0843 13.2519 47.3489 13.2604C47.1911 13.262 47.0915 13.1976 46.9965 13.0821C45.4613 11.2046 43.9215 9.33023 42.3832 7.45391C42.3305 7.39111 42.2766 7.32947 42.1902 7.23177C42.1859 7.3442 42.1801 7.40739 42.1801 7.47019V13.0088C42.1801 13.25 42.1801 13.2488 41.9316 13.25C41.1714 13.2531 40.4108 13.2542 39.6505 13.2659C39.5013 13.269 39.4648 13.2236 39.4664 13.0817C39.4695 9.70976 39.4679 6.33936 39.4648 2.96779C39.4648 2.8259 39.5044 2.77783 39.649 2.77783C40.415 2.78365 41.183 2.77783 41.949 2.7852C42.0339 2.7852 42.1464 2.82745 42.1975 2.88909C43.1186 3.99163 44.0339 5.09998 44.948 6.20988C45.6106 7.01545 46.27 7.82413 46.9294 8.63126C46.9585 8.6677 46.9938 8.69988 47.0624 8.77586V8.77741H47.062Z" fill="black"/>
<path d="M111.003 7.6152C111.156 7.72763 111.301 7.82726 111.437 7.93542C112.083 8.45296 112.361 9.15503 112.409 9.95014C112.477 11.0701 112.036 12.2137 110.849 12.7472C110.444 12.9286 110.003 13.0453 109.565 13.1318C109.169 13.2108 108.755 13.2341 108.35 13.2372C106.762 13.2488 105.175 13.243 103.587 13.2446C103.337 13.2446 103.341 13.243 103.341 12.9914V3.02403C103.341 2.75343 103.341 2.75188 103.62 2.75188C105.104 2.75188 106.59 2.74452 108.074 2.75343C108.877 2.7577 109.659 2.88795 110.4 3.21243C111.218 3.57219 111.656 4.21999 111.801 5.07364C111.969 6.06956 111.709 6.87204 111.004 7.61482H111.002L111.003 7.6152ZM107.161 6.99067V6.96004C107.58 6.96004 107.999 6.97749 108.417 6.95423C108.732 6.93678 109.039 6.85033 109.179 6.51848C109.293 6.24789 109.309 5.96567 109.213 5.68654C109.077 5.29306 108.741 5.17327 108.378 5.15738C107.669 5.1252 106.958 5.13411 106.248 5.11357C106.078 5.1093 106.041 5.17482 106.044 5.32407C106.052 5.83153 106.056 6.33899 106.052 6.84607C106.052 6.96159 106.088 6.99222 106.196 6.99067C106.518 6.9864 106.84 6.98912 107.163 6.98912L107.161 6.99067ZM106.047 9.13875V10.7297C106.047 10.841 106.116 10.8511 106.205 10.8511C106.929 10.848 107.654 10.8643 108.376 10.8395C108.629 10.8305 108.886 10.7414 109.128 10.6522C109.33 10.5778 109.456 10.4037 109.494 10.1858C109.594 9.61558 109.331 9.23256 108.752 9.18992C108.141 9.14456 107.525 9.15193 106.913 9.1403C106.634 9.13448 106.356 9.1403 106.047 9.1403V9.13875Z" fill="black"/>
<path d="M53.892 8.03197C53.892 6.3491 53.8936 4.66738 53.8889 2.98451C53.8889 2.84844 53.9327 2.79881 54.0599 2.79726C54.3099 2.79416 54.5584 2.78718 54.8085 2.78718C56.0382 2.78408 57.2663 2.78137 58.496 2.78292C59.4508 2.78292 60.3762 2.95388 61.2419 3.35473C62.3428 3.86491 63.1151 4.71468 63.5698 5.82574C64.1327 7.20469 64.1692 8.61581 63.6299 10.0048C62.9662 11.7156 61.6722 12.7259 59.8854 13.0946C59.3004 13.2159 58.6922 13.2523 58.0928 13.2628C56.7608 13.2849 55.4287 13.2628 54.0967 13.2659C53.9374 13.2659 53.8905 13.2248 53.892 13.0628C53.8978 11.3857 53.8963 9.70981 53.8963 8.03275H53.892V8.03197ZM56.6061 8.00251H56.603V10.5072C56.603 10.6301 56.6131 10.7119 56.7755 10.7104C57.4322 10.7015 58.0901 10.7294 58.7453 10.6957C59.5233 10.6546 60.1886 10.3491 60.6972 9.73772C61.2453 9.0783 61.3492 8.31497 61.2469 7.50048C61.1635 6.83524 60.8681 6.28668 60.3374 5.86296C59.8548 5.47839 59.2818 5.37294 58.6984 5.34077C58.0622 5.30549 57.4218 5.3365 56.7844 5.32914C56.6352 5.32759 56.603 5.37721 56.603 5.51793C56.6088 6.34716 56.6061 7.17445 56.6061 8.00367V8.00212V8.00251Z" fill="black"/>
<path d="M2.02792 2.80899C2.10817 2.80318 2.19151 2.7931 2.27486 2.7931C3.80732 2.78883 5.34095 2.78573 6.87341 2.78418C8.99939 2.78418 10.3388 4.05923 10.6985 5.97626C10.9765 7.45599 10.5656 8.7543 9.43087 9.78977C9.31108 9.89948 9.1719 9.98864 9.01994 10.1042C9.72782 11.1482 10.4353 12.1906 11.1607 13.2594H10.8098C9.8856 13.2594 8.9614 13.2563 8.03603 13.2594C7.88406 13.2594 7.79335 13.2051 7.71581 13.0753C7.27697 12.3282 6.8327 11.5866 6.38378 10.8454C6.3485 10.7884 6.2698 10.7225 6.20972 10.721C5.7418 10.7167 5.27388 10.7252 4.80441 10.7326C4.77534 10.7326 4.74742 10.7442 4.70943 10.7516V12.3147C4.70943 12.569 4.70633 12.8237 4.70943 13.0764C4.71098 13.2199 4.66252 13.2769 4.50629 13.2753C3.68598 13.2679 2.86412 13.2722 2.02637 13.2722V2.80899H2.02792ZM4.71098 6.73493H4.7168C4.7168 7.15904 4.72106 7.5816 4.7137 8.00571C4.71215 8.12434 4.74897 8.16504 4.86876 8.16349C5.45802 8.16039 6.04883 8.17086 6.63809 8.16349C7.28279 8.15457 7.7728 7.78784 7.97904 7.17958C8.26127 6.34454 7.6472 5.36645 6.80363 5.33854C6.15428 5.31799 5.50222 5.33544 4.85287 5.33272C4.74045 5.33272 4.70943 5.37382 4.71098 5.48314C4.7168 5.89988 4.71408 6.31818 4.71408 6.73493H4.71098Z" fill="black"/>
<path d="M99.7568 13.2431H99.3168C98.5813 13.2431 97.8444 13.2373 97.109 13.2431C96.9423 13.2431 96.8574 13.1757 96.8004 13.0268C96.6411 12.6159 96.4639 12.2108 96.3034 11.7998C96.2565 11.6785 96.1894 11.6374 96.0592 11.6374C94.6 11.6417 93.1392 11.6432 91.68 11.639C91.5381 11.639 91.468 11.6785 91.4141 11.8173C91.249 12.2398 91.0675 12.655 90.8803 13.0691C90.8496 13.1365 90.7574 13.2195 90.6915 13.221C89.8041 13.2342 88.9163 13.2358 88.0274 13.2369C88.0173 13.2369 88.0069 13.2253 87.9778 13.2079C87.9952 13.1582 88.01 13.1024 88.0332 13.0501C89.4312 9.76031 90.8303 6.4717 92.2282 3.18155C92.4108 2.75162 92.4038 2.75007 92.8818 2.75162C93.6172 2.75472 94.3542 2.75899 95.0896 2.75589C95.2358 2.75589 95.3148 2.79814 95.3761 2.94313C96.7709 6.22708 98.172 9.50988 99.5711 12.7927C99.6296 12.9287 99.685 13.0648 99.7599 13.2459L99.7568 13.2428V13.2431ZM92.4515 9.33775H95.2664C94.8027 8.22048 94.3495 7.12687 93.8948 6.0317C93.8774 6.0348 93.8611 6.03751 93.8436 6.03906C93.3815 7.13423 92.9179 8.23095 92.4515 9.3362V9.33775Z" fill="black"/>
<path d="M28.5593 5.73923C28.5593 6.65297 28.5461 7.5671 28.5651 8.48084C28.5752 8.9693 28.7229 9.42675 28.9597 9.86249C29.7172 11.2604 31.8665 11.2209 32.6984 9.85241C32.9717 9.40194 33.1093 8.9065 33.1136 8.38431C33.1283 6.81114 33.1268 5.23759 33.1326 3.66442C33.1326 3.44074 33.1516 3.21395 33.1283 2.99336C33.1093 2.80767 33.1826 2.77976 33.3388 2.78131C33.7467 2.78867 34.1549 2.78441 34.5612 2.78441C34.9267 2.78441 35.2908 2.79023 35.6563 2.78441C35.8099 2.78131 35.8831 2.81077 35.8816 2.99065C35.8699 4.79952 35.9269 6.61265 35.8405 8.41842C35.766 10.0048 35.1811 11.4143 33.8754 12.4366C33.169 12.9894 32.3545 13.286 31.4672 13.3899C30.4158 13.5112 29.4098 13.3635 28.4523 12.8987C27.4331 12.406 26.7942 11.5783 26.3569 10.5739C25.9623 9.66594 25.8262 8.70064 25.8173 7.72255C25.8014 6.14939 25.8173 4.57583 25.8083 3.00112C25.8083 2.81969 25.8669 2.78015 26.0363 2.7817C26.8023 2.79061 27.5703 2.79061 28.3363 2.78325C28.4899 2.78325 28.5337 2.83132 28.5321 2.98057C28.5263 3.90013 28.529 4.82007 28.529 5.73962H28.5581L28.5593 5.73923Z" fill="black"/>
<path d="M79.5655 4.44224H80.4033C80.6285 4.44224 80.8538 4.44806 81.079 4.44379C81.174 4.44224 81.2104 4.47907 81.2093 4.57095C81.2061 4.71555 81.2019 4.86209 81.2123 5.00669C81.2213 5.14703 81.1581 5.1823 81.0282 5.18075C80.5967 5.17649 80.1641 5.18075 79.7326 5.18075H79.5775V6.10341H79.788C80.2075 6.10651 80.6274 6.11659 81.0468 6.11232C81.1813 6.11077 81.2166 6.16195 81.2093 6.28212C81.2019 6.40928 81.2019 6.53643 81.2093 6.66359C81.2166 6.80121 81.1697 6.8582 81.022 6.8551C80.6025 6.84618 80.1827 6.852 79.7632 6.852H79.5659C79.5659 7.15632 79.5601 7.43816 79.5748 7.72038C79.5764 7.75256 79.6904 7.80373 79.7516 7.80528C80.5238 7.80954 81.2972 7.80528 82.0691 7.80528C82.381 7.80528 82.536 7.95828 82.5339 8.26428C82.5339 8.30654 82.5308 8.34918 82.5339 8.39144C82.5413 8.50541 82.4975 8.5465 82.3746 8.5465C81.4872 8.54069 80.5979 8.5434 79.7105 8.5434H79.5775C79.5733 8.60466 79.5659 8.65156 79.5659 8.69847C79.5659 9.30401 79.569 9.90917 79.5628 10.5132C79.5613 10.6508 79.6051 10.6888 79.7396 10.6888C81.3275 10.6857 82.9142 10.6845 84.5021 10.693C84.9437 10.6961 84.8836 10.6345 84.8867 11.066C84.8909 11.7138 84.8867 12.3616 84.8867 13.0078C84.8867 13.2346 84.8766 13.2462 84.6529 13.2462C82.1292 13.2462 79.6039 13.2462 77.0802 13.252C76.8929 13.252 76.8491 13.1951 76.8491 13.0121C76.8549 9.67811 76.8534 6.34454 76.8522 3.01058C76.8522 2.75045 76.8507 2.75161 77.1096 2.75316C77.864 2.75626 78.6185 2.76208 79.3717 2.75743C79.5268 2.75743 79.5706 2.8086 79.5675 2.9563C79.5601 3.44011 79.5644 3.92431 79.5644 4.44495L79.5659 4.44185L79.5655 4.44224Z" fill="black"/>
<path d="M17.9057 9.16675C16.0825 9.16985 14.6039 7.67693 14.626 5.79479C14.645 4.09408 16.0018 2.52984 17.8909 2.53836C19.9309 2.54844 21.1706 4.15999 21.1823 5.83705C21.1954 7.65328 19.6994 9.1621 17.9053 9.1652V9.16675H17.9057ZM17.8793 7.52031C18.783 7.53505 19.5374 6.79072 19.561 5.86225C19.5831 4.93959 18.8272 4.18945 17.8576 4.17356C16.9904 4.15883 16.2302 4.89889 16.2201 5.76456C16.2084 6.73993 16.9307 7.50442 17.8797 7.51915V7.5207L17.8793 7.52031Z" fill="black"/>
<path d="M13.9946 13.2783V11.7474C14.0985 11.7385 14.1935 11.7253 14.2885 11.7253C16.6587 11.7253 19.0305 11.7269 21.4007 11.7296C21.6918 11.7296 21.6918 11.7339 21.693 12.0219C21.693 12.3902 21.6899 12.7604 21.6945 13.1287C21.6945 13.2384 21.674 13.2923 21.5453 13.2911C19.0654 13.2869 16.5839 13.288 14.1043 13.2869C14.0753 13.2869 14.0443 13.2826 13.9946 13.278V13.2783Z" fill="black"/>
</svg>
