<svg width="121" height="120" viewBox="0 0 121 120" fill="none" xmlns="http://www.w3.org/2000/svg">
<path fill-rule="evenodd" clip-rule="evenodd" d="M97.0338 23.755C97.6468 24.508 98.0098 25.519 98.1458 26.846L98.1468 26.845C98.1718 27.077 98.1938 27.297 98.1938 27.515L98.1918 101.996C97.9938 104.536 96.7808 106.103 94.3748 106.94C94.2718 106.976 94.1578 106.995 94.0458 106.994H39.0558C38.3688 106.99 37.6798 106.99 36.9938 107C36.9348 107.001 36.8728 107.001 36.8088 107.001C36.6498 107.001 36.4768 106.996 36.3068 106.976C36.2538 106.969 36.1978 106.961 36.1448 106.951C35.2738 106.789 34.2888 106.203 33.5098 105.383C33.1608 105.019 32.8748 104.609 32.6598 104.169L32.658 104.165C32.5033 103.846 32.1848 103.188 32.1848 102.72V98.274C32.1848 97.938 31.9098 97.6641 31.5728 97.6641H27.1278C26.1418 97.6641 25.0018 97.126 24.1518 96.26C23.2938 95.383 22.8338 94.2971 22.8558 93.201C22.8698 92.522 22.8648 91.829 22.8598 91.1581C22.8568 90.8071 22.8548 90.455 22.8548 90.104L22.8448 33.768C22.8448 33.524 22.8368 33.25 22.8278 32.958C22.7838 31.511 22.7298 29.714 23.5518 28.98C24.4915 28.1426 25.3809 27.2194 26.2425 26.325L26.2598 26.307L26.3513 26.212L26.3514 26.2119C26.6808 25.8696 27.0098 25.5277 27.3438 25.19C27.7987 24.7291 28.2531 24.2671 28.7073 23.8052L29.1598 23.345C31.0368 21.437 32.9768 19.465 34.9228 17.561C36.4638 16.054 37.8688 14.725 39.2218 13.498C39.5478 13.204 39.9708 13.041 40.4138 13.041L84.3968 13.002C84.4548 12.999 84.5118 12.998 84.5668 12.998C85.9198 12.998 86.8628 13.626 87.4238 14.166C88.1818 14.895 88.6708 15.901 88.6708 16.728V21.661C88.6948 21.749 88.7028 21.871 88.7088 21.978C88.7218 22.176 88.7338 22.301 88.8178 22.373C88.9258 22.468 89.1828 22.497 89.5748 22.461C90.5092 22.341 91.4617 22.3384 92.3911 22.3359L92.6668 22.335C92.9728 22.337 93.2778 22.337 93.5868 22.335C94.6738 22.315 96.1668 22.692 97.0338 23.755ZM83.6038 94.1521C83.9878 94.16 84.3848 94.162 84.6938 93.968V93.967C85.0458 93.745 85.2568 93.328 85.2558 92.8511L85.2518 17.817C85.3178 17.173 84.8348 16.547 84.1978 16.427H42.4418C42.1058 16.427 41.8318 16.702 41.8318 17.039V28.437C41.8678 29.754 40.2158 31.869 38.1148 31.981H26.8908C26.5538 31.981 26.2788 32.254 26.2778 32.591V91.2631C26.2768 91.5681 26.2768 91.8721 26.2818 92.1781V92.4L26.2818 92.4028C26.2828 92.9975 26.2836 93.4697 26.7908 93.8521C27.4531 94.3525 28.344 94.3081 29.2061 94.2652L29.2088 94.2651L29.2741 94.2619L29.2749 94.2619H29.2751H29.2752H29.2754H29.2756H29.2758H29.276H29.2762H29.2764H29.2766H29.2768H29.277H29.2773H29.2775H29.2777H29.2779C29.4871 94.2519 29.6925 94.2421 29.8898 94.2421L83.4008 94.1521H83.6038ZM36.2228 97.6651C35.8858 97.6651 35.6108 97.938 35.6108 98.275V101.767C35.6108 102.338 35.6708 102.661 36.0298 103.067C36.1568 103.209 36.2718 103.332 36.4128 103.406C36.6738 103.543 37.0318 103.522 37.3828 103.501L37.3888 103.501C37.5087 103.494 37.6266 103.487 37.7358 103.487L93.2368 103.433H93.2458C93.7078 103.433 94.0378 103.431 94.3038 103.082C94.5918 102.706 94.7648 102.163 94.7658 101.632V27.7C94.7708 26.946 94.6058 26.38 94.2888 26.061C94.0928 25.864 93.8358 25.76 93.5438 25.759H89.0248C88.9078 25.751 88.8568 25.755 88.8058 25.808C88.7848 25.83 88.7588 25.851 88.7328 25.871C88.7198 25.882 88.6988 25.897 88.6938 25.904C88.6878 25.927 88.6708 26.049 88.6708 26.514V93.7591C88.6714 93.7906 88.6716 93.823 88.6716 93.8564L88.6714 93.8955L88.6708 93.943C88.6078 96.4211 86.0138 97.6651 84.5788 97.6651H36.2228ZM37.3638 20.074L29.9248 27.513V27.512C29.7118 27.724 29.7168 27.995 29.7918 28.177C29.8668 28.359 30.0538 28.554 30.3548 28.554H36.9748C37.7638 28.554 38.4048 27.913 38.4048 27.124V20.504C38.4048 20.204 38.2098 20.016 38.0288 19.941C37.9588 19.911 37.8768 19.893 37.7888 19.893C37.6488 19.893 37.4948 19.942 37.3638 20.074ZM70.1641 80.8989C70.2201 80.8029 70.3591 80.8029 70.4151 80.8989L72.8931 85.1509C72.9441 85.2389 72.9771 85.3399 72.9841 85.4399C73.1151 87.3489 71.8231 88.6359 70.2701 88.6319C68.7171 88.6289 67.4321 87.3349 67.5731 85.4269C67.5801 85.3259 67.6141 85.2259 67.6651 85.1389L70.1641 80.8989ZM70.425 76.8319L72.924 72.5919C72.975 72.5049 73.009 72.4039 73.016 72.3039C73.157 70.3959 71.872 69.1019 70.318 69.0979C68.765 69.0939 67.473 70.3809 67.605 72.2899C67.612 72.3899 67.645 72.4919 67.696 72.5789L70.174 76.8309C70.23 76.9269 70.368 76.9269 70.425 76.8309V76.8319ZM64.2439 79.7579L68.5239 79.7769C68.6349 79.7769 68.7049 79.8979 68.6489 79.9949L66.4799 83.7399C65.9989 84.5899 65.1329 85.0949 64.1559 85.0929C63.1959 85.0899 62.3459 84.5929 61.8649 83.7619C61.3809 82.9249 61.4009 81.9249 61.8849 81.0879C62.3689 80.2509 63.3779 79.7529 64.2439 79.7549V79.7579ZM74.6158 73.2389C74.5328 73.2959 74.4628 73.3749 74.4138 73.4629L71.9918 77.7369C71.9368 77.8339 72.0068 77.9529 72.1178 77.9539L76.2448 77.9749C77.1488 77.9799 78.0578 77.6199 78.5888 76.8879C79.2268 76.0059 79.2798 74.8899 78.7468 73.9689C77.9678 72.6249 76.1968 72.1529 74.6168 73.2389H74.6158ZM63.5571 77.9331C63.4561 77.9331 63.3521 77.9111 63.2621 77.8661V77.8651C61.5481 77.0151 61.0891 75.2501 61.8771 73.9111C62.6651 72.5721 64.4421 72.1121 66.0131 73.2121C66.0951 73.2691 66.1641 73.3491 66.2131 73.4371L68.6051 77.7261C68.6591 77.8231 68.5891 77.9421 68.4781 77.9421L63.5571 77.9331ZM77.7705 80.1591C77.6765 80.0801 77.5505 80.0351 77.4275 80.0351L76.4145 80.0331L72.1185 79.9141C72.0055 79.9111 71.9325 80.0321 71.9875 80.1311L74.0785 83.8251C74.7815 85.0861 76.3385 85.5361 77.8415 84.8321C77.8585 84.8241 77.8765 84.8121 77.8905 84.8001C79.5165 83.3651 79.4795 81.5981 77.7685 80.1601L77.7705 80.1591ZM77.9827 42.794H33.9457C33.0847 42.794 32.3867 42.096 32.3867 41.235C32.3867 40.374 33.0847 39.676 33.9457 39.676H77.9827C78.8437 39.676 79.5417 40.374 79.5417 41.235C79.5417 42.096 78.8437 42.794 77.9827 42.794ZM33.9457 50.638H61.7037C62.5647 50.638 63.2627 49.94 63.2627 49.079C63.2627 48.218 62.5647 47.52 61.7037 47.52H33.9457C33.0847 47.52 32.3867 48.218 32.3867 49.079C32.3867 49.94 33.0847 50.638 33.9457 50.638ZM66.8051 47.519H77.9821C78.8431 47.519 79.5411 48.217 79.5411 49.078C79.5411 49.939 78.8431 50.637 77.9821 50.637H66.8051C65.9441 50.637 65.2461 49.939 65.2461 49.078C65.2461 48.217 65.9441 47.519 66.8051 47.519ZM79.5423 56.922C79.5423 56.061 78.8443 55.363 77.9833 55.363H49.5863C48.7253 55.363 48.0273 56.061 48.0273 56.922C48.0273 57.783 48.7253 58.481 49.5863 58.481H77.9833C78.8443 58.481 79.5423 57.783 79.5423 56.922ZM44.3117 58.482H33.8637C33.0027 58.482 32.3047 57.784 32.3047 56.923C32.3047 56.062 33.0027 55.364 33.8637 55.364H44.3117C45.1727 55.364 45.8707 56.062 45.8707 56.923C45.8707 57.784 45.1727 58.482 44.3117 58.482ZM33.8127 71.05H55.3747C56.2067 71.05 56.8827 71.7261 56.8827 72.5581V72.66C56.8827 73.493 56.2067 74.168 55.3747 74.168H33.8127C32.9797 74.168 32.3047 73.492 32.3047 72.66V72.5581C32.3047 71.7261 32.9807 71.05 33.8127 71.05ZM42.9507 78.894H33.8137C32.9807 78.894 32.3047 79.57 32.3047 80.403V80.505C32.3047 81.337 32.9807 82.013 33.8127 82.013H42.9517C43.7837 82.013 44.4597 81.337 44.4597 80.505V80.403C44.4597 79.57 43.7837 78.894 42.9507 78.894ZM47.6399 78.894H55.3739C56.2069 78.894 56.8829 79.57 56.8829 80.403V80.505C56.8829 81.337 56.2069 82.013 55.3749 82.013H47.6389C46.8069 82.013 46.1309 81.337 46.1309 80.505V80.403C46.1309 79.57 46.8069 78.894 47.6399 78.894ZM38.9317 66.3251H33.8637C33.0027 66.3251 32.3047 65.6281 32.3047 64.7661C32.3047 63.9041 33.0027 63.2061 33.8637 63.2061H38.9317C39.7937 63.2061 40.4917 63.9051 40.4917 64.7661C40.4917 65.6271 39.7927 66.3251 38.9317 66.3251ZM67.7895 64.766C67.7895 63.905 67.0915 63.207 66.2305 63.207H46.4555C45.5945 63.207 44.8965 63.905 44.8965 64.766C44.8965 65.627 45.5945 66.325 46.4555 66.325H66.2305C67.0915 66.325 67.7895 65.627 67.7895 64.766ZM73.0551 63.2061H77.9891C78.8501 63.2061 79.5481 63.9041 79.5481 64.7651C79.5481 65.6261 78.8501 66.3241 77.9891 66.3241H73.0551C72.1941 66.3241 71.4961 65.6261 71.4961 64.7651C71.4961 63.9041 72.1941 63.2061 73.0551 63.2061Z" fill="white"/>
</svg>
