<svg width="120" height="120" viewBox="0 0 120 120" fill="none" xmlns="http://www.w3.org/2000/svg">
<path d="M108.33 64.5743C110.451 67.9283 112.542 71.2559 114.658 74.5691C115.167 75.3647 115.537 76.1615 114.934 77.0351C114.307 77.9435 113.428 77.8955 112.444 77.6723C107.491 76.5503 102.532 75.4607 97.565 74.4047C97.0658 74.2979 96.4395 74.3495 95.9787 74.5607C88.6659 77.9111 81.1059 78.6683 73.2794 76.8203C73.037 76.7627 72.7827 76.7543 72.7791 76.7531C72.1431 79.9331 71.7495 83.1131 70.8591 86.1455C67.1127 98.8979 55.3683 108.441 42.1323 109.731C35.8119 110.347 29.7987 109.317 24.0471 106.639C23.5875 106.425 22.9611 106.361 22.4631 106.466C17.4243 107.544 12.3951 108.661 7.36826 109.793C6.45866 109.998 5.66306 109.952 5.06786 109.16C4.45106 108.341 4.73186 107.574 5.22506 106.799C7.21946 103.673 9.17666 100.523 11.1927 97.4123C11.5791 96.8159 11.5563 96.4427 11.1447 95.8679C-3.79054 75.0407 8.64146 46.1123 34.0779 42.5027C38.3127 41.9015 42.5175 42.1691 46.6731 43.1915C46.9143 43.2503 47.1615 43.2851 47.3319 43.3175C49.1523 25.9007 57.9327 14.1767 75.4118 10.7999C89.5851 8.0627 101.223 13.3823 109.503 25.2215C117.203 36.2327 117.619 52.0835 108.328 64.5731L108.33 64.5743ZM10.3407 105.363C10.8879 105.275 11.2431 105.235 11.5911 105.158C15.1755 104.369 18.7659 103.604 22.3371 102.759C23.3115 102.529 24.1311 102.656 25.0023 103.094C30.2391 105.72 35.7747 106.758 41.6163 106.176C58.6251 104.479 70.9239 88.9007 68.6067 71.9723C66.2966 55.1063 50.5515 43.4915 33.6627 46.1963C11.0931 49.8083 0.565462 76.6727 14.6811 94.6271C15.9531 96.2447 15.9627 96.4763 14.8311 98.2631C13.3695 100.573 11.9079 102.884 10.3407 105.363ZM109.63 73.3823C108.045 70.8755 106.602 68.5955 105.159 66.3155C103.935 64.3823 103.973 64.3055 105.318 62.5019C111.232 54.5747 113.148 45.7679 110.59 36.2099C106.302 20.1911 90.4467 10.8275 74.2587 14.5607C60.8847 17.6459 50.9991 30.0671 51.0339 43.7195C51.0351 44.3507 51.1959 44.6747 51.8151 44.9579C63.4047 50.2655 70.2135 59.2163 72.1299 71.8223C72.2643 72.7031 72.6182 72.9779 73.3779 73.1711C80.8275 75.0611 88.0215 74.4035 94.9359 71.0243C95.7794 70.6127 96.5583 70.4771 97.4919 70.6931C101.425 71.6027 105.373 72.4463 109.63 73.3823Z" fill="#3E6D74"/>
<path d="M81.3625 46.71L77.9065 52.6068C77.1709 53.8608 77.1637 55.3632 77.8873 56.6244C78.6097 57.8856 79.9093 58.6392 81.3625 58.6392C82.8157 58.6392 84.1153 57.8856 84.8389 56.6244C85.5613 55.3632 85.5541 53.8608 84.8197 52.6068L81.3637 46.71H81.3625Z" fill="#3E6D74"/>
<g opacity="0.7">
<path d="M81.3628 29.3184C79.9096 29.3184 78.61 30.072 77.8864 31.3332C77.164 32.5944 77.1712 34.0968 77.9056 35.3508L81.3616 41.2476L84.8176 35.3508C85.5532 34.0968 85.5604 32.5944 84.8368 31.3332C84.1144 30.072 82.8148 29.3184 81.3604 29.3184H81.3628Z" fill="#3E6D74"/>
</g>
<g opacity="0.5">
<path d="M72.2849 45.3371C70.9841 45.3371 69.4721 46.0883 68.7485 47.3471C68.0249 48.6059 67.9985 50.1059 68.7293 51.3599C69.4553 52.6055 70.7333 53.3483 72.1733 53.3483C73.6133 53.3483 74.9369 52.5851 75.6569 51.3083L79.0853 45.3527L72.2849 45.3395V45.3359V45.3371Z" fill="#3E6D74"/>
</g>
<g opacity="0.8">
<path d="M83.7229 42.6035L90.5581 42.6203C92.0197 42.6203 93.3181 41.8691 94.0417 40.6103C94.7653 39.3515 94.7605 37.8515 94.0297 36.5975C93.3037 35.3519 92.0101 34.6091 90.5689 34.6091C89.1277 34.6091 87.7969 35.3711 87.0781 36.6491L83.7241 42.6047L83.7229 42.6035Z" fill="#3E6D74"/>
</g>
<g opacity="0.6">
<path d="M68.6916 40.5899C69.414 41.8511 70.7136 42.6035 72.1668 42.6035L79.0044 42.5987L75.66 36.6371C74.9412 35.3555 73.6344 34.5911 72.1656 34.5911C70.6968 34.5911 69.4356 35.3327 68.7096 36.5735C67.9752 37.8275 67.9692 39.3287 68.6916 40.5899Z" fill="#3E6D74"/>
</g>
<g opacity="0.9">
<path d="M90.5583 45.708H90.5547L83.7207 45.5352L87.0651 51.408C87.7839 52.6896 89.0907 53.4096 90.5595 53.4096C92.0283 53.4096 93.2895 52.6464 94.0155 51.4044C94.7499 50.1504 94.7559 48.8148 94.0335 47.5548C93.3111 46.2936 92.0115 45.708 90.5583 45.708Z" fill="#3E6D74"/>
</g>
<path d="M38.5738 68.5535C39.2962 67.6643 40.0714 66.9479 40.9762 66.3695C44.143 64.3439 48.3298 64.6055 51.2266 67.0067C52.945 68.4311 54.0106 70.2323 54.3334 72.4391C54.697 74.9207 54.0598 77.1599 52.5946 79.1867C50.9758 81.4247 49.0858 83.4107 47.0662 85.2839C44.6158 87.5555 41.9878 89.6063 39.331 91.6235C38.7958 92.0303 38.413 92.0471 37.8874 91.6535C34.261 88.9427 30.7258 86.1227 27.6058 82.8239C26.2534 81.3935 24.9382 79.9319 23.9422 78.2135C21.919 74.7227 22.5742 70.8167 24.979 67.9655C27.7042 64.7339 32.821 63.9659 36.5854 66.6455C37.2502 67.1183 38.5078 68.4563 38.5762 68.5547L38.5738 68.5535Z" fill="#3E6D74"/>
</svg>
