<svg width="120" height="120" viewBox="0 0 120 120" fill="none" xmlns="http://www.w3.org/2000/svg">
<path d="M113.837 50.1709L115.723 50.2177V38.1757C115.723 32.5825 111.172 28.0321 105.579 28.0321H65.1977L30.6113 15.9841C25.3265 14.1505 19.5353 16.9453 17.6945 22.2289L15.6737 28.0321H14.4209C8.82774 28.0321 4.27734 32.5825 4.27734 38.1757V50.1709H5.98014C11.7125 50.1709 16.3769 54.8353 16.3769 60.5677C16.3769 66.3001 11.7125 70.9645 5.98014 70.9645H4.27734V82.9597C4.27734 88.5529 8.82774 93.1033 14.4209 93.1033H63.9653L95.2901 104.015C96.3905 104.398 97.5137 104.579 98.6177 104.579C102.814 104.579 106.75 101.952 108.207 97.7713L110.227 91.9705C113.487 90.2821 115.721 86.8777 115.721 82.9597V70.9177L113.98 70.9561L113.869 70.9633C108.136 70.9633 103.472 66.2989 103.472 60.5665C103.472 54.8341 108.118 50.1877 113.836 50.1697L113.837 50.1709ZM20.9129 23.3485C21.5033 21.6493 22.7225 20.2813 24.3437 19.4977C25.9649 18.7129 27.7913 18.6085 29.4929 19.2013L54.8429 28.0309H19.2809L20.9129 23.3473V23.3485ZM104.991 96.6505C103.771 100.159 99.9185 102.02 96.4121 100.796L75.0017 93.3397H106.145L104.991 96.6517V96.6505ZM100.067 60.5677C100.067 67.6537 105.434 73.5097 112.317 74.2837V82.9597C112.317 86.6749 109.294 89.6977 105.579 89.6977H32.7521V85.6693C32.7521 84.6325 31.9109 83.7913 30.8741 83.7913C29.8373 83.7913 28.9961 84.6325 28.9961 85.6693V89.6977H14.4221C10.7069 89.6977 7.68414 86.6749 7.68414 82.9597V74.2657C14.4941 73.4245 19.7837 67.6009 19.7837 60.5677C19.7837 53.5345 14.4941 47.7109 7.68414 46.8697V38.1757C7.68414 34.4605 10.7069 31.4377 14.4221 31.4377H29.0045C28.9997 31.4953 28.9961 31.5529 28.9961 31.6117V37.8697C28.9961 38.9065 29.8373 39.7477 30.8741 39.7477C31.9109 39.7477 32.7521 38.9065 32.7521 37.8697V31.6117C32.7521 31.5529 32.7485 31.4953 32.7437 31.4377H105.579C109.294 31.4377 112.317 34.4605 112.317 38.1757V46.8517C105.434 47.6257 100.067 53.4817 100.067 60.5677Z" fill="#3E6D74"/>
<path d="M30.8741 43.0476C29.8373 43.0476 28.9961 43.8888 28.9961 44.9256V61.4016C28.9961 62.4384 29.8373 63.2796 30.8741 63.2796C31.9109 63.2796 32.7521 62.4384 32.7521 61.4016V44.9256C32.7521 43.8888 31.9109 43.0476 30.8741 43.0476Z" fill="#3E6D74"/>
<path d="M30.8741 67.3933C29.8373 67.3933 28.9961 68.2345 28.9961 69.2713V77.7997C28.9961 78.8365 29.8373 79.6777 30.8741 79.6777C31.9109 79.6777 32.7521 78.8365 32.7521 77.7997V69.2713C32.7521 68.2345 31.9109 67.3933 30.8741 67.3933Z" fill="#3E6D74"/>
<path d="M67.104 63.8198L62.2931 72.0278C61.7915 76.571 65.7528 79.2758 69.5208 77.4458C69.5268 77.4422 69.534 77.4386 69.54 77.435C71.934 75.803 72.4907 73.0118 71.2187 70.8422L67.1028 63.821L67.104 63.8198Z" fill="#3E6D74"/>
<g opacity="0.7">
<path d="M67.104 43.1101C64.2528 43.1101 61.8996 45.5425 62.2932 49.1065L67.104 57.3145L71.9148 49.1065C72.3084 45.5437 69.9552 43.1101 67.104 43.1101Z" fill="#3E6D74"/>
</g>
<g opacity="0.5">
<path d="M56.2936 62.1853C54.7444 62.1853 52.9444 63.0805 52.0828 64.5793C50.8048 66.8041 51.3532 69.6637 53.9704 71.2573C53.9752 71.2609 53.9812 71.2633 53.9872 71.2657C56.5528 72.3577 59.1076 71.4301 60.3088 69.2965L64.3912 62.2057L56.2936 62.1901V62.1853Z" fill="#3E6D74"/>
</g>
<g opacity="0.8">
<path d="M69.9141 58.9298L78.0525 58.9502C80.5713 58.9502 82.6821 57.077 82.9017 54.2114C82.9017 54.2042 82.9017 54.1958 82.9017 54.1886C82.6197 49.997 78.2469 47.9006 74.5749 50.6546L69.9141 58.9298Z" fill="#3E6D74"/>
</g>
<g opacity="0.6">
<path d="M51.3184 54.1873C51.5332 57.0553 53.6524 58.9309 56.1544 58.9309L64.2964 58.9249L59.6524 50.6461C55.9876 47.8765 51.6004 49.9717 51.3184 54.1645C51.3184 54.1717 51.3184 54.1801 51.3184 54.1885V54.1873Z" fill="#3E6D74"/>
</g>
<g opacity="0.9">
<path d="M78.0483 62.6268L69.9099 62.4216L73.8915 69.414C75.1611 71.6772 77.9715 72.4716 80.6703 71.1744C83.6955 68.5224 83.5443 65.238 80.1987 62.6268H78.0483Z" fill="#3E6D74"/>
</g>
</svg>
