<svg width="160" height="160" viewBox="0 0 160 160" fill="none" xmlns="http://www.w3.org/2000/svg">
<path d="M145.917 40.8608H127.274L127.28 40.6944C127.398 37.8896 127.259 35.1024 126.864 32.4096C125.322 21.8512 120.538 15.1312 120.334 14.8496L119.384 13.5248L117.758 13.6608C116.963 13.7296 98.1441 15.4928 85.5137 29.5568L85.4673 29.608H85.3985L74.9441 29.8784L74.8945 29.8224C62.2673 15.5168 43.2177 13.7312 42.4129 13.6624L40.7873 13.5264L39.8369 14.8512C39.6337 15.1328 34.8497 21.8528 33.3073 32.4096C32.9137 35.1008 32.7729 37.8896 32.8913 40.6976L32.8977 40.864H14.0801V72.8224H22.3761V146.478H136.955V72.8224H145.914V40.864L145.917 40.8608ZM121.434 35.3728L121.446 35.5248C121.582 37.0944 121.602 38.7888 121.509 40.7072L121.501 40.8592H98.1969L98.8977 40.552C105.994 37.448 113.523 35.7072 121.278 35.3776L121.432 35.3712L121.434 35.3728ZM89.3537 33.8304L89.3937 33.7856C98.2705 23.5936 111.264 20.4976 116.438 19.6384L116.549 19.6208L116.603 19.7184C117.757 21.7552 119.36 25.1008 120.442 29.48L120.488 29.6672L120.294 29.6784C106.534 30.4144 96.0049 35.0784 89.5953 38.8624L89.3537 39.0048V33.832V33.8304ZM76.5441 40.6944C76.5441 40.6576 76.5521 40.6224 76.5585 40.5872C76.5617 40.568 76.5665 40.5488 76.5665 40.528V35.5792L83.6081 35.3984V40.5264C83.6081 40.5472 83.6129 40.5664 83.6161 40.5856C83.6225 40.6208 83.6289 40.656 83.6305 40.6928L83.6353 40.8576H76.5361L76.5425 40.6928L76.5441 40.6944ZM72.8097 47.368H87.1697V66.1248H72.8097V47.368ZM39.7345 29.4784C40.8785 24.8576 42.6305 21.3792 43.5729 19.7168L43.6273 19.6192L43.7377 19.6368C48.9121 20.4944 61.9057 23.5888 70.7825 33.784L70.8225 33.8288V39.0016L70.5809 38.8592C64.1713 35.0752 53.6417 30.4112 39.8817 29.6752L39.6881 29.664L39.7345 29.4768V29.4784ZM38.7297 35.5264L38.7425 35.3744L38.8961 35.3808C46.6513 35.7104 54.1825 37.4512 61.2769 40.5552L61.9777 40.8624H38.6737L38.6657 40.7104C38.5729 38.792 38.5937 37.0976 38.7281 35.528L38.7297 35.5264ZM19.8273 67.0736V46.6048H67.0641V67.0736H19.8273ZM131.213 140.731H28.1233V72.8192H131.213V140.731ZM140.173 67.0736H92.9153V46.6048H140.173V67.0736Z" fill="white"/>
<path d="M79.4128 110.39L74.5008 118.722C73.456 120.494 73.44 122.619 74.4592 124.406C75.4768 126.194 77.3136 127.264 79.3696 127.269C81.4272 127.274 83.2672 126.213 84.2944 124.43C85.3216 122.648 85.3168 120.523 84.2816 118.746L79.4128 110.389V110.39Z" fill="white"/>
<g opacity="0.7">
<path d="M79.4753 85.7824C77.4177 85.7776 75.5777 86.8384 74.5505 88.6208C73.5233 90.4032 73.5281 92.528 74.5649 94.3056L79.4337 102.662L84.3457 94.3312C85.3905 92.56 85.4065 90.4336 84.3873 88.6464C83.3697 86.8592 81.5329 85.7888 79.4769 85.784L79.4753 85.7824Z" fill="white"/>
</g>
<g opacity="0.5">
<path d="M66.5727 108.416C64.7327 108.411 62.5903 109.469 61.5615 111.248C60.5343 113.026 60.4895 115.149 61.5199 116.926C62.5423 118.691 64.3471 119.747 66.3871 119.754C68.4623 119.758 70.3007 118.685 71.3231 116.88L76.1967 108.466L66.5743 108.424V108.418L66.5727 108.416Z" fill="white"/>
</g>
<g opacity="0.8">
<path d="M82.7681 104.589L92.4401 104.637C94.5089 104.642 96.3489 103.584 97.3761 101.805C98.4033 100.027 98.4033 97.904 97.3729 96.1264C96.3505 94.3616 94.5233 93.3056 92.4833 93.2992C90.4081 93.2944 88.5585 94.368 87.5361 96.1728L82.7681 104.587V104.589Z" fill="white"/>
</g>
<g opacity="0.6">
<path d="M61.5071 101.686C62.5263 103.474 64.3615 104.542 66.4175 104.547L76.0927 104.565L71.3823 96.1184C70.3695 94.3024 68.5247 93.216 66.4447 93.2112C64.4095 93.2064 62.5791 94.2496 61.5471 96.0048C60.5039 97.776 60.4895 99.9008 61.5087 101.688L61.5071 101.686Z" fill="white"/>
</g>
<g opacity="0.9">
<path d="M92.4289 109.005H92.4241L82.7537 108.736L87.4641 117.058C88.4769 118.874 90.3233 119.898 92.4017 119.902C94.4369 119.907 96.2673 118.832 97.2993 117.078C98.3425 115.307 98.3569 113.418 97.3377 111.63C96.3185 109.845 94.4833 109.01 92.4273 109.005H92.4289Z" fill="white"/>
</g>
</svg>
