<svg width="120" height="120" viewBox="0 0 120 120" fill="none" xmlns="http://www.w3.org/2000/svg">
<path d="M59.9946 52.1111L56.2446 58.5095C55.4466 59.8703 55.4394 61.4999 56.223 62.8691C57.0078 64.2383 58.4178 65.0555 59.9946 65.0555C61.5714 65.0555 62.9826 64.2383 63.7662 62.8691C64.551 61.4999 64.5426 59.8703 63.7446 58.5095L59.9946 52.1111Z" fill="#3E6D74"/>
<g opacity="0.7">
<path d="M59.9953 33.2375C58.4173 33.2375 57.0073 34.0547 56.2237 35.4239C55.4389 36.7931 55.4473 38.4227 56.2453 39.7835L59.9953 46.1831L63.7453 39.7835C64.5433 38.4227 64.5505 36.7931 63.7669 35.4239C62.9821 34.0547 61.5721 33.2375 59.9953 33.2375Z" fill="#3E6D74"/>
</g>
<g opacity="0.5">
<path d="M50.1432 50.6208C48.732 50.6208 47.0904 51.4368 46.3056 52.8024C45.5208 54.168 45.4908 55.7964 46.284 57.1572C47.0712 58.5084 48.4584 59.316 50.022 59.316C51.5856 59.316 53.0208 58.4881 53.802 57.1021L57.5232 50.6401L50.1432 50.6257V50.6208Z" fill="#3E6D74"/>
</g>
<g opacity="0.8">
<path d="M62.5566 47.653L69.9738 47.671C71.5602 47.671 72.969 46.855 73.7538 45.4894C74.5386 44.1238 74.5338 42.4954 73.7406 41.1346C72.9534 39.7834 71.5494 38.9758 69.9858 38.9758C68.4222 38.9758 66.9786 39.8038 66.1974 41.1898L62.5578 47.6518L62.5566 47.653Z" fill="#3E6D74"/>
</g>
<g opacity="0.6">
<path d="M46.2457 45.4692C47.0305 46.8372 48.4392 47.6544 50.016 47.6544L57.4369 47.6496L53.808 41.1804C53.028 39.7896 51.6108 38.9604 50.016 38.9604C48.4212 38.9604 47.0533 39.7644 46.2649 41.112C45.4681 42.4728 45.4609 44.1024 46.2457 45.4704V45.4692Z" fill="#3E6D74"/>
</g>
<g opacity="0.9">
<path d="M69.9723 51.0226H69.9687L62.5527 50.8354L66.1815 57.2086C66.9615 58.5994 68.3787 59.3806 69.9735 59.3806C71.5683 59.3806 72.9363 58.5526 73.7247 57.205C74.5215 55.8442 74.5287 54.3947 73.7439 53.0267C72.9591 51.6587 71.5503 51.0226 69.9735 51.0226H69.9723Z" fill="#3E6D74"/>
</g>
<path d="M108.846 99.4416L93.7468 73.1808C94.4104 72.2124 95.3788 71.8032 96.4012 71.3724C96.8488 71.1828 97.3132 70.9872 97.7596 70.74C103.812 67.3884 106.498 59.2152 103.623 52.8924C103.43 52.4676 103.149 52.0512 102.879 51.6492C102.576 51.2016 102.291 50.778 102.125 50.3568C101.297 48.2568 101.979 47.0928 102.843 45.618C103.194 45.0192 103.558 44.3988 103.856 43.6584C106.361 37.4124 103.468 29.448 97.5376 26.268C97.0816 26.0232 96.6448 25.86 96.2236 25.7028C95.3572 25.3776 94.6084 25.0968 93.9304 24.2004C93.112 23.124 93.0016 21.9816 92.8828 20.7696C92.8252 20.1732 92.7652 19.5576 92.6212 18.9216C91.2088 12.6744 84.3328 7.7376 77.9032 8.3604C77.242 8.4252 76.6732 8.5704 76.1224 8.712C75.0544 8.988 74.1316 9.2232 72.8008 8.8092C71.7112 8.472 71.0464 7.6716 70.3432 6.8256C69.994 6.4056 69.634 5.9724 69.214 5.592C66.9508 3.5388 64.0984 2.73 61.8664 2.2572L58.2004 2.25L54.6892 3.2148C52.768 3.7008 51.5152 5.004 50.3044 6.264C48.8488 7.7784 47.4652 9.2124 45.052 9.006C44.6008 8.9676 44.1256 8.8344 43.6228 8.694C43.1224 8.5536 42.6064 8.4096 42.1 8.3604C36.4624 7.8168 30.1312 11.6904 28.0012 17.0016C27.58 18.0516 27.4084 19.2144 27.2428 20.3388C27.0256 21.822 26.818 23.2212 26.0752 24.2004C25.396 25.0944 24.6484 25.3752 23.7832 25.7004C23.3608 25.8588 22.9252 26.0232 22.4668 26.268C16.5364 29.4492 13.6444 37.4124 16.15 43.6584C16.4464 44.3988 16.81 45.0192 17.1616 45.618C18.0256 47.0928 18.7084 48.2568 17.8804 50.3568C17.7136 50.778 17.4292 51.2016 17.1268 51.6492C16.8556 52.0512 16.5736 52.4676 16.3816 52.8924C13.5076 59.2152 16.1908 67.3872 22.2448 70.74C22.6912 70.9872 23.1556 71.1828 23.6032 71.3724C24.6268 71.8044 25.594 72.2136 26.2576 73.1808L10.8736 99.9444L10.834 100.015V101.758L10.8784 101.831C11.9188 103.524 12.4792 104.093 14.6872 104.005L29.626 101.336L34.7596 115.849C35.2312 116.893 36.2008 117.595 37.354 117.727C38.5012 117.846 39.604 117.395 40.3192 116.454L53.7376 93.5328C57.8392 95.4216 62.5 95.4012 66.2812 93.4632L66.34 93.4752L79.7068 116.484C80.3188 117.288 81.262 117.75 82.2724 117.75C82.3624 117.75 82.4548 117.746 82.546 117.739C83.6668 117.647 84.646 117.002 85.1824 115.979L90.3796 101.336L105.315 104.005C106.546 104.234 107.728 103.8 108.483 102.838C109.241 101.868 109.383 100.609 108.848 99.4428L108.846 99.4416ZM27.628 79.3968C29.3596 83.6676 33.0676 87.1176 37.2292 88.2792C39.8164 88.9992 41.1736 88.7568 42.7456 88.476C43.5724 88.3284 44.428 88.1736 45.5656 88.1412C47.2576 88.1208 48.7384 88.9788 50.0836 90.8544L37.7704 112.008L32.3704 97.3596L30.6664 96.8748L15.9976 99.4596L27.6292 79.3968H27.628ZM43.222 84.2976C41.8648 84.5172 40.582 84.7248 39.0652 84.42C35.9644 83.7996 32.7436 81.0708 31.7332 78.2076C31.408 77.2836 31.3072 76.41 31.2004 75.4836C31.0588 74.2488 30.9124 72.9708 30.1888 71.586C29.0296 69.3648 27.2536 68.4636 25.5352 67.5912C24.1624 66.8952 22.7428 66.174 21.6112 64.7676C19.978 62.7348 19.2424 59.9724 19.5424 56.988C19.6768 55.6452 20.2804 54.5604 20.92 53.4132C21.6916 52.0272 22.4884 50.5956 22.4884 48.6216C22.4884 46.6476 21.6796 45.1884 20.8972 43.8C20.3128 42.7632 19.7608 41.7828 19.5964 40.6368C19.0828 37.0536 20.2588 33.378 22.5928 31.272C23.434 30.5124 24.4252 30.0576 25.474 29.5764C26.6248 29.0484 27.8164 28.5024 28.7764 27.5208C30.5848 25.6704 30.9604 23.5716 31.3216 21.5412C31.8136 18.7836 32.278 16.1784 36.0724 13.9836C39.0196 12.2796 41.0044 12.6012 43.1092 12.9408C44.6824 13.1952 46.3096 13.458 48.364 12.8568C50.3092 12.2868 51.5116 11.0616 52.6732 9.8784C54.1192 8.406 55.6144 6.8832 58.636 6.5184C60.5932 6.282 62.4268 6.558 64.2376 7.3656C65.6152 7.98 66.586 8.9892 67.5256 9.9672C68.9248 11.4228 70.372 12.9276 73.1464 13.2132C74.464 13.3464 75.6352 13.1136 76.768 12.8856C77.8156 12.6756 78.8044 12.4728 79.8772 12.5688C83.3092 12.8724 87.0436 15.7032 88.2028 18.8796C88.5328 19.7868 88.624 20.6388 88.72 21.5412C88.798 22.2732 88.8784 23.0292 89.0992 23.8116C90.0028 27.0216 92.3668 28.3776 94.6528 29.688C97.4248 31.2768 100.043 32.7792 100.472 37.3776C100.746 40.3224 99.844 42.0792 98.9704 43.7796C98.254 45.1728 97.5136 46.614 97.5124 48.624C97.5124 50.6304 98.314 52.0356 99.0904 53.3952C99.6832 54.4332 100.242 55.416 100.404 56.6064C100.942 60.5796 99.5776 64.2456 96.7552 66.4128C95.9632 67.0212 95.1508 67.3764 94.3648 67.7196C93.1324 68.2584 91.8556 68.8152 90.6556 70.3284C89.2636 72.0792 88.9552 73.926 88.6564 75.7128C88.2364 78.2304 87.8404 80.61 84.5872 82.8276C81.4924 84.9372 79.2724 84.5988 76.9252 84.2364C75.2332 83.9784 73.4848 83.7084 71.3992 84.3888C69.6064 84.9708 68.5096 86.1384 67.4476 87.2676C66.5284 88.2468 65.6572 89.172 64.3528 89.7768C60.7936 91.422 56.3992 90.8964 53.6656 88.5C53.0788 87.9852 52.6576 87.4968 52.2508 87.024C51.388 86.0208 50.6404 85.1544 48.7312 84.4932C47.7088 84.1392 46.7824 84.0192 45.9124 84.0192C44.9668 84.0192 44.086 84.162 43.222 84.3012V84.2976ZM74.4376 88.1412C75.5752 88.1736 76.4296 88.3272 77.2564 88.476C78.8284 88.7556 80.1856 88.998 82.774 88.2792C86.9344 87.1176 90.6436 83.6664 92.374 79.3968L104.007 99.4596L89.404 96.8868L89.3356 96.8748L87.6328 97.3596L82.126 112.009L69.9184 90.8556C71.2624 88.9788 72.724 88.0884 74.4364 88.1412H74.4376Z" fill="#3E6D74"/>
<path d="M61.9423 78.8425C72.0643 78.2113 81.1315 72.6265 86.1967 63.9037C91.9795 53.9449 91.7755 42.1909 85.6507 32.4625C79.4983 22.6921 68.9707 17.3893 57.4531 18.3133C46.3579 19.1917 36.9787 25.8805 32.3623 36.2029C27.7387 46.5421 29.0239 58.0237 35.7955 66.9181C41.5771 74.5105 50.5207 78.9025 60.0187 78.9025C60.6559 78.9025 61.2991 78.8821 61.9411 78.8425H61.9423ZM38.2219 63.0541C33.0655 55.3825 32.4199 45.7477 36.4939 37.2817C40.5775 28.7953 48.5143 23.2765 57.7267 22.5181C67.8295 21.6925 77.3467 26.6377 82.5283 35.4445C87.7183 44.2681 87.4375 54.5905 81.7759 63.0541C76.8235 70.4581 68.9047 74.7085 60.0511 74.7181H60.0223C51.2791 74.7181 43.1311 70.3585 38.2207 63.0541H38.2219Z" fill="#3E6D74"/>
</svg>
