<svg width="115" height="21" viewBox="0 0 115 21" fill="none" xmlns="http://www.w3.org/2000/svg">
<path d="M76.5173 5.64898C77.0286 5.63737 77.5433 5.66399 78.0552 5.65171C78.3255 5.64557 78.7501 5.44898 78.9767 5.67901L82.2818 12.6059L85.4032 5.66673C85.58 5.51724 85.7691 5.65034 85.963 5.65171C86.2544 5.65376 87.8647 5.59369 87.9486 5.71246L87.9002 16.0434L87.8455 16.1253L85.3855 16.0864C85.3589 16.0161 85.4538 15.941 85.4538 15.9164V10.5609C85.2961 10.5295 85.3445 10.5766 85.3002 10.6482C85.064 11.0264 84.8538 11.7356 84.6476 12.1766C84.1077 13.3301 83.5002 14.4557 83.0026 15.6298C82.8668 15.8011 81.507 15.7963 81.3937 15.6796L78.974 10.6291V16.053C78.974 16.2379 78.5132 16.0871 78.3972 16.0837C77.7726 16.0653 77.1426 16.1035 76.5187 16.0871V5.64898H76.5173Z" fill="black"/>
<path d="M19.4871 5.64893V9.70759L19.5895 9.80997H23.6823L23.7847 9.70759V5.64893H26.343L26.3772 16.0864H23.7847V12.1635L23.6823 12.0611H19.4871V15.984L19.3848 16.0864H16.8264V5.64893H19.4871Z" fill="black"/>
<path d="M39.9867 5.64893L40.0761 5.80251L40.0215 7.83184L35.3826 7.89941V9.63933L35.485 9.74172H39.3396V11.9246L35.3826 11.9929V13.9028H39.9874C40.1826 13.9028 40.0222 14.4256 40.0188 14.5478C40.0031 15.0591 40.0365 15.5751 40.0215 16.0857H32.7219V5.64893H39.9874H39.9867Z" fill="black"/>
<path d="M8.16312 16.0864H5.43414V8.47961L5.33175 8.37722H2.22803V5.75131L2.33042 5.64893H8.06073L8.16312 5.75131V16.0864Z" fill="black"/>
<path d="M97.119 5.64893L97.0508 16.0864H94.459V5.64893H97.119Z" fill="black"/>
<path d="M10.3282 5.52874C12.092 5.22499 13.0292 7.51575 11.4845 8.45908C10.0258 9.34986 8.37392 7.61336 9.36094 6.19904C9.54524 5.93488 10.0053 5.58403 10.3282 5.52874Z" fill="black"/>
<path d="M52.9224 12.356C52.9108 12.227 53.4712 11.9785 53.6289 11.8557C55.1367 10.6755 55.2637 7.80109 53.7688 6.53421C52.2514 5.24822 48.9498 5.68576 47.0112 5.65231C46.7716 5.64821 46.5648 5.52671 46.3054 5.65709L46.3109 16.0399C46.4392 16.2836 46.7757 16.0918 47.0105 16.085C47.5887 16.0672 48.2242 16.0624 48.79 16.1396L48.8897 16.0536V12.9833C48.8897 12.9608 48.9798 12.8795 48.958 12.8126H50.2883C50.8992 13.6597 51.4371 14.5894 51.9716 15.4959C52.2153 15.9089 52.1013 16.1396 52.6746 16.1587C52.9497 16.1682 53.1681 16.087 53.4234 16.0836C54.0316 16.0768 54.6323 16.0836 55.2343 16.1546L52.9238 12.356H52.9224ZM51.7217 10.0161C51.5668 10.2072 51.0685 10.5608 50.8337 10.5608H48.9921L48.8897 10.4584V8.00246L48.9921 7.90007H50.9702C51.016 7.90007 51.4064 8.09461 51.4774 8.14307C52.1258 8.58743 52.2132 9.40927 51.7217 10.0161Z" fill="black"/>
<path d="M108.964 5.84483C108.752 5.79227 108.176 5.64893 108 5.64893H103.532V13.7335C103.532 14.5075 104.309 15.4898 104.969 15.844C105.72 16.2481 107.907 16.1614 108.774 15.9737C113.922 14.8604 114.19 7.14652 108.965 5.84483H108.964ZM108.876 13.3465C108.707 13.4611 107.966 13.7669 107.795 13.7669H106.26V8.03661H107.864C108.092 8.03661 108.737 8.31511 108.943 8.45845C110.35 9.43797 110.27 12.4004 108.876 13.3471V13.3465Z" fill="black"/>
<path d="M67.0661 5.7205C66.9193 5.46589 66.6825 5.64814 66.4579 5.65156C65.9801 5.65975 65.4982 5.65497 65.0197 5.65156C64.8361 5.65019 64.6647 5.53279 64.4886 5.64268L60.5542 16.1545L63.303 16.0883L63.9255 14.3736L67.6749 14.3771L68.2087 15.9689L68.3493 16.1074L71.0585 16.1545L67.0647 5.7205H67.0661ZM66.8579 12.3327C66.7644 12.3552 66.6872 12.2658 66.6599 12.2658C66.0231 12.2658 65.3862 12.2604 64.7501 12.2658C64.7323 12.2658 64.6982 12.3491 64.6477 12.302L64.5924 12.1095L65.6019 8.96825L65.7733 8.92115L66.9569 12.175L66.8579 12.3314V12.3327Z" fill="black"/>
</svg>
