<svg width="160" height="160" viewBox="0 0 160 160" fill="none" xmlns="http://www.w3.org/2000/svg">
<path fill-rule="evenodd" clip-rule="evenodd" d="M105.142 14.9328C122.985 11.7216 140.313 19.904 149.317 35.7744L149.318 35.776C153.489 43.1248 155.406 51.3088 154.862 59.4416C154.277 68.2016 150.787 76.4816 144.774 83.384C143.985 84.2864 134.945 93.6144 134.091 93.8736C133.712 93.9873 133.334 94.0416 132.969 94.0416C132.16 94.0416 131.419 93.7664 130.873 93.24C130.129 92.52 129.872 91.4512 130.173 90.3088L130.232 90.2064C131.155 89.2432 132.077 88.2992 132.99 87.3664L132.994 87.3621C140.57 79.6119 147.114 72.9179 148.643 61.4848C150.725 45.9232 143.497 31.6944 129.781 24.3488C116.254 17.1024 100.598 18.9808 88.9118 29.2352C82.8306 34.5726 76.9762 40.7646 71.3106 46.7568L71.2334 46.8384C66.0318 52.344 60.651 58.0368 55.1022 63.0672C53.1694 65.712 53.3582 69.5504 55.563 71.7712C58.3118 74.5376 62.3566 74.5824 65.6334 71.8832C69.3358 68.8288 72.907 64.9616 76.3614 61.2176L76.4157 61.1589C79.5428 57.7723 82.7727 54.2745 86.107 51.3776C88.1995 49.4848 89.718 50.8802 91.0587 52.1123L91.0654 52.1184C91.4622 52.4864 91.875 52.864 92.2878 53.144C97.8846 56.9472 105.309 57.1616 110.773 53.6704C111.257 53.3615 111.733 52.936 112.235 52.4875L112.257 52.4672C113.577 51.2864 115.073 49.9504 116.934 50.7664C117.925 51.1984 118.481 51.8272 118.59 52.6368C118.814 54.3104 116.973 56.2848 115.849 57.1872C107.969 63.5216 96.6158 63.5984 88.1694 57.4032L68.075 77.36C62.0206 81.944 55.2542 79.7552 51.5182 75.792C47.9118 71.968 45.811 65.0304 51.7566 58.0656C55.404 53.789 59.7942 49.6862 64.041 45.7172L64.0654 45.6944L64.1132 45.6497C67.9336 42.078 71.8812 38.3874 75.2702 34.5856L75.6238 33.9728C69.7246 27.408 63.5918 23.3168 56.8782 21.4608C42.4302 17.4736 27.7102 22.304 18.4686 34.0704C9.37902 45.64 8.21742 60.8736 15.435 73.832C16.4501 75.658 17.7168 77.1129 18.9412 78.5193L18.9502 78.5296L18.9626 78.5438C19.9436 79.673 20.8702 80.7395 21.6334 81.944C22.6622 83.568 22.1774 85.0784 21.243 85.8528C20.1982 86.72 18.3582 86.864 16.6126 85.24C11.9934 80.9312 7.98702 72.8592 6.56302 67.4512C1.97582 50.008 7.97902 32.7184 22.227 22.328C36.4622 11.9504 54.7342 11.5168 69.9038 21.1984C72.6894 22.9776 75.0302 25.1392 77.2942 27.2304C78.1806 28.0512 79.099 28.8992 80.0382 29.72C85.4366 24.0304 94.1262 16.9152 105.142 14.9328ZM94.5455 70.5168C95.6015 69.5808 96.9919 69.5168 98.0943 70.352H98.0927L123.098 95.3792C125.83 98.48 126.262 103.019 124.213 106.955C122.202 110.814 118.496 112.968 114.509 112.64C114.648 115.608 113.366 118.667 111.043 120.87C108.905 122.899 106.149 123.899 103.504 123.64C103.59 126.746 102.225 129.886 99.8191 132.091C97.6943 134.04 95.0863 134.926 92.4863 134.64C92.1615 139.544 89.7695 143.405 86.0511 145C84.8447 145.515 83.5599 145.77 82.2431 145.77C79.3551 145.77 76.3135 144.552 73.6079 142.226C65.2575 135.051 57.2431 126.506 49.4959 118.242L49.4153 118.156C42.3316 110.605 35.0112 102.802 27.4495 96.0672C25.7247 94.7072 25.5887 92.76 26.3503 91.5424C26.9727 90.5536 28.3951 89.736 30.3679 90.6912L30.4303 90.7344L78.4255 138.712C80.9343 140.645 83.7919 140.083 85.3055 138.522C86.7103 137.07 87.4127 134.232 84.7599 131.014C81.2607 126.771 76.8271 122.677 72.5375 118.717L72.5217 118.702C68.6226 115.102 64.5922 111.38 61.2575 107.541C60.0463 106.357 60.3295 104.85 61.1551 103.885C62.0495 102.838 63.6799 102.333 65.0671 103.374L89.9855 128.152C92.5855 129.76 95.1487 128.824 96.5151 127.168C97.8799 125.517 98.3199 122.835 96.2287 120.565L72.2575 96.5632C71.1407 95.2912 71.4367 93.7792 72.2207 92.8416C72.9967 91.912 74.4239 91.368 75.8495 92.2256L100.456 116.682C103.043 118.634 105.76 118.027 107.291 116.547C108.649 115.238 109.531 112.704 107.547 109.867L83.2543 85.5648C82.3295 84.6096 82.2479 83.2624 83.0495 82.1328C83.7903 81.08 85.2815 80.3568 86.6943 81.0128L86.7599 81.0592L110.936 105.205C113.313 107.635 116.229 107.182 117.936 105.738C119.662 104.274 120.518 101.586 118.541 98.8832L93.9599 74.192C93.1007 72.7568 93.6415 71.3232 94.5455 70.5168Z" fill="white"/>
</svg>
