<svg width="160" height="160" viewBox="0 0 160 160" fill="none" xmlns="http://www.w3.org/2000/svg">
<path opacity="0.9" fill-rule="evenodd" clip-rule="evenodd" d="M126.464 44.856C140.122 57.8304 148.054 73.8816 151.8 92.1552V92.152C152.229 94.2487 152.522 96.3738 152.814 98.4987L152.814 98.4989L152.814 98.4991L152.814 98.4993L152.814 98.4995L152.815 98.4997L152.815 98.4999C152.95 99.4815 153.085 100.463 153.234 101.442V108.59C153.095 109.345 152.973 110.103 152.851 110.862C152.589 112.497 152.326 114.131 151.898 115.722C148.662 127.738 140.504 134.63 128.68 137.4C125.419 138.165 121.994 138.485 118.637 138.526C110.333 138.631 102.029 138.609 93.7241 138.587H93.724H93.7239H93.7238H93.7237H93.7235H93.7234C91.1164 138.58 88.5094 138.573 85.9024 138.57C85.2912 138.57 84.6448 138.547 84.0784 138.352C82.8832 137.941 82.3904 136.998 82.552 135.766C82.7088 134.582 83.4384 133.896 84.616 133.741C85.0105 133.688 85.4143 133.694 85.8168 133.699H85.8172H85.8176H85.8179H85.8183H85.8187C85.9412 133.701 86.0636 133.702 86.1856 133.702C89.5257 133.702 92.8658 133.703 96.2059 133.705L96.2736 133.705H96.2873C103.784 133.708 111.281 133.712 118.778 133.693C124.475 133.678 129.946 132.584 135.034 129.925C142.432 126.059 146.438 119.787 147.803 111.698C149.114 103.923 147.957 96.3152 146.054 88.7904C142.256 73.7664 135.386 60.4208 124.251 49.4576C120.674 45.9376 116.733 42.8768 112.462 40.2256C111.386 39.5568 110.467 39.344 109.326 39.952C108.919 40.1689 108.465 40.2978 107.963 40.4402L107.963 40.4402C107.721 40.5089 107.468 40.5808 107.203 40.6672C107.822 41.2454 108.434 41.8132 109.039 42.375L109.046 42.3819L109.051 42.3864L109.061 42.3953L109.063 42.3973L109.064 42.3978L109.065 42.3996L109.066 42.3999C110.486 43.7185 111.871 45.0043 113.235 46.3136C114.488 47.5152 114.517 49.0528 113.389 50.072C112.366 50.9952 111.045 50.912 109.81 49.7712C108.337 48.411 106.872 47.0423 105.408 45.6736L105.407 45.6735L105.407 45.6734L105.407 45.6733L105.407 45.6732L105.407 45.6731L105.407 45.673L105.406 45.6721C104.016 44.3737 102.627 43.0752 101.23 41.784C100.984 41.5561 100.699 41.3691 100.311 41.1147C100.094 40.9726 99.8455 40.8094 99.5536 40.6064C99.5536 41.284 99.5538 41.9083 99.554 42.4981C99.5543 43.5854 99.5546 44.5555 99.5536 45.5264C99.5531 45.7911 99.5552 46.0559 99.5574 46.3206V46.3207V46.3208V46.3209V46.321V46.3211V46.3212C99.5625 46.9617 99.5677 47.6021 99.536 48.2416C99.4656 49.6688 98.5504 50.6384 97.264 50.7152C95.9376 50.7936 94.7952 49.8288 94.7152 48.3632C94.648 47.1325 94.6576 45.8979 94.6672 44.6632V44.6628C94.6714 44.1335 94.6755 43.6042 94.6736 43.0752C94.6726 42.6613 94.6728 42.248 94.6732 41.7337C94.6734 41.4349 94.6736 41.1021 94.6736 40.7152C94.4116 40.8857 94.1814 41.0244 93.9768 41.1477L93.9766 41.1478C93.6015 41.3738 93.312 41.5482 93.0688 41.7728C91.551 43.1724 90.0415 44.5812 88.5318 45.9901L88.5299 45.9919L88.5289 45.9929C87.2179 47.2164 85.9069 48.4399 84.5904 49.6576C83.1632 50.9776 81.7408 51.056 80.704 49.92C79.6624 48.7776 79.8624 47.4112 81.2928 46.064C82.5901 44.8435 83.8943 43.6293 85.2331 42.3829L85.235 42.3812C85.8192 41.8373 86.41 41.2873 87.0096 40.728C86.6702 40.6077 86.3478 40.4859 86.0364 40.3682L86.0363 40.3681L86.036 40.368C85.2993 40.0896 84.6235 39.8342 83.9264 39.6768C83.456 39.5712 82.8288 39.7216 82.3968 39.9712C74.688 44.408 68.3456 50.3824 62.928 57.3872C62.8321 57.5107 62.739 57.6366 62.6459 57.7624L62.6458 57.7627C62.4265 58.0591 62.2074 58.3553 61.9536 58.6192C61.0352 59.5744 59.7248 59.688 58.72 58.9408C57.656 58.1504 57.3504 56.7808 58.1808 55.648C58.9218 54.6356 59.7111 53.6594 60.5006 52.6831L60.5007 52.6829L60.5009 52.6827C61.0887 51.9557 61.6767 51.2286 62.2448 50.4864C62.568 50.0656 62.8944 49.504 62.8992 49.0032C62.9387 44.7059 62.9318 40.4074 62.9249 36.1088C62.9237 35.3563 62.9225 34.6037 62.9216 33.8512C62.9216 33.7342 62.8973 33.618 62.8684 33.4796L62.8683 33.4794L62.8683 33.4792L62.8682 33.4786L62.868 33.4776C62.8531 33.4064 62.837 33.3293 62.8224 33.2432C53.9648 37.0784 45.1536 37.1296 36.2208 33.216V50.5696C36.917 50.6831 37.618 50.7723 38.317 50.8612C39.8946 51.062 41.4623 51.2615 42.9424 51.736C45.4 52.5232 47.8256 53.6032 50.0256 54.9488C52.2496 56.3104 53.2176 58.5456 53.2032 61.2768C53.1563 69.5845 53.1635 77.8922 53.1707 86.1998C53.1733 89.233 53.176 92.2661 53.176 95.2992V97.1456C53.3713 97.1456 53.5562 97.1475 53.7339 97.1493H53.7346H53.7351H53.7357H53.7363H53.7369H53.7375H53.7376H53.7378H53.7379H53.7381H53.7382C54.1063 97.153 54.4439 97.1564 54.7808 97.1424C59.1456 96.9648 63.4672 97.232 67.5632 98.8736C69.1792 99.52 70.7504 100.39 72.1584 101.411C74.24 102.92 75.2032 105.035 75.1856 107.698C75.1232 117.656 75.112 127.616 75.1904 137.574C75.2144 140.538 74.0064 142.701 71.7056 144.37C68.5664 146.646 64.9488 147.614 61.1728 148.04C55.5296 148.677 50.4224 148.619 43.2224 145.275C40.8352 150.141 36.2848 151.581 31.4928 152.619C30.7688 152.775 30.0366 152.898 29.3044 153.02L29.3043 153.02L29.3041 153.02L29.304 153.02L29.3038 153.02L29.3037 153.02L29.3027 153.02L29.3022 153.02L29.3017 153.021L29.3012 153.021L29.3007 153.021L29.3002 153.021C28.9593 153.078 28.6185 153.135 28.2784 153.195H21.9872C21.843 153.165 21.6991 153.132 21.5552 153.099C21.2408 153.028 20.9263 152.956 20.608 152.912C16.8896 152.402 13.3184 151.477 10.2336 149.213C7.98877 147.566 6.70877 145.456 6.80797 142.539C6.91677 139.35 7.00477 136.144 6.79037 132.966C6.50557 128.742 8.55997 126.106 12.0624 124.314C13.034 123.815 14.051 123.406 15.0956 122.986C15.5836 122.789 16.0777 122.591 16.576 122.379V120.722C16.576 115.684 16.579 110.647 16.5821 105.609C16.5909 91.0173 16.5998 76.425 16.5344 61.8336C16.5184 58.2688 18.0192 55.8416 20.9008 54.064C23.6208 52.3856 26.624 51.48 29.7712 51.128C30.9456 50.9968 31.2384 50.568 31.232 49.4416C31.2085 45.5268 31.2096 41.612 31.2107 37.6971C31.2117 34.132 31.2127 30.5668 31.1952 27.0016C31.1824 24.584 32.0448 22.5776 33.92 21.144C35.2656 20.1152 36.7536 19.1808 38.3184 18.552C43.6672 16.4048 49.2464 16.136 54.896 16.9696C58.3184 17.4736 61.592 18.4416 64.4288 20.528C66.6736 22.1792 67.8992 24.2928 67.8384 27.2096C67.7617 30.9012 67.778 34.5943 67.7943 38.288V38.2882V38.2885V38.2887V38.289V38.2892V38.2894C67.8011 39.8366 67.808 41.3839 67.808 42.9312V44.408C70.7171 42.2052 73.5166 40.0843 76.2993 37.9762L78.7664 36.1072C72.3936 29.5312 70.3328 21.3408 70.1856 12.4672C70.1168 8.3104 73.9088 5.9952 77.6 7.9584C78.6816 8.5328 79.6752 9.3024 80.6288 10.08C83.016 12.0272 86.2368 12.3504 88.536 10.4736C90.5584 8.824 92.6832 7.504 95.1888 6.7984H98.9056C101.416 7.4928 103.546 8.8016 105.566 10.4592C107.862 12.3424 111.086 12.0256 113.477 10.096C114.507 9.264 115.587 8.4464 116.76 7.848C120.24 6.072 123.942 8.3664 123.979 12.272C123.99 13.3648 123.946 14.472 123.784 15.5504C123.747 15.7966 123.689 16.2582 123.618 16.8342C123.397 18.6016 123.042 21.4464 122.736 22.4528C121.562 27.3856 119.262 31.7584 115.766 35.6496C116.336 35.8141 122.641 41.4308 124.161 42.7845C124.297 42.9055 124.395 42.9925 124.446 43.0384C124.574 43.1516 124.702 43.2646 124.83 43.3775C125.381 43.8645 125.931 44.3507 126.464 44.856ZM35.5792 128.418C28.6144 125.578 21.6048 125.576 14.6448 128.437L14.6464 128.438C13.3552 128.968 11.7696 129.669 11.8032 131.298C11.8313 132.718 13.1647 133.347 14.3412 133.902C14.4356 133.947 14.5291 133.991 14.6208 134.035C17.9472 135.632 21.5088 136.099 25.1568 136.096C28.7536 136.093 32.2704 135.637 35.5568 134.072C35.6608 134.022 35.7672 133.973 35.8747 133.923L35.8773 133.922C37.0881 133.357 38.449 132.723 38.4608 131.251C38.4736 129.638 36.872 128.944 35.5792 128.418ZM36.5456 145.71C37.3632 145.192 38.3072 144.288 38.4592 143.43V143.429C38.6707 142.24 38.6282 141.007 38.5844 139.735C38.5659 139.198 38.5472 138.654 38.5472 138.104C29.5552 142.045 20.6752 142.046 11.704 138.094C11.704 138.578 11.7112 139.048 11.7184 139.51C11.7342 140.533 11.7493 141.513 11.6832 142.486C11.5904 143.853 12.1632 144.8 13.2608 145.445C14.1984 145.995 15.1696 146.528 16.1904 146.886C20.0192 148.235 23.976 148.566 28.0016 148.178C31.0048 147.888 33.9616 147.349 36.5456 145.71ZM70.2823 121.448C70.2856 119.365 70.2889 117.283 70.288 115.2V115.197C70.288 114.892 70.2707 114.588 70.2531 114.277V114.277V114.277V114.276V114.276V114.276V114.276C70.2444 114.123 70.2356 113.968 70.2288 113.811C61.305 116.32 52.3733 116.311 43.4336 113.784C43.4336 115.958 43.444 118.122 43.4545 120.278C43.4807 125.712 43.5068 131.1 43.3648 136.483C43.2928 139.23 44.4576 140.606 46.7408 141.562C50.56 143.16 54.5536 143.627 58.6336 143.387C61.9776 143.19 65.2544 142.61 68.224 140.907C69.6 140.12 70.3456 139.093 70.3264 137.352C70.2655 132.052 70.2739 126.75 70.2823 121.448ZM67.4096 104.059C64.088 102.459 60.5264 101.979 56.8768 101.979V101.978C53.1808 101.973 49.5712 102.459 46.2128 104.099C46.1374 104.136 46.0608 104.173 45.9834 104.21C44.8505 104.757 43.553 105.383 43.5216 106.779C43.4864 108.368 45.0016 109.053 46.2416 109.573C53.2848 112.528 60.3776 112.518 67.4304 109.598C68.68 109.08 70.1968 108.379 70.1888 106.824C70.1813 105.378 68.8406 104.74 67.665 104.181C67.5788 104.14 67.4934 104.1 67.4096 104.059ZM48.3012 76.14V76.1399V76.1398V76.1397V76.1397V76.1396V76.1395C48.3022 73.7105 48.3032 71.2816 48.3024 68.8528V68.856C48.3024 68.5449 48.2845 68.2346 48.2645 67.8875L48.2645 67.8873L48.2645 67.8872L48.2645 67.8867L48.2644 67.8856C48.2551 67.7244 48.2454 67.5553 48.2368 67.3744C39.2976 71.3056 30.4512 71.2784 21.5504 67.3792V121.658C27.4752 121.046 33.1056 121.781 38.5632 124.472C38.5632 122.789 38.5755 121.129 38.5877 119.486C38.6161 115.675 38.6437 111.953 38.5152 108.235C38.3888 104.584 39.992 102.128 42.9568 100.392C44.2176 99.6528 45.5888 99.056 46.9776 98.5936C47.9936 98.2544 48.3408 97.8192 48.3344 96.7136C48.2954 89.8562 48.2983 82.9979 48.3012 76.14ZM45.74 57.8444C45.6435 57.7983 45.548 57.7527 45.4544 57.7072V57.7088C42.128 56.0912 38.5568 55.6224 34.9008 55.6304C31.2432 55.6224 27.672 56.088 24.344 57.7024C24.2555 57.7452 24.1654 57.7881 24.0744 57.8315C22.8962 58.3926 21.5613 59.0283 21.5584 60.472C21.5552 62.0288 23.08 62.7216 24.336 63.2432C31.3568 66.16 38.4192 66.1552 45.44 63.2512C46.6912 62.7328 48.2112 62.0528 48.2176 60.4848C48.225 59.0308 46.9059 58.401 45.74 57.8444ZM49.4448 31.392C54.0992 31.408 58.7824 30.1888 62.2768 27.5536C63.1968 26.8608 63.1648 25.8496 62.304 25.0912C61.5632 24.44 60.7392 23.7936 59.8368 23.4336C52.9392 20.6784 46.0064 20.6832 39.1248 23.4768C37.8336 24.0016 36.2288 24.664 36.2192 26.304C36.2104 27.7991 37.5488 28.423 38.7455 28.9808C38.8653 29.0367 38.9837 29.0919 39.0992 29.1472C42.1344 30.6016 45.7808 31.3792 49.4448 31.392ZM104.621 35.9888C107.003 35.9632 109.12 35.048 110.966 33.4624L110.968 33.464C114.486 30.4416 116.528 26.5168 117.755 22.1232C118.65 18.9216 119.086 15.6592 119.014 12.04C118.722 12.249 118.451 12.4354 118.198 12.6102C117.701 12.9519 117.27 13.2489 116.869 13.5824C112.027 17.6032 106.277 17.5904 101.554 13.5264C98.6592 11.0368 95.4272 11.0432 92.5408 13.544C87.9056 17.5584 82.0784 17.592 77.3344 13.6528C76.8984 13.2904 76.4262 12.9709 75.9541 12.6515C75.7383 12.5056 75.5226 12.3596 75.3104 12.2096C75.1861 12.2781 75.0602 12.3466 74.9344 12.4151L74.9328 12.416C75.0167 13.1442 75.0882 13.8746 75.1598 14.6051V14.6052C75.3189 16.2295 75.4781 17.8541 75.7728 19.4544C76.7408 24.712 78.7712 29.4704 82.816 33.1648C84.7392 34.9232 86.9664 35.9664 89.8896 36.0032C89.7797 35.7852 89.6799 35.5944 89.5889 35.4207C89.4149 35.0884 89.2734 34.8182 89.1568 34.5376C88.8152 33.717 88.4708 32.8977 88.1265 32.0784C87.0918 29.6163 86.0572 27.1546 85.0992 24.6624C84.5696 23.2832 85.3008 22.0432 86.6176 21.5888C87.8912 21.1488 89.1376 21.7808 89.6928 23.1648C89.7556 23.3217 89.8008 23.4863 89.8461 23.6507L89.8461 23.6509C89.9023 23.8552 89.9585 24.0592 90.048 24.248C90.4576 25.1065 90.8652 25.9661 91.2728 26.8258L91.2738 26.828C92.6122 29.6511 93.9509 32.4747 95.3648 35.2608C95.9904 36.4944 98.1888 36.4544 98.9024 35.256C100.094 33.2576 101.291 31.248 102.28 29.1456C102.866 27.9007 103.331 26.5991 103.797 25.2972L103.797 25.2969C104.053 24.5827 104.309 23.8683 104.584 23.1632C105.117 21.7984 106.264 21.1904 107.51 21.5472C108.845 21.928 109.507 23.0848 109.202 24.5664C109.096 25.0768 108.939 25.5824 108.741 26.064C107.691 28.6134 106.632 31.159 105.556 33.7427L105.555 33.7451C105.245 34.4895 104.934 35.2371 104.621 35.9888ZM117.064 126.512C117.175 128.042 118.322 128.898 121.034 128.856V128.854C121.39 128.799 121.812 128.745 122.28 128.685L122.28 128.685L122.281 128.685L122.281 128.685C123.476 128.533 124.968 128.342 126.421 127.994C132.514 126.533 137.659 123.682 140.698 117.862C142.421 114.562 143.314 111.054 143.466 107.354C143.536 105.632 142.544 104.424 141.099 104.334C139.69 104.246 138.579 105.382 138.426 107.094C138.407 107.312 138.405 107.532 138.404 107.752C138.402 108.009 138.4 108.267 138.37 108.522C137.701 114.168 135.477 118.829 130.109 121.478C126.946 123.04 123.583 123.718 120.071 123.824C118.112 123.883 116.954 124.982 117.064 126.512ZM97.5136 89.0368L102.442 97.3968C103.282 98.8208 103.573 100.549 103.059 102.12C102.086 105.101 99.1824 106.742 96.1024 106.022C95.0752 105.782 94.12 105.227 93.4016 104.456C91.5552 102.474 91.2768 99.7376 92.5632 97.5296L97.512 89.0368H97.5136ZM102.967 68.0464C102.131 65.5568 99.9474 64.0176 97.4498 64.024V64.0256C94.7442 64.032 92.4146 65.8512 91.7762 68.7184C91.469 70.1024 91.8194 71.5536 92.5394 72.776L97.493 81.1808L102.376 72.8C103.213 71.3632 103.496 69.6224 102.967 68.0464ZM110.565 87.0304C112.435 87.0256 114.613 88.1008 115.658 89.9088C116.97 92.1776 116.704 94.9984 114.683 96.984C113.923 97.7312 112.936 98.2512 111.888 98.4464C109.328 98.92 106.958 97.7904 105.736 95.632L100.782 87.08L110.563 87.0368V87.0304H110.565ZM84.2736 83.1888L94.104 83.1392L89.2944 74.6512C88.6001 73.4256 87.528 72.4032 86.1856 71.9744C82.6336 70.84 79.16 72.9248 78.4992 76.648C78.4032 77.1872 78.4064 77.7472 78.5104 78.2848C79.088 81.2864 81.4736 83.1952 84.2736 83.1888ZM114.525 81.688C113.49 82.6592 112.062 83.096 110.645 83.0992L100.89 83.1168L105.638 74.6016C106.326 73.368 107.394 72.336 108.736 71.8976C111.536 70.984 114.301 72.0816 115.675 74.416C117.048 76.7472 116.669 79.68 114.526 81.6896L114.525 81.688ZM84.2896 87.6288H84.1872C82.16 87.6336 80.1888 88.6432 79.224 90.4256C78.0656 92.5648 78.3568 94.8416 80.0912 96.8928C80.728 97.6464 81.5856 98.2208 82.5408 98.472C85.3376 99.208 88.0208 98.1616 89.3312 95.8128L94.1184 87.3552L84.2896 87.6288Z" fill="white"/>
</svg>
