<svg width="121" height="120" viewBox="0 0 121 120" fill="none" xmlns="http://www.w3.org/2000/svg">
<path opacity="0.9" fill-rule="evenodd" clip-rule="evenodd" d="M90.7265 18.4555L24.8425 12.9525C21.2625 12.8915 18.4565 14.9815 17.5225 18.4245L16.0835 31.5855C15.9163 31.8284 13.8579 31.7903 12.2374 31.7602C11.4164 31.745 10.7078 31.7319 10.4145 31.7585C6.92653 32.0795 4.20353 34.6015 3.76953 38.0735V80.7315C4.19353 84.0695 6.54553 86.3335 9.77253 87.0495H77.6935C79.9845 86.5845 82.1165 85.2605 83.1485 83.1035C83.3815 82.6155 83.9015 81.0365 83.9015 80.5715V73.3635C86.5135 73.6445 88.9295 73.7815 91.1095 72.0815C93.2765 70.3915 93.6575 68.3775 93.9425 65.7885C94.8229 57.7883 95.403 49.5974 95.9799 41.4509C96.2641 37.4389 96.5474 33.4378 96.8655 29.4755C96.9315 28.6565 97.0305 27.6135 97.2295 26.8285V24.4555C96.8345 21.3515 93.8175 18.6665 90.7265 18.4545V18.4555ZM80.2495 80.3895C80.2495 81.4245 78.8495 83.0185 77.7935 83.2265C64.1717 83.4757 50.5166 83.4391 36.8612 83.4025C28.1616 83.3792 19.4619 83.3559 10.7705 83.4065C9.57053 83.6305 7.39953 81.8665 7.39953 80.7535V46.1715H79.9765L80.2505 46.4455V80.3885L80.2495 80.3895ZM80.2495 42.5225H7.39853V38.2345C7.39853 36.8525 9.58453 35.2865 10.9525 35.3995H76.5145C78.0615 35.2005 80.2495 36.8645 80.2495 38.4175V42.5225ZM90.0955 67.2375C89.2825 70.2274 86.7616 69.9869 84.2689 69.7492C84.1463 69.7375 84.0238 69.7258 83.9015 69.7145V38.2355C83.9015 35.3045 80.3525 31.7575 77.4195 31.7575H19.8145C19.8755 30.2075 20.0255 28.6485 20.1815 27.1055C20.2326 26.6012 20.2834 25.978 20.3389 25.2966V25.2965C20.5158 23.1251 20.7409 20.3627 21.1785 18.9775C21.5865 17.6845 22.6155 16.8775 23.9385 16.6275L90.7045 22.1285C92.0225 22.4445 93.3735 23.5285 93.5605 24.9295L90.0945 67.2385L90.0955 67.2375ZM43.4117 68.0852L40.1997 73.5342C39.5167 74.6932 39.5057 76.0832 40.1717 77.2522C40.8377 78.4212 42.0387 79.1212 43.3837 79.1242C44.7287 79.1272 45.9337 78.4332 46.6057 77.2682C47.2777 76.1022 47.2737 74.7122 46.5967 73.5502L43.4117 68.0842V68.0852ZM40.2299 53.8453C40.9019 52.6803 42.1069 51.9863 43.4519 51.9893V51.9903C44.7969 51.9933 45.9979 52.6933 46.6639 53.8623C47.3299 55.0313 47.3189 56.4213 46.6359 57.5803L43.4239 63.0293L40.2389 57.5633C39.5619 56.4013 39.5579 55.0113 40.2299 53.8453ZM35.0133 66.7932H35.0123V66.7922L35.0133 66.7932ZM35.0123 66.7932C33.8085 66.7906 32.4081 67.4826 31.7353 68.6452C31.0633 69.8082 31.0343 71.1962 31.7083 72.3592C32.3773 73.5132 33.5583 74.2042 34.8913 74.2082C36.2483 74.2112 37.4513 73.5092 38.1193 72.3282L41.3063 66.8242L35.0123 66.7962V66.7932ZM51.9334 64.3203L45.6084 64.2893L48.7264 58.7853C49.3954 57.6043 50.6054 56.9023 51.9624 56.9053C53.2964 56.9093 54.4914 57.6003 55.1604 58.7543C55.8334 59.9163 55.8344 61.3053 55.1624 62.4683C54.4894 63.6313 53.2864 64.3233 51.9334 64.3203ZM31.7006 62.3912C32.3666 63.5592 33.5676 64.2592 34.9116 64.2622L41.2406 64.2742L38.1596 58.7492C37.4976 57.5622 36.2896 56.8512 34.9296 56.8472C33.5986 56.8442 32.4016 57.5272 31.7256 58.6742C31.0436 59.8332 31.0336 61.2222 31.6996 62.3912H31.7006ZM51.9227 67.1782H51.9257C53.2707 67.1822 54.4717 67.7282 55.1377 68.8962C55.8037 70.0642 55.7947 71.3002 55.1127 72.4592C54.4367 73.6062 53.2397 74.3092 51.9087 74.3062C50.5487 74.3022 49.3407 73.6322 48.6787 72.4452L45.5977 67.0022L51.9227 67.1782Z" fill="white"/>
</svg>
