<svg width="121" height="120" viewBox="0 0 121 120" fill="none" xmlns="http://www.w3.org/2000/svg">
<path opacity="0.9" fill-rule="evenodd" clip-rule="evenodd" d="M113.844 50.7193C117.876 38.0077 108.269 25.1173 94.9824 25.5817L94.9812 25.5793C94.8159 25.476 94.8261 24.3144 94.8336 23.4614C94.8368 23.0952 94.8395 22.7859 94.8277 22.6417C93.6841 8.86808 77.3712 1.41609 65.7552 8.45169C52.0476 16.7545 51.3276 37.1737 53.778 51.2029C53.8124 51.3989 53.9077 51.8291 54.024 52.3537L54.0241 52.354C54.3228 53.7014 54.7598 55.672 54.6552 55.9009L34.3813 76.1377L34.0368 76.0369C33.4106 75.5012 32.7772 74.8198 32.1201 74.1128C30.4882 72.3571 28.7093 70.4432 26.5261 70.2097C22.2013 69.7477 19.0968 73.0297 19.5529 77.3041C19.7697 79.3334 21.5174 80.9596 23.174 82.5012L23.174 82.5012C24.0566 83.3225 24.9133 84.1196 25.4988 84.9409L20.8849 89.6701L20.5908 89.7361C19.9043 89.2156 19.3049 88.591 18.7083 87.9694C17.5415 86.7536 16.3855 85.5491 14.6101 85.1569C10.0309 84.1453 6.05165 88.4101 7.34405 92.9077C7.7973 94.4835 8.98133 95.6252 10.1501 96.7522C10.7791 97.3587 11.4038 97.9611 11.9076 98.6245C11.3488 99.2805 10.6939 99.8989 10.0327 100.523C8.56419 101.91 7.06494 103.325 6.51965 105.247C4.65965 111.8 12.0469 116.866 17.5513 112.763L64.6584 65.7841C73.9752 67.7689 83.7577 68.8669 93.1717 66.7825C101.73 64.8865 111.052 59.5225 113.844 50.7193ZM64.2108 62.0113C63.7044 62.0077 63.1273 62.2849 62.7661 62.6281L62.7673 62.6293L15.5785 109.849C12.9889 111.983 9.28925 110.054 9.74405 106.654C9.92001 105.341 11.7685 103.648 13.4353 102.121C14.4056 101.232 15.3144 100.4 15.7957 99.7321C16.3165 99.0097 16.4244 98.3221 15.9193 97.5493C15.4179 96.7831 14.4922 95.9792 13.555 95.1654C12.5722 94.3119 11.5768 93.4475 11.0449 92.6041C9.39485 89.9857 12.522 87.2917 14.8296 89.0617C15.2683 89.3978 16.0221 90.2001 16.8364 91.0668L16.8364 91.0669L16.8365 91.067L16.8365 91.067C18.1094 92.4218 19.53 93.9339 20.1264 94.0693C20.7997 94.2217 21.3325 94.0813 21.8617 93.6733C23.2049 92.6396 24.4978 91.2094 25.7934 89.7761L25.7934 89.776L25.7935 89.776L25.7935 89.776L25.7936 89.7759C26.9932 88.4487 28.1953 87.1189 29.4421 86.0989C30.0373 85.2445 29.9748 84.5497 29.376 83.7301C28.6325 82.7127 27.5335 81.7306 26.4252 80.7402C25.3139 79.7471 24.1931 78.7455 23.4121 77.6917C21.9589 74.8777 25.0105 72.4009 27.4993 74.4529C28.5279 75.3008 29.4982 76.3518 30.4702 77.4047C31.3826 78.393 32.2965 79.383 33.2617 80.2081C33.8629 80.5813 34.5229 80.6281 35.1588 80.2981L58.236 57.1849L58.4641 56.2273C55.0597 42.9025 53.8896 23.1493 65.2608 13.1701C75.3997 4.27089 91.5133 11.4253 91.4593 24.9325C91.4581 25.2238 91.4139 25.5694 91.3671 25.9362L91.367 25.9363C91.2154 27.1223 91.0355 28.5296 92.1912 29.0401C92.7446 29.2844 93.0768 29.2313 93.4598 29.1701C93.6373 29.1417 93.8259 29.1115 94.0524 29.1085C99.504 29.0377 104.178 30.3625 107.694 34.7545C113.732 42.2977 111.851 52.0753 104.482 57.8437C94.6236 65.5597 80.4828 65.2165 68.7529 63.0241C68.3069 62.9408 67.6992 62.7785 67.0601 62.6078L67.0598 62.6077L67.0591 62.6075L67.059 62.6075C65.9959 62.3236 64.8463 62.0165 64.2108 62.0113ZM68.237 105.373C68.969 103.661 70.1654 101.87 71.4878 100.562L71.489 100.563C72.9614 99.1067 74.945 97.9139 76.871 97.1555C77.1285 97.054 77.409 96.9833 77.6913 96.9121L77.6915 96.9121C78.4169 96.7292 79.154 96.5434 79.541 95.8247C80.5549 93.944 78.6245 93.3344 77.1518 92.8693L77.1517 92.8693C76.8343 92.7691 76.5382 92.6756 76.2974 92.5775C72.5018 91.0319 69.5522 87.8891 68.0294 84.1151C67.9203 83.8444 67.8302 83.5368 67.7382 83.2226C67.3805 82.0018 66.9934 80.6806 65.351 81.0299C65.1362 81.0755 64.5614 81.4115 64.4126 81.5795C64.1745 81.8476 63.8976 82.7143 63.6437 83.5089C63.4907 83.9876 63.3461 84.4402 63.2234 84.7199C61.6694 88.2683 58.6358 91.2095 55.0418 92.6627C54.7531 92.7797 54.4257 92.8769 54.0922 92.976C52.7526 93.3741 51.3144 93.8014 51.887 95.6519C52.1248 96.4213 53.4744 96.848 54.6026 97.2047L54.6027 97.2048L54.6028 97.2048L54.6029 97.2048L54.6031 97.2049L54.6032 97.2049L54.6033 97.205L54.6034 97.205L54.6036 97.205C55.0462 97.345 55.4548 97.4742 55.7486 97.6091C58.7894 99.0059 61.5182 101.672 62.9798 104.683C63.1412 105.016 63.3106 105.515 63.4928 106.051C63.8589 107.13 64.2765 108.36 64.7846 108.697C65.4242 109.122 66.0782 109.116 66.7094 108.695C67.2826 108.311 67.6018 107.294 67.8858 106.389C68.0037 106.013 68.1155 105.657 68.237 105.373ZM72.4726 94.5508L72.4727 94.5508L72.4729 94.5509C72.7287 94.6803 72.9787 94.8067 72.9986 94.8407C73.0502 94.9283 73.0286 95.0687 73.0094 95.1731C70.5218 96.4067 68.2502 98.6255 66.6674 100.895C66.5959 100.997 66.458 101.265 66.3198 101.533C66.145 101.872 65.9698 102.212 65.9282 102.218C65.7445 102.249 65.7016 102.21 65.5917 102.112L65.5694 102.092C65.42 101.959 65.1225 101.473 64.828 100.991C64.5998 100.618 64.3735 100.248 64.2194 100.047C62.6198 97.9679 60.6758 96.4115 58.475 95.0039C58.9243 94.6277 59.4284 94.2952 59.9328 93.9626L59.933 93.9625L59.933 93.9624C60.4551 93.6181 60.9776 93.2735 61.4402 92.8799C62.477 91.9979 63.713 90.6287 64.5146 89.5283C64.5959 89.4164 64.7773 89.1107 64.9743 88.7787L64.9744 88.7785L64.9745 88.7784C65.2801 88.2632 65.6233 87.6848 65.6882 87.6695C65.8645 87.6268 66.165 88.1819 66.3726 88.5654L66.3726 88.5655L66.373 88.5662L66.3732 88.5665L66.3733 88.5668C66.4451 88.6995 66.5058 88.8115 66.5462 88.8707C68.0306 91.0439 69.773 92.7719 71.9402 94.2659C72.0239 94.3239 72.2504 94.4384 72.4726 94.5508ZM28.96 29.1648C30.54 30.4001 31.6358 30.8206 32.9998 31.3442C33.5493 31.555 34.1423 31.7826 34.828 32.0868C35.836 32.5344 36.3136 33.4692 35.806 34.5156C35.4511 35.2455 34.5256 35.4988 33.6792 35.7304C33.3664 35.816 33.0644 35.8986 32.806 36.0012C28.9252 37.5444 25.8028 40.6668 24.2584 44.5476C24.1626 44.7882 24.0786 45.0906 23.99 45.4095C23.7899 46.1295 23.5665 46.9337 23.1316 47.3004C22.456 47.8704 21.2248 47.8152 20.644 47.118C20.3978 46.8231 20.1329 45.9825 19.8859 45.1984C19.7319 44.7098 19.5849 44.2431 19.4536 43.944C17.9776 40.5744 15.0628 37.6488 11.6692 36.21C11.3156 36.0603 10.9143 35.9432 10.5102 35.8253C9.11741 35.4189 7.69046 35.0026 8.06437 33.2028C8.25767 32.2727 9.59299 31.8765 10.7113 31.5447C11.1065 31.4275 11.4745 31.3183 11.7556 31.1964C15.3496 29.6352 18.256 26.5188 19.696 22.8912C19.7871 22.6625 19.8721 22.3711 19.9626 22.0611C20.1845 21.3011 20.4391 20.4288 20.896 20.0904C21.6364 19.5408 22.8916 19.6524 23.4352 20.4456C23.6902 20.8182 23.9266 21.5758 24.1648 22.3388C24.3547 22.9474 24.5457 23.5593 24.748 23.982C25.7092 25.992 27.2152 27.7992 28.9612 29.1648H28.96ZM17.9068 36.0948C19.3096 37.3171 19.9777 38.2756 20.8089 39.4681L20.8089 39.4681L20.809 39.4682C21.0933 39.8761 21.3967 40.3114 21.7552 40.794C21.7696 40.8137 21.7829 40.8348 21.7961 40.8559C21.8506 40.943 21.904 41.0283 22.0384 40.9944C22.1123 40.9758 22.53 40.3007 22.8879 39.7222L22.8879 39.7221C23.1053 39.3708 23.3006 39.0552 23.3836 38.9436C24.3964 37.59 25.7836 36.1968 27.1336 35.1768C27.3679 34.9999 27.6926 34.8121 28.0164 34.6249L28.0164 34.6248C28.4238 34.3893 28.8297 34.1545 29.0524 33.9432C29.0763 33.9206 29.1052 33.9023 29.1337 33.8843C29.2108 33.8357 29.2852 33.7888 29.2528 33.66C27.2704 32.4336 25.3996 30.9864 23.9212 29.1696C23.6457 28.8314 23.3609 28.3705 23.0835 27.9216L23.0835 27.9216C22.7724 27.4181 22.4705 26.9296 22.2016 26.646C22.1789 26.6221 22.1607 26.5932 22.1427 26.5647C22.0941 26.4876 22.0471 26.4132 21.9184 26.4456C20.5492 28.7724 18.8584 30.7656 16.6816 32.3628C16.5767 32.4397 16.2877 32.6184 15.9619 32.8199L15.9618 32.8199L15.9616 32.82L15.9615 32.8201C15.3966 33.1694 14.7215 33.587 14.704 33.66C14.6714 33.7943 14.7545 33.8466 14.8406 33.9007C14.8623 33.9143 14.8841 33.9281 14.9044 33.9432C15.3018 34.2381 15.6842 34.491 16.0628 34.7413L16.0632 34.7416L16.0637 34.7419L16.0637 34.7419C16.6725 35.1444 17.2714 35.5404 17.9068 36.0936V36.0948ZM109.514 80.2165C108.678 79.8001 107.962 79.2565 107.283 78.6277L107.284 78.6301C106.296 77.7157 105.486 76.7269 104.908 75.4897C104.784 75.2248 104.679 74.896 104.568 74.5508L104.568 74.5507L104.568 74.5507L104.568 74.5506L104.568 74.5505L104.568 74.5504L104.568 74.5504C104.259 73.5854 103.909 72.4919 103.004 72.3037C101.33 71.9567 100.911 73.2177 100.488 74.493C100.349 74.9112 100.21 75.331 100.025 75.6961C98.8397 78.0433 96.9389 79.6069 94.5677 80.6641C94.3322 80.769 94.0687 80.8454 93.8033 80.9222C93.0365 81.1444 92.254 81.3712 92.0872 82.3045C91.7993 83.9096 92.7513 84.2108 93.801 84.543C94.0681 84.6275 94.3415 84.714 94.6025 84.8245C96.7097 85.7161 98.5517 87.1729 99.7169 89.1661C99.9293 89.5294 100.14 90.0962 100.358 90.6841C100.713 91.6399 101.088 92.6513 101.526 92.9329C102.604 93.6241 103.745 93.1045 104.207 91.9993L104.286 91.8109L104.393 91.5537C105.548 88.7738 106.313 86.9301 109.312 85.3441C109.658 85.161 110.091 85.0147 110.54 84.8635C111.622 84.4983 112.788 84.1047 113.004 83.0965C113.336 81.5498 111.9 81.0679 110.616 80.6375C110.214 80.5025 109.827 80.3726 109.514 80.2165ZM102.359 78.6361C102.467 78.5629 102.591 78.5461 102.712 78.5917V78.5905C103.503 80.129 104.821 81.2034 106.128 82.2696C106.328 82.4325 106.527 82.5952 106.725 82.7593C105.671 83.5621 104.642 84.3745 103.755 85.3645C103.582 85.5576 103.418 85.7974 103.253 86.0378C103.06 86.3203 102.867 86.6035 102.657 86.8129C102.637 86.8329 102.621 86.8519 102.606 86.8691C102.547 86.9375 102.513 86.9777 102.364 86.9413C101.846 85.9261 100.979 85.0261 100.181 84.2125C100.089 84.1012 99.7367 83.8509 99.3659 83.5874C98.8695 83.2347 98.3398 82.8582 98.3549 82.7593C98.3797 82.5963 98.8982 82.225 99.3239 81.9201C99.5345 81.7692 99.7223 81.6347 99.8165 81.5497C100.281 81.1309 100.858 80.5609 101.273 80.0965C101.389 79.9669 101.577 79.6934 101.767 79.4169L101.767 79.4167C102.01 79.0635 102.256 78.7054 102.359 78.6361ZM76.0682 44.6196L69.6782 46.2696C68.6462 46.536 67.6934 47.1468 67.1666 48.0732C66.227 49.7244 66.503 51.6276 67.7582 52.8876C69.0134 54.1488 70.9142 54.4332 72.5702 53.5032C73.5002 52.98 74.1146 52.032 74.387 51L76.0694 44.6172L76.0682 44.6196ZM83.3762 31.9465C85.0322 31.0165 86.9342 31.3009 88.1882 32.5621V32.5645C89.4434 33.8245 89.7194 35.7277 88.7798 37.3789C88.253 38.3053 87.3002 38.9161 86.2682 39.1825L79.877 40.8325L81.5594 34.4497C81.8318 33.4177 82.4462 32.4697 83.3762 31.9465ZM70.7326 37.3416C69.8314 36.4356 68.2581 35.9028 66.8806 36.2712C65.5018 36.6396 64.4386 37.6608 64.0714 39.0396C63.7066 40.4088 64.075 41.814 65.0733 42.8184C66.0898 43.8408 67.5202 44.2152 68.9098 43.8312L75.4365 42.0912L70.7314 37.344L70.7338 37.3416H70.7326ZM85.2952 48.1895L80.5684 43.4159H80.5696L86.926 41.6567C87.952 41.3723 89.08 41.4239 89.9992 41.9603C91.642 42.9179 92.356 44.7119 91.8988 46.4315C91.5316 47.8103 90.49 48.8543 89.1112 49.2227C87.7324 49.5911 86.3092 49.2083 85.2952 48.1895ZM71.3989 32.6197C71.3809 33.6865 71.8885 34.6957 72.6409 35.4517L77.2993 40.1269L79.1005 33.7837C79.3909 32.7601 79.3477 31.6333 78.8197 30.7093C77.8741 29.0581 76.0825 28.3309 74.3605 28.7773C72.6385 29.2237 71.4313 30.7213 71.3989 32.6197ZM83.1397 50.3291L83.1745 50.3639C84.0997 51.2939 84.6085 52.6331 84.2965 53.9075C83.9581 55.2935 83.0737 56.2379 81.7489 56.6399C80.4229 57.0419 78.9109 56.7323 77.8969 55.7879C76.7905 54.7559 76.3392 53.2907 76.7485 51.8483L78.5221 45.4475L83.1397 50.3291Z" fill="white"/>
</svg>
