<svg width="115" height="21" viewBox="0 0 115 21" fill="none" xmlns="http://www.w3.org/2000/svg">
<path d="M5.0493 15.9886C5.01138 15.9629 4.9857 15.9507 4.94656 15.925C4.80591 15.8223 4.70318 15.6938 4.63836 15.541C4.57476 15.3868 4.53562 15.1948 4.52339 14.9637C4.49771 14.7839 4.48548 14.5148 4.48548 14.1565V7.83577C4.48548 7.50188 4.49771 7.1949 4.49771 6.93806C4.49771 6.68122 4.50994 6.45129 4.52339 6.2715C4.53562 6.01466 4.57476 5.79696 4.63836 5.63062C4.70195 5.46429 4.80469 5.32242 4.94656 5.20745C4.97225 5.18176 5.01016 5.16953 5.0493 5.14385V4.77205C4.80591 4.78428 4.57476 4.78428 4.33137 4.79773C4.08799 4.79773 3.87028 4.80996 3.65136 4.80996C3.47157 4.80996 3.26732 4.79773 3.02271 4.78428C2.77933 4.77205 2.53594 4.75859 2.2791 4.74636C2.22774 4.74636 2.17637 4.74636 2.125 4.73413V5.10594C2.17637 5.13162 2.22774 5.1573 2.2791 5.18299C2.43321 5.28572 2.54817 5.42637 2.63868 5.59271C2.72796 5.75904 2.77933 6.00243 2.79278 6.28495C2.80501 6.51611 2.80501 6.77172 2.80501 7.05425V7.92628C2.80501 8.23448 2.80501 8.54147 2.79278 8.83622V13.8103C2.79278 14.2849 2.78055 14.631 2.78055 14.8487C2.76832 15.1435 2.71695 15.3746 2.6399 15.5544C2.55062 15.7207 2.43443 15.8626 2.29378 15.9519C2.24241 15.9898 2.19104 16.0155 2.12745 16.0546V16.4008C2.17881 16.4008 2.23018 16.4008 2.28155 16.3885C2.52494 16.3763 2.76832 16.3763 3.01293 16.3628H4.33382C4.56497 16.3751 4.80836 16.3751 5.05174 16.3751V15.991L5.0493 15.9886Z" fill="black"/>
<path d="M73.31 4.78298C72.9639 4.80867 72.6043 4.8209 72.2459 4.8209C71.9377 4.8209 71.6051 4.80867 71.2455 4.76953V5.16702C71.2577 5.17925 71.2712 5.1927 71.2834 5.1927C71.4375 5.29544 71.5525 5.43609 71.6295 5.60242C71.7188 5.78221 71.7702 6.01214 71.7836 6.30812C71.7836 6.57719 71.7959 6.91108 71.7959 7.30857C71.8081 7.69261 71.8215 8.07787 71.8215 8.47536L71.8595 11.3214C71.8595 11.6932 71.8338 12.065 71.8081 12.4368C71.7824 12.8086 71.7188 13.1682 71.6417 13.5008C71.5647 13.847 71.462 14.1552 71.3335 14.4499C71.2051 14.7325 71.0388 14.9758 70.859 15.1679C70.5899 15.4626 70.2817 15.6803 69.8842 15.8479C69.5002 16.0142 69.1027 16.1047 68.6795 16.1047C68.3334 16.1047 67.9995 16.0533 67.6534 15.9763C67.3073 15.8992 66.9868 15.7451 66.6786 15.5531C66.3839 15.3611 66.1405 15.1299 65.9473 14.8352C65.7418 14.5404 65.5877 14.22 65.4605 13.8604C65.3455 13.5008 65.2428 13.1034 65.1914 12.6814C65.1278 12.2582 65.1021 11.8094 65.1021 11.3605L65.0764 7.87362C65.0764 7.5275 65.0764 7.23274 65.0887 6.96367C65.0887 6.70683 65.0887 6.48913 65.1009 6.30934C65.1131 6.05251 65.1523 5.8348 65.2159 5.65502C65.2795 5.48868 65.3957 5.34681 65.5241 5.2453C65.562 5.20738 65.6134 5.1817 65.6647 5.15601V4.80989H65.6268C65.3957 4.80989 65.1657 4.82212 64.9211 4.82212C64.6777 4.83435 64.4466 4.83435 64.2411 4.83435C64.0613 4.83435 63.8571 4.82212 63.6259 4.82212C63.3825 4.80989 63.1391 4.79644 62.8689 4.78421C62.7918 4.77198 62.7147 4.77198 62.6377 4.77198V5.09242C62.7147 5.13033 62.7918 5.16947 62.8689 5.22083C63.023 5.32357 63.1379 5.45199 63.215 5.63055C63.292 5.79689 63.3434 6.02804 63.3556 6.3228C63.3679 6.5405 63.3679 6.79734 63.3679 7.07864V11.2712C63.3801 11.5538 63.3935 11.8351 63.3935 12.0919C63.4058 12.361 63.4058 12.5921 63.4314 12.7976C63.5085 14.0414 63.8925 14.9771 64.5982 15.6179C64.8294 15.8234 65.085 16.0154 65.3553 16.1438C65.6501 16.2979 65.9448 16.4129 66.2396 16.49C66.5478 16.5792 66.8682 16.6306 67.1886 16.6698C67.5091 16.6954 67.8295 16.7077 68.15 16.7077C68.7016 16.7077 69.2397 16.6441 69.7521 16.5156C70.2524 16.375 70.7391 16.1182 71.2015 15.7464C71.5097 15.4773 71.7653 15.1948 71.9585 14.8621C72.164 14.5417 72.3181 14.1821 72.4331 13.798C72.548 13.414 72.6385 13.0165 72.6764 12.5933C72.7144 12.1702 72.74 11.747 72.74 11.3238V11.1697C72.7278 11.1184 72.7278 11.067 72.7278 11.0291V10.0286C72.7278 9.86229 72.7278 9.66905 72.74 9.49048V6.95144C72.7523 6.6946 72.7657 6.4769 72.778 6.28488C72.778 6.02804 72.8159 5.8238 72.8807 5.64401C72.9577 5.46422 73.047 5.3358 73.1889 5.22083C73.2268 5.19515 73.266 5.16947 73.3039 5.15724V4.78543L73.31 4.78298Z" fill="black"/>
<path d="M30.551 4.85889C30.551 5.34566 30.6281 6.02567 30.5889 6.19201H31.0121C31.1149 6.0379 31.2176 5.89725 31.3326 5.79452C31.461 5.6661 31.6273 5.57682 31.8193 5.52545C32.0113 5.47408 32.2682 5.4484 32.5764 5.4484L34.3718 5.41048V7.26951C34.3718 7.6034 34.384 7.93607 34.384 8.24428V12.3855C34.384 12.898 34.3718 13.386 34.3718 13.847C34.3718 14.3081 34.3718 14.642 34.3461 14.8475C34.3339 15.1422 34.2948 15.3734 34.2177 15.5532C34.1407 15.7195 34.0257 15.8614 33.8716 15.9629C33.7945 16.0143 33.7175 16.0522 33.6148 16.1036V16.3983C33.6918 16.3983 33.7689 16.3983 33.8581 16.3861C34.1015 16.3739 34.3449 16.3739 34.5895 16.3604H35.897C36.1403 16.3726 36.3972 16.3726 36.6662 16.3726H36.7433V16.0522C36.6662 16.0265 36.577 15.9751 36.5121 15.9238C36.3715 15.821 36.2688 15.6926 36.2039 15.5385C36.1403 15.3844 36.1012 15.1924 36.089 14.9612C36.0633 14.7814 36.0511 14.5124 36.0511 14.154V12.3843L36.0633 5.40926L37.8709 5.44717C38.4605 5.4594 38.8836 5.57559 39.1527 5.81898C39.2677 5.89603 39.3325 6.03668 39.3839 6.19078H40.0761V4.85767H30.5498L30.551 4.85889Z" fill="black"/>
<path d="M52.0655 4.85889C52.0533 5.34566 52.1169 6.02567 52.0912 6.19201H52.5144C52.6171 6.0379 52.7199 5.89725 52.8348 5.79452C52.9633 5.6661 53.1296 5.57682 53.3216 5.52545C53.5136 5.47408 53.7705 5.4484 54.0787 5.4484L55.8741 5.41048V7.26951C55.8741 7.6034 55.8863 7.93607 55.8863 8.24428V12.3855C55.8863 12.898 55.8741 13.386 55.8741 13.847C55.8741 14.3081 55.8741 14.642 55.8484 14.8475C55.8362 15.1422 55.7971 15.3734 55.72 15.5532C55.6429 15.7195 55.528 15.8614 55.3739 15.9629C55.2968 16.0143 55.2198 16.0522 55.1048 16.1036V16.3983C55.1941 16.3983 55.2846 16.3983 55.3617 16.3861C55.605 16.3739 55.8484 16.3739 56.093 16.3604H57.4005C57.6438 16.3726 57.9007 16.3726 58.1698 16.3726H58.2468V16.0522C58.1575 16.0265 58.0805 15.9751 58.0157 15.9238C57.875 15.821 57.7723 15.6926 57.7074 15.5385C57.6439 15.3844 57.6047 15.1924 57.5925 14.9612C57.5546 14.7814 57.5546 14.5124 57.5546 14.154V12.3843L57.5668 5.40926L59.3745 5.44717C59.964 5.4594 60.3871 5.57559 60.6562 5.81898C60.7712 5.89603 60.836 6.03668 60.8874 6.19078H61.5674V4.85767H52.0668L52.0655 4.85889Z" fill="black"/>
<path d="M95.6195 4.78298C95.2734 4.80867 94.9273 4.8209 94.5677 4.8209C94.2595 4.8209 93.9268 4.80867 93.555 4.76953V5.16702C93.5807 5.17925 93.593 5.1927 93.6064 5.1927C93.7471 5.29544 93.8755 5.43609 93.9525 5.60242C94.0418 5.78221 94.0809 6.01214 94.0932 6.30812C94.1054 6.57719 94.1189 6.91108 94.1189 7.30857C94.1189 7.70606 94.1311 8.07787 94.1445 8.47536L94.1702 11.3214C94.1702 11.6932 94.158 12.065 94.1189 12.4368C94.0932 12.8086 94.0418 13.1682 93.9648 13.5008C93.8877 13.847 93.785 14.1552 93.6566 14.4499C93.5159 14.7325 93.3618 14.9758 93.1698 15.1679C92.9129 15.4626 92.5925 15.6803 92.2085 15.8479C91.8244 16.0142 91.4269 16.1047 91.0038 16.1047C90.6576 16.1047 90.3115 16.0533 89.9654 15.9763C89.6315 15.8992 89.3111 15.7451 89.0041 15.5531C88.7093 15.3611 88.466 15.1299 88.2727 14.8352C88.0672 14.5404 87.9009 14.22 87.7859 13.8604C87.6575 13.5008 87.5682 13.1034 87.5034 12.6814C87.452 12.2582 87.4264 11.8094 87.4264 11.3605L87.3885 7.87362C87.3885 7.5275 87.3885 7.23274 87.4007 6.96367C87.4007 6.70683 87.4129 6.48913 87.4264 6.30934C87.4264 6.05251 87.4643 5.8348 87.5413 5.65502C87.6049 5.48868 87.7077 5.34681 87.8495 5.2453C87.8875 5.20738 87.9266 5.1817 87.978 5.15601V4.80989H87.9523C87.7089 4.80989 87.4777 4.82212 87.2343 4.82212C87.0032 4.83435 86.7733 4.83435 86.5543 4.83435C86.388 4.83435 86.1825 4.82212 85.9391 4.82212C85.708 4.80989 85.4524 4.79644 85.1955 4.78421C85.1063 4.77198 85.0414 4.77198 84.9521 4.77198V5.09242C85.0414 5.13033 85.1185 5.16947 85.1833 5.22083C85.3374 5.32357 85.4524 5.45199 85.5294 5.63055C85.6187 5.79689 85.6701 6.02804 85.6701 6.3228C85.6823 6.5405 85.6958 6.79734 85.6958 7.07864V11.2712C85.708 11.5538 85.708 11.8351 85.708 12.0919C85.7202 12.361 85.7337 12.5921 85.7459 12.7976C85.823 14.0414 86.207 14.9771 86.9249 15.6179C87.1561 15.8234 87.3995 16.0154 87.6942 16.1438C87.9633 16.2979 88.258 16.4129 88.5662 16.49C88.8744 16.5792 89.1949 16.6306 89.5019 16.6698C89.8358 16.6954 90.1427 16.7077 90.4632 16.7077C91.027 16.7077 91.5529 16.6441 92.0654 16.5156C92.5778 16.375 93.0524 16.1182 93.5147 15.7464C93.8229 15.4773 94.0785 15.1948 94.284 14.8621C94.476 14.5417 94.6301 14.1821 94.7585 13.798C94.8735 13.414 94.964 13.0165 95.0019 12.5933C95.0398 12.1702 95.0533 11.747 95.0533 11.3238V11.1697C95.041 11.1184 95.041 11.067 95.041 11.0291V10.0286C95.041 9.86229 95.041 9.66905 95.0533 9.49048V7.86261C95.0533 7.51649 95.0655 7.20828 95.0655 6.95267C95.0777 6.69583 95.0777 6.47812 95.0777 6.28611C95.1034 6.02927 95.1413 5.82502 95.2061 5.64523C95.2697 5.46544 95.3725 5.33702 95.5009 5.22206C95.5388 5.19637 95.578 5.17069 95.6159 5.15846V4.78665L95.6195 4.78298Z" fill="black"/>
<path d="M74.374 4.85889C74.374 5.34566 74.4511 6.02567 74.4119 6.19201H74.8351C74.9244 6.0379 75.0406 5.89725 75.1555 5.79452C75.284 5.6661 75.4503 5.57682 75.6423 5.52545C75.8343 5.47408 76.0777 5.4484 76.3994 5.4484L78.1814 5.41048V6.35956C78.1814 6.64209 78.1814 6.93684 78.1936 7.26951C78.1936 7.6034 78.2058 7.93607 78.2058 8.24428V12.3855C78.2058 12.898 78.1936 13.386 78.1936 13.847C78.1814 14.2959 78.1679 14.642 78.1679 14.8475C78.1557 15.1422 78.1165 15.3734 78.0395 15.5532C77.9502 15.7195 77.834 15.8614 77.6934 15.9629C77.6163 16.0143 77.527 16.0522 77.4243 16.1036V16.3983C77.5136 16.3983 77.5906 16.3983 77.6811 16.3861C77.9245 16.3739 78.1679 16.3739 78.3991 16.3604H79.7065C79.9633 16.3726 80.2067 16.3726 80.4636 16.3726H80.5528V16.0522C80.4636 16.0265 80.3865 15.9751 80.3217 15.9238C80.1933 15.821 80.0783 15.6926 80.0135 15.5385C79.9621 15.3844 79.9242 15.1924 79.8985 14.9612C79.8728 14.7814 79.8606 14.5124 79.8606 14.154V12.3843L79.8863 5.40926L81.6939 5.44717C82.2712 5.4594 82.7066 5.57559 82.9757 5.81898C83.0784 5.89603 83.142 6.03668 83.2068 6.19078H83.8869V4.85767H74.374V4.85889Z" fill="black"/>
<path d="M27.4738 10.8212C27.1399 10.5007 26.7938 10.206 26.3963 9.93692C26.0122 9.66785 25.6392 9.39878 25.2674 9.11626C25.0106 8.92424 24.7672 8.74445 24.5751 8.57812C24.3574 8.39833 24.1911 8.21854 24.037 8.05221C23.8964 7.87242 23.7802 7.69263 23.7166 7.51407C23.6395 7.33428 23.6138 7.13003 23.6138 6.89888C23.6138 6.64204 23.6517 6.37297 23.7545 6.12958C23.8572 5.87274 23.9856 5.6685 24.1642 5.48871C24.3305 5.30892 24.536 5.16827 24.7672 5.06553C25.0106 4.95057 25.2539 4.8992 25.5365 4.8992C25.7542 4.8992 25.9975 4.93712 26.2678 5.01417C26.5369 5.10345 26.7938 5.24532 27.0249 5.43734C27.2561 5.62936 27.4738 5.8862 27.6536 6.21887C27.6792 6.27023 27.7049 6.34729 27.7428 6.41088H28.1146C28.1146 6.35952 28.1024 6.30815 28.1024 6.25678C28.0767 5.87274 28.0767 5.48749 28.0902 5.10345C27.9104 5.00071 27.7184 4.89798 27.5129 4.82093C27.2952 4.74387 27.064 4.68028 26.8329 4.62891C26.6017 4.57754 26.3718 4.55186 26.1406 4.52617C25.9095 4.51394 25.6918 4.50049 25.512 4.50049C24.9739 4.50049 24.4993 4.57754 24.0761 4.73164C23.6407 4.88575 23.2689 5.09122 22.9607 5.36029C22.6525 5.62936 22.4226 5.93757 22.255 6.29592C22.0887 6.65549 22.0116 7.05298 22.0116 7.4627C22.0116 8.00084 22.1009 8.4497 22.2942 8.84719C22.4862 9.23245 22.743 9.57857 23.0378 9.88555C23.346 10.1938 23.6921 10.4751 24.0761 10.7441C24.448 11.001 24.8198 11.27 25.1916 11.5391C25.4863 11.7703 25.7432 11.9745 25.9609 12.1678C26.192 12.3598 26.3583 12.5518 26.4868 12.7316C26.6274 12.9114 26.7302 13.1034 26.795 13.3089C26.8463 13.5143 26.8843 13.732 26.8843 14.0011C26.8843 14.2702 26.8329 14.5392 26.7302 14.7961C26.6409 15.0529 26.4868 15.2706 26.307 15.4626C26.115 15.6681 25.8973 15.8222 25.6404 15.9372C25.3836 16.0521 25.0888 16.117 24.7818 16.117C23.9355 16.117 23.2433 15.8601 22.7173 15.3599C22.3712 15.0138 22.1278 14.5527 21.9737 13.9876H21.6398C21.6398 14.0904 21.6398 14.2053 21.6276 14.3081C21.6019 14.6542 21.5762 15.0138 21.5383 15.4235C21.9737 15.7953 22.4617 16.0901 22.9876 16.3212C23.5135 16.5389 24.0651 16.6416 24.629 16.6416C25.1292 16.6416 25.6294 16.5781 26.104 16.4362C26.5785 16.2955 27.0017 16.0901 27.3735 15.7953C27.733 15.5128 28.0278 15.1544 28.2577 14.7178C28.4754 14.2824 28.5916 13.7687 28.5916 13.1927C28.5916 12.6924 28.4889 12.257 28.2712 11.8718C28.0657 11.4877 27.7966 11.1404 27.4762 10.82L27.4738 10.8212Z" fill="black"/>
<path d="M18.6913 4.80752C18.5115 4.80752 18.3195 4.79529 18.114 4.78184C17.8963 4.76961 17.6908 4.75615 17.4731 4.74392H17.4218V5.07781C17.4988 5.11573 17.5624 5.14141 17.6138 5.18055C17.7679 5.28328 17.8828 5.42393 17.9733 5.59027C18.0504 5.7566 18.1018 5.99999 18.114 6.28251C18.114 6.51367 18.1262 6.76928 18.1397 7.05181V7.92384L18.1654 13.3468C18.1654 13.3725 18.1654 13.3847 18.1275 13.3847C17.9098 13.1279 11.2295 5.93517 10.6657 5.23069C10.5507 5.09004 10.4736 4.97385 10.3966 4.87112C10.3195 4.8968 8.97297 4.92249 8.98642 4.84543C8.82009 4.84543 7.99942 4.75615 7.74259 4.7427C7.69122 4.7427 7.63985 4.7427 7.58848 4.73047V5.10227C7.6264 5.12796 7.69122 5.15364 7.72913 5.17933C7.88324 5.28206 8.01166 5.42271 8.10094 5.58905C8.17799 5.75538 8.22936 5.99877 8.24159 6.28129C8.25382 6.51244 8.26727 6.76806 8.26727 7.05058V7.92261C8.26727 8.40939 8.24159 8.88393 8.2795 9.37192C8.33087 10.2696 8.29173 11.1539 8.29173 12.0516V13.7309C8.29173 14.2568 8.2795 14.6286 8.26605 14.8463C8.25382 15.141 8.21468 15.3722 8.13763 15.552C8.06058 15.7183 7.94561 15.8602 7.79151 15.9617C7.71446 16.0131 7.62517 16.051 7.53467 16.1023V16.3714H7.62395C8.05935 16.3592 8.4703 16.3592 8.82865 16.3592C9.187 16.3592 9.54658 16.3592 9.93183 16.3714V16.0632C9.84255 16.0253 9.7655 15.9739 9.68845 15.9225C9.5478 15.8198 9.45729 15.6914 9.3937 15.5373C9.3301 15.3832 9.29096 15.1912 9.26528 14.96C9.23959 14.7802 9.23959 14.5112 9.23959 14.1528V13.101L9.22736 10.7295L9.23959 7.31965V6.55036C9.23959 6.33266 9.23959 6.15287 9.25182 6.01222C9.96975 6.8708 18.0602 15.8846 18.8038 16.7053L18.9958 16.6674L19.0851 7.83333C19.0851 7.49944 19.0973 7.19246 19.0973 6.93562C19.0973 6.67878 19.1096 6.44885 19.123 6.28129C19.1352 6.01222 19.1744 5.79452 19.238 5.62696C19.3016 5.46063 19.4043 5.31875 19.5327 5.20379C19.6098 5.14019 19.7125 5.08882 19.8275 5.04968V4.76716C19.4679 4.77939 19.0839 4.80507 18.6864 4.80507L18.6913 4.80752Z" fill="black"/>
<path d="M113.158 16.1427C112.901 16.04 112.658 15.848 112.414 15.5654C112.363 15.5141 112.299 15.4113 112.196 15.2707C112.107 15.13 112.004 14.9625 111.888 14.7705C111.773 14.5784 111.657 14.3607 111.554 14.1161C111.439 13.8728 111.337 13.6159 111.26 13.3725L108.157 4.58985H108.003C107.593 5.62821 107.182 6.65434 106.747 7.69271C106.58 8.11588 106.4 8.57697 106.195 9.05151C106.003 9.53828 105.811 10.0128 105.605 10.4874C105.413 10.9619 105.22 11.4364 105.028 11.8975C104.836 12.3586 104.656 12.7818 104.477 13.1793C104.041 12.1409 103.605 11.1148 103.181 10.1021C102.758 9.08943 102.361 8.16603 102.028 7.34536C101.618 6.38405 101.233 5.46065 100.861 4.58862H100.707C100.412 5.46065 100.104 6.33268 99.7716 7.25486C99.6309 7.6389 99.489 8.03639 99.3362 8.47301C99.1821 8.89619 99.0157 9.33159 98.8616 9.78045C98.7075 10.2293 98.5412 10.6782 98.3749 11.127C98.2085 11.5624 98.041 11.999 97.8881 12.3965L97.2472 14.1015C97.1188 14.4219 96.9904 14.7301 96.8497 14.9992C96.7091 15.2682 96.5415 15.4994 96.3495 15.6914C96.2211 15.8198 96.067 15.9348 95.9006 16.0375V16.4607C96.2981 16.435 96.6822 16.4228 97.0796 16.4228C97.4392 16.4228 97.811 16.4485 98.2085 16.4864C98.2599 16.4864 98.2978 16.4864 98.3369 16.4986V16.1268C98.2477 16.0632 98.1706 15.9984 98.1058 15.9348C97.9138 15.7036 97.9138 15.3196 98.0801 14.8194C98.1828 14.5246 98.2599 14.3069 98.3112 14.1394C98.3626 13.9853 98.4005 13.8446 98.4397 13.7162C98.4654 13.6012 98.5033 13.4728 98.5424 13.3322C98.5938 13.2037 98.6451 13.0117 98.7222 12.7549C98.8372 12.4088 98.979 12.0235 99.1197 11.5881C99.2603 11.1527 99.4144 10.7161 99.5685 10.2672C99.7226 9.81836 99.8767 9.38296 100.03 8.94633C100.184 8.51093 100.324 8.12567 100.439 7.793C100.439 7.78077 100.452 7.78077 100.477 7.78077C100.485 7.78077 100.489 7.77669 100.489 7.76854L102.964 14.461C103.079 14.7436 103.156 14.9735 103.221 15.1667C103.272 15.3588 103.298 15.5129 103.298 15.6535C103.298 15.8076 103.272 15.936 103.195 16.0131C103.118 16.1024 103.029 16.1672 102.912 16.2186V16.4754H102.925C103.207 16.4632 103.463 16.4497 103.72 16.4375C103.963 16.4375 104.181 16.4252 104.374 16.4252H104.771C104.951 16.4252 105.169 16.4252 105.4 16.4375C105.643 16.4375 105.887 16.4497 106.131 16.4497C106.208 16.4497 106.285 16.4619 106.363 16.4619V16.0522C106.157 15.9373 105.953 15.7831 105.76 15.5654C105.605 15.3857 105.451 15.168 105.299 14.9111C105.17 14.6543 105.029 14.4109 104.914 14.1553L107.556 7.79545C107.556 7.78321 107.568 7.78321 107.582 7.78321C107.595 7.78321 107.594 7.78321 107.594 7.77098L109.645 14.4635C109.734 14.7582 109.799 14.9894 109.863 15.1692C109.927 15.3612 109.966 15.5153 109.966 15.656C109.966 15.8101 109.928 15.9385 109.851 16.0155C109.774 16.1048 109.684 16.1696 109.568 16.221C109.491 16.2589 109.402 16.2724 109.311 16.298V16.4901C109.401 16.4901 109.491 16.4778 109.594 16.4778C109.876 16.4656 110.132 16.4522 110.375 16.4399C110.619 16.4399 110.836 16.4277 111.03 16.4277H111.427C111.607 16.4277 111.825 16.4277 112.068 16.4399C112.299 16.4399 112.543 16.4522 112.799 16.4522C112.928 16.4644 113.043 16.4778 113.171 16.4778L113.159 16.1439L113.158 16.1427Z" fill="black"/>
<path d="M51.0516 4.82092C50.6284 4.84661 50.2187 4.85884 49.7955 4.85884C49.6158 4.85884 49.4617 4.85884 49.3345 4.84661C49.1938 4.83438 49.0654 4.82092 48.9504 4.80869C48.8355 4.78301 48.707 4.77078 48.5786 4.75732V4.98848C48.6814 5.02639 48.7841 5.07776 48.8734 5.12913C48.9627 5.20618 49.0397 5.30892 49.0911 5.42388C49.1424 5.53885 49.2317 5.66727 49.1033 5.84706C49.0397 5.93634 46.59 8.71877 46.59 8.71877C46.59 8.71877 44.3591 6.33383 44.2564 6.12836C44.1536 5.92289 44.09 5.75655 44.09 5.62813C44.09 5.4618 44.128 5.34561 44.205 5.25633C44.2686 5.16704 44.3591 5.10222 44.4619 5.05086C44.4875 5.05086 44.5254 5.03862 44.5511 5.03862V4.79524C44.5132 4.80747 44.4741 4.80747 44.4362 4.80747C44.1671 4.8197 43.9237 4.83315 43.7048 4.84538C43.4736 4.85761 43.2694 4.85761 43.0896 4.85761H42.7435C42.5637 4.85761 42.3594 4.85761 42.1283 4.84538C41.8971 4.84538 41.6415 4.83315 41.3969 4.8197C41.2306 4.8197 41.0765 4.80747 40.9224 4.79402V5.08877C40.986 5.101 41.0373 5.11445 41.0887 5.14014C41.3712 5.24287 41.6268 5.43489 41.8702 5.70396C41.8825 5.74188 44.4349 8.57567 45.1651 9.3841C45.1651 9.39633 45.3192 9.58957 45.1137 9.75591C44.627 10.102 44.3188 10.6536 44.3188 11.281C44.3188 11.9476 44.6649 12.5249 45.1908 12.8575C45.2287 12.8832 45.3314 12.9468 45.3314 13.1658C45.3314 13.7944 45.3192 14.2812 45.3192 14.4218C45.3192 14.7423 45.2556 15.5372 45.1651 15.7036C45.0881 15.8834 44.9731 16.0118 44.8312 16.1133C44.7419 16.1769 44.6392 16.2283 44.523 16.2796V16.5487H44.8178C45.0611 16.5365 45.3045 16.523 45.5357 16.523C45.7791 16.5108 45.9968 16.5108 46.19 16.5108C46.3833 16.5108 46.6132 16.5108 46.8566 16.523C47.1134 16.523 47.369 16.5352 47.6259 16.5352C47.6772 16.5352 47.7543 16.5352 47.8179 16.5475V16.2527C47.6772 16.2014 47.561 16.15 47.4718 16.0864C47.3433 15.9836 47.2284 15.8552 47.177 15.7023C47.1134 15.5482 47.0743 15.3562 47.0486 15.1251C47.0364 15.0358 47.0364 14.9196 47.0229 14.7655C47.0229 14.5992 47.0107 14.8939 47.0107 14.4707V14.4194L47.0229 13.2526V13.0985C47.0351 13.0092 47.0743 12.9065 47.177 12.8416H47.1648C47.6772 12.5078 48.0234 11.9317 48.0234 11.2774C48.0234 10.6879 47.7408 10.162 47.3054 9.82807H47.3177C47.1122 9.64828 47.2663 9.41835 47.2663 9.41835H47.2541C47.8693 8.70042 49.6769 6.57232 50.703 5.43122C50.8951 5.2392 51.1519 5.12301 51.4087 5.0215V4.79035C51.2938 4.79035 51.191 4.80258 51.0492 4.81603L51.0516 4.82092ZM46.1668 12.2827C45.6152 12.2827 45.1663 11.8339 45.1663 11.2823C45.1663 10.7307 45.6152 10.2696 46.1668 10.2696C46.7184 10.2696 47.1795 10.7307 47.1795 11.2823C47.1795 11.8339 46.7306 12.2827 46.1668 12.2827Z" fill="black"/>
</svg>
