<svg width="100" height="25" viewBox="0 0 100 25" fill="none" xmlns="http://www.w3.org/2000/svg">
<path d="M93.4465 7.51735C93.4465 9.00911 92.9941 10.701 91.5181 11.8861C89.2192 10.701 86.9534 9.63024 86.9534 7.29298C86.9534 5.62971 88.031 3.90925 90.0457 3.90925C92.0604 3.90925 93.4465 5.15151 93.4465 7.51735ZM85.5054 17.9423C85.5054 16.0832 86.4138 14.2233 87.8296 13.4878C90.3543 14.8687 93.1597 16.0538 93.1597 18.5877C93.2085 20.5464 91.6506 22.1741 89.6795 22.2235C89.6577 22.2235 89.6368 22.2244 89.615 22.2244C87.5785 22.2278 85.5063 21.0713 85.5063 17.9414M83.7784 8.64526C83.7784 10.9011 85.5385 12.1962 87.5497 13.3241C84.8559 14.1982 83.1821 16.1967 83.1821 18.2282C83.1821 20.4268 85.2796 22.5111 89.4206 22.5111C92.7683 22.5111 96.2554 20.9336 96.2554 17.186C96.2554 14.4806 94.0428 13.1855 91.7727 12.0004C94.2398 11.0691 95.6016 9.54881 95.6016 7.88553C95.6016 5.20869 92.7927 3.63117 89.9306 3.63117C86.8671 3.62771 83.7784 5.57253 83.7784 8.64526ZM71.9508 1.6543H71.6675L66.6216 2.27543V2.55697C68.5788 2.69644 68.8054 2.75362 68.8054 3.90925V20.7049C68.8054 21.747 68.5788 21.8042 66.6216 21.9437V22.2252H74.1355V21.9437C72.1784 21.8042 71.9517 21.747 71.9517 20.7049V15.0125C72.7598 14.9856 73.5157 15.4093 73.9089 16.1118L78.0786 22.2252H82.7584V22C81.6809 21.8605 81.2825 21.1259 80.9442 20.6477L75.7832 13.6594L78.5346 10.39C79.3 9.43359 79.756 8.69811 81.7672 8.41656V8.13502H75.4423V8.41656C78.7325 8.58462 78.5633 9.85461 77.6837 10.9253L75.615 13.4627C74.6237 14.6192 74.2253 14.7864 71.9552 14.7864V1.6543H71.9517H71.9508ZM63.3995 7.85694H63.1161L58.0702 8.47807V8.75961C60.0274 8.89909 60.254 8.95626 60.254 10.1119V20.7084C60.254 21.7505 60.0274 21.8077 58.0702 21.9472V22.2287H65.5842V21.9472C63.627 21.8077 63.4003 21.7505 63.4003 20.7084V7.85694H63.3995ZM59.6534 4.5018C59.6534 5.65829 60.5618 6.33227 61.7221 6.33227C62.8825 6.33227 63.7909 5.65396 63.7909 4.5018C63.7909 3.34963 62.8825 2.67132 61.7221 2.67132C60.5618 2.67132 59.6534 3.37475 59.6534 4.5018ZM54.8158 1.6543H54.5325L49.4866 2.27543V2.55697C51.4438 2.69644 51.6704 2.75362 51.6704 3.90925V8.92334C50.694 8.22858 49.5241 7.85434 48.3228 7.85261C44.8068 7.85261 41.6318 10.5866 41.6318 15.1797C41.6318 19.4055 43.7868 22.5068 47.4178 22.5068C49.0664 22.4817 50.6208 21.7401 51.6704 20.4762H51.8108L51.8683 22.5068H52.1516L57.0005 21.8857V21.6041C55.0434 21.4646 54.8167 21.4075 54.8167 20.2518V1.6543H54.8158ZM48.8572 21.3832C46.7309 21.3832 44.9707 19.2417 44.9707 15.0697C44.9707 11.1506 46.1346 8.13848 48.7709 8.13848C49.9635 8.13848 51.6617 8.84191 51.6617 11.9718V20.173C50.9067 20.9024 49.9085 21.333 48.8563 21.3832M34.185 8.13848C35.6034 8.13848 36.5658 9.04116 36.5946 11.3793C36.5876 12.1728 36.5118 12.9646 36.3679 13.7451H30.3552C30.5819 10.3085 32.1694 8.13848 34.1841 8.13848M34.3253 7.85694C30.7806 7.85694 27.1784 10.5338 27.1784 15.3235C27.1784 19.1283 29.5305 22.5077 34.042 22.5077C36.0358 22.5077 37.938 21.6795 39.2893 20.2232L39.1742 19.998C38.1603 20.8539 36.8736 21.3226 35.5432 21.3217C32.7055 21.3217 30.3247 19.1231 30.3247 14.6157V14.0232H39.2283C39.3721 13.4705 39.4479 12.9022 39.4549 12.3313C39.4619 9.00824 36.8509 7.85607 34.3262 7.85607M20.6592 20.7049C20.6592 21.747 20.4325 21.8042 18.4753 21.9437V22.2252H26.1035V21.9437C24.1463 21.8042 23.9197 21.747 23.9197 20.7049V4.0236C23.9197 2.98145 24.1463 2.92428 26.1035 2.78481V2.50326H20.885L15.4398 17.5499L9.05828 2.4998H3.27222V2.78134C5.57112 2.92081 5.79692 2.97799 5.79692 4.02014V20.7014C5.79692 21.7436 5.57025 21.8008 3.27222 21.9402V22.2218H9.82371V21.9402C6.56235 21.8008 6.08112 21.7436 6.08112 20.7014V3.71001L13.9359 22.3647H14.1338L20.7708 3.73859L20.6592 20.7058V20.7049Z" fill="black"/>
</svg>
