<svg width="251" height="87" viewBox="0 0 251 87" fill="none" xmlns="http://www.w3.org/2000/svg">
<path d="M227.713 130.865L197.871 215.961C191.14 235.154 170.044 245.295 150.851 238.565L34.8115 197.871C15.6186 191.14 5.47707 170.044 12.2078 150.851L44.7626 58.0197C51.4933 38.8268 72.5896 28.6852 91.7825 35.4159L145.934 54.4062C148.069 55.155 149.194 57.4955 148.446 59.6307C147.697 61.7658 145.356 62.891 143.221 62.1422L89.0696 43.1519C76.6069 38.7814 63.1997 43.6444 56.038 54.0336L98.1686 141.686C104.817 155.502 122.648 161.756 136.462 155.115L175.438 135.581C177.453 134.567 179.934 135.394 180.94 137.406C181.951 139.428 181.137 141.897 179.115 142.908L140.076 162.472C131.139 166.775 121.128 167.33 111.821 164.066C102.515 160.802 95.0509 154.119 90.7813 145.238L51.5138 63.5407L19.9437 153.564C14.7078 168.494 22.594 184.899 37.5244 190.135L153.564 230.829C168.494 236.064 184.899 228.178 190.135 213.248L219.977 128.152C220.725 126.017 223.066 124.892 225.201 125.641C227.336 126.39 228.461 128.73 227.713 130.865ZM165.342 60.9951C169.794 48.3004 182.951 41.3256 194.687 45.4411C201.695 47.899 206.96 53.6199 209.1 60.0779C214.802 56.3786 222.49 55.1913 229.498 57.6492C241.234 61.7646 247.153 75.4294 242.701 88.1241C237.357 103.364 213.86 116.486 200.303 121.183C196.069 122.653 191.642 122.568 187.674 121.176C183.705 119.785 180.195 117.086 177.806 113.294C170.152 101.158 159.997 76.2349 165.342 60.9951ZM173.078 63.708C168.968 75.428 177.607 97.6131 184.737 108.914C187.473 113.253 192.78 115.114 197.626 113.434C210.255 109.054 230.858 97.1235 234.965 85.4112C237.92 76.9868 234.251 68.0031 226.786 65.3851C219.166 62.7129 211.058 66.8805 209.178 72.2415C208.429 74.3766 206.089 75.5018 203.954 74.753C201.819 74.0042 200.694 71.6637 201.442 69.5286C203.322 64.1676 199.594 55.8493 191.974 53.1771C184.509 50.5591 176.032 55.2835 173.078 63.708Z" fill="#EBE6F5"/>
</svg>
