<svg width="126" height="230" viewBox="0 0 126 230" fill="none" xmlns="http://www.w3.org/2000/svg">
<path d="M102.713 109.865L72.8707 194.961C66.14 214.154 45.0438 224.295 25.8508 217.565L-90.1885 176.871C-109.381 170.14 -119.523 149.044 -112.792 129.851L-80.2374 37.0197C-73.5067 17.8268 -52.4104 7.68521 -33.2175 14.4159L20.9342 33.4062C23.0693 34.155 24.1944 36.4955 23.4457 38.6307C22.6969 40.7658 20.3564 41.891 18.2213 41.1422L-35.9304 22.1519C-48.3931 17.7814 -61.8003 22.6444 -68.962 33.0336L-26.8314 120.686C-20.1832 134.502 -2.35177 140.756 11.4616 134.115L50.4379 114.581C52.4526 113.567 54.9339 114.394 55.9398 116.406C56.9506 118.428 56.137 120.897 54.1146 121.908L15.0756 141.472C6.13912 145.775 -3.87215 146.33 -13.1785 143.066C-22.4849 139.802 -29.9491 133.119 -34.2187 124.238L-73.4862 42.5407L-105.056 132.564C-110.292 147.494 -102.406 163.899 -87.4756 169.135L28.5637 209.829C43.4941 215.064 59.8989 207.178 65.1348 192.248L94.9767 107.152C95.7254 105.017 98.066 103.892 100.201 104.641C102.336 105.39 103.461 107.73 102.713 109.865ZM40.3419 39.9951C44.7937 27.3004 57.9512 20.3256 69.6866 24.4411C76.6954 26.899 81.9604 32.6199 84.1002 39.0779C89.802 35.3786 97.4896 34.1913 104.498 36.6492C116.234 40.7646 122.153 54.4294 117.701 67.1241C112.357 82.364 88.8603 95.4861 75.3026 100.183C71.0693 101.653 66.6422 101.568 62.6737 100.176C58.7051 98.7848 55.1951 96.0857 52.8065 92.2943C45.1521 80.1582 34.9974 55.2349 40.3419 39.9951ZM48.0778 42.708C43.9678 54.428 52.6068 76.6131 59.7374 87.914C62.4727 92.2527 67.7796 94.1137 72.6255 92.4337C85.2552 88.0539 105.858 76.1235 109.965 64.4112C112.92 55.9868 109.251 47.0031 101.786 44.3851C94.1656 41.7129 86.0583 45.8805 84.1782 51.2415C83.4295 53.3766 81.0889 54.5018 78.9538 53.753C76.8187 53.0042 75.6935 50.6637 76.4423 48.5286C78.3223 43.1676 74.5936 34.8493 66.9737 32.1771C59.5085 29.5591 51.0322 34.2835 48.0778 42.708Z" fill="#EBE6F5"/>
</svg>
