<svg width="600" height="166" viewBox="0 0 600 166" fill="none" xmlns="http://www.w3.org/2000/svg">
<g clip-path="url(#clip0_3165_246281)">
<rect width="600" height="165" transform="translate(0 0.499023)" fill="white"/>
<path d="M602.882 183.747L514.353 202.084L475.492 108.515L601.38 82.4402L602.882 183.747Z" fill="#F2FFA9"/>
<path d="M608.196 81.0298L468.688 109.925L458.5 91.6191L610.274 60.1829L608.196 81.0298Z" fill="#F2FFA9"/>
<path d="M461.34 91.0305L461.848 97.6342L468.546 109.668L467.018 89.8544L461.34 91.0305Z" fill="#CBDF58"/>
<path d="M483.241 86.4942L477.563 87.6703L480.008 119.384L487.094 136.442L483.241 86.4942Z" fill="#CBDF58"/>
<path d="M499.48 83.1311L493.802 84.3071L500.265 168.132L507.351 185.19L499.48 83.1311Z" fill="#CBDF58"/>
<path d="M519.284 201.063L524.962 199.887L515.698 79.7714L510.02 80.9475L519.284 201.063Z" fill="#CBDF58"/>
<path d="M531.934 76.4088L526.255 77.5852L535.518 197.701L541.196 196.525L531.934 76.4088Z" fill="#CBDF58"/>
<path d="M548.168 73.0475L542.489 74.2238L551.752 194.34L557.43 193.164L548.168 73.0475Z" fill="#CBDF58"/>
<path d="M564.387 69.6871L558.709 70.8632L567.971 190.979L573.649 189.803L564.387 69.6871Z" fill="#CBDF58"/>
<path d="M580.622 66.3248L574.943 67.5009L584.205 187.617L589.885 186.441L580.622 66.3248Z" fill="#CBDF58"/>
<path d="M602.112 131.214L596.848 62.9635L591.17 64.1396L600.432 184.256L602.891 183.746L602.112 131.214Z" fill="#CBDF58"/>
<path d="M563.738 191.856L553.501 193.976L527.016 76.9824L541.572 73.9674L563.738 191.856Z" fill="#FFB038"/>
<path d="M601.38 82.4402L475.492 108.515L480.058 119.511L601.555 94.3455L601.38 82.4402Z" fill="#FFB038"/>
<path d="M563.636 46.0191C565.623 43.0706 564.105 40.2485 561.395 37.8572C565.284 33.9094 569.643 30.6942 574.426 28.9691C574.426 28.9691 587.406 40.7682 568.918 55.6268C550.431 70.4855 540.023 74.288 540.023 74.288C540.023 74.288 541.755 69.2798 544.984 62.5512C550.944 58.2846 560.108 51.2553 563.636 46.0191Z" fill="#C96022"/>
<path d="M540.024 74.2877C540.024 74.2877 552.981 36.7027 574.427 28.9687C574.427 28.9687 565.639 19.9241 554.757 19.0489C543.878 18.1763 529.845 51.3726 540.024 74.2877Z" fill="#FFB038"/>
<path d="M542.449 40.0449C542.028 40.2143 541.622 40.3939 541.21 40.5688C542.2 37.0762 543.453 33.852 544.866 31.0988C547.605 25.7661 550.975 22.1079 553.664 21.551C553.975 21.4865 554.278 21.465 554.563 21.4881C560.976 22.0034 566.714 25.7406 569.938 28.2855C566.159 30.2611 562.68 33.0442 559.515 36.2705C554.887 36.2435 548.788 37.5023 542.449 40.0449Z" fill="#FFD05C"/>
<path d="M587.121 50.5404C587.121 50.5404 596.961 65.4592 540.019 74.2889C540.019 74.2889 565.683 50.3709 587.121 50.5404Z" fill="#C96022"/>
<path d="M540.02 74.2881C540.02 74.2881 565.687 50.3698 587.123 50.5396C587.123 50.5396 580.866 41.7934 568.705 43.4894C556.546 45.1838 544.608 65.436 540.02 74.2881Z" fill="#FFB038"/>
<path d="M540.026 74.2876C540.026 74.2876 567.904 59.4584 589.276 64.0867L581.989 75.8027L540.026 74.2876Z" fill="#FFB038"/>
<path d="M558.808 51.8406C562.023 48.8022 565.281 46.6685 568.38 46.0267C568.601 45.9809 568.823 45.9424 569.042 45.9115C574.561 45.1417 578.673 46.7829 581.359 48.5506C580.72 48.652 580.073 48.7698 579.424 48.9043C576.8 49.4479 574.175 50.2487 571.589 51.2177C568.08 50.7471 563.605 50.9219 558.808 51.8406Z" fill="#FFD05C"/>
<path d="M563.699 67.9548C564.948 67.6373 566.214 67.3355 567.503 67.0685C574.109 65.7002 580.065 65.3113 585.265 65.906L580.661 73.3101L576.191 73.1488C573.323 71.0766 568.9 69.1839 563.699 67.9548Z" fill="#FFD05C"/>
<path d="M495.642 60.0983C492.648 58.1815 492.919 54.9889 494.457 51.7176C489.32 49.6394 484.042 48.4204 478.967 48.737C478.967 48.737 471.742 64.721 494.611 71.0137C517.48 77.3065 528.542 76.662 528.542 76.662C528.542 76.662 524.963 72.7538 519.327 67.8615C512.163 66.3132 500.96 63.5023 495.642 60.0983Z" fill="#C96022"/>
<path d="M528.538 76.6611C528.538 76.6611 501.717 47.3154 478.964 48.736C478.964 48.736 483.437 36.9448 493.075 31.8194C502.715 26.6967 528.778 51.5882 528.538 76.6611Z" fill="#FFB038"/>
<path d="M512.719 46.1973C513.173 46.1854 513.616 46.1891 514.063 46.186C511.768 43.3738 509.337 40.9129 506.947 38.9473C502.315 35.1411 497.769 33.1226 495.08 33.6796C494.769 33.7441 494.483 33.8445 494.23 33.9791C488.549 36.9994 484.768 42.7083 482.819 46.3245C487.072 46.6365 491.371 47.8086 495.557 49.5124C499.795 47.6488 505.892 46.3816 512.719 46.1973Z" fill="#FFD05C"/>
<path d="M475.911 73.5753C475.911 73.5753 472.806 91.1753 528.571 76.6605C528.571 76.6605 495.516 64.9048 475.911 73.5753Z" fill="#C96022"/>
<path d="M528.581 76.6596C528.581 76.6596 495.526 64.9039 475.921 73.5744C475.921 73.5744 478.189 63.0624 490.023 59.7887C501.855 56.5139 520.856 70.3578 528.581 76.6596Z" fill="#FFB038"/>
<path d="M528.573 76.66C528.573 76.66 497.098 74.1241 479.323 86.8609L490.663 94.7187L528.573 76.66Z" fill="#FFB038"/>
<path d="M526.013 77.3552C526.062 77.7227 526.119 78.0973 526.28 78.431C526.792 79.49 528.197 79.813 529.345 79.5606C530.493 79.3081 531.498 78.6357 532.582 78.1806C534.715 77.2864 537.091 77.2568 539.395 77.0529C540.257 76.9773 541.256 76.7806 541.637 76.0039C541.894 75.4805 541.776 74.8572 541.635 74.29C541.203 72.5475 540.629 70.839 539.916 69.1915C539.451 68.1156 538.911 67.0405 538.059 66.2372C537.206 65.4339 535.979 64.9404 534.844 65.2297C533.477 65.579 532.669 66.8422 531.405 67.276C530.051 67.7415 528.534 66.475 527.194 66.9787C526.465 67.2531 526.003 68.0084 525.864 68.7748C525.373 71.4532 525.657 74.6628 526.013 77.3552Z" fill="#FFB038"/>
<path d="M538.069 71.1797C537.937 70.8412 537.82 70.4953 537.677 70.1636C537.324 69.3493 536.925 68.5257 536.384 68.0177C536.019 67.6732 535.624 67.5656 535.452 67.6012C535.22 67.6595 534.866 67.937 534.491 68.2307C533.908 68.6863 533.181 69.2541 532.203 69.5903C532.029 69.6499 531.854 69.6979 531.678 69.7344C530.502 69.978 529.446 69.6899 528.677 69.479C528.55 69.4435 528.392 69.4014 528.246 69.3669C527.964 71.0398 528.03 73.008 528.188 74.7718C530.658 73.3906 534.114 72.1061 538.069 71.1797Z" fill="#FFD05C"/>
<path d="M502.413 63.5214C498.255 62.0101 494.417 61.3463 491.318 61.9881C491.099 62.0336 490.879 62.0865 490.665 62.1455C485.295 63.6309 482.173 66.7705 480.41 69.4596C481.036 69.299 481.677 69.1502 482.326 69.0157C484.951 68.4721 487.678 68.1643 490.436 68.0264C493.471 66.2006 497.647 64.5835 502.413 63.5214Z" fill="#FFD05C"/>
<path d="M504.324 80.2515C503.051 80.4563 501.77 80.682 500.481 80.949C493.875 82.3173 488.255 84.3261 483.719 86.9374L490.885 91.9035L494.923 89.9801C496.732 86.9392 500.039 83.4454 504.324 80.2515Z" fill="#FFD05C"/>
<path d="M545.351 94.0468L531.531 96.9092L534.113 108.316L547.513 105.541L545.351 94.0468Z" fill="#C96022"/>
<path d="M451.477 135.494H367.812V173.025H451.477V135.494Z" fill="#F3EDFF"/>
<path d="M451.48 118.801H362V135.495H451.48V118.801Z" fill="#F3EDFF"/>
<path d="M500.322 135.494H451.477V173.025H500.322V135.494Z" fill="#E5D8FF"/>
<path d="M506.137 118.801H451.477V135.495H506.137V118.801Z" fill="#E5D8FF"/>
<path d="M500.322 135.494H367.812V140.758H500.322V135.494Z" fill="#E3D6F5"/>
<path d="M481.716 118.801H470.086V173.026H481.716V118.801Z" fill="#FFB038"/>
<path d="M413.099 118.801H401.469V173.026H413.099V118.801Z" fill="#FFB038"/>
<path d="M459.134 103.029C460.882 101.322 460.254 99.2125 458.764 97.2255C461.931 95.1115 465.311 93.5565 468.77 93.0625C468.77 93.0625 475.856 102.808 461.349 110.227C446.842 117.647 439.312 118.754 439.312 118.754C439.312 118.754 441.174 115.626 444.285 111.551C448.887 109.512 456.031 106.06 459.134 103.029Z" fill="#C96022"/>
<path d="M439.315 118.753C439.315 118.753 453.268 95.2765 468.772 93.0625C468.772 93.0625 464.121 85.7535 456.923 83.6495C449.724 81.5455 435.66 101.921 439.315 118.753Z" fill="#FFB038"/>
<path d="M445.719 96.0567C445.412 96.1117 445.114 96.1757 444.812 96.2367C445.964 94.0247 447.256 92.0317 448.591 90.3757C451.176 87.1697 453.954 85.1787 455.84 85.1787C456.059 85.1787 456.264 85.2067 456.452 85.2617C460.694 86.5017 464.034 89.8147 465.849 91.9767C463.032 92.7787 460.302 94.1667 457.724 95.8957C454.614 95.2327 450.337 95.2297 445.719 96.0567Z" fill="#FFD05C"/>
<path d="M411.452 103.228C409.704 101.521 410.332 99.4117 411.822 97.4247C408.656 95.3107 405.276 93.7557 401.817 93.2617C401.817 93.2617 394.73 103.007 409.236 110.427C423.743 117.846 431.273 118.954 431.273 118.954C431.273 118.954 429.411 115.826 426.3 111.751C421.698 109.711 414.555 106.259 411.452 103.228Z" fill="#C96022"/>
<path d="M431.276 118.953C431.276 118.953 417.323 95.4757 401.82 93.2617C401.82 93.2617 406.471 85.9527 413.669 83.8487C420.867 81.7447 434.931 102.121 431.276 118.953Z" fill="#FFB038"/>
<path d="M424.872 96.2559C425.179 96.3109 425.476 96.3749 425.778 96.4359C424.626 94.2239 423.334 92.2309 421.999 90.5749C419.414 87.3689 416.637 85.3779 414.751 85.3779C414.532 85.3779 414.326 85.4059 414.138 85.4609C409.896 86.7009 406.557 90.0139 404.742 92.1759C407.559 92.9779 410.288 94.3659 412.866 96.0949C415.976 95.4319 420.254 95.4289 424.872 96.2559Z" fill="#FFD05C"/>
<path d="M419.784 113.756C416.42 113.476 412.958 113.543 409.775 114.666C406.592 115.789 403.702 118.099 402.511 121.257C401.67 123.488 401.719 125.951 401.149 128.266C399.708 134.122 393.881 138.58 387.852 138.44C390.817 143.649 396.33 147.325 402.278 148.061C405.497 143.913 411.527 141.839 412.947 136.784C413.689 134.143 412.927 131.351 412.505 128.641C412.083 125.931 412.13 122.823 414.058 120.872C415.889 119.02 418.771 118.842 421.375 118.779C424.507 118.703 427.68 118.631 430.73 119.352C431.625 119.564 432.574 119.841 433.442 119.535C437.582 118.077 430.596 115.838 429.759 115.596C426.505 114.654 423.159 114.036 419.784 113.756Z" fill="#FFB038"/>
<path d="M451.928 113.756C455.292 113.476 458.754 113.543 461.937 114.666C465.12 115.789 468.01 118.099 469.201 121.257C470.042 123.488 469.993 125.951 470.563 128.266C472.004 134.122 477.831 138.58 483.86 138.44C480.895 143.649 475.383 147.325 469.434 148.061C466.215 143.913 460.185 141.839 458.765 136.784C458.023 134.143 458.785 131.351 459.207 128.641C459.629 125.931 459.582 122.823 457.654 120.872C455.823 119.02 452.941 118.842 450.337 118.779C447.205 118.703 444.031 118.631 440.982 119.352C440.087 119.564 439.137 119.841 438.27 119.535C434.13 118.077 441.116 115.838 441.953 115.596C445.206 114.654 448.552 114.036 451.928 113.756Z" fill="#FFB038"/>
<path d="M429.461 119.065C429.443 119.319 429.429 119.579 429.491 119.826C429.688 120.609 430.588 121.022 431.396 121.013C432.203 121.003 432.973 120.691 433.765 120.536C435.324 120.231 436.927 120.543 438.505 120.727C439.095 120.796 439.795 120.803 440.159 120.334C440.405 120.018 440.412 119.582 440.396 119.181C440.349 117.948 440.2 116.72 439.951 115.511C439.788 114.723 439.574 113.924 439.113 113.265C438.651 112.605 437.895 112.103 437.091 112.14C436.123 112.184 435.403 112.921 434.492 113.038C433.517 113.163 432.673 112.099 431.701 112.252C431.172 112.335 430.757 112.779 430.555 113.275C429.853 115.005 429.596 117.204 429.461 119.065Z" fill="#FFB038"/>
<path d="M438.431 116.589C438.389 116.343 438.359 116.094 438.308 115.85C438.185 115.253 438.03 114.643 437.738 114.226C437.54 113.943 437.289 113.816 437.169 113.816C437.005 113.823 436.728 113.96 436.434 114.106C435.978 114.331 435.411 114.612 434.705 114.702C434.58 114.718 434.455 114.726 434.331 114.726C433.506 114.726 432.836 114.385 432.347 114.136C432.267 114.095 432.166 114.044 432.074 114C431.651 115.086 431.42 116.419 431.281 117.627C433.137 117.043 435.641 116.66 438.431 116.589Z" fill="#FFD05C"/>
<path d="M395.531 138.497C397.802 139.985 400.073 141.473 402.343 142.96C402.53 143.082 402.73 143.209 402.953 143.211C403.207 143.213 403.43 143.055 403.633 142.903C406.157 141.021 408.815 138.96 409.837 135.982C409.885 135.842 409.925 135.675 409.834 135.558C409.728 135.421 409.521 135.444 409.349 135.462C407.892 135.609 406.664 134.389 405.889 133.147C405.416 132.389 404.492 130.024 403.417 130.031C402.484 130.037 401.664 132.306 401.19 132.991C400.717 133.676 396.396 139.064 395.531 138.497Z" fill="#FFD05C"/>
<path d="M475.944 138.497C473.673 139.985 471.402 141.473 469.132 142.96C468.945 143.082 468.745 143.209 468.522 143.211C468.268 143.213 468.045 143.055 467.842 142.903C465.318 141.021 462.66 138.96 461.638 135.982C461.59 135.842 461.55 135.675 461.64 135.558C461.746 135.421 461.953 135.444 462.125 135.462C463.582 135.609 464.81 134.389 465.585 133.147C466.058 132.389 466.983 130.024 468.057 130.031C468.99 130.037 469.81 132.306 470.284 132.991C470.758 133.676 475.079 139.064 475.944 138.497Z" fill="#FFD05C"/>
<path d="M-18.9936 185.103L104.843 201.735L119.076 54.6948L18.7044 41.2149L-18.9936 185.103Z" fill="#ACA2CC"/>
<path d="M120.749 203.871L-3.08733 187.24L21.98 41.6553L125.339 55.5365L120.749 203.871Z" fill="#F3EEFD"/>
<path d="M18.9221 59.3822L20.9923 62.0051L20.9961 62.0022L20.9973 62.0057L26.6969 57.5025L31.3463 63.3956L31.3501 63.3927L31.353 63.3965L37.0509 58.893L41.7003 64.7862L41.7041 64.7833L41.7053 64.7868L47.4049 60.2836L52.0543 66.1767L52.0581 66.1738L52.0593 66.1774L57.7589 61.6741L62.4083 67.5673L62.4121 67.5644L62.4133 67.5679L68.1129 63.0647L72.7623 68.9578L72.7661 68.9549L72.7673 68.9585L78.4669 64.4552L83.1163 70.3483L83.1201 70.3455L83.1213 70.349L88.8209 65.8458L93.4703 71.7389L93.4741 71.736L93.4753 71.7396L99.1749 67.2363L103.824 73.1294L103.828 73.1266L103.829 73.1301L109.529 68.6269L114.178 74.52L114.182 74.5171L114.183 74.5207L119.883 70.0174L124.532 75.9105L124.536 75.9077L124.537 75.9112L124.709 75.7756L124.967 67.3932L120.694 61.9777L114.993 66.4824L110.34 60.5872L104.639 65.0918L99.9862 59.1966L94.2847 63.7013L89.6322 57.8061L83.9307 62.3108L79.2782 56.4155L73.5767 60.9202L68.9242 55.025L63.2227 59.5297L58.5702 53.6344L52.8687 58.1391L48.2162 52.2439L42.5147 56.7486L37.8622 50.8534L32.1608 55.358L27.5082 49.4628L21.8068 53.9675L20.2039 51.9375L18.9221 59.3822Z" fill="#E3D6F5"/>
<path d="M118.275 85.9335L112.573 90.4381L107.921 84.5429L102.219 89.0476L97.5667 83.1524L91.8636 87.6568L87.2128 81.7618L87.2111 81.7616L81.5096 86.2663L76.8588 80.3713L76.8571 80.371L71.1556 84.8757L66.5048 78.9807L66.5031 78.9805L60.8033 83.4854L56.1508 77.5902L56.1491 77.5899L50.4476 82.0946L45.7968 76.1996L45.7951 76.1994L40.0953 80.7043L35.4428 74.8091L29.7413 79.3137L25.0888 73.4185L19.3873 77.9232L16.3838 74.1165L15.1004 81.5611L18.5731 85.9591L18.5767 85.9579L18.5781 85.9598L24.2775 81.4582L28.9271 87.3497L28.9307 87.3485L28.9337 87.3506L34.6315 82.8488L39.2811 88.7402L39.2847 88.739L39.2861 88.7409L44.9855 84.2393L49.6351 90.1308L49.6386 90.1295L49.6401 90.1314L55.3395 85.6299L59.9891 91.5213L59.991 91.5199L59.9941 91.522L65.6934 87.0204L70.3431 92.9119L70.3466 92.9106L70.3481 92.9125L76.0474 88.4109L80.6971 94.3024L80.699 94.301L80.7021 94.3031L86.4014 89.8015L91.0511 95.6929L91.053 95.6915L91.0561 95.6936L96.7554 91.192L101.405 97.0835L101.407 97.0821L101.41 97.0842L107.109 92.5826L111.759 98.474L111.761 98.4726L111.764 98.4747L117.463 93.9731L122.113 99.8646L122.117 99.8634L122.118 99.8653L124.007 98.3734L124.242 90.7897L122.927 91.8287L118.275 85.9335Z" fill="#E3D6F5"/>
<path d="M115.85 109.89L115.848 109.889L110.149 114.394L105.496 108.499L105.494 108.499L99.793 113.004L95.1421 107.109L95.1405 107.108L89.439 111.613L84.7881 105.718L84.7865 105.718L79.085 110.222L74.4341 104.327L68.731 108.832L64.0801 102.937L64.0785 102.937L58.3787 107.442L53.7261 101.546L53.7245 101.546L48.023 106.051L43.3721 100.156L43.3705 100.156L37.6707 104.661L33.0181 98.7653L27.3167 103.27L22.6641 97.3748L16.9627 101.879L12.557 96.2959L11.1834 104.274L11.4988 104.024L16.1485 109.915L16.1506 109.912L16.1535 109.916L21.8528 105.414L26.5025 111.306L26.5062 111.303L26.5074 111.307L32.2068 106.805L36.8565 112.696L36.8586 112.693L36.8614 112.697L42.5608 108.196L47.2105 114.087L47.2126 114.084L47.2154 114.088L52.9148 109.586L57.5645 115.478L57.5666 115.474L57.5694 115.478L63.2688 110.977L67.9184 116.868L67.9206 116.865L67.9234 116.869L73.6228 112.367L78.2724 118.259L78.2746 118.256L78.2774 118.259L83.9768 113.758L88.6264 119.649L88.6286 119.646L88.6314 119.65L94.3308 115.148L98.9804 121.04L98.9826 121.037L98.9854 121.04L104.685 116.539L109.334 122.43L109.337 122.427L109.339 122.431L115.039 117.929L119.688 123.821L119.691 123.818L119.693 123.821L123.3 120.973L123.534 113.388L120.501 115.785L115.85 109.89Z" fill="#E3D6F5"/>
<path d="M13.744 133.873L13.7461 133.87L13.749 133.874L19.4484 129.372L24.098 135.264L24.1001 135.261L24.103 135.264L29.8024 130.763L34.452 136.654L34.4541 136.651L34.457 136.655L40.1563 132.153L44.806 138.045L44.8081 138.042L44.811 138.045L50.5103 133.544L55.16 139.435L55.1621 139.432L55.165 139.436L60.8643 134.934L65.514 140.826L65.5161 140.823L65.519 140.827L71.2183 136.325L75.868 142.216L75.8701 142.213L75.873 142.217L81.5723 137.716L86.222 143.607L86.2241 143.604L86.227 143.608L91.9263 139.106L96.576 144.997L96.5781 144.994L96.581 144.998L102.28 140.497L106.93 146.388L106.932 146.385L106.935 146.389L112.634 141.887L117.284 147.779L117.286 147.775L117.289 147.779L122.613 143.573L122.848 135.988L118.097 139.742L113.446 133.847L113.444 133.847L107.743 138.352L103.092 132.457L103.09 132.457L97.3885 136.961L92.7377 131.066L92.736 131.066L87.0345 135.571L82.3837 129.676L82.382 129.676L76.6805 134.18L72.0297 128.285L72.028 128.285L66.3265 132.79L61.6757 126.895L61.674 126.894L55.9725 131.399L51.3217 125.504L51.32 125.504L45.6185 130.009L40.9677 124.114L40.966 124.113L35.2662 128.618L30.6137 122.723L24.9105 127.228L20.2597 121.333L20.258 121.332L14.5582 125.837L9.90568 119.942L8.27621 121.227L6.80178 129.792L9.09437 127.982L13.744 133.873Z" fill="#E3D6F5"/>
<path d="M11.3301 157.829L11.3322 157.826L11.3351 157.829L17.0344 153.328L21.6841 159.219L21.6862 159.216L21.6891 159.22L27.3884 154.718L32.0381 160.61L32.0402 160.607L32.0431 160.61L37.7424 156.109L42.3921 162L42.3942 161.997L42.3971 162.001L48.0964 157.499L52.7461 163.391L52.7482 163.388L52.751 163.392L58.4504 158.89L63.0984 164.781L63.1022 164.778L63.105 164.782L68.8044 160.281L73.4524 166.172L73.4562 166.169L73.459 166.173L79.1567 161.671L83.8064 167.562L83.8102 167.559L83.813 167.563L89.5107 163.061L94.1604 168.953L94.1642 168.95L94.167 168.954L99.8647 164.452L104.514 170.343L104.518 170.341L104.521 170.344L110.219 165.843L114.87 171.734L114.872 171.731L114.875 171.735L120.573 167.233L121.835 168.831L122.106 160.106L121.384 159.193L115.683 163.698L111.03 157.803L105.329 162.307L100.678 156.413L100.676 156.412L94.9746 160.917L90.3237 155.022L90.3221 155.022L84.6206 159.526L79.9697 153.631L79.9681 153.631L74.2666 158.136L69.6157 152.241L69.6141 152.241L63.9126 156.745L59.2617 150.85L59.2601 150.85L53.5586 155.355L48.9077 149.46L48.9061 149.46L43.2046 153.964L38.5537 148.069L38.5521 148.069L32.8506 152.574L28.1997 146.679L28.1981 146.678L22.4966 151.183L17.8458 145.288L17.8441 145.288L12.1426 149.793L7.49175 143.898L7.4901 143.897L3.88681 146.744L2.41238 155.309L6.68044 151.937L11.3301 157.829Z" fill="#E3D6F5"/>
<path d="M96.6818 58.7528C95.6189 58.61 94.8724 57.632 95.0152 56.569L96.5992 44.774C97.9074 35.0336 89.1282 25.7886 77.0314 24.164C64.9329 22.5392 54.027 29.1421 52.7191 38.8809L51.135 50.6759C50.9923 51.7388 50.0142 52.4853 48.9513 52.3426C47.8884 52.1998 47.1419 51.2217 47.2846 50.1588L48.8687 38.3638C50.4617 26.5025 63.3273 18.4053 77.5466 20.315C91.766 22.2247 102.039 33.4294 100.446 45.2907L98.8623 57.0857C98.7209 58.1505 97.7447 58.8955 96.6818 58.7528Z" fill="#F3EEFD"/>
<path d="M201.529 80.7382C204.216 80.1463 204.872 77.7557 204.631 74.9684C208.916 74.8329 213.074 75.3565 216.675 76.9431C216.675 76.9431 217.651 90.4802 199.363 88.9385C181.074 87.3969 173.214 83.9725 173.214 83.9725C173.214 83.9725 176.857 82.0903 182.258 80.0455C187.872 80.8372 196.758 81.789 201.529 80.7382Z" fill="#C96022"/>
<path d="M173.212 83.9739C173.212 83.9739 200.53 69.8314 216.673 76.9435C216.673 76.9435 216.576 67.1855 210.947 60.8889C205.316 54.5922 179.738 65.7031 173.212 83.9739Z" fill="#FFB038"/>
<path d="M192.848 66.0817C192.522 65.951 192.199 65.836 191.875 65.7147C194.293 64.2856 196.716 63.1486 198.978 62.3601C203.358 60.8334 207.199 60.5831 209.003 61.7059C209.211 61.8355 209.393 61.9851 209.54 62.1497C212.858 65.8611 214.079 71.0161 214.527 74.1645C211.356 73.2541 207.92 72.9571 204.426 73.0763C201.845 70.5898 197.756 68.0397 192.848 66.0817Z" fill="#FFD05C"/>
<path d="M141.945 71.4649C139.565 70.0844 139.667 67.6077 140.745 65.0257C136.703 63.5941 132.582 62.8294 128.67 63.2467C128.67 63.2467 123.626 75.847 141.518 79.936C159.41 84.025 167.939 83.1511 167.939 83.1511C167.939 83.1511 165.04 80.2509 160.516 76.6615C154.925 75.7094 146.17 73.9158 141.945 71.4649Z" fill="#C96022"/>
<path d="M167.936 83.1525C167.936 83.1525 146.208 61.3774 128.667 63.2472C128.667 63.2472 131.725 53.9801 139.002 49.6921C146.279 45.4043 167.271 63.7626 167.936 83.1525Z" fill="#FFB038"/>
<path d="M154.666 60.1407C155.016 60.1153 155.359 60.1039 155.705 60.0868C153.835 57.9903 151.872 56.1709 149.957 54.7322C146.248 51.9468 142.665 50.541 140.605 51.0625C140.367 51.1226 140.149 51.2101 139.958 51.3222C135.67 53.8497 132.94 58.39 131.556 61.2532C134.854 61.3494 138.218 62.1108 141.51 63.2861C144.725 61.7016 149.395 60.5146 154.666 60.1407Z" fill="#FFD05C"/>
<path d="M165.02 82.7462C164.956 83.0256 164.896 83.3128 164.921 83.5981C165.004 84.5036 165.935 85.1191 166.835 85.249C167.736 85.3781 168.646 85.1635 169.555 85.1279C171.343 85.059 173.074 85.6835 174.798 86.1613C175.442 86.3395 176.22 86.4687 176.707 86.01C177.035 85.6999 177.117 85.2168 177.17 84.7676C177.331 83.3879 177.378 81.9936 177.31 80.6065C177.265 79.7009 177.166 78.7746 176.766 77.9615C176.366 77.1473 175.612 76.457 174.71 76.3582C173.625 76.24 172.695 76.9353 171.661 76.907C170.554 76.8763 169.799 75.5465 168.692 75.5482C168.089 75.5494 167.549 75.9705 167.24 76.4881C166.159 78.2964 165.493 80.6985 165.02 82.7462Z" fill="#FFB038"/>
<path d="M175.429 81.5448C175.425 81.2638 175.435 80.9819 175.421 80.7014C175.388 80.0162 175.32 79.3105 175.068 78.7954C174.896 78.446 174.64 78.2613 174.505 78.2404C174.321 78.2198 173.989 78.325 173.637 78.4352C173.09 78.6071 172.41 78.8211 171.61 78.7988C171.468 78.7949 171.327 78.7821 171.19 78.7607C170.271 78.6177 169.585 78.1224 169.084 77.7611C169.002 77.7017 168.899 77.627 168.804 77.5626C168.145 78.6978 167.657 80.142 167.293 81.4626C169.458 81.1337 172.311 81.1415 175.429 81.5448Z" fill="#FFD05C"/>
<path d="M224.037 91.6383L158.578 81.4512L155.991 98.0721L221.451 108.259L224.037 91.6383Z" fill="#F3FFAE"/>
<path d="M158.575 81.4515L117.195 75.0117L114.609 91.6326L155.989 98.0724L158.575 81.4515Z" fill="#E1F56F"/>
<path d="M216.104 107.429L157.836 98.3613L146.792 169.329L205.059 178.397L216.104 107.429Z" fill="#F3FFAE"/>
<path d="M208.638 133.654L210.147 133.889L206.741 137.872L208.468 138.141L204.433 142.861L210.005 143.728L209.318 148.146L209.76 148.214L212.779 128.811L208.638 133.654Z" fill="#C8DC56"/>
<path d="M198.232 136.548L196.197 131.717L197.706 131.952L194.621 124.627L189.456 130.668L190.964 130.903L187.558 134.887L189.285 135.155L185.251 139.875L190.822 140.742L190.135 145.16L192.655 145.552L193.342 141.134L198.914 142.002L196.504 136.279L198.232 136.548Z" fill="#C8DC56"/>
<path d="M179.043 133.561L177.009 128.731L178.518 128.966L175.433 121.64L170.268 127.682L171.777 127.917L168.371 131.9L170.098 132.169L166.063 136.889L171.635 137.756L170.947 142.174L173.466 142.566L174.154 138.148L179.727 139.015L177.317 133.293L179.043 133.561Z" fill="#C8DC56"/>
<path d="M159.855 130.575L157.821 125.745L159.33 125.98L156.244 118.654L154.334 120.89L152.18 134.729L152.447 134.77L151.76 139.188L154.278 139.58L154.966 135.162L160.538 136.029L158.128 130.307L159.855 130.575Z" fill="#C8DC56"/>
<path d="M157.838 98.361L119.945 92.4639L108.901 163.432L146.794 169.329L157.838 98.361Z" fill="#E1F56F"/>
<path d="M135.083 136.597L135.771 132.179L141.344 133.046L138.934 127.324L140.661 127.593L138.627 122.762L140.135 122.997L137.051 115.672L131.885 121.713L133.394 121.948L129.988 125.932L131.715 126.2L127.68 130.92L133.252 131.787L132.565 136.205L135.083 136.597Z" fill="#F3FFAE"/>
<path d="M116.588 129.193L122.16 130.06L119.75 124.338L121.478 124.606L119.443 119.776L120.952 120.011L117.867 112.685L116.556 114.218L113.594 133.252L115.901 133.611L116.588 129.193Z" fill="#F3FFAE"/>
<path d="M152.176 134.732L154.33 120.893L151.076 124.699L152.583 124.934L149.177 128.917L150.905 129.186L146.87 133.906L152.176 134.732Z" fill="#F3FFAE"/>
<path d="M216.106 107.429L119.945 92.4639L119.172 97.4311L215.333 112.396L216.106 107.429Z" fill="#B3C839"/>
<path d="M130.719 105.658L125.576 101.474L120.601 104.083L124.938 76.2168L135.056 77.7914L130.719 105.658Z" fill="#C96022"/>
<path d="M203.398 116.969L198.256 112.786L193.28 115.395L197.617 87.5283L207.734 89.1028L203.398 116.969Z" fill="#FFB038"/>
<path d="M136.812 78.0654L123.181 165.654L127.643 166.348L133.3 167.229L146.931 79.6401L136.812 78.0654Z" fill="#C96022"/>
<path d="M185.219 85.5986L171.588 173.187L176.049 173.882L181.706 174.762L195.337 87.1733L185.219 85.5986Z" fill="#FFB038"/>
<path d="M259.605 101.739C259.532 101.739 259.458 101.735 259.384 101.725C256.473 101.354 230.814 97.7762 226.291 86.9342C224.878 83.5472 225.616 79.9282 228.487 76.1792C231.357 72.4292 234.657 70.7652 238.295 71.2502C249.943 72.7842 260.098 96.6172 261.217 99.3302C261.455 99.9042 261.368 100.562 260.99 101.056C260.658 101.489 260.144 101.739 259.605 101.739ZM237.116 74.6602C235.049 74.6602 233.126 75.8562 231.257 78.2992C229.173 81.0232 228.601 83.4082 229.511 85.5892C232.31 92.3022 248.007 96.2952 256.73 97.7932C253.005 89.7652 245.051 75.6562 237.84 74.7072C237.596 74.6762 237.355 74.6602 237.116 74.6602Z" fill="#D6C2FF"/>
<path d="M261.205 101.739C260.666 101.739 260.152 101.489 259.82 101.055C259.442 100.561 259.355 99.9026 259.593 99.3286C260.712 96.6156 270.867 72.7816 282.515 71.2486C286.152 70.7656 289.454 72.4276 292.323 76.1776C295.193 79.9266 295.932 83.5456 294.519 86.9326C289.996 97.7746 264.337 101.353 261.426 101.724C261.353 101.735 261.279 101.739 261.205 101.739ZM283.694 74.6596C283.455 74.6596 283.214 74.6756 282.97 74.7076C275.752 75.6576 267.801 89.7667 264.08 97.7927C272.802 96.2947 288.501 92.3016 291.3 85.5886C292.21 83.4066 291.638 81.0226 289.554 78.2986C287.684 75.8566 285.761 74.6596 283.694 74.6596Z" fill="#D6C2FF"/>
<path d="M273.736 103.129C267.509 103.129 262.263 102.614 261.021 102.482C260.306 102.405 259.711 101.899 259.522 101.206C259.333 100.513 259.589 99.7738 260.167 99.3458C262.608 97.5348 284.301 81.7528 294.33 85.2208C296.685 86.0358 298.303 87.8408 299.012 90.4418C299.721 93.0418 299.241 95.4198 297.625 97.3178C293.577 102.071 282.652 103.129 273.736 103.129ZM266.168 99.3928C275.61 99.9468 290.947 99.7798 294.969 95.0558C295.84 94.0328 296.055 92.8578 295.646 91.3588C295.237 89.8588 294.456 88.9559 293.188 88.5169C287.324 86.4879 274.023 94.1268 266.168 99.3928Z" fill="#D6C2FF"/>
<path d="M260.143 101.414C260.121 101.414 260.099 101.414 260.076 101.412C259.428 101.387 258.846 101.004 258.567 100.418C257.3 97.7521 246.379 74.0951 252.711 64.4881C254.555 61.6921 257.561 60.3561 261.646 60.5111C265.731 60.6681 268.625 62.2331 270.249 65.1611C275.826 75.2241 263.123 97.9751 261.656 100.536C261.345 101.082 260.767 101.414 260.143 101.414ZM261.012 63.9891C258.463 63.9891 256.697 64.7841 255.624 66.4101C251.746 72.2931 256.802 87.4401 260.294 95.7231C264.409 87.7291 270.612 73.0101 267.198 66.8531C266.193 65.0401 264.333 64.1061 261.512 63.9981C261.343 63.9921 261.176 63.9891 261.012 63.9891Z" fill="#D6C2FF"/>
<path d="M248.759 103.129C239.842 103.129 228.918 102.072 224.869 97.3171C223.253 95.4191 222.774 93.0421 223.482 90.4411C224.191 87.8401 225.811 86.0351 228.166 85.2201C238.177 81.7511 259.888 97.5341 262.329 99.3451C262.906 99.7731 263.162 100.512 262.973 101.205C262.784 101.898 262.189 102.404 261.475 102.481C260.232 102.614 254.984 103.129 248.759 103.129ZM231.559 88.1821C230.725 88.1821 229.97 88.2881 229.307 88.5171C228.039 88.9571 227.258 89.8601 226.849 91.3591C226.44 92.8581 226.656 94.0331 227.526 95.0561C231.552 99.7831 246.887 99.9441 256.327 99.3941C249.358 94.7241 238.104 88.1821 231.559 88.1821Z" fill="#D6C2FF"/>
<path d="M314.509 99.9951H251.812V188.858H314.509V99.9951Z" fill="#E4D6FF"/>
<path d="M251.809 99.9951H208V188.858H251.809V99.9951Z" fill="#F3EEFD"/>
<path d="M251.809 105.918H208V109.698H251.809V105.918Z" fill="#E5D8FF"/>
<path d="M314.509 105.918H251.812V109.698H314.509V105.918Z" fill="#F3EEFD"/>
<path d="M251.809 118.129H208V121.909H251.809V118.129Z" fill="#E5D8FF"/>
<path d="M314.509 118.129H251.812V121.909H314.509V118.129Z" fill="#F3EEFD"/>
<path d="M251.809 130.34H208V134.12H251.809V130.34Z" fill="#E5D8FF"/>
<path d="M314.509 130.34H251.812V134.12H314.509V130.34Z" fill="#F3EEFD"/>
<path d="M251.809 142.552H208V146.332H251.809V142.552Z" fill="#E5D8FF"/>
<path d="M314.509 142.552H251.812V146.332H314.509V142.552Z" fill="#F3EEFD"/>
<path d="M251.809 154.763H208V158.543H251.809V154.763Z" fill="#E5D8FF"/>
<path d="M314.509 154.763H251.812V158.543H314.509V154.763Z" fill="#F3EEFD"/>
<path d="M229.907 99.9951H226.789V188.858H229.907V99.9951Z" fill="#D6C2FF"/>
<path d="M286.29 99.9951H283.172V188.858H286.29V99.9951Z" fill="white"/>
<path d="M303.492 75.4609V163.864C303.492 168.582 321.806 172.407 344.398 172.407C366.99 172.407 385.304 168.582 385.304 163.864V75.4609H303.492Z" fill="#F2FFA9"/>
<path d="M317.5 75.4658V170.294C314.552 169.762 311.97 169.134 309.859 168.436V75.4658H317.5Z" fill="#CBDF58"/>
<path d="M332.938 75.4658V172.065C330.269 171.899 327.713 171.69 325.297 171.42V75.4658H332.938Z" fill="#CBDF58"/>
<path d="M348.374 75.4658V172.37C347.066 172.396 345.74 172.405 344.397 172.405C343.158 172.405 341.946 172.396 340.734 172.37V75.4658H348.374Z" fill="#CBDF58"/>
<path d="M363.813 75.4658V171.385C361.406 171.655 358.841 171.882 356.172 172.048V75.4658H363.813Z" fill="#CBDF58"/>
<path d="M379.25 75.4658V168.341C377.157 169.047 374.575 169.684 371.609 170.242V75.4658H379.25Z" fill="#CBDF58"/>
<path d="M303.492 99.8138C303.492 103.496 321.806 106.481 344.398 106.481C366.99 106.481 385.304 103.496 385.304 99.8138V81.0928H303.492V99.8138Z" fill="#D5EC4F"/>
<path d="M317.5 81.0918V104.834C314.543 104.415 311.97 103.927 309.859 103.395V81.0918H317.5Z" fill="#AFC33D"/>
<path d="M332.938 81.0918V106.221C330.269 106.09 327.713 105.916 325.297 105.715V81.0918H332.938Z" fill="#AFC33D"/>
<path d="M348.374 81.0918V106.448C347.066 106.474 345.74 106.483 344.397 106.483C343.158 106.483 341.937 106.474 340.734 106.457V81.0928H348.374V81.0918Z" fill="#AFC33D"/>
<path d="M363.813 81.0918V105.689C361.406 105.898 358.841 106.073 356.172 106.204V81.0928H363.813V81.0918Z" fill="#AFC33D"/>
<path d="M379.25 81.0918V103.308C377.157 103.857 374.575 104.363 371.609 104.791V81.0928H379.25V81.0918Z" fill="#AFC33D"/>
<path d="M300 75.4609V92.0419C300 95.9879 319.876 99.1869 344.395 99.1869C368.914 99.1869 388.79 95.9879 388.79 92.0419V75.4609H300Z" fill="#D8EB6E"/>
<path d="M388.79 75.4614C388.79 79.4074 368.914 82.6064 344.395 82.6064C319.876 82.6064 300 79.4074 300 75.4614C300 71.5154 319.876 68.3164 344.395 68.3164C368.914 68.3164 388.79 71.5154 388.79 75.4614Z" fill="#F4FEBD"/>
<path d="M368.677 58.2628C370.446 56.5348 369.81 54.4008 368.302 52.3898C371.506 50.2508 374.927 48.6768 378.426 48.1768C378.426 48.1768 385.598 58.0388 370.918 65.5468C356.238 73.0548 348.617 74.1758 348.617 74.1758C348.617 74.1758 350.502 71.0107 353.649 66.8867C358.308 64.8228 365.537 61.3298 368.677 58.2628Z" fill="#C96022"/>
<path d="M348.618 74.1753C348.618 74.1753 362.738 50.4173 378.427 48.1763C378.427 48.1763 373.72 40.7803 366.436 38.6513C359.152 36.5223 344.92 57.1413 348.618 74.1753Z" fill="#FFB038"/>
<path d="M355.097 51.2063C354.786 51.2623 354.485 51.3272 354.18 51.3882C355.346 49.1502 356.654 47.1322 358.004 45.4572C360.62 42.2132 363.43 40.1982 365.339 40.1982C365.56 40.1982 365.769 40.2262 365.96 40.2822C370.253 41.5372 373.632 44.8892 375.468 47.0772C372.617 47.8892 369.856 49.2932 367.247 51.0432C364.1 50.3732 359.771 50.3703 355.097 51.2063Z" fill="#FFD05C"/>
<path d="M384.029 64.6502C384.029 64.6502 388.624 76.1932 348.617 74.1752C348.617 74.1752 369.46 61.5122 384.029 64.6502Z" fill="#C96022"/>
<path d="M348.617 74.1752C348.617 74.1752 369.461 61.5122 384.029 64.6492C384.029 64.6492 381.003 57.8132 372.486 57.2532C363.969 56.6932 352.988 68.7962 348.617 74.1752Z" fill="#FFB038"/>
<path d="M348.617 74.1751C348.617 74.1751 369.685 68.0111 383.581 74.1751L376.969 81.1231L348.617 74.1751Z" fill="#FFB038"/>
<path d="M364.57 61.5435C367.187 59.9285 369.706 58.9355 371.906 58.9355C372.062 58.9355 372.219 58.9405 372.373 58.9505C376.238 59.2045 378.806 60.9016 380.385 62.4836C379.936 62.4626 379.479 62.4516 379.018 62.4516C377.155 62.4516 375.255 62.6266 373.358 62.9216C371.036 62.1066 367.964 61.5945 364.57 61.5435Z" fill="#FFD05C"/>
<path d="M365.625 73.2027C366.52 73.1627 367.424 73.1357 368.339 73.1357C373.029 73.1357 377.138 73.7107 380.594 74.8487L376.416 79.2387L373.396 78.4987C371.736 76.6847 368.992 74.7727 365.625 73.2027Z" fill="#FFD05C"/>
<path d="M320.423 58.2628C318.655 56.5348 319.29 54.4008 320.798 52.3898C317.594 50.2508 314.173 48.6768 310.674 48.1768C310.674 48.1768 303.502 58.0388 318.182 65.5468C332.862 73.0548 340.483 74.1758 340.483 74.1758C340.483 74.1758 338.598 71.0107 335.451 66.8867C330.792 64.8228 323.563 61.3298 320.423 58.2628Z" fill="#C96022"/>
<path d="M340.481 74.1753C340.481 74.1753 326.361 50.4173 310.672 48.1763C310.672 48.1763 315.379 40.7803 322.663 38.6513C329.947 36.5223 344.179 57.1413 340.481 74.1753Z" fill="#FFB038"/>
<path d="M334.004 51.2063C334.315 51.2623 334.615 51.3272 334.921 51.3882C333.755 49.1502 332.447 47.1322 331.097 45.4572C328.481 42.2132 325.671 40.1982 323.762 40.1982C323.541 40.1982 323.332 40.2262 323.141 40.2822C318.848 41.5372 315.469 44.8892 313.633 47.0772C316.484 47.8892 319.245 49.2932 321.854 51.0432C325.002 50.3732 329.331 50.3703 334.004 51.2063Z" fill="#FFD05C"/>
<path d="M305.074 64.6502C305.074 64.6502 300.479 76.1932 340.486 74.1752C340.486 74.1752 319.642 61.5122 305.074 64.6502Z" fill="#C96022"/>
<path d="M340.49 74.1752C340.49 74.1752 319.646 61.5122 305.078 64.6492C305.078 64.6492 308.104 57.8132 316.621 57.2532C325.137 56.6932 336.119 68.7962 340.49 74.1752Z" fill="#FFB038"/>
<path d="M340.487 74.1751C340.487 74.1751 319.419 68.0111 305.523 74.1751L312.135 81.1231L340.487 74.1751Z" fill="#FFB038"/>
<path d="M338.649 74.2882C338.63 74.5452 338.616 74.8082 338.679 75.0582C338.878 75.8512 339.789 76.2692 340.606 76.2592C341.423 76.2492 342.202 75.9332 343.004 75.7762C344.582 75.4682 346.204 75.7832 347.801 75.9692C348.398 76.0382 349.106 76.0462 349.475 75.5712C349.724 75.2512 349.731 74.8102 349.715 74.4042C349.667 73.1572 349.517 71.9132 349.264 70.6912C349.099 69.8932 348.883 69.0852 348.416 68.4182C347.949 67.7512 347.184 67.2422 346.37 67.2792C345.39 67.3242 344.662 68.0702 343.74 68.1872C342.753 68.3132 341.899 67.2372 340.916 67.3912C340.381 67.4752 339.96 67.9242 339.757 68.4262C339.045 70.1802 338.785 72.4052 338.649 74.2882Z" fill="#FFB038"/>
<path d="M347.725 71.7835C347.683 71.5345 347.652 71.2825 347.601 71.0365C347.477 70.4325 347.32 69.8155 347.024 69.3925C346.824 69.1065 346.57 68.9775 346.448 68.9775C346.282 68.9855 346.002 69.1235 345.705 69.2705C345.244 69.4985 344.669 69.7825 343.956 69.8735C343.829 69.8895 343.703 69.8975 343.578 69.8975C342.743 69.8975 342.065 69.5525 341.571 69.3005C341.49 69.2585 341.388 69.2075 341.294 69.1635C340.866 70.2625 340.633 71.6115 340.492 72.8345C342.368 72.2435 344.902 71.8555 347.725 71.7835Z" fill="#FFD05C"/>
<path d="M324.534 61.5435C321.917 59.9285 319.398 58.9355 317.198 58.9355C317.042 58.9355 316.885 58.9405 316.731 58.9505C312.866 59.2045 310.298 60.9016 308.719 62.4836C309.168 62.4626 309.625 62.4516 310.086 62.4516C311.949 62.4516 313.849 62.6266 315.746 62.9216C318.069 62.1066 321.14 61.5945 324.534 61.5435Z" fill="#FFD05C"/>
<path d="M323.477 73.2027C322.582 73.1627 321.678 73.1357 320.763 73.1357C316.073 73.1357 311.964 73.7107 308.508 74.8487L312.686 79.2387L315.706 78.4987C317.366 76.6847 320.11 74.7727 323.477 73.2027Z" fill="#FFD05C"/>
</g>
<defs>
<clipPath id="clip0_3165_246281">
<rect width="600" height="165" fill="white" transform="translate(0 0.499023)"/>
</clipPath>
</defs>
</svg>
