<svg width="1118" height="20" viewBox="0 0 1118 20" fill="none" xmlns="http://www.w3.org/2000/svg">
<g clip-path="url(#clip0_1655_2486)">
<path d="M-20 21L0.999999 0" stroke="#4B6D74" stroke-opacity="0.2"/>
<path d="M-8 21L13 0" stroke="#4B6D74" stroke-opacity="0.2"/>
<path d="M4 21L25 0" stroke="#4B6D74" stroke-opacity="0.2"/>
<path d="M16 21L37 0" stroke="#4B6D74" stroke-opacity="0.2"/>
<path d="M28 21L49 0" stroke="#4B6D74" stroke-opacity="0.2"/>
<path d="M40 21L61 0" stroke="#4B6D74" stroke-opacity="0.2"/>
<path d="M52 21L73 0" stroke="#4B6D74" stroke-opacity="0.2"/>
<path d="M64 21L85 0" stroke="#4B6D74" stroke-opacity="0.2"/>
<path d="M76 21L97 0" stroke="#4B6D74" stroke-opacity="0.2"/>
<path d="M88 21L109 0" stroke="#4B6D74" stroke-opacity="0.2"/>
<path d="M100 21L121 0" stroke="#4B6D74" stroke-opacity="0.2"/>
<path d="M112 21L133 0" stroke="#4B6D74" stroke-opacity="0.2"/>
<path d="M124 21L145 0" stroke="#4B6D74" stroke-opacity="0.2"/>
<path d="M136 21L157 0" stroke="#4B6D74" stroke-opacity="0.2"/>
<path d="M148 21L169 0" stroke="#4B6D74" stroke-opacity="0.2"/>
<path d="M160 21L181 0" stroke="#4B6D74" stroke-opacity="0.2"/>
<path d="M172 21L193 0" stroke="#4B6D74" stroke-opacity="0.2"/>
<path d="M184 21L205 0" stroke="#4B6D74" stroke-opacity="0.2"/>
<path d="M196 21L217 0" stroke="#4B6D74" stroke-opacity="0.2"/>
<path d="M208 21L229 0" stroke="#4B6D74" stroke-opacity="0.2"/>
<path d="M220 21L241 0" stroke="#4B6D74" stroke-opacity="0.2"/>
<path d="M232 21L253 0" stroke="#4B6D74" stroke-opacity="0.2"/>
<path d="M244 21L265 0" stroke="#4B6D74" stroke-opacity="0.2"/>
<path d="M256 21L277 0" stroke="#4B6D74" stroke-opacity="0.2"/>
<path d="M268 21L289 0" stroke="#4B6D74" stroke-opacity="0.2"/>
<path d="M280 21L301 0" stroke="#4B6D74" stroke-opacity="0.2"/>
<path d="M292 21L313 0" stroke="#4B6D74" stroke-opacity="0.2"/>
<path d="M304 21L325 0" stroke="#4B6D74" stroke-opacity="0.2"/>
<path d="M316 21L337 0" stroke="#4B6D74" stroke-opacity="0.2"/>
<path d="M328 21L349 0" stroke="#4B6D74" stroke-opacity="0.2"/>
<path d="M340 21L361 0" stroke="#4B6D74" stroke-opacity="0.2"/>
<path d="M352 21L373 0" stroke="#4B6D74" stroke-opacity="0.2"/>
<path d="M364 21L385 0" stroke="#4B6D74" stroke-opacity="0.2"/>
<path d="M376 21L397 0" stroke="#4B6D74" stroke-opacity="0.2"/>
<path d="M388 21L409 0" stroke="#4B6D74" stroke-opacity="0.2"/>
<path d="M400 21L421 0" stroke="#4B6D74" stroke-opacity="0.2"/>
<path d="M412 21L433 0" stroke="#4B6D74" stroke-opacity="0.2"/>
<path d="M424 21L445 0" stroke="#4B6D74" stroke-opacity="0.2"/>
<path d="M436 21L457 0" stroke="#4B6D74" stroke-opacity="0.2"/>
<path d="M448 21L469 0" stroke="#4B6D74" stroke-opacity="0.2"/>
<path d="M460 21L481 0" stroke="#4B6D74" stroke-opacity="0.2"/>
<path d="M472 21L493 0" stroke="#4B6D74" stroke-opacity="0.2"/>
<path d="M484 21L505 0" stroke="#4B6D74" stroke-opacity="0.2"/>
<path d="M496 21L517 0" stroke="#4B6D74" stroke-opacity="0.2"/>
<path d="M508 21L529 0" stroke="#4B6D74" stroke-opacity="0.2"/>
<path d="M520 21L541 0" stroke="#4B6D74" stroke-opacity="0.2"/>
<path d="M532 21L553 0" stroke="#4B6D74" stroke-opacity="0.2"/>
<path d="M544 21L565 0" stroke="#4B6D74" stroke-opacity="0.2"/>
<path d="M556 21L577 0" stroke="#4B6D74" stroke-opacity="0.2"/>
<path d="M568 21L589 0" stroke="#4B6D74" stroke-opacity="0.2"/>
<path d="M580 21L601 0" stroke="#4B6D74" stroke-opacity="0.2"/>
<path d="M592 21L613 0" stroke="#4B6D74" stroke-opacity="0.2"/>
<path d="M604 21L625 0" stroke="#4B6D74" stroke-opacity="0.2"/>
<path d="M616 21L637 0" stroke="#4B6D74" stroke-opacity="0.2"/>
<path d="M628 21L649 0" stroke="#4B6D74" stroke-opacity="0.2"/>
<path d="M640 21L661 0" stroke="#4B6D74" stroke-opacity="0.2"/>
<path d="M652 21L673 0" stroke="#4B6D74" stroke-opacity="0.2"/>
<path d="M664 21L685 0" stroke="#4B6D74" stroke-opacity="0.2"/>
<path d="M676 21L697 0" stroke="#4B6D74" stroke-opacity="0.2"/>
<path d="M688 21L709 0" stroke="#4B6D74" stroke-opacity="0.2"/>
<path d="M700 21L721 0" stroke="#4B6D74" stroke-opacity="0.2"/>
<path d="M712 21L733 0" stroke="#4B6D74" stroke-opacity="0.2"/>
<path d="M724 21L745 0" stroke="#4B6D74" stroke-opacity="0.2"/>
<path d="M736 21L757 0" stroke="#4B6D74" stroke-opacity="0.2"/>
<path d="M748 21L769 0" stroke="#4B6D74" stroke-opacity="0.2"/>
<path d="M760 21L781 0" stroke="#4B6D74" stroke-opacity="0.2"/>
<path d="M772 21L793 0" stroke="#4B6D74" stroke-opacity="0.2"/>
<path d="M784 21L805 0" stroke="#4B6D74" stroke-opacity="0.2"/>
<path d="M796 21L817 0" stroke="#4B6D74" stroke-opacity="0.2"/>
<path d="M808 21L829 0" stroke="#4B6D74" stroke-opacity="0.2"/>
<path d="M820 21L841 0" stroke="#4B6D74" stroke-opacity="0.2"/>
<path d="M832 21L853 0" stroke="#4B6D74" stroke-opacity="0.2"/>
<path d="M844 21L865 0" stroke="#4B6D74" stroke-opacity="0.2"/>
<path d="M856 21L877 0" stroke="#4B6D74" stroke-opacity="0.2"/>
<path d="M868 21L889 0" stroke="#4B6D74" stroke-opacity="0.2"/>
<path d="M880 21L901 0" stroke="#4B6D74" stroke-opacity="0.2"/>
<path d="M892 21L913 0" stroke="#4B6D74" stroke-opacity="0.2"/>
<path d="M904 21L925 0" stroke="#4B6D74" stroke-opacity="0.2"/>
<path d="M916 21L937 0" stroke="#4B6D74" stroke-opacity="0.2"/>
<path d="M928 21L949 0" stroke="#4B6D74" stroke-opacity="0.2"/>
<path d="M940 21L961 0" stroke="#4B6D74" stroke-opacity="0.2"/>
<path d="M952 21L973 0" stroke="#4B6D74" stroke-opacity="0.2"/>
<path d="M964 21L985 0" stroke="#4B6D74" stroke-opacity="0.2"/>
<path d="M976 21L997 0" stroke="#4B6D74" stroke-opacity="0.2"/>
<path d="M988 21L1009 0" stroke="#4B6D74" stroke-opacity="0.2"/>
<path d="M1000 21L1021 0" stroke="#4B6D74" stroke-opacity="0.2"/>
<path d="M1012 21L1033 0" stroke="#4B6D74" stroke-opacity="0.2"/>
<path d="M1024 21L1045 0" stroke="#4B6D74" stroke-opacity="0.2"/>
<path d="M1036 21L1057 0" stroke="#4B6D74" stroke-opacity="0.2"/>
<path d="M1048 21L1069 0" stroke="#4B6D74" stroke-opacity="0.2"/>
<path d="M1060 21L1081 0" stroke="#4B6D74" stroke-opacity="0.2"/>
<path d="M1072 21L1093 0" stroke="#4B6D74" stroke-opacity="0.2"/>
<path d="M1084 21L1105 0" stroke="#4B6D74" stroke-opacity="0.2"/>
<path d="M1096 21L1117 0" stroke="#4B6D74" stroke-opacity="0.2"/>
<path d="M1108 21L1129 0" stroke="#4B6D74" stroke-opacity="0.2"/>
</g>
<defs>
<clipPath id="clip0_1655_2486">
<rect width="1118" height="20" fill="white"/>
</clipPath>
</defs>
</svg>
