<svg width="29" height="29" viewBox="0 0 29 29" fill="none" xmlns="http://www.w3.org/2000/svg">
<path d="M6.9607 5.7998C5.99964 5.7998 5.2207 6.57874 5.2207 7.5398V21.4598C5.2207 22.4209 5.99964 23.1998 6.9607 23.1998H22.0407C23.0018 23.1998 23.7807 22.4209 23.7807 21.4598V7.5398C23.7807 6.57874 23.0018 5.7998 22.0407 5.7998H6.9607ZM6.9607 9.8598H22.0407C22.6816 9.8598 23.2007 10.3789 23.2007 11.0198V21.4598C23.2007 22.1007 22.6816 22.6198 22.0407 22.6198H6.9607C6.3198 22.6198 5.8007 22.1007 5.8007 21.4598V11.0198C5.8007 10.3789 6.3198 9.8598 6.9607 9.8598ZM12.4707 12.1798C12.3106 12.1798 12.1807 12.3097 12.1807 12.4698V13.0498C12.1807 13.2099 12.3106 13.3398 12.4707 13.3398H13.0507C13.2108 13.3398 13.3407 13.2099 13.3407 13.0498V12.4698C13.3407 12.3097 13.2108 12.1798 13.0507 12.1798H12.4707ZM15.9507 12.1798C15.7906 12.1798 15.6607 12.3097 15.6607 12.4698V13.0498C15.6607 13.2099 15.7906 13.3398 15.9507 13.3398H16.5307C16.6908 13.3398 16.8207 13.2099 16.8207 13.0498V12.4698C16.8207 12.3097 16.6908 12.1798 16.5307 12.1798H15.9507ZM19.4307 12.1798C19.2706 12.1798 19.1407 12.3097 19.1407 12.4698V13.0498C19.1407 13.2099 19.2706 13.3398 19.4307 13.3398H20.0107C20.1708 13.3398 20.3007 13.2099 20.3007 13.0498V12.4698C20.3007 12.3097 20.1708 12.1798 20.0107 12.1798H19.4307ZM15.6675 15.0798C15.3433 15.0798 15.0807 15.3418 15.0807 15.6655V16.813C15.0807 17.1372 15.3427 17.3998 15.6664 17.3998H16.8139C17.1381 17.3998 17.4007 17.1378 17.4007 16.8141V15.6666C17.4007 15.3424 17.1387 15.0798 16.815 15.0798H15.6675ZM8.9907 15.6598C8.83062 15.6598 8.7007 15.7897 8.7007 15.9498V16.5298C8.7007 16.6899 8.83062 16.8198 8.9907 16.8198H9.5707C9.73078 16.8198 9.8607 16.6899 9.8607 16.5298V15.9498C9.8607 15.7897 9.73078 15.6598 9.5707 15.6598H8.9907ZM12.4707 15.6598C12.3106 15.6598 12.1807 15.7897 12.1807 15.9498V16.5298C12.1807 16.6899 12.3106 16.8198 12.4707 16.8198H13.0507C13.2108 16.8198 13.3407 16.6899 13.3407 16.5298V15.9498C13.3407 15.7897 13.2108 15.6598 13.0507 15.6598H12.4707ZM19.4307 15.6598C19.2706 15.6598 19.1407 15.7897 19.1407 15.9498V16.5298C19.1407 16.6899 19.2706 16.8198 19.4307 16.8198H20.0107C20.1708 16.8198 20.3007 16.6899 20.3007 16.5298V15.9498C20.3007 15.7897 20.1708 15.6598 20.0107 15.6598H19.4307ZM8.9907 19.1398C8.83062 19.1398 8.7007 19.2697 8.7007 19.4298V20.0098C8.7007 20.1699 8.83062 20.2998 8.9907 20.2998H9.5707C9.73078 20.2998 9.8607 20.1699 9.8607 20.0098V19.4298C9.8607 19.2697 9.73078 19.1398 9.5707 19.1398H8.9907ZM12.4707 19.1398C12.3106 19.1398 12.1807 19.2697 12.1807 19.4298V20.0098C12.1807 20.1699 12.3106 20.2998 12.4707 20.2998H13.0507C13.2108 20.2998 13.3407 20.1699 13.3407 20.0098V19.4298C13.3407 19.2697 13.2108 19.1398 13.0507 19.1398H12.4707ZM15.9507 19.1398C15.7906 19.1398 15.6607 19.2697 15.6607 19.4298V20.0098C15.6607 20.1699 15.7906 20.2998 15.9507 20.2998H16.5307C16.6908 20.2998 16.8207 20.1699 16.8207 20.0098V19.4298C16.8207 19.2697 16.6908 19.1398 16.5307 19.1398H15.9507Z" fill="#213235"/>
</svg>
