<?xml version="1.0" standalone="no"?>
<!DOCTYPE svg PUBLIC "-//W3C//DTD SVG 20010904//EN"
 "http://www.w3.org/TR/2001/REC-SVG-20010904/DTD/svg10.dtd">
<svg version="1.0" xmlns="http://www.w3.org/2000/svg"
 width="600.000000pt" height="600.000000pt" viewBox="0 0 600.000000 600.000000"
 preserveAspectRatio="xMidYMid meet">

<g transform="translate(0.000000,600.000000) scale(0.100000,-0.100000)"
fill="#000000" stroke="none">
<path d="M3125 4490 c-10 -11 -28 -20 -41 -20 -40 0 -69 -20 -92 -63 -12 -23
-22 -47 -22 -53 0 -6 -7 -17 -15 -24 -26 -21 -13 -112 18 -132 7 -4 62 -8 123
-8 98 0 115 3 138 21 22 18 26 28 26 75 0 39 -4 56 -15 60 -8 4 -15 14 -15 23
0 9 -5 22 -12 29 -6 6 -18 33 -27 59 -18 53 -38 64 -66 33z m44 -48 c8 -26 6
-31 -12 -36 -33 -9 -137 -7 -137 2 0 17 26 32 56 32 17 0 42 9 55 19 28 22 27
23 38 -17z m36 -71 c9 -16 -6 -19 -109 -22 -71 -3 -100 -1 -103 8 -3 8 11 13
39 16 89 8 167 7 173 -2z m33 -78 c6 -63 -5 -70 -128 -78 -131 -8 -143 -3
-138 59 l3 41 85 6 c47 3 105 5 130 5 43 -1 45 -2 48 -33z"/>
<path d="M4266 3734 c-34 -23 -46 -42 -46 -71 0 -24 111 -193 138 -211 22 -14
27 -14 67 6 31 15 51 35 74 74 17 29 46 70 63 90 26 31 29 40 18 53 -7 8 -22
15 -34 15 -12 0 -33 15 -49 35 l-28 36 -85 -2 c-69 -2 -90 -6 -118 -25z m174
-84 c36 -55 50 -84 43 -91 -12 -12 -126 157 -117 172 9 15 18 5 74 -81z m48
51 c20 -22 45 -41 55 -43 16 -3 15 -7 -11 -31 l-29 -28 -42 65 c-22 36 -41 68
-41 71 0 17 36 -1 68 -34z m-94 -78 l69 -107 -29 -23 c-16 -13 -38 -22 -49
-21 -25 4 -135 162 -135 194 0 21 43 63 65 64 6 0 41 -48 79 -107z"/>
<path d="M1724 3702 c-7 -4 -12 -27 -12 -52 0 -25 -3 -59 -7 -77 -5 -24 -1
-41 20 -77 15 -25 30 -46 35 -46 4 0 10 -9 13 -20 8 -29 86 -64 117 -52 37 15
136 207 127 245 -10 38 -67 65 -142 66 -33 0 -76 5 -95 11 -41 12 -42 12 -56
2z m85 -37 c3 -3 -11 -38 -30 -78 -34 -67 -37 -70 -48 -49 -9 17 -8 28 5 53
10 20 14 43 10 62 -6 29 -5 29 26 23 17 -3 34 -9 37 -11z m61 -5 c0 -6 -21
-51 -46 -101 -30 -61 -49 -88 -55 -82 -7 7 5 41 35 102 41 81 66 111 66 81z
m120 -50 c0 -29 -88 -200 -106 -207 -19 -7 -84 22 -84 37 0 6 25 60 55 120
l55 110 40 -20 c27 -14 40 -27 40 -40z"/>
<path d="M4382 2324 c-34 -23 -114 -189 -110 -227 5 -47 52 -75 128 -76 32 0
78 -5 101 -11 57 -16 73 -8 65 32 -4 20 0 48 10 75 16 40 16 44 -2 70 -24 35
-40 62 -55 90 -11 21 -82 63 -105 63 -5 0 -20 -7 -32 -16z m78 -29 c17 -9 30
-18 30 -20 0 -8 -101 -209 -112 -222 -13 -16 -75 13 -83 38 -6 18 78 198 99
211 17 11 34 10 66 -7z m60 -70 c0 -16 -64 -150 -82 -172 -6 -7 -14 -10 -19
-7 -9 5 81 194 93 194 5 0 8 -7 8 -15z m26 -114 c-14 -30 -16 -43 -7 -60 13
-24 0 -28 -44 -11 l-25 10 36 72 c34 67 38 71 47 51 8 -17 6 -33 -7 -62z"/>
<path d="M1843 2244 c-26 -15 -43 -33 -43 -43 0 -10 -7 -24 -15 -31 -8 -7 -15
-18 -15 -24 0 -7 -16 -28 -35 -46 -43 -41 -44 -73 -3 -78 16 -2 37 -16 53 -38
l26 -35 85 2 c76 1 88 4 124 30 56 41 54 68 -14 173 -50 78 -87 116 -111 116
-5 0 -29 -12 -52 -26z m139 -101 c39 -61 58 -98 54 -110 -5 -17 -54 -53 -70
-53 -5 0 -98 138 -139 207 -9 14 51 54 77 51 11 -2 42 -40 78 -95z m-115 -66
c53 -85 61 -102 42 -102 -13 0 -120 166 -113 177 10 16 20 6 71 -75z m-43 -32
c20 -30 36 -59 36 -65 0 -22 -28 -8 -63 30 -19 22 -43 40 -51 40 -20 0 -20 9
1 32 25 28 37 22 77 -37z"/>
<path d="M3063 1510 c-12 -5 -26 -18 -32 -29 -16 -28 -14 -96 3 -110 8 -7 17
-23 20 -36 4 -14 11 -25 16 -25 6 0 10 -7 10 -15 0 -8 7 -33 16 -55 18 -45 46
-53 64 -20 7 14 21 20 44 20 43 0 67 21 105 93 35 65 41 129 15 165 -14 21
-22 22 -127 21 -62 0 -122 -4 -134 -9z m234 -22 c18 -23 25 -88 11 -92 -7 -3
-68 -7 -135 -10 l-123 -7 0 44 c0 25 6 49 13 55 12 10 58 15 178 20 27 1 51
-3 56 -10z m-7 -132 c0 -9 -20 -15 -61 -20 -104 -10 -149 -8 -149 9 0 11 20
15 93 18 50 1 98 4 105 5 6 1 12 -4 12 -12z m-30 -55 c0 -15 -24 -28 -65 -34
-22 -4 -45 -13 -51 -22 -16 -22 -22 -19 -29 16 -5 22 -3 34 6 40 18 11 139 12
139 0z"/>
</g>
</svg>
