<svg xmlns="http://www.w3.org/2000/svg" fill="none" viewBox="117.65 121.39 546.34 546.32">
<path d="M390.812 394.551L518.983 616.551C557.956 594.059 590.316 561.699 612.81 522.728C635.303 483.756 647.136 439.548 647.117 394.551H390.812Z" fill="#FBFBFB"/>
<g clip-path="url(#clip0_3191_277752)">
<mask id="mask0_3191_277752" style="mask-type:luminance" maskUnits="userSpaceOnUse" x="502" y="443" width="44" height="44">
<path d="M545.247 457.528L530.719 486.04L502.207 471.512L516.734 443L545.247 457.528Z" fill="white"/>
</mask>
<g mask="url(#mask0_3191_277752)">
<path d="M506.432 466.177L514.907 449.545C516.244 446.921 519.456 445.877 522.08 447.214L526.832 449.636C528.144 450.304 528.666 451.911 527.998 453.222L517.102 474.606C516.434 475.918 514.827 476.44 513.515 475.772L508.763 473.35C506.139 472.013 505.095 468.801 506.432 466.177Z" stroke="#1B1B1D" stroke-width="2.66667" stroke-miterlimit="10" stroke-linecap="round" stroke-linejoin="round"/>
<path d="M528 453.223L530.376 454.433C531.688 455.102 532.21 456.708 531.541 458.02L523.067 474.652C522.399 475.964 520.792 476.486 519.48 475.817L517.104 474.607" stroke="#1B1B1D" stroke-width="2.66667" stroke-miterlimit="10" stroke-linecap="round" stroke-linejoin="round"/>
<path d="M523.065 474.652L524.253 475.257C527.435 476.879 531.303 477.561 533.105 477.284C534.098 477.13 534.521 476.01 533.954 475.181C532.702 473.358 532.124 471.555 533.265 469.317L534.453 466.986C537.479 461.046 531.539 458.02 531.539 458.02" stroke="#1B1B1D" stroke-width="2.66667" stroke-miterlimit="10" stroke-linecap="round" stroke-linejoin="round"/>
</g>
</g>
<path d="M390.602 392.814L262.429 614.814C301.394 637.319 345.599 649.164 390.596 649.158C435.593 649.153 479.795 637.296 518.754 614.781L390.602 392.814Z" fill="#E1F56F"/>
<g clip-path="url(#clip1_3191_277752)">
<mask id="mask1_3191_277752" style="mask-type:luminance" maskUnits="userSpaceOnUse" x="379" y="526" width="35" height="34">
<path d="M413.284 558.06L381.328 559.734L379.653 527.778L411.609 526.104L413.284 558.06Z" fill="white"/>
</mask>
<g mask="url(#mask1_3191_277752)">
<path d="M386.384 528.756L405.026 527.779C407.967 527.625 410.477 529.885 410.631 532.826L410.91 538.152C410.987 539.622 409.856 540.878 408.386 540.955L384.419 542.211C382.949 542.288 381.694 541.157 381.617 539.687L381.338 534.361C381.183 531.42 383.443 528.91 386.384 528.756Z" stroke="#1B1B1D" stroke-width="2.66667" stroke-miterlimit="10" stroke-linecap="round" stroke-linejoin="round"/>
<path d="M408.391 540.963L408.53 543.626C408.607 545.096 407.477 546.351 406.007 546.428L387.366 547.405C385.896 547.482 384.64 546.352 384.563 544.882L384.424 542.219" stroke="#1B1B1D" stroke-width="2.66667" stroke-miterlimit="10" stroke-linecap="round" stroke-linejoin="round"/>
<path d="M387.359 547.401L387.429 548.732C387.616 552.299 388.959 555.99 390.1 557.412C390.73 558.195 391.911 558.001 392.345 557.096C393.298 555.1 394.57 553.699 397.079 553.567L399.691 553.43C406.349 553.081 406 546.424 406 546.424" stroke="#1B1B1D" stroke-width="2.66667" stroke-miterlimit="10" stroke-linecap="round" stroke-linejoin="round"/>
</g>
</g>
<path d="M392 391.764L135.656 391.763C135.649 436.76 147.493 480.965 169.997 519.931C192.5 558.896 224.87 591.248 263.848 613.73L392 391.764Z" fill="#FBFBFB"/>
<g clip-path="url(#clip2_3191_277752)">
<mask id="mask2_3191_277752" style="mask-type:luminance" maskUnits="userSpaceOnUse" x="242" y="449" width="46" height="46">
<path d="M260.241 494.034L242.812 467.196L269.65 449.768L287.078 476.605L260.241 494.034Z" fill="white"/>
</mask>
<g mask="url(#mask2_3191_277752)">
<path d="M272.155 456.081L282.322 471.736C283.926 474.206 283.224 477.51 280.754 479.114L276.281 482.018C275.046 482.82 273.394 482.469 272.592 481.234L259.521 461.106C258.719 459.872 259.07 458.219 260.305 457.417L264.778 454.513C267.248 452.909 270.551 453.611 272.155 456.081Z" stroke="#1B1B1D" stroke-width="2.66667" stroke-miterlimit="10" stroke-linecap="round" stroke-linejoin="round"/>
<path d="M272.594 481.242L270.357 482.695C269.123 483.496 267.47 483.145 266.668 481.91L256.502 466.255C255.7 465.021 256.051 463.368 257.286 462.566L259.522 461.114" stroke="#1B1B1D" stroke-width="2.66667" stroke-miterlimit="10" stroke-linecap="round" stroke-linejoin="round"/>
<path d="M256.497 466.251L255.379 466.977C252.384 468.923 249.859 471.931 249.198 473.631C248.835 474.568 249.593 475.493 250.594 475.417C252.799 475.244 254.649 475.645 256.017 477.752L257.442 479.946C261.073 485.537 266.664 481.906 266.664 481.906" stroke="#1B1B1D" stroke-width="2.66667" stroke-miterlimit="10" stroke-linecap="round" stroke-linejoin="round"/>
</g>
</g>
<path d="M393.602 392.449L265.431 170.449C226.458 192.941 194.098 225.301 171.604 264.272C149.111 303.244 137.278 347.452 137.297 392.449L393.602 392.449Z" fill="#E1F56F"/>
<g clip-path="url(#clip3_3191_277752)">
<mask id="mask3_3191_277752" style="mask-type:luminance" maskUnits="userSpaceOnUse" x="239" y="300" width="44" height="44">
<path d="M239.167 329.472L253.695 300.96L282.207 315.488L267.68 344L239.167 329.472Z" fill="white"/>
</mask>
<g mask="url(#mask3_3191_277752)">
<path d="M277.982 320.823L269.507 337.455C268.17 340.079 264.958 341.123 262.334 339.786L257.582 337.364C256.27 336.696 255.748 335.089 256.416 333.778L267.312 312.394C267.981 311.082 269.587 310.56 270.899 311.228L275.651 313.65C278.275 314.987 279.319 318.199 277.982 320.823Z" stroke="#1B1B1D" stroke-width="2.66667" stroke-miterlimit="10" stroke-linecap="round" stroke-linejoin="round"/>
<path d="M256.414 333.777L254.038 332.567C252.726 331.898 252.204 330.292 252.873 328.98L261.347 312.348C262.015 311.036 263.622 310.514 264.934 311.183L267.31 312.393" stroke="#1B1B1D" stroke-width="2.66667" stroke-miterlimit="10" stroke-linecap="round" stroke-linejoin="round"/>
<path d="M261.349 312.348L260.161 311.743C256.979 310.121 253.111 309.439 251.309 309.716C250.316 309.87 249.894 310.99 250.46 311.819C251.712 313.642 252.29 315.445 251.149 317.683L249.962 320.014C246.935 325.954 252.875 328.98 252.875 328.98" stroke="#1B1B1D" stroke-width="2.66667" stroke-miterlimit="10" stroke-linecap="round" stroke-linejoin="round"/>
</g>
</g>
<path d="M393.812 394.186L521.985 172.186C483.02 149.681 438.815 137.836 393.818 137.842C348.821 137.847 304.619 149.704 265.66 172.219L393.812 394.186Z" fill="#FBFBFB"/>
<g clip-path="url(#clip4_3191_277752)">
<mask id="mask4_3191_277752" style="mask-type:luminance" maskUnits="userSpaceOnUse" x="371" y="227" width="34" height="34">
<path d="M371.13 228.94L403.086 227.266L404.761 259.222L372.805 260.896L371.13 228.94Z" fill="white"/>
</mask>
<g mask="url(#mask4_3191_277752)">
<path d="M398.03 258.244L379.389 259.221C376.447 259.375 373.938 257.115 373.783 254.174L373.504 248.848C373.427 247.378 374.558 246.122 376.028 246.045L399.995 244.789C401.465 244.712 402.72 245.843 402.797 247.313L403.077 252.639C403.231 255.58 400.971 258.09 398.03 258.244Z" stroke="#1B1B1D" stroke-width="2.66667" stroke-miterlimit="10" stroke-linecap="round" stroke-linejoin="round"/>
<path d="M376.023 246.037L375.884 243.374C375.807 241.904 376.937 240.649 378.407 240.572L397.048 239.595C398.518 239.518 399.774 240.648 399.851 242.118L399.991 244.781" stroke="#1B1B1D" stroke-width="2.66667" stroke-miterlimit="10" stroke-linecap="round" stroke-linejoin="round"/>
<path d="M397.055 239.599L396.985 238.268C396.798 234.701 395.455 231.01 394.314 229.588C393.684 228.805 392.503 228.999 392.069 229.904C391.116 231.9 389.844 233.301 387.335 233.433L384.723 233.57C378.065 233.919 378.414 240.576 378.414 240.576" stroke="#1B1B1D" stroke-width="2.66667" stroke-miterlimit="10" stroke-linecap="round" stroke-linejoin="round"/>
</g>
</g>
<path d="M392.414 395.236L648.758 395.237C648.765 350.24 636.921 306.035 614.417 267.069C591.914 228.104 559.544 195.752 520.566 173.27L392.414 395.236Z" fill="#E1F56F"/>
<g clip-path="url(#clip5_3191_277752)">
<mask id="mask5_3191_277752" style="mask-type:luminance" maskUnits="userSpaceOnUse" x="497" y="292" width="45" height="46">
<path d="M524.173 292.966L541.602 319.804L514.764 337.232L497.336 310.395L524.173 292.966Z" fill="white"/>
</mask>
<g mask="url(#mask5_3191_277752)">
<path d="M512.259 330.919L502.092 315.264C500.488 312.794 501.19 309.49 503.66 307.886L508.133 304.982C509.368 304.18 511.02 304.531 511.822 305.766L524.893 325.894C525.695 327.128 525.344 328.781 524.109 329.583L519.636 332.487C517.166 334.091 513.863 333.389 512.259 330.919Z" stroke="#1B1B1D" stroke-width="2.66667" stroke-miterlimit="10" stroke-linecap="round" stroke-linejoin="round"/>
<path d="M511.82 305.758L514.057 304.305C515.291 303.504 516.944 303.855 517.746 305.09L527.912 320.745C528.714 321.979 528.363 323.632 527.128 324.434L524.892 325.886" stroke="#1B1B1D" stroke-width="2.66667" stroke-miterlimit="10" stroke-linecap="round" stroke-linejoin="round"/>
<path d="M527.917 320.749L529.035 320.023C532.031 318.077 534.555 315.069 535.216 313.369C535.579 312.432 534.821 311.507 533.82 311.583C531.615 311.756 529.765 311.355 528.397 309.248L526.972 307.054C523.341 301.463 517.75 305.094 517.75 305.094" stroke="#1B1B1D" stroke-width="2.66667" stroke-miterlimit="10" stroke-linecap="round" stroke-linejoin="round"/>
</g>
</g>
<path style="mix-blend-mode:multiply" opacity="0.75" d="M390.812 633.107C522.562 633.107 629.366 526.302 629.366 394.552C629.366 262.802 522.562 155.998 390.812 155.998C259.062 155.998 152.258 262.802 152.258 394.552C152.258 526.302 259.062 633.107 390.812 633.107Z" fill="url(#paint0_radial_3191_277752)"/>
<g filter="url(#filter0_d_3191_277752)">
<path d="M390.81 138.248C532.362 138.248 647.115 253 647.115 394.552C647.115 536.104 532.362 650.857 390.81 650.857C249.258 650.857 134.505 536.104 134.505 394.552C134.505 253 249.258 138.248 390.81 138.248ZM390.81 121.391C372.325 121.387 353.887 123.246 335.775 126.94C300.824 134.106 267.625 148.082 238.072 168.071C194.164 197.71 159.793 239.445 139.124 288.222C132.136 304.753 126.801 321.935 123.198 339.518C115.799 375.834 115.799 413.27 123.198 449.587C130.364 484.539 144.34 517.738 164.329 547.291C193.972 591.201 235.714 625.572 284.496 646.238C301.027 653.227 318.21 658.562 335.792 662.165C372.109 669.564 409.545 669.564 445.862 662.165C480.813 654.999 514.012 641.023 543.565 621.034C587.476 591.391 621.847 549.649 642.513 500.866C649.501 484.335 654.836 467.153 658.439 449.57C665.839 413.254 665.839 375.818 658.439 339.501C651.273 304.549 637.297 271.35 617.308 241.797C587.665 197.887 545.924 163.516 497.141 142.85C480.61 135.861 463.427 130.526 445.845 126.923C427.733 123.235 409.294 121.382 390.81 121.391V121.391Z" fill="white"/>
</g>
<path d="M390.81 660.634C325.042 660.546 261.65 636.034 212.932 591.853C164.214 547.671 133.643 486.969 127.149 421.522C120.654 356.076 138.7 290.55 177.785 237.655C216.87 184.761 274.208 148.268 338.676 135.258C403.145 122.247 470.148 133.645 526.688 167.241C583.228 200.837 625.274 254.235 644.671 317.078C664.068 379.921 659.431 447.728 631.662 507.346C603.893 566.964 554.97 614.143 494.383 639.731C461.616 653.595 426.389 660.705 390.81 660.634V660.634ZM390.81 155.998C259.271 155.998 152.256 263.013 152.256 394.552C152.256 526.091 259.271 633.106 390.81 633.106C522.349 633.106 629.364 526.091 629.364 394.552C629.364 263.013 522.349 155.998 390.81 155.998V155.998Z" fill="#001F30"/>
<path style="mix-blend-mode:screen" d="M406.987 144.777C408.863 135.831 403.131 127.059 394.185 125.183C385.239 123.308 376.467 129.039 374.591 137.985C372.716 146.931 378.447 155.704 387.393 157.579C396.339 159.455 405.112 153.723 406.987 144.777Z" fill="url(#paint1_radial_3191_277752)"/>
<path d="M390.808 152.424C396.031 152.424 400.265 147.862 400.265 142.235C400.265 136.608 396.031 132.047 390.808 132.047C385.586 132.047 381.352 136.608 381.352 142.235C381.352 147.862 385.586 152.424 390.808 152.424Z" fill="#333333"/>
<path d="M390.808 150.96C396.031 150.96 400.265 146.727 400.265 141.504C400.265 136.281 396.031 132.047 390.808 132.047C385.586 132.047 381.352 136.281 381.352 141.504C381.352 146.727 385.586 150.96 390.808 150.96Z" fill="white"/>
<path d="M390.808 149.16C394.508 149.16 397.507 145.947 397.507 141.982C397.507 138.018 394.508 134.805 390.808 134.805C387.109 134.805 384.109 138.018 384.109 141.982C384.109 145.947 387.109 149.16 390.808 149.16Z" fill="#333333"/>
<path d="M390.808 148.203C394.508 148.203 397.507 145.203 397.507 141.504C397.507 137.804 394.508 134.805 390.808 134.805C387.109 134.805 384.109 137.804 384.109 141.504C384.109 145.203 387.109 148.203 390.808 148.203Z" fill="#F0EA8F"/>
<path d="M394.562 141.345C395.001 139.278 393.68 137.247 391.613 136.808C389.546 136.369 387.514 137.689 387.076 139.757C386.637 141.824 387.957 143.856 390.024 144.294C392.092 144.733 394.123 143.413 394.562 141.345Z" fill="white"/>
<path style="mix-blend-mode:screen" d="M517.277 191.829C526.417 191.829 533.827 184.419 533.827 175.279C533.827 166.138 526.417 158.729 517.277 158.729C508.136 158.729 500.727 166.138 500.727 175.279C500.727 184.419 508.136 191.829 517.277 191.829Z" fill="url(#paint2_radial_3191_277752)"/>
<path d="M517.277 186.31C522.5 186.31 526.734 181.749 526.734 176.122C526.734 170.495 522.5 165.934 517.277 165.934C512.054 165.934 507.82 170.495 507.82 176.122C507.82 181.749 512.054 186.31 517.277 186.31Z" fill="#333333"/>
<path d="M517.277 184.847C522.5 184.847 526.734 180.613 526.734 175.39C526.734 170.168 522.5 165.934 517.277 165.934C512.054 165.934 507.82 170.168 507.82 175.39C507.82 180.613 512.054 184.847 517.277 184.847Z" fill="white"/>
<path d="M517.277 183.047C520.977 183.047 523.976 179.833 523.976 175.869C523.976 171.905 520.977 168.691 517.277 168.691C513.577 168.691 510.578 171.905 510.578 175.869C510.578 179.833 513.577 183.047 517.277 183.047Z" fill="#333333"/>
<path d="M517.277 182.089C520.977 182.089 523.976 179.09 523.976 175.39C523.976 171.691 520.977 168.691 517.277 168.691C513.577 168.691 510.578 171.691 510.578 175.39C510.578 179.09 513.577 182.089 517.277 182.089Z" fill="#F0EA8F"/>
<path d="M519.985 177.141C521.479 175.647 521.479 173.224 519.985 171.73C518.49 170.235 516.067 170.235 514.573 171.73C513.079 173.224 513.079 175.647 514.573 177.141C516.067 178.636 518.49 178.636 519.985 177.141Z" fill="white"/>
<path style="mix-blend-mode:screen" d="M609.855 284.409C618.995 284.409 626.405 276.999 626.405 267.859C626.405 258.718 618.995 251.309 609.855 251.309C600.714 251.309 593.305 258.718 593.305 267.859C593.305 276.999 600.714 284.409 609.855 284.409Z" fill="url(#paint3_radial_3191_277752)"/>
<path d="M609.863 278.892C615.086 278.892 619.32 274.331 619.32 268.704C619.32 263.077 615.086 258.516 609.863 258.516C604.64 258.516 600.406 263.077 600.406 268.704C600.406 274.331 604.64 278.892 609.863 278.892Z" fill="#333333"/>
<path d="M609.863 277.427C615.086 277.427 619.32 273.193 619.32 267.97C619.32 262.748 615.086 258.514 609.863 258.514C604.64 258.514 600.406 262.748 600.406 267.97C600.406 273.193 604.64 277.427 609.863 277.427Z" fill="white"/>
<path d="M609.855 275.627C613.555 275.627 616.554 272.413 616.554 268.449C616.554 264.485 613.555 261.271 609.855 261.271C606.155 261.271 603.156 264.485 603.156 268.449C603.156 272.413 606.155 275.627 609.855 275.627Z" fill="#333333"/>
<path d="M609.855 274.669C613.555 274.669 616.554 271.67 616.554 267.97C616.554 264.271 613.555 261.271 609.855 261.271C606.155 261.271 603.156 264.271 603.156 267.97C603.156 271.67 606.155 274.669 609.855 274.669Z" fill="#F0EA8F"/>
<path d="M612.563 269.721C614.057 268.227 614.057 265.804 612.563 264.31C611.068 262.816 608.645 262.815 607.151 264.31C605.657 265.804 605.657 268.227 607.151 269.721C608.645 271.216 611.068 271.216 612.563 269.721Z" fill="white"/>
<path style="mix-blend-mode:screen" d="M643.746 410.878C652.886 410.878 660.296 403.468 660.296 394.328C660.296 385.187 652.886 377.777 643.746 377.777C634.605 377.777 627.195 385.187 627.195 394.328C627.195 403.468 634.605 410.878 643.746 410.878Z" fill="url(#paint4_radial_3191_277752)"/>
<path d="M643.746 405.359C648.969 405.359 653.203 400.798 653.203 395.171C653.203 389.544 648.969 384.982 643.746 384.982C638.523 384.982 634.289 389.544 634.289 395.171C634.289 400.798 638.523 405.359 643.746 405.359Z" fill="#333333"/>
<path d="M650.428 401.124C654.121 397.431 654.121 391.444 650.428 387.751C646.735 384.057 640.747 384.057 637.054 387.751C633.361 391.444 633.361 397.431 637.054 401.124C640.747 404.818 646.735 404.818 650.428 401.124Z" fill="white"/>
<path d="M643.746 402.096C647.446 402.096 650.445 398.882 650.445 394.918C650.445 390.954 647.446 387.74 643.746 387.74C640.046 387.74 637.047 390.954 637.047 394.918C637.047 398.882 640.046 402.096 643.746 402.096Z" fill="#333333"/>
<path d="M648.476 399.174C651.092 396.558 651.092 392.317 648.476 389.701C645.86 387.084 641.619 387.084 639.003 389.701C636.386 392.317 636.386 396.558 639.003 399.174C641.619 401.791 645.86 401.791 648.476 399.174Z" fill="#F0EA8F"/>
<path d="M643.748 397.309C645.862 397.309 647.575 395.596 647.575 393.483C647.575 391.369 645.862 389.656 643.748 389.656C641.635 389.656 639.922 391.369 639.922 393.483C639.922 395.596 641.635 397.309 643.748 397.309Z" fill="white"/>
<path style="mix-blend-mode:screen" d="M609.855 537.343C618.995 537.343 626.405 529.933 626.405 520.792C626.405 511.652 618.995 504.242 609.855 504.242C600.714 504.242 593.305 511.652 593.305 520.792C593.305 529.933 600.714 537.343 609.855 537.343Z" fill="url(#paint5_radial_3191_277752)"/>
<path d="M609.863 531.822C615.086 531.822 619.32 527.261 619.32 521.634C619.32 516.007 615.086 511.445 609.863 511.445C604.64 511.445 600.406 516.007 600.406 521.634C600.406 527.261 604.64 531.822 609.863 531.822Z" fill="#333333"/>
<path d="M609.863 530.359C615.086 530.359 619.32 526.125 619.32 520.902C619.32 515.679 615.086 511.445 609.863 511.445C604.64 511.445 600.406 515.679 600.406 520.902C600.406 526.125 604.64 530.359 609.863 530.359Z" fill="white"/>
<path d="M609.855 528.559C613.555 528.559 616.554 525.345 616.554 521.381C616.554 517.417 613.555 514.203 609.855 514.203C606.155 514.203 603.156 517.417 603.156 521.381C603.156 525.345 606.155 528.559 609.855 528.559Z" fill="#333333"/>
<path d="M609.855 527.601C613.555 527.601 616.554 524.602 616.554 520.902C616.554 517.202 613.555 514.203 609.855 514.203C606.155 514.203 603.156 517.202 603.156 520.902C603.156 524.602 606.155 527.601 609.855 527.601Z" fill="#F0EA8F"/>
<path d="M609.858 523.772C611.971 523.772 613.684 522.059 613.684 519.946C613.684 517.832 611.971 516.119 609.858 516.119C607.744 516.119 606.031 517.832 606.031 519.946C606.031 522.059 607.744 523.772 609.858 523.772Z" fill="white"/>
<path style="mix-blend-mode:screen" d="M517.277 629.921C526.417 629.921 533.827 622.511 533.827 613.371C533.827 604.23 526.417 596.82 517.277 596.82C508.136 596.82 500.727 604.23 500.727 613.371C500.727 622.511 508.136 629.921 517.277 629.921Z" fill="url(#paint6_radial_3191_277752)"/>
<path d="M517.277 624.404C522.5 624.404 526.734 619.843 526.734 614.216C526.734 608.589 522.5 604.027 517.277 604.027C512.054 604.027 507.82 608.589 507.82 614.216C507.82 619.843 512.054 624.404 517.277 624.404Z" fill="#333333"/>
<path d="M517.277 622.941C522.5 622.941 526.734 618.707 526.734 613.484C526.734 608.261 522.5 604.027 517.277 604.027C512.054 604.027 507.82 608.261 507.82 613.484C507.82 618.707 512.054 622.941 517.277 622.941Z" fill="white"/>
<path d="M517.277 621.139C520.977 621.139 523.976 617.925 523.976 613.961C523.976 609.997 520.977 606.783 517.277 606.783C513.577 606.783 510.578 609.997 510.578 613.961C510.578 617.925 513.577 621.139 517.277 621.139Z" fill="#333333"/>
<path d="M517.277 620.183C520.977 620.183 523.976 617.184 523.976 613.484C523.976 609.784 520.977 606.785 517.277 606.785C513.577 606.785 510.578 609.784 510.578 613.484C510.578 617.184 513.577 620.183 517.277 620.183Z" fill="#F0EA8F"/>
<path d="M517.28 616.354C519.393 616.354 521.106 614.641 521.106 612.528C521.106 610.414 519.393 608.701 517.28 608.701C515.166 608.701 513.453 610.414 513.453 612.528C513.453 614.641 515.166 616.354 517.28 616.354Z" fill="white"/>
<path style="mix-blend-mode:screen" d="M402.515 658.959C408.978 652.495 408.978 642.016 402.515 635.553C396.051 629.09 385.572 629.09 379.109 635.553C372.646 642.016 372.646 652.495 379.109 658.959C385.572 665.422 396.051 665.422 402.515 658.959Z" fill="url(#paint7_radial_3191_277752)"/>
<path d="M390.808 658.291C396.031 658.291 400.265 653.729 400.265 648.102C400.265 642.476 396.031 637.914 390.808 637.914C385.586 637.914 381.352 642.476 381.352 648.102C381.352 653.729 385.586 658.291 390.808 658.291Z" fill="#333333"/>
<path d="M390.808 656.828C396.031 656.828 400.265 652.594 400.265 647.371C400.265 642.148 396.031 637.914 390.808 637.914C385.586 637.914 381.352 642.148 381.352 647.371C381.352 652.594 385.586 656.828 390.808 656.828Z" fill="white"/>
<path d="M390.808 655.027C394.508 655.027 397.507 651.814 397.507 647.85C397.507 643.885 394.508 640.672 390.808 640.672C387.109 640.672 384.109 643.885 384.109 647.85C384.109 651.814 387.109 655.027 390.808 655.027Z" fill="#333333"/>
<path d="M390.808 654.07C394.508 654.07 397.507 651.071 397.507 647.371C397.507 643.671 394.508 640.672 390.808 640.672C387.109 640.672 384.109 643.671 384.109 647.371C384.109 651.071 387.109 654.07 390.808 654.07Z" fill="#F0EA8F"/>
<path d="M394.562 647.232C395.001 645.165 393.68 643.133 391.613 642.695C389.546 642.256 387.514 643.576 387.076 645.644C386.637 647.711 387.957 649.742 390.024 650.181C392.092 650.62 394.123 649.299 394.562 647.232Z" fill="white"/>
<path style="mix-blend-mode:screen" d="M264.347 629.919C273.488 629.919 280.897 622.509 280.897 613.369C280.897 604.228 273.488 596.818 264.347 596.818C255.207 596.818 247.797 604.228 247.797 613.369C247.797 622.509 255.207 629.919 264.347 629.919Z" fill="url(#paint8_radial_3191_277752)"/>
<path d="M264.347 624.404C269.57 624.404 273.804 619.843 273.804 614.216C273.804 608.589 269.57 604.027 264.347 604.027C259.125 604.027 254.891 608.589 254.891 614.216C254.891 619.843 259.125 624.404 264.347 624.404Z" fill="#333333"/>
<path d="M264.347 622.941C269.57 622.941 273.804 618.707 273.804 613.484C273.804 608.261 269.57 604.027 264.347 604.027C259.125 604.027 254.891 608.261 254.891 613.484C254.891 618.707 259.125 622.941 264.347 622.941Z" fill="white"/>
<path d="M264.347 621.137C268.047 621.137 271.046 617.923 271.046 613.959C271.046 609.995 268.047 606.781 264.347 606.781C260.648 606.781 257.648 609.995 257.648 613.959C257.648 617.923 260.648 621.137 264.347 621.137Z" fill="#333333"/>
<path d="M264.347 620.183C268.047 620.183 271.046 617.184 271.046 613.484C271.046 609.784 268.047 606.785 264.347 606.785C260.648 606.785 257.648 609.784 257.648 613.484C257.648 617.184 260.648 620.183 264.347 620.183Z" fill="#F0EA8F"/>
<path d="M264.35 616.352C266.463 616.352 268.177 614.639 268.177 612.526C268.177 610.412 266.463 608.699 264.35 608.699C262.237 608.699 260.523 610.412 260.523 612.526C260.523 614.639 262.237 616.352 264.35 616.352Z" fill="white"/>
<path style="mix-blend-mode:screen" d="M171.769 537.343C180.909 537.343 188.319 529.933 188.319 520.792C188.319 511.652 180.909 504.242 171.769 504.242C162.629 504.242 155.219 511.652 155.219 520.792C155.219 529.933 162.629 537.343 171.769 537.343Z" fill="url(#paint9_radial_3191_277752)"/>
<path d="M171.761 531.822C176.984 531.822 181.218 527.261 181.218 521.634C181.218 516.007 176.984 511.445 171.761 511.445C166.539 511.445 162.305 516.007 162.305 521.634C162.305 527.261 166.539 531.822 171.761 531.822Z" fill="#333333"/>
<path d="M171.761 530.359C176.984 530.359 181.218 526.125 181.218 520.902C181.218 515.679 176.984 511.445 171.761 511.445C166.539 511.445 162.305 515.679 162.305 520.902C162.305 526.125 166.539 530.359 171.761 530.359Z" fill="white"/>
<path d="M171.761 528.559C175.461 528.559 178.46 525.345 178.46 521.381C178.46 517.417 175.461 514.203 171.761 514.203C168.062 514.203 165.062 517.417 165.062 521.381C165.062 525.345 168.062 528.559 171.761 528.559Z" fill="#333333"/>
<path d="M171.761 527.601C175.461 527.601 178.46 524.602 178.46 520.902C178.46 517.202 175.461 514.203 171.761 514.203C168.062 514.203 165.062 517.202 165.062 520.902C165.062 524.602 168.062 527.601 171.761 527.601Z" fill="#F0EA8F"/>
<path d="M171.764 523.772C173.877 523.772 175.591 522.059 175.591 519.946C175.591 517.832 173.877 516.119 171.764 516.119C169.651 516.119 167.938 517.832 167.938 519.946C167.938 522.059 169.651 523.772 171.764 523.772Z" fill="white"/>
<path style="mix-blend-mode:screen" d="M137.878 410.878C147.019 410.878 154.429 403.468 154.429 394.328C154.429 385.187 147.019 377.777 137.878 377.777C128.738 377.777 121.328 385.187 121.328 394.328C121.328 403.468 128.738 410.878 137.878 410.878Z" fill="url(#paint10_radial_3191_277752)"/>
<path d="M137.879 405.359C143.102 405.359 147.335 400.798 147.335 395.171C147.335 389.544 143.102 384.982 137.879 384.982C132.656 384.982 128.422 389.544 128.422 395.171C128.422 400.798 132.656 405.359 137.879 405.359Z" fill="#333333"/>
<path d="M147.09 396.574C148.275 391.487 145.113 386.402 140.027 385.217C134.94 384.031 129.856 387.194 128.67 392.28C127.485 397.367 130.647 402.451 135.733 403.637C140.82 404.822 145.904 401.66 147.09 396.574Z" fill="white"/>
<path d="M137.879 402.096C141.578 402.096 144.578 398.882 144.578 394.918C144.578 390.954 141.578 387.74 137.879 387.74C134.179 387.74 131.18 390.954 131.18 394.918C131.18 398.882 134.179 402.096 137.879 402.096Z" fill="#333333"/>
<path d="M144.4 395.975C145.243 392.373 143.006 388.769 139.404 387.926C135.801 387.083 132.197 389.32 131.354 392.923C130.511 396.525 132.748 400.129 136.351 400.972C139.953 401.815 143.557 399.578 144.4 395.975Z" fill="#F0EA8F"/>
<path d="M137.881 397.309C139.995 397.309 141.708 395.596 141.708 393.483C141.708 391.369 139.995 389.656 137.881 389.656C135.768 389.656 134.055 391.369 134.055 393.483C134.055 395.596 135.768 397.309 137.881 397.309Z" fill="white"/>
<path style="mix-blend-mode:screen" d="M171.769 284.409C180.909 284.409 188.319 276.999 188.319 267.859C188.319 258.718 180.909 251.309 171.769 251.309C162.629 251.309 155.219 258.718 155.219 267.859C155.219 276.999 162.629 284.409 171.769 284.409Z" fill="url(#paint11_radial_3191_277752)"/>
<path d="M171.761 278.892C176.984 278.892 181.218 274.331 181.218 268.704C181.218 263.077 176.984 258.516 171.761 258.516C166.539 258.516 162.305 263.077 162.305 268.704C162.305 274.331 166.539 278.892 171.761 278.892Z" fill="#333333"/>
<path d="M171.761 277.427C176.984 277.427 181.218 273.193 181.218 267.97C181.218 262.748 176.984 258.514 171.761 258.514C166.539 258.514 162.305 262.748 162.305 267.97C162.305 273.193 166.539 277.427 171.761 277.427Z" fill="white"/>
<path d="M171.761 275.627C175.461 275.627 178.46 272.413 178.46 268.449C178.46 264.485 175.461 261.271 171.761 261.271C168.062 261.271 165.062 264.485 165.062 268.449C165.062 272.413 168.062 275.627 171.761 275.627Z" fill="#333333"/>
<path d="M171.761 274.669C175.461 274.669 178.46 271.67 178.46 267.97C178.46 264.271 175.461 261.271 171.761 261.271C168.062 261.271 165.062 264.271 165.062 267.97C165.062 271.67 168.062 274.669 171.761 274.669Z" fill="#F0EA8F"/>
<path d="M175.461 267.996C176.008 265.954 174.796 263.856 172.755 263.309C170.714 262.762 168.615 263.973 168.069 266.015C167.522 268.056 168.733 270.154 170.774 270.701C172.816 271.248 174.914 270.037 175.461 267.996Z" fill="white"/>
<path style="mix-blend-mode:screen" d="M264.347 191.829C273.488 191.829 280.897 184.419 280.897 175.279C280.897 166.138 273.488 158.729 264.347 158.729C255.207 158.729 247.797 166.138 247.797 175.279C247.797 184.419 255.207 191.829 264.347 191.829Z" fill="url(#paint12_radial_3191_277752)"/>
<path d="M264.347 186.31C269.57 186.31 273.804 181.749 273.804 176.122C273.804 170.495 269.57 165.934 264.347 165.934C259.125 165.934 254.891 170.495 254.891 176.122C254.891 181.749 259.125 186.31 264.347 186.31Z" fill="#333333"/>
<path d="M264.347 184.847C269.57 184.847 273.804 180.613 273.804 175.39C273.804 170.168 269.57 165.934 264.347 165.934C259.125 165.934 254.891 170.168 254.891 175.39C254.891 180.613 259.125 184.847 264.347 184.847Z" fill="white"/>
<path d="M264.347 183.047C268.047 183.047 271.046 179.833 271.046 175.869C271.046 171.905 268.047 168.691 264.347 168.691C260.648 168.691 257.648 171.905 257.648 175.869C257.648 179.833 260.648 183.047 264.347 183.047Z" fill="#333333"/>
<path d="M264.347 182.089C268.047 182.089 271.046 179.09 271.046 175.39C271.046 171.691 268.047 168.691 264.347 168.691C260.648 168.691 257.648 171.691 257.648 175.39C257.648 179.09 260.648 182.089 264.347 182.089Z" fill="#F0EA8F"/>
<path d="M268.072 175.321C268.56 173.265 267.289 171.203 265.232 170.715C263.176 170.227 261.114 171.498 260.626 173.554C260.138 175.61 261.409 177.673 263.465 178.161C265.522 178.649 267.584 177.378 268.072 175.321Z" fill="white"/>
<defs>
<filter id="filter0_d_3191_277752" x="89.5236" y="96.3908" width="602.593" height="602.574" filterUnits="userSpaceOnUse" color-interpolation-filters="sRGB">
<feFlood flood-opacity="0" result="BackgroundImageFix"/>
<feColorMatrix in="SourceAlpha" type="matrix" values="0 0 0 0 0 0 0 0 0 0 0 0 0 0 0 0 0 0 127 0" result="hardAlpha"/>
<feOffset dy="3.12498"/>
<feGaussianBlur stdDeviation="14.0624"/>
<feComposite in2="hardAlpha" operator="out"/>
<feColorMatrix type="matrix" values="0 0 0 0 0 0 0 0 0 0 0 0 0 0 0 0 0 0 0.25 0"/>
<feBlend mode="normal" in2="BackgroundImageFix" result="effect1_dropShadow_3191_277752"/>
<feBlend mode="normal" in="SourceGraphic" in2="effect1_dropShadow_3191_277752" result="shape"/>
</filter>
<radialGradient id="paint0_radial_3191_277752" cx="0" cy="0" r="1" gradientUnits="userSpaceOnUse" gradientTransform="translate(390.812 394.552) scale(238.554)">
<stop stop-color="white"/>
<stop offset="0.63" stop-color="white"/>
<stop offset="0.73" stop-color="white"/>
<stop offset="0.83" stop-color="#FDFDFD"/>
<stop offset="0.87" stop-color="#F6F6F6"/>
<stop offset="0.89" stop-color="#EBEBEB"/>
<stop offset="0.91" stop-color="#DADADA"/>
<stop offset="0.93" stop-color="#C4C4C4"/>
<stop offset="0.95" stop-color="#A8A8A8"/>
<stop offset="0.96" stop-color="#888888"/>
<stop offset="0.97" stop-color="#626262"/>
<stop offset="0.99" stop-color="#373737"/>
<stop offset="1"/>
</radialGradient>
<radialGradient id="paint1_radial_3191_277752" cx="0" cy="0" r="1" gradientUnits="userSpaceOnUse" gradientTransform="translate(390.787 141.401) scale(16.5503 16.5503)">
<stop stop-color="#FCEE21"/>
<stop offset="1"/>
</radialGradient>
<radialGradient id="paint2_radial_3191_277752" cx="0" cy="0" r="1" gradientUnits="userSpaceOnUse" gradientTransform="translate(517.28 175.275) scale(16.5502 16.5503)">
<stop stop-color="#FCEE21"/>
<stop offset="1"/>
</radialGradient>
<radialGradient id="paint3_radial_3191_277752" cx="0" cy="0" r="1" gradientUnits="userSpaceOnUse" gradientTransform="translate(609.855 267.859) scale(16.5503 16.5503)">
<stop stop-color="#FCEE21"/>
<stop offset="1"/>
</radialGradient>
<radialGradient id="paint4_radial_3191_277752" cx="0" cy="0" r="1" gradientUnits="userSpaceOnUse" gradientTransform="translate(643.746 394.324) scale(16.5502 16.5503)">
<stop stop-color="#FCEE21"/>
<stop offset="1"/>
</radialGradient>
<radialGradient id="paint5_radial_3191_277752" cx="0" cy="0" r="1" gradientUnits="userSpaceOnUse" gradientTransform="translate(609.855 520.792) scale(16.5503)">
<stop stop-color="#FCEE21"/>
<stop offset="1"/>
</radialGradient>
<radialGradient id="paint6_radial_3191_277752" cx="0" cy="0" r="1" gradientUnits="userSpaceOnUse" gradientTransform="translate(517.28 613.371) scale(16.5502 16.5503)">
<stop stop-color="#FCEE21"/>
<stop offset="1"/>
</radialGradient>
<radialGradient id="paint7_radial_3191_277752" cx="0" cy="0" r="1" gradientUnits="userSpaceOnUse" gradientTransform="translate(390.814 647.257) scale(16.5503)">
<stop stop-color="#FCEE21"/>
<stop offset="1"/>
</radialGradient>
<radialGradient id="paint8_radial_3191_277752" cx="0" cy="0" r="1" gradientUnits="userSpaceOnUse" gradientTransform="translate(264.347 613.369) scale(16.5503 16.5503)">
<stop stop-color="#FCEE21"/>
<stop offset="1"/>
</radialGradient>
<radialGradient id="paint9_radial_3191_277752" cx="0" cy="0" r="1" gradientUnits="userSpaceOnUse" gradientTransform="translate(171.772 520.792) scale(16.5503 16.5503)">
<stop stop-color="#FCEE21"/>
<stop offset="1"/>
</radialGradient>
<radialGradient id="paint10_radial_3191_277752" cx="0" cy="0" r="1" gradientUnits="userSpaceOnUse" gradientTransform="translate(137.878 394.324) scale(16.5503 16.5503)">
<stop stop-color="#FCEE21"/>
<stop offset="1"/>
</radialGradient>
<radialGradient id="paint11_radial_3191_277752" cx="0" cy="0" r="1" gradientUnits="userSpaceOnUse" gradientTransform="translate(171.772 267.859) scale(16.5503)">
<stop stop-color="#FCEE21"/>
<stop offset="1"/>
</radialGradient>
<radialGradient id="paint12_radial_3191_277752" cx="0" cy="0" r="1" gradientUnits="userSpaceOnUse" gradientTransform="translate(264.347 175.275) scale(16.5503 16.5503)">
<stop stop-color="#FCEE21"/>
<stop offset="1"/>
</radialGradient>
<clipPath id="clip0_3191_277752">
<rect width="32" height="32" fill="white" transform="translate(545.25 457.527) rotate(117)"/>
</clipPath>
<clipPath id="clip1_3191_277752">
<rect width="32" height="32" fill="white" transform="translate(413.281 558.049) rotate(177)"/>
</clipPath>
<clipPath id="clip2_3191_277752">
<rect width="32" height="32" fill="white" transform="translate(260.242 494.021) rotate(-123)"/>
</clipPath>
<clipPath id="clip3_3191_277752">
<rect width="32" height="32" fill="white" transform="translate(239.164 329.473) rotate(-63)"/>
</clipPath>
<clipPath id="clip4_3191_277752">
<rect width="32" height="32" fill="white" transform="translate(371.133 228.951) rotate(-3)"/>
</clipPath>
<clipPath id="clip5_3191_277752">
<rect width="32" height="32" fill="white" transform="translate(524.172 292.979) rotate(57)"/>
</clipPath>
</defs>
</svg>