<svg width="41" height="40" viewBox="0 0 41 40" fill="none" xmlns="http://www.w3.org/2000/svg">
<path d="M0.5 10C0.5 4.47715 4.97715 0 10.5 0H38.5C39.6046 0 40.5 0.895431 40.5 2V30C40.5 35.5228 36.0228 40 30.5 40H2.5C1.39543 40 0.5 39.1046 0.5 38V10Z" fill="#4B6D74"/>
<path d="M18.8607 22.2489C18.7472 22.3358 18.6673 22.4592 18.6345 22.5983C18.5033 23.122 18.5783 23.6832 18.919 24.0684C19.2121 24.3998 19.6341 24.5294 20.0743 24.5661C20.1412 24.5892 20.2117 24.6007 20.2825 24.6H20.2838H21.7563C21.8263 24.6004 21.8959 24.5889 21.9621 24.5661C22.4037 24.53 22.8271 24.4007 23.121 24.0684C23.4617 23.6832 23.5374 23.123 23.4068 22.5995C23.3669 22.4399 23.2653 22.3027 23.1243 22.2179M21.02 6C14.8985 6 11.45 10.1208 11.45 10.1208C11.3731 10.2134 11.3248 10.3264 11.3111 10.4459C11.2973 10.5655 11.3187 10.6865 11.3725 10.7941L12.0675 12.1867L10.7779 11.8634C10.6445 11.8301 10.5038 11.8422 10.3779 11.8976C10.2521 11.9531 10.1483 12.0488 10.0828 12.1697L10.0816 12.1709C10.0771 12.1789 10.0713 12.1895 10.0634 12.2036C10.047 12.2332 10.0237 12.2758 9.99441 12.3308C9.93575 12.4408 9.85278 12.6 9.75465 12.8043C9.55839 13.2127 9.29963 13.8006 9.0402 14.5274C8.52133 15.981 8 17.9944 8 20.26C8 24.7912 10.0913 28.366 10.0913 28.366C10.1589 28.4821 10.2624 28.5732 10.3863 28.6254C10.5101 28.6776 10.6475 28.6881 10.7779 28.6554L12.0687 28.3321L11.3725 29.7247C11.3184 29.8325 11.2969 29.9537 11.3107 30.0735C11.3245 30.1933 11.3729 30.3065 11.45 30.3992C11.45 30.3992 14.8985 34.5188 21.02 34.5188C27.1415 34.5188 30.59 30.3992 30.59 30.3992C30.6671 30.3065 30.7155 30.1933 30.7293 30.0735C30.7431 29.9537 30.7216 29.8325 30.6675 29.7247L29.9713 28.3321L31.2621 28.6554C31.3925 28.6881 31.5299 28.6776 31.6537 28.6254C31.7776 28.5732 31.8811 28.4821 31.9487 28.366C31.9487 28.366 34.04 24.7912 34.04 20.26C34.04 15.7288 31.9487 12.154 31.9487 12.154C31.8811 12.0379 31.7776 11.9468 31.6537 11.8946C31.5299 11.8424 31.3925 11.8319 31.2621 11.8646L29.9713 12.1879L30.6675 10.7953C30.711 10.7093 30.7338 10.6144 30.7341 10.518C30.7341 10.518 30.5839 10.1137 30.5755 10.1039C30.5671 10.094 30.5551 10.0806 30.5404 10.0639C30.511 10.0306 30.4692 9.98409 30.4145 9.92586C30.305 9.8094 30.1445 9.64709 29.9349 9.45359C29.5158 9.06661 28.8994 8.55488 28.0907 8.04406C26.4733 7.02244 24.0808 6 21.02 6ZM16.68 16.54C15.7565 16.54 15.0099 16.7532 14.464 17.137C13.9181 17.5208 13.58 18.1021 13.58 18.71C13.58 19.3179 13.9181 19.8992 14.464 20.283C15.0099 20.6668 15.7565 20.88 16.68 20.88C17.6035 20.88 18.3501 20.6668 18.896 20.283C19.4419 19.8992 19.78 19.3179 19.78 18.71C19.78 18.1021 19.4419 17.5208 18.896 17.137C18.3501 16.7532 17.6035 16.54 16.68 16.54ZM25.36 16.54C24.4365 16.54 23.6899 16.7532 23.144 17.137C22.5981 17.5208 22.26 18.1021 22.26 18.71C22.26 19.3179 22.5981 19.8992 23.144 20.283C23.6899 20.6668 24.4365 20.88 25.36 20.88C26.2835 20.88 27.0301 20.6668 27.576 20.283C28.1219 19.8992 28.46 19.3179 28.46 18.71C28.46 18.1021 28.1219 17.5208 27.576 17.137C27.0301 16.7532 26.2835 16.54 25.36 16.54ZM21.02 25.84C20.2655 25.84 19.4476 25.9599 18.7604 26.1887C18.4168 26.3032 18.1053 26.4408 17.8364 26.6453C17.5676 26.8497 17.3 27.1745 17.3 27.6068C17.3 28.039 17.5495 28.3538 17.8086 28.5755C18.0677 28.7972 18.3775 28.9623 18.7216 29.1035C19.4099 29.3857 20.2374 29.56 21.02 29.56C21.8026 29.56 22.6301 29.3857 23.3184 29.1035C23.6625 28.9623 23.9723 28.7972 24.2314 28.5755C24.4905 28.3538 24.74 28.039 24.74 27.6068C24.74 27.1745 24.4724 26.8497 24.2036 26.6453C23.9347 26.4408 23.6232 26.3032 23.2796 26.1887C22.5924 25.9599 21.7745 25.84 21.02 25.84Z" stroke="white" stroke-width="0.5"/>
</svg>
