<svg width="41" height="40" viewBox="0 0 41 40" fill="none" xmlns="http://www.w3.org/2000/svg">
<path d="M0.5 10C0.5 4.47715 4.97715 0 10.5 0H38.5C39.6046 0 40.5 0.895431 40.5 2V30C40.5 35.5228 36.0228 40 30.5 40H2.5C1.39543 40 0.5 39.1046 0.5 38V10Z" fill="#4B6D74"/>
<path d="M17 5C12.8289 5 9.4352 8.46768 9.4352 12.7297C9.4352 13.8058 9.65273 14.8302 10.0432 15.7619H7.72811C7.67085 15.5302 7.61797 15.2971 7.57809 15.0582C7.55074 14.8958 7.39762 14.7893 7.24167 14.8155C7.08339 14.8434 6.97737 14.9963 7.00413 15.158C7.79424 19.8918 11.8524 23.3446 16.7091 23.4789V26.4054H12.3447C12.1841 26.4054 12.0538 26.5386 12.0538 26.7027C12.0538 26.8668 12.1841 27 12.3447 27H21.6553C21.8159 27 21.9462 26.8668 21.9462 26.7027C21.9462 26.5386 21.8159 26.4054 21.6553 26.4054H17.291V23.4789C22.1477 23.3446 26.2064 19.8924 26.9959 15.158C27.0227 14.9963 26.9155 14.8428 26.7572 14.8155C26.6036 14.7899 26.4493 14.8964 26.4219 15.0582C26.3821 15.2971 26.328 15.5302 26.2708 15.7619H23.9568C24.3473 14.8302 24.5648 13.8058 24.5648 12.7297C24.5648 8.46768 21.1711 5 17 5ZM17 5.59459C20.8505 5.59459 23.9829 8.7953 23.9829 12.7297C23.9829 16.6642 20.8505 19.8649 17 19.8649C13.1495 19.8649 10.0171 16.6642 10.0171 12.7297C10.0171 8.7953 13.1495 5.59459 17 5.59459ZM7.90086 16.3565H10.324C11.5979 18.795 14.1113 20.4595 17 20.4595C19.8888 20.4595 22.4021 18.795 23.6761 16.3565H26.0992C24.869 20.213 21.2387 22.8971 17 22.8971C12.7614 22.8971 9.13154 20.2129 7.90086 16.3565Z" fill="white"/>
<rect x="19" y="18" width="16" height="16" fill="#4B6D74"/>
<path d="M21.1667 18C21.0379 18 20.9333 18.1054 20.9333 18.2353V20.8235H20.2333C20.1045 20.8235 20 20.9289 20 21.0588C20 21.1887 20.1045 21.2941 20.2333 21.2941H20.9333V24.1176H20.2333C20.1045 24.1176 20 24.2231 20 24.3529C20 24.4828 20.1045 24.5882 20.2333 24.5882H20.9333V27.4118H20.2333C20.1045 27.4118 20 27.5172 20 27.6471C20 27.7769 20.1045 27.8824 20.2333 27.8824H20.9333V30.7059H20.2333C20.1045 30.7059 20 30.8113 20 30.9412C20 31.0711 20.1045 31.1765 20.2333 31.1765H20.9333V33.7647C20.9333 33.8946 21.0379 34 21.1667 34H32.3667C33.2673 34 34 33.2612 34 32.3529V19.6471C34 18.7388 33.2673 18 32.3667 18H21.1667ZM21.4 18.4706H32.3667C33.0102 18.4706 33.5333 18.9986 33.5333 19.6471V32.3529C33.5333 33.0014 33.0102 33.5294 32.3667 33.5294H21.4V31.1765H22.1C22.2288 31.1765 22.3333 31.0711 22.3333 30.9412C22.3333 30.8113 22.2288 30.7059 22.1 30.7059H21.4V27.8824H22.1C22.2288 27.8824 22.3333 27.7769 22.3333 27.6471C22.3333 27.5172 22.2288 27.4118 22.1 27.4118H21.4V24.5882H22.1C22.2288 24.5882 22.3333 24.4828 22.3333 24.3529C22.3333 24.2231 22.2288 24.1176 22.1 24.1176H21.4V21.2941H22.1C22.2288 21.2941 22.3333 21.1887 22.3333 21.0588C22.3333 20.9289 22.2288 20.8235 22.1 20.8235H21.4V18.4706ZM24.4333 21.2941C24.3045 21.2941 24.2 21.3995 24.2 21.5294V25.2941C24.2 25.424 24.3045 25.5294 24.4333 25.5294H30.9667C31.0955 25.5294 31.2 25.424 31.2 25.2941V21.5294C31.2 21.3995 31.0955 21.2941 30.9667 21.2941H24.4333ZM24.6667 21.7647H30.7333V25.0588H24.6667V21.7647ZM24.4333 27.8824C24.3045 27.8824 24.2 27.9878 24.2 28.1176C24.2 28.2475 24.3045 28.3529 24.4333 28.3529H30.9667C31.0955 28.3529 31.2 28.2475 31.2 28.1176C31.2 27.9878 31.0955 27.8824 30.9667 27.8824H24.4333ZM24.4333 30.2353C24.3045 30.2353 24.2 30.3407 24.2 30.4706C24.2 30.6005 24.3045 30.7059 24.4333 30.7059H28.6333C28.7621 30.7059 28.8667 30.6005 28.8667 30.4706C28.8667 30.3407 28.7621 30.2353 28.6333 30.2353H24.4333Z" fill="white"/>
</svg>
