<svg width="41" height="40" viewBox="0 0 41 40" fill="none" xmlns="http://www.w3.org/2000/svg">
<path d="M0.5 10C0.5 4.47715 4.97715 0 10.5 0H38.5C39.6046 0 40.5 0.895431 40.5 2V30C40.5 35.5228 36.0228 40 30.5 40H2.5C1.39543 40 0.5 39.1046 0.5 38V10Z" fill="#4B6D74"/>
<path d="M10.3438 5C9.60199 5 9 5.6136 9 6.36822V10.0172C9 16.827 10.5903 21.987 11.5387 24.4567C11.8138 25.1736 12.3938 25.6905 13.0963 25.8899V29.3709C13.0963 30.2688 13.8137 31 14.6962 31H19.3038C20.1863 31 20.9037 30.2695 20.9037 29.3709V25.8899C21.6062 25.6905 22.1862 25.1736 22.4612 24.4567C23.4097 21.987 25 16.827 25 10.0172V6.36822C25 5.6136 24.3974 5 23.6562 5H10.3438ZM10.3438 5.65165H23.6562C24.0447 5.65165 24.36 5.97332 24.36 6.36822V9.16957H9.64V6.36822C9.64 5.97332 9.95591 5.65165 10.3438 5.65165ZM9.64 9.82123H24.36V10.0172C24.36 16.7208 22.7981 21.7932 21.8663 24.22C21.6064 24.8951 20.9755 25.3311 20.2587 25.3311H13.7413C13.0244 25.3311 12.3929 24.8951 12.1337 24.22C11.2019 21.7932 9.64 16.7208 9.64 10.0172V9.82123ZM15.08 13.6662C14.7267 13.6662 14.44 13.9582 14.44 14.3179V16.6636C14.44 17.0233 14.7267 17.3153 15.08 17.3153H18.92C19.2733 17.3153 19.56 17.0233 19.56 16.6636V14.3179C19.56 13.9582 19.2733 13.6662 18.92 13.6662H15.08ZM13.7362 25.9828C13.7379 25.9828 13.7396 25.9828 13.7413 25.9828H20.2587C20.2604 25.9828 20.2621 25.9828 20.2638 25.9828V29.3709C20.2638 29.9098 19.833 30.3483 19.3038 30.3483H14.6962C14.167 30.3483 13.7362 29.9098 13.7362 29.3709V25.9828Z" fill="white"/>
<path d="M19 19.329C19 17.8508 20.1983 16.6525 21.6765 16.6525V14.3136H23.7353V13.1441L22.5 12.5593V11H33V34H19V19.329Z" fill="#4B6D74"/>
<path d="M22.9 12C22.7206 12 22.575 12.1369 22.575 12.3056V12.9167C22.575 13.0853 22.7206 13.2222 22.9 13.2222C23.2588 13.2222 23.55 13.496 23.55 13.8333V15.0556H22.575C22.0374 15.0556 21.6 15.4668 21.6 15.9722V17.5H20.625C19.7293 17.5 19 18.1857 19 19.0278V28.3974C19 31.0765 20.5994 32.8966 21.2864 33.5548C21.5815 33.8377 21.9993 34 22.4328 34H28.5672C29.0001 34 29.4172 33.8377 29.7123 33.5548C30.4 32.8966 32 31.0765 32 28.3974V19.0278C32 18.1857 31.2707 17.5 30.375 17.5H29.4V15.9722C29.4 15.4668 28.9625 15.0556 28.425 15.0556H27.45V13.2222C27.45 12.5469 26.8682 12 26.15 12H22.9ZM22.575 15.6667H28.425C28.6044 15.6667 28.75 15.8036 28.75 15.9722V17.5H22.25V15.9722C22.25 15.8036 22.3956 15.6667 22.575 15.6667ZM20.625 18.1111H30.375C30.9125 18.1111 31.35 18.5224 31.35 19.0278V28.3974C31.35 30.851 29.8807 32.5231 29.2489 33.1275C29.0754 33.2937 28.8272 33.3889 28.5672 33.3889H22.4328C22.1728 33.3889 21.9253 33.2931 21.7511 33.1263C21.1193 32.5219 19.65 30.851 19.65 28.3974V19.0278C19.65 18.5224 20.0874 18.1111 20.625 18.1111Z" fill="white"/>
</svg>
