<svg width="52" height="52" viewBox="0 0 52 52" fill="none" xmlns="http://www.w3.org/2000/svg">
<path d="M0 15C0 6.71573 6.71573 0 15 0H50C51.1046 0 52 0.895431 52 2V37C52 45.2843 45.2843 52 37 52H2C0.895432 52 0 51.1046 0 50V15Z" fill="#4B6D74"/>
<path d="M19.8611 13C19.8007 13 19.2097 13.6211 19.2097 13.9837C19.2097 14.3462 19.501 14.6395 19.8611 14.6395C20.2212 14.6395 20.5125 14.3462 20.5125 13.9837C20.5125 13.622 19.9304 13 19.8611 13ZM25.5 13C25.4396 13 24.8486 13.6211 24.8486 13.9837C24.8486 14.3462 25.1399 14.6395 25.5 14.6395C25.8601 14.6395 26.1514 14.3462 26.1514 13.9837C26.1514 13.622 25.5693 13 25.5 13ZM31.1389 13C31.0785 13 30.4875 13.6211 30.4875 13.9837C30.4875 14.3462 30.7788 14.6395 31.1389 14.6395C31.499 14.6395 31.7903 14.3462 31.7903 13.9837C31.7903 13.622 31.2082 13 31.1389 13ZM19.8611 14.6474C19.6388 14.6474 19.4583 14.829 19.4583 15.0529V21.1577H16.244C14.2406 21.1577 12.6111 22.8729 12.6111 24.9799C12.6111 25.9171 12.9195 26.7841 13.4167 27.4874V38.189H11.4028C11.1804 38.189 11 38.3707 11 38.5945C11 38.8183 11.1804 39 11.4028 39H39.5972C39.8196 39 40 38.8183 40 38.5945C40 38.3707 39.8196 38.189 39.5972 38.189H37.5833V27.4874C38.0805 26.7842 38.3889 25.9171 38.3889 24.9799C38.3889 22.8729 36.7594 21.1577 34.756 21.1577H31.5417V15.0545C31.5417 14.8306 31.3612 14.649 31.1389 14.649C30.9166 14.649 30.7361 14.8306 30.7361 15.0545V21.1577H25.9028V15.0545C25.9028 14.8306 25.7223 14.649 25.5 14.649C25.2777 14.649 25.0972 14.8306 25.0972 15.0545V21.1577H20.2639V15.0529C20.2639 14.829 20.0834 14.6474 19.8611 14.6474ZM16.244 21.9687H34.756C36.3156 21.9687 37.5833 23.3197 37.5833 24.9799C37.5833 26.6701 36.4124 28.118 34.9181 28.2778C33.6582 28.4124 32.4907 27.7116 31.9413 26.4926C31.876 26.3483 31.7326 26.255 31.5747 26.255C31.4168 26.255 31.2734 26.3475 31.2081 26.4926C30.7055 27.6037 29.6828 28.2952 28.5381 28.2952C27.3918 28.2952 26.3685 27.6037 25.8666 26.4926C25.8013 26.3483 25.6522 26.2772 25.5016 26.2772C25.3509 26.2772 25.2002 26.3483 25.135 26.4926C24.6331 27.6037 23.6089 28.2952 22.4634 28.2952C21.3179 28.2952 20.2961 27.6037 19.7935 26.4926C19.7266 26.3434 19.5682 26.2723 19.4127 26.2772C19.2669 26.2813 19.1231 26.3531 19.0603 26.4926C18.5101 27.7116 17.3418 28.4133 16.0835 28.2778C14.5876 28.118 13.4167 26.6701 13.4167 24.9799C13.4167 23.3197 14.6844 21.9687 16.244 21.9687ZM25.5 27.4747C26.2041 28.4836 27.333 29.1063 28.5381 29.1063C29.7626 29.1063 30.873 28.4965 31.5763 27.4779C32.3585 28.5987 33.6666 29.2301 35.0046 29.0841C35.6623 29.0135 36.2635 28.7416 36.7778 28.3412V38.189H14.2222V28.3412C14.7365 28.7417 15.3376 29.0138 15.9954 29.0841C17.3302 29.2292 18.6415 28.5995 19.4237 27.4779C20.127 28.4965 21.2382 29.1063 22.4619 29.1063C23.6662 29.1063 24.7951 28.4828 25.5 27.4747Z" fill="white"/>
</svg>
